<?xml version="1.0" encoding="UTF-8" standalone="no"?>
<!DOCTYPE svg PUBLIC "-//W3C//DTD SVG 1.1//EN"
 "http://www.w3.org/Graphics/SVG/1.1/DTD/svg11.dtd">
<!-- Generated by graphviz version 2.40.1 (20161225.0304)
 -->
<!-- Title: /home/ray/Dropbox/RPi/PPS&#45;Client/client/timepps.h Pages: 1 -->
<svg width="457pt" height="95pt"
 viewBox="0.00 0.00 456.50 95.00" xmlns="http://www.w3.org/2000/svg" xmlns:xlink="http://www.w3.org/1999/xlink">
<g id="graph0" class="graph" transform="scale(1 1) rotate(0) translate(4 91)">
<title>/home/ray/Dropbox/RPi/PPS&#45;Client/client/timepps.h</title>
<polygon fill="#ffffff" stroke="transparent" points="-4,4 -4,-91 452.5,-91 452.5,4 -4,4"/>
<!-- Node1 -->
<g id="node1" class="node">
<title>Node1</title>
<g id="a_node1"><a xlink:title=" ">
<polygon fill="#bfbfbf" stroke="#000000" points="135.5,-56.5 135.5,-86.5 275.5,-86.5 275.5,-56.5 135.5,-56.5"/>
<text text-anchor="start" x="143.5" y="-74.5" font-family="Helvetica,sans-Serif" font-size="10.00" fill="#000000">/home/ray/Dropbox/RPi</text>
<text text-anchor="middle" x="205.5" y="-63.5" font-family="Helvetica,sans-Serif" font-size="10.00" fill="#000000">/PPS&#45;Client/client/timepps.h</text>
</a>
</g>
</g>
<!-- Node2 -->
<g id="node2" class="node">
<title>Node2</title>
<g id="a_node2"><a xlink:title=" ">
<polygon fill="#ffffff" stroke="#bfbfbf" points="0,-.5 0,-19.5 47,-19.5 47,-.5 0,-.5"/>
<text text-anchor="middle" x="23.5" y="-7.5" font-family="Helvetica,sans-Serif" font-size="10.00" fill="#000000">errno.h</text>
</a>
</g>
</g>
<!-- Node1&#45;&gt;Node2 -->
<g id="edge1" class="edge">
<title>Node1&#45;&gt;Node2</title>
<path fill="none" stroke="#191970" d="M160.9778,-56.4554C128.783,-45.5764 85.9786,-31.1123 56.738,-21.2315"/>
<polygon fill="#191970" stroke="#191970" points="57.5948,-17.8267 47.0006,-17.9411 55.3539,-24.4583 57.5948,-17.8267"/>
</g>
<!-- Node3 -->
<g id="node3" class="node">
<title>Node3</title>
<g id="a_node3"><a xlink:title=" ">
<polygon fill="#ffffff" stroke="#bfbfbf" points="65,-.5 65,-19.5 116,-19.5 116,-.5 65,-.5"/>
<text text-anchor="middle" x="90.5" y="-7.5" font-family="Helvetica,sans-Serif" font-size="10.00" fill="#000000">unistd.h</text>
</a>
</g>
</g>
<!-- Node1&#45;&gt;Node3 -->
<g id="edge2" class="edge">
<title>Node1&#45;&gt;Node3</title>
<path fill="none" stroke="#191970" d="M177.3678,-56.4554C159.0214,-46.644 135.2223,-33.9167 117.1749,-24.2653"/>
<polygon fill="#191970" stroke="#191970" points="118.7897,-21.1598 108.3209,-19.5303 115.4886,-27.3326 118.7897,-21.1598"/>
</g>
<!-- Node4 -->
<g id="node4" class="node">
<title>Node4</title>
<g id="a_node4"><a xlink:title=" ">
<polygon fill="#ffffff" stroke="#bfbfbf" points="134.5,-.5 134.5,-19.5 196.5,-19.5 196.5,-.5 134.5,-.5"/>
<text text-anchor="middle" x="165.5" y="-7.5" font-family="Helvetica,sans-Serif" font-size="10.00" fill="#000000">sys/time.h</text>
</a>
</g>
</g>
<!-- Node1&#45;&gt;Node4 -->
<g id="edge3" class="edge">
<title>Node1&#45;&gt;Node4</title>
<path fill="none" stroke="#191970" d="M195.6124,-56.2977C190.1178,-47.8498 183.2414,-37.2773 177.4473,-28.369"/>
<polygon fill="#191970" stroke="#191970" points="180.2908,-26.3215 171.9045,-19.8469 174.4228,-30.1381 180.2908,-26.3215"/>
</g>
<!-- Node5 -->
<g id="node5" class="node">
<title>Node5</title>
<g id="a_node5"><a xlink:title=" ">
<polygon fill="#ffffff" stroke="#bfbfbf" points="214.5,-.5 214.5,-19.5 276.5,-19.5 276.5,-.5 214.5,-.5"/>
<text text-anchor="middle" x="245.5" y="-7.5" font-family="Helvetica,sans-Serif" font-size="10.00" fill="#000000">sys/ioctl.h</text>
</a>
</g>
</g>
<!-- Node1&#45;&gt;Node5 -->
<g id="edge4" class="edge">
<title>Node1&#45;&gt;Node5</title>
<path fill="none" stroke="#191970" d="M215.3876,-56.2977C220.8822,-47.8498 227.7586,-37.2773 233.5527,-28.369"/>
<polygon fill="#191970" stroke="#191970" points="236.5772,-30.1381 239.0955,-19.8469 230.7092,-26.3215 236.5772,-30.1381"/>
</g>
<!-- Node6 -->
<g id="node6" class="node">
<title>Node6</title>
<g id="a_node6"><a xlink:title=" ">
<polygon fill="#ffffff" stroke="#bfbfbf" points="294.5,-.5 294.5,-19.5 366.5,-19.5 366.5,-.5 294.5,-.5"/>
<text text-anchor="middle" x="330.5" y="-7.5" font-family="Helvetica,sans-Serif" font-size="10.00" fill="#000000">linux/types.h</text>
</a>
</g>
</g>
<!-- Node1&#45;&gt;Node6 -->
<g id="edge5" class="edge">
<title>Node1&#45;&gt;Node6</title>
<path fill="none" stroke="#191970" d="M236.0784,-56.4554C256.2032,-46.554 282.3639,-33.683 302.0438,-24.0004"/>
<polygon fill="#191970" stroke="#191970" points="303.7018,-27.0855 311.1294,-19.5303 300.6115,-20.8045 303.7018,-27.0855"/>
</g>
<!-- Node7 -->
<g id="node7" class="node">
<title>Node7</title>
<g id="a_node7"><a xlink:title=" ">
<polygon fill="#ffffff" stroke="#bfbfbf" points="384.5,-.5 384.5,-19.5 448.5,-19.5 448.5,-.5 384.5,-.5"/>
<text text-anchor="middle" x="416.5" y="-7.5" font-family="Helvetica,sans-Serif" font-size="10.00" fill="#000000">linux/pps.h</text>
</a>
</g>
</g>
<!-- Node1&#45;&gt;Node7 -->
<g id="edge6" class="edge">
<title>Node1&#45;&gt;Node7</title>
<path fill="none" stroke="#191970" d="M257.1164,-56.4554C293.1611,-45.9495 340.6766,-32.1002 374.4235,-22.264"/>
<polygon fill="#191970" stroke="#191970" points="375.8057,-25.5069 384.4268,-19.3484 373.8468,-18.7865 375.8057,-25.5069"/>
</g>
</g>
</svg>
