<?xml version="1.0" encoding="UTF-8" standalone="no"?>
<!DOCTYPE svg PUBLIC "-//W3C//DTD SVG 1.1//EN"
 "http://www.w3.org/Graphics/SVG/1.1/DTD/svg11.dtd">
<!-- Generated by graphviz version 2.40.1 (20161225.0304)
 -->
<!-- Title: client/timepps.h Pages: 1 -->
<svg width="457pt" height="84pt"
 viewBox="0.00 0.00 456.50 84.00" xmlns="http://www.w3.org/2000/svg" xmlns:xlink="http://www.w3.org/1999/xlink">
<g id="graph0" class="graph" transform="scale(1 1) rotate(0) translate(4 80)">
<title>client/timepps.h</title>
<polygon fill="#ffffff" stroke="transparent" points="-4,4 -4,-80 452.5,-80 452.5,4 -4,4"/>
<!-- Node1 -->
<g id="node1" class="node">
<title>Node1</title>
<g id="a_node1"><a xlink:title=" ">
<polygon fill="#bfbfbf" stroke="#000000" points="162.5,-56.5 162.5,-75.5 248.5,-75.5 248.5,-56.5 162.5,-56.5"/>
<text text-anchor="middle" x="205.5" y="-63.5" font-family="Helvetica,sans-Serif" font-size="10.00" fill="#000000">client/timepps.h</text>
</a>
</g>
</g>
<!-- Node2 -->
<g id="node2" class="node">
<title>Node2</title>
<g id="a_node2"><a xlink:title=" ">
<polygon fill="#ffffff" stroke="#bfbfbf" points="0,-.5 0,-19.5 47,-19.5 47,-.5 0,-.5"/>
<text text-anchor="middle" x="23.5" y="-7.5" font-family="Helvetica,sans-Serif" font-size="10.00" fill="#000000">errno.h</text>
</a>
</g>
</g>
<!-- Node1&#45;&gt;Node2 -->
<g id="edge1" class="edge">
<title>Node1&#45;&gt;Node2</title>
<path fill="none" stroke="#191970" d="M174.1702,-56.4452C145.8298,-47.7905 102.6934,-34.5884 57.0375,-20.4668"/>
<polygon fill="#191970" stroke="#191970" points="57.849,-17.0543 47.2613,-17.4408 55.7792,-23.7413 57.849,-17.0543"/>
</g>
<!-- Node3 -->
<g id="node3" class="node">
<title>Node3</title>
<g id="a_node3"><a xlink:title=" ">
<polygon fill="#ffffff" stroke="#bfbfbf" points="65,-.5 65,-19.5 116,-19.5 116,-.5 65,-.5"/>
<text text-anchor="middle" x="90.5" y="-7.5" font-family="Helvetica,sans-Serif" font-size="10.00" fill="#000000">unistd.h</text>
</a>
</g>
</g>
<!-- Node1&#45;&gt;Node3 -->
<g id="edge2" class="edge">
<title>Node1&#45;&gt;Node3</title>
<path fill="none" stroke="#191970" d="M185.7308,-56.3733C167.3531,-47.4241 139.7688,-33.9917 119.0107,-23.8835"/>
<polygon fill="#191970" stroke="#191970" points="120.5343,-20.7325 110.0112,-19.5011 117.4696,-27.026 120.5343,-20.7325"/>
</g>
<!-- Node4 -->
<g id="node4" class="node">
<title>Node4</title>
<g id="a_node4"><a xlink:title=" ">
<polygon fill="#ffffff" stroke="#bfbfbf" points="134.5,-.5 134.5,-19.5 196.5,-19.5 196.5,-.5 134.5,-.5"/>
<text text-anchor="middle" x="165.5" y="-7.5" font-family="Helvetica,sans-Serif" font-size="10.00" fill="#000000">sys/time.h</text>
</a>
</g>
</g>
<!-- Node1&#45;&gt;Node4 -->
<g id="edge3" class="edge">
<title>Node1&#45;&gt;Node4</title>
<path fill="none" stroke="#191970" d="M198.5325,-56.2455C192.9689,-48.4564 185.022,-37.3308 178.3171,-27.9439"/>
<polygon fill="#191970" stroke="#191970" points="181.0481,-25.7457 172.3876,-19.6427 175.352,-29.8144 181.0481,-25.7457"/>
</g>
<!-- Node5 -->
<g id="node5" class="node">
<title>Node5</title>
<g id="a_node5"><a xlink:title=" ">
<polygon fill="#ffffff" stroke="#bfbfbf" points="214.5,-.5 214.5,-19.5 276.5,-19.5 276.5,-.5 214.5,-.5"/>
<text text-anchor="middle" x="245.5" y="-7.5" font-family="Helvetica,sans-Serif" font-size="10.00" fill="#000000">sys/ioctl.h</text>
</a>
</g>
</g>
<!-- Node1&#45;&gt;Node5 -->
<g id="edge4" class="edge">
<title>Node1&#45;&gt;Node5</title>
<path fill="none" stroke="#191970" d="M212.4675,-56.2455C218.0311,-48.4564 225.978,-37.3308 232.6829,-27.9439"/>
<polygon fill="#191970" stroke="#191970" points="235.648,-29.8144 238.6124,-19.6427 229.9519,-25.7457 235.648,-29.8144"/>
</g>
<!-- Node6 -->
<g id="node6" class="node">
<title>Node6</title>
<g id="a_node6"><a xlink:title=" ">
<polygon fill="#ffffff" stroke="#bfbfbf" points="294.5,-.5 294.5,-19.5 366.5,-19.5 366.5,-.5 294.5,-.5"/>
<text text-anchor="middle" x="330.5" y="-7.5" font-family="Helvetica,sans-Serif" font-size="10.00" fill="#000000">linux/types.h</text>
</a>
</g>
</g>
<!-- Node1&#45;&gt;Node6 -->
<g id="edge5" class="edge">
<title>Node1&#45;&gt;Node6</title>
<path fill="none" stroke="#191970" d="M226.9883,-56.3733C247.144,-47.3435 277.488,-33.7494 300.118,-23.6111"/>
<polygon fill="#191970" stroke="#191970" points="301.5971,-26.7838 309.2921,-19.5011 298.7351,-20.3955 301.5971,-26.7838"/>
</g>
<!-- Node7 -->
<g id="node7" class="node">
<title>Node7</title>
<g id="a_node7"><a xlink:title=" ">
<polygon fill="#ffffff" stroke="#bfbfbf" points="384.5,-.5 384.5,-19.5 448.5,-19.5 448.5,-.5 384.5,-.5"/>
<text text-anchor="middle" x="416.5" y="-7.5" font-family="Helvetica,sans-Serif" font-size="10.00" fill="#000000">linux/pps.h</text>
</a>
</g>
</g>
<!-- Node1&#45;&gt;Node7 -->
<g id="edge6" class="edge">
<title>Node1&#45;&gt;Node7</title>
<path fill="none" stroke="#191970" d="M241.7722,-56.3733C278.6556,-46.5843 335.7504,-31.4312 374.5563,-21.132"/>
<polygon fill="#191970" stroke="#191970" points="375.7264,-24.4427 384.494,-18.4945 373.9307,-17.6769 375.7264,-24.4427"/>
</g>
</g>
</svg>
