<?xml version="1.0" encoding="UTF-8" standalone="no"?>
<!DOCTYPE svg PUBLIC "-//W3C//DTD SVG 1.1//EN"
 "http://www.w3.org/Graphics/SVG/1.1/DTD/svg11.dtd">
<!-- Generated by graphviz version 2.43.0 (0)
 -->
<!-- Title: client/timepps.h Pages: 1 -->
<svg width="490pt" height="84pt"
 viewBox="0.00 0.00 489.50 84.00" xmlns="http://www.w3.org/2000/svg" xmlns:xlink="http://www.w3.org/1999/xlink">
<g id="graph0" class="graph" transform="scale(1 1) rotate(0) translate(4 80)">
<title>client/timepps.h</title>
<polygon fill="white" stroke="transparent" points="-4,4 -4,-80 485.5,-80 485.5,4 -4,4"/>
<!-- Node1 -->
<g id="node1" class="node">
<title>Node1</title>
<g id="a_node1"><a xlink:title=" ">
<polygon fill="#bfbfbf" stroke="black" points="172,-56.5 172,-75.5 267,-75.5 267,-56.5 172,-56.5"/>
<text text-anchor="middle" x="219.5" y="-63.5" font-family="Helvetica,sans-Serif" font-size="10.00">client/timepps.h</text>
</a>
</g>
</g>
<!-- Node2 -->
<g id="node2" class="node">
<title>Node2</title>
<g id="a_node2"><a xlink:title=" ">
<polygon fill="white" stroke="#bfbfbf" points="0,-0.5 0,-19.5 51,-19.5 51,-0.5 0,-0.5"/>
<text text-anchor="middle" x="25.5" y="-7.5" font-family="Helvetica,sans-Serif" font-size="10.00">errno.h</text>
</a>
</g>
</g>
<!-- Node1&#45;&gt;Node2 -->
<g id="edge1" class="edge">
<title>Node1&#45;&gt;Node2</title>
<path fill="none" stroke="midnightblue" d="M188.76,-56.44C153.99,-46.77 97.47,-31.03 60.89,-20.85"/>
<polygon fill="midnightblue" stroke="midnightblue" points="61.71,-17.45 51.14,-18.14 59.83,-24.19 61.71,-17.45"/>
</g>
<!-- Node3 -->
<g id="node3" class="node">
<title>Node3</title>
<g id="a_node3"><a xlink:title=" ">
<polygon fill="white" stroke="#bfbfbf" points="69.5,-0.5 69.5,-19.5 125.5,-19.5 125.5,-0.5 69.5,-0.5"/>
<text text-anchor="middle" x="97.5" y="-7.5" font-family="Helvetica,sans-Serif" font-size="10.00">unistd.h</text>
</a>
</g>
</g>
<!-- Node1&#45;&gt;Node3 -->
<g id="edge2" class="edge">
<title>Node1&#45;&gt;Node3</title>
<path fill="none" stroke="midnightblue" d="M200.17,-56.44C180.18,-47.6 148.76,-33.69 125.94,-23.59"/>
<polygon fill="midnightblue" stroke="midnightblue" points="127.3,-20.36 116.74,-19.52 124.47,-26.76 127.3,-20.36"/>
</g>
<!-- Node4 -->
<g id="node4" class="node">
<title>Node4</title>
<g id="a_node4"><a xlink:title=" ">
<polygon fill="white" stroke="#bfbfbf" points="143.5,-0.5 143.5,-19.5 211.5,-19.5 211.5,-0.5 143.5,-0.5"/>
<text text-anchor="middle" x="177.5" y="-7.5" font-family="Helvetica,sans-Serif" font-size="10.00">sys/time.h</text>
</a>
</g>
</g>
<!-- Node1&#45;&gt;Node4 -->
<g id="edge3" class="edge">
<title>Node1&#45;&gt;Node4</title>
<path fill="none" stroke="midnightblue" d="M212.56,-56.08C206.57,-48.38 197.75,-37.03 190.45,-27.65"/>
<polygon fill="midnightblue" stroke="midnightblue" points="193.21,-25.5 184.31,-19.75 187.68,-29.79 193.21,-25.5"/>
</g>
<!-- Node5 -->
<g id="node5" class="node">
<title>Node5</title>
<g id="a_node5"><a xlink:title=" ">
<polygon fill="white" stroke="#bfbfbf" points="229.5,-0.5 229.5,-19.5 295.5,-19.5 295.5,-0.5 229.5,-0.5"/>
<text text-anchor="middle" x="262.5" y="-7.5" font-family="Helvetica,sans-Serif" font-size="10.00">sys/ioctl.h</text>
</a>
</g>
</g>
<!-- Node1&#45;&gt;Node5 -->
<g id="edge4" class="edge">
<title>Node1&#45;&gt;Node5</title>
<path fill="none" stroke="midnightblue" d="M226.6,-56.08C232.74,-48.38 241.77,-37.03 249.24,-27.65"/>
<polygon fill="midnightblue" stroke="midnightblue" points="252.04,-29.75 255.53,-19.75 246.56,-25.39 252.04,-29.75"/>
</g>
<!-- Node6 -->
<g id="node6" class="node">
<title>Node6</title>
<g id="a_node6"><a xlink:title=" ">
<polygon fill="white" stroke="#bfbfbf" points="313.5,-0.5 313.5,-19.5 393.5,-19.5 393.5,-0.5 313.5,-0.5"/>
<text text-anchor="middle" x="353.5" y="-7.5" font-family="Helvetica,sans-Serif" font-size="10.00">linux/types.h</text>
</a>
</g>
</g>
<!-- Node1&#45;&gt;Node6 -->
<g id="edge5" class="edge">
<title>Node1&#45;&gt;Node6</title>
<path fill="none" stroke="midnightblue" d="M240.73,-56.44C262.88,-47.52 297.82,-33.44 322.94,-23.32"/>
<polygon fill="midnightblue" stroke="midnightblue" points="324.4,-26.5 332.37,-19.52 321.78,-20.01 324.4,-26.5"/>
</g>
<!-- Node7 -->
<g id="node7" class="node">
<title>Node7</title>
<g id="a_node7"><a xlink:title=" ">
<polygon fill="white" stroke="#bfbfbf" points="411.5,-0.5 411.5,-19.5 481.5,-19.5 481.5,-0.5 411.5,-0.5"/>
<text text-anchor="middle" x="446.5" y="-7.5" font-family="Helvetica,sans-Serif" font-size="10.00">linux/pps.h</text>
</a>
</g>
</g>
<!-- Node1&#45;&gt;Node7 -->
<g id="edge6" class="edge">
<title>Node1&#45;&gt;Node7</title>
<path fill="none" stroke="midnightblue" d="M255.47,-56.44C295.05,-47.03 358.73,-31.88 401.57,-21.69"/>
<polygon fill="midnightblue" stroke="midnightblue" points="402.53,-25.06 411.45,-19.34 400.91,-18.25 402.53,-25.06"/>
</g>
</g>
</svg>
