<?xml version="1.0" encoding="UTF-8" standalone="no"?>
<!DOCTYPE svg PUBLIC "-//W3C//DTD SVG 1.1//EN"
 "http://www.w3.org/Graphics/SVG/1.1/DTD/svg11.dtd">
<!-- Generated by graphviz version 2.40.1 (20161225.0304)
 -->
<!-- Title: /home/ray/Dropbox/RPi/PPS&#45;Client/client/pps&#45;client.h Pages: 1 -->
<svg width="1152pt" height="162pt"
 viewBox="0.00 0.00 1151.50 162.00" xmlns="http://www.w3.org/2000/svg" xmlns:xlink="http://www.w3.org/1999/xlink">
<g id="graph0" class="graph" transform="scale(1 1) rotate(0) translate(4 158)">
<title>/home/ray/Dropbox/RPi/PPS&#45;Client/client/pps&#45;client.h</title>
<polygon fill="#ffffff" stroke="transparent" points="-4,4 -4,-158 1147.5,-158 1147.5,4 -4,4"/>
<!-- Node1 -->
<g id="node1" class="node">
<title>Node1</title>
<g id="a_node1"><a xlink:title="This file contains includes, defines and structures for PPS&#45;Client.">
<polygon fill="#bfbfbf" stroke="#000000" points="482.5,-112.5 482.5,-153.5 601.5,-153.5 601.5,-112.5 482.5,-112.5"/>
<text text-anchor="start" x="490.5" y="-141.5" font-family="Helvetica,sans-Serif" font-size="10.00" fill="#000000">/home/ray/Dropbox/RPi</text>
<text text-anchor="start" x="490.5" y="-130.5" font-family="Helvetica,sans-Serif" font-size="10.00" fill="#000000">/PPS&#45;Client/client/pps</text>
<text text-anchor="middle" x="542" y="-119.5" font-family="Helvetica,sans-Serif" font-size="10.00" fill="#000000">&#45;client.h</text>
</a>
</g>
</g>
<!-- Node2 -->
<g id="node2" class="node">
<title>Node2</title>
<g id="a_node2"><a xlink:title=" ">
<polygon fill="#ffffff" stroke="#bfbfbf" points="0,-56.5 0,-75.5 46,-75.5 46,-56.5 0,-56.5"/>
<text text-anchor="middle" x="23" y="-63.5" font-family="Helvetica,sans-Serif" font-size="10.00" fill="#000000">stdio.h</text>
</a>
</g>
</g>
<!-- Node1&#45;&gt;Node2 -->
<g id="edge1" class="edge">
<title>Node1&#45;&gt;Node2</title>
<path fill="none" stroke="#191970" d="M482.1956,-129.5996C391.6488,-123.6624 214.411,-108.959 56.1969,-75.9268"/>
<polygon fill="#191970" stroke="#191970" points="56.7934,-72.4755 46.2852,-73.8278 55.3431,-79.3237 56.7934,-72.4755"/>
</g>
<!-- Node3 -->
<g id="node3" class="node">
<title>Node3</title>
<g id="a_node3"><a xlink:title=" ">
<polygon fill="#ffffff" stroke="#bfbfbf" points="64,-56.5 64,-75.5 112,-75.5 112,-56.5 64,-56.5"/>
<text text-anchor="middle" x="88" y="-63.5" font-family="Helvetica,sans-Serif" font-size="10.00" fill="#000000">stdlib.h</text>
</a>
</g>
</g>
<!-- Node1&#45;&gt;Node3 -->
<g id="edge2" class="edge">
<title>Node1&#45;&gt;Node3</title>
<path fill="none" stroke="#191970" d="M482.2155,-127.9366C402.1282,-120.4843 255.5772,-104.5033 122.0339,-75.9359"/>
<polygon fill="#191970" stroke="#191970" points="122.5484,-72.4662 112.0338,-73.7675 121.065,-79.3072 122.5484,-72.4662"/>
</g>
<!-- Node4 -->
<g id="node4" class="node">
<title>Node4</title>
<g id="a_node4"><a xlink:title=" ">
<polygon fill="#ffffff" stroke="#bfbfbf" points="130,-56.5 130,-75.5 174,-75.5 174,-56.5 130,-56.5"/>
<text text-anchor="middle" x="152" y="-63.5" font-family="Helvetica,sans-Serif" font-size="10.00" fill="#000000">time.h</text>
</a>
</g>
</g>
<!-- Node1&#45;&gt;Node4 -->
<g id="edge3" class="edge">
<title>Node1&#45;&gt;Node4</title>
<path fill="none" stroke="#191970" d="M482.4299,-125.4705C411.7703,-116.0648 290.6216,-98.4419 188,-76 186.7524,-75.7272 185.4838,-75.4372 184.2048,-75.1342"/>
<polygon fill="#191970" stroke="#191970" points="184.9267,-71.7064 174.3721,-72.6296 183.1987,-78.4898 184.9267,-71.7064"/>
</g>
<!-- Node5 -->
<g id="node5" class="node">
<title>Node5</title>
<g id="a_node5"><a xlink:title=" ">
<polygon fill="#ffffff" stroke="#bfbfbf" points="570.5,-.5 570.5,-19.5 621.5,-19.5 621.5,-.5 570.5,-.5"/>
<text text-anchor="middle" x="596" y="-7.5" font-family="Helvetica,sans-Serif" font-size="10.00" fill="#000000">unistd.h</text>
</a>
</g>
</g>
<!-- Node1&#45;&gt;Node5 -->
<g id="edge4" class="edge">
<title>Node1&#45;&gt;Node5</title>
<path fill="none" stroke="#191970" d="M482.2276,-131.2186C398.7217,-127.3273 253.6752,-114.9885 221,-76 215.2904,-69.1873 215.1097,-62.657 221,-56 243.2935,-30.8047 470.6995,-16.4492 560.1428,-11.741"/>
<polygon fill="#191970" stroke="#191970" points="560.5373,-15.2254 570.3436,-11.2146 560.1765,-8.2347 560.5373,-15.2254"/>
</g>
<!-- Node6 -->
<g id="node6" class="node">
<title>Node6</title>
<g id="a_node6"><a xlink:title=" ">
<polygon fill="#ffffff" stroke="#bfbfbf" points="230.5,-56.5 230.5,-75.5 287.5,-75.5 287.5,-56.5 230.5,-56.5"/>
<text text-anchor="middle" x="259" y="-63.5" font-family="Helvetica,sans-Serif" font-size="10.00" fill="#000000">pthread.h</text>
</a>
</g>
</g>
<!-- Node1&#45;&gt;Node6 -->
<g id="edge5" class="edge">
<title>Node1&#45;&gt;Node6</title>
<path fill="none" stroke="#191970" d="M482.4769,-119.6548C435.0246,-108.9008 366.6378,-93.1469 297.3866,-76.0451"/>
<polygon fill="#191970" stroke="#191970" points="298.1595,-72.6309 287.6113,-73.6234 296.4762,-79.4255 298.1595,-72.6309"/>
</g>
<!-- Node7 -->
<g id="node7" class="node">
<title>Node7</title>
<g id="a_node7"><a xlink:title=" ">
<polygon fill="#ffffff" stroke="#bfbfbf" points="306,-56.5 306,-75.5 356,-75.5 356,-56.5 306,-56.5"/>
<text text-anchor="middle" x="331" y="-63.5" font-family="Helvetica,sans-Serif" font-size="10.00" fill="#000000">signal.h</text>
</a>
</g>
</g>
<!-- Node1&#45;&gt;Node7 -->
<g id="edge6" class="edge">
<title>Node1&#45;&gt;Node7</title>
<path fill="none" stroke="#191970" d="M482.3819,-114.0691C444.7741,-102.1273 397.5056,-87.1179 365.8849,-77.0772"/>
<polygon fill="#191970" stroke="#191970" points="366.7906,-73.6926 356.2003,-74.002 364.672,-80.3644 366.7906,-73.6926"/>
</g>
<!-- Node8 -->
<g id="node8" class="node">
<title>Node8</title>
<g id="a_node8"><a xlink:title=" ">
<polygon fill="#ffffff" stroke="#bfbfbf" points="374.5,-56.5 374.5,-75.5 423.5,-75.5 423.5,-56.5 374.5,-56.5"/>
<text text-anchor="middle" x="399" y="-63.5" font-family="Helvetica,sans-Serif" font-size="10.00" fill="#000000">string.h</text>
</a>
</g>
</g>
<!-- Node1&#45;&gt;Node8 -->
<g id="edge7" class="edge">
<title>Node1&#45;&gt;Node8</title>
<path fill="none" stroke="#191970" d="M497.9285,-112.3511C475.5019,-101.8435 448.8319,-89.3478 428.8375,-79.9798"/>
<polygon fill="#191970" stroke="#191970" points="430.1465,-76.728 419.6062,-75.6546 427.1766,-83.0668 430.1465,-76.728"/>
</g>
<!-- Node9 -->
<g id="node9" class="node">
<title>Node9</title>
<g id="a_node9"><a xlink:title=" ">
<polygon fill="#ffffff" stroke="#bfbfbf" points="442,-56.5 442,-75.5 502,-75.5 502,-56.5 442,-56.5"/>
<text text-anchor="middle" x="472" y="-63.5" font-family="Helvetica,sans-Serif" font-size="10.00" fill="#000000">sys/stat.h</text>
</a>
</g>
</g>
<!-- Node1&#45;&gt;Node9 -->
<g id="edge8" class="edge">
<title>Node1&#45;&gt;Node9</title>
<path fill="none" stroke="#191970" d="M520.2353,-112.168C510.4262,-102.7794 498.9907,-91.834 489.7167,-82.9574"/>
<polygon fill="#191970" stroke="#191970" points="491.8627,-80.1666 482.2184,-75.7805 487.0225,-85.2235 491.8627,-80.1666"/>
</g>
<!-- Node10 -->
<g id="node10" class="node">
<title>Node10</title>
<g id="a_node10"><a xlink:title=" ">
<polygon fill="#ffffff" stroke="#bfbfbf" points="520,-56.5 520,-75.5 564,-75.5 564,-56.5 520,-56.5"/>
<text text-anchor="middle" x="542" y="-63.5" font-family="Helvetica,sans-Serif" font-size="10.00" fill="#000000">fcntl.h</text>
</a>
</g>
</g>
<!-- Node1&#45;&gt;Node10 -->
<g id="edge9" class="edge">
<title>Node1&#45;&gt;Node10</title>
<path fill="none" stroke="#191970" d="M542,-112.168C542,-103.8226 542,-94.2471 542,-85.9879"/>
<polygon fill="#191970" stroke="#191970" points="545.5001,-85.7804 542,-75.7805 538.5001,-85.7805 545.5001,-85.7804"/>
</g>
<!-- Node11 -->
<g id="node11" class="node">
<title>Node11</title>
<g id="a_node11"><a xlink:title=" ">
<polygon fill="#ffffff" stroke="#bfbfbf" points="582,-56.5 582,-75.5 650,-75.5 650,-56.5 582,-56.5"/>
<text text-anchor="middle" x="616" y="-63.5" font-family="Helvetica,sans-Serif" font-size="10.00" fill="#000000">sys/timex.h</text>
</a>
</g>
</g>
<!-- Node1&#45;&gt;Node11 -->
<g id="edge10" class="edge">
<title>Node1&#45;&gt;Node11</title>
<path fill="none" stroke="#191970" d="M565.0084,-112.168C575.4827,-102.6846 587.7114,-91.6127 597.5673,-82.689"/>
<polygon fill="#191970" stroke="#191970" points="600.1338,-85.0868 605.1977,-75.7805 595.4356,-79.8977 600.1338,-85.0868"/>
</g>
<!-- Node12 -->
<g id="node12" class="node">
<title>Node12</title>
<g id="a_node12"><a xlink:title=" ">
<polygon fill="#ffffff" stroke="#bfbfbf" points="668.5,-56.5 668.5,-75.5 715.5,-75.5 715.5,-56.5 668.5,-56.5"/>
<text text-anchor="middle" x="692" y="-63.5" font-family="Helvetica,sans-Serif" font-size="10.00" fill="#000000">math.h</text>
</a>
</g>
</g>
<!-- Node1&#45;&gt;Node12 -->
<g id="edge11" class="edge">
<title>Node1&#45;&gt;Node12</title>
<path fill="none" stroke="#191970" d="M588.2289,-112.3511C611.8602,-101.7958 639.9832,-89.2342 660.9875,-79.8523"/>
<polygon fill="#191970" stroke="#191970" points="662.682,-82.9287 670.3851,-75.6546 659.8271,-76.5373 662.682,-82.9287"/>
</g>
<!-- Node13 -->
<g id="node13" class="node">
<title>Node13</title>
<g id="a_node13"><a xlink:title=" ">
<polygon fill="#ffffff" stroke="#bfbfbf" points="734,-56.5 734,-75.5 802,-75.5 802,-56.5 734,-56.5"/>
<text text-anchor="middle" x="768" y="-63.5" font-family="Helvetica,sans-Serif" font-size="10.00" fill="#000000">sys/types.h</text>
</a>
</g>
</g>
<!-- Node1&#45;&gt;Node13 -->
<g id="edge12" class="edge">
<title>Node1&#45;&gt;Node13</title>
<path fill="none" stroke="#191970" d="M601.6745,-115.3089C640.8341,-103.6996 691.0799,-88.8037 726.0501,-78.4365"/>
<polygon fill="#191970" stroke="#191970" points="727.3414,-81.7043 735.9341,-75.5063 725.3517,-74.993 727.3414,-81.7043"/>
</g>
<!-- Node14 -->
<g id="node14" class="node">
<title>Node14</title>
<g id="a_node14"><a xlink:title=" ">
<polygon fill="#ffffff" stroke="#bfbfbf" points="929.5,-.5 929.5,-19.5 976.5,-19.5 976.5,-.5 929.5,-.5"/>
<text text-anchor="middle" x="953" y="-7.5" font-family="Helvetica,sans-Serif" font-size="10.00" fill="#000000">errno.h</text>
</a>
</g>
</g>
<!-- Node1&#45;&gt;Node14 -->
<g id="edge13" class="edge">
<title>Node1&#45;&gt;Node14</title>
<path fill="none" stroke="#191970" d="M601.8496,-130.4926C727.2681,-124.6231 1008.47,-108.0038 1037,-76 1057.1319,-53.4169 1017.5006,-32.8159 986.0951,-20.8404"/>
<polygon fill="#191970" stroke="#191970" points="987.2818,-17.5477 976.6878,-17.4081 984.8824,-24.1237 987.2818,-17.5477"/>
</g>
<!-- Node15 -->
<g id="node15" class="node">
<title>Node15</title>
<g id="a_node15"><a xlink:title=" ">
<polygon fill="#ffffff" stroke="#bfbfbf" points="898,-56.5 898,-75.5 938,-75.5 938,-56.5 898,-56.5"/>
<text text-anchor="middle" x="918" y="-63.5" font-family="Helvetica,sans-Serif" font-size="10.00" fill="#000000">poll.h</text>
</a>
</g>
</g>
<!-- Node1&#45;&gt;Node15 -->
<g id="edge14" class="edge">
<title>Node1&#45;&gt;Node15</title>
<path fill="none" stroke="#191970" d="M601.6607,-126.0923C671.0835,-117.3833 788.8637,-100.5244 888,-76 888.0999,-75.9753 888.2,-75.9504 888.3002,-75.9253"/>
<polygon fill="#191970" stroke="#191970" points="889.1374,-79.3262 897.7946,-73.2185 887.2181,-72.5944 889.1374,-79.3262"/>
</g>
<!-- Node16 -->
<g id="node16" class="node">
<title>Node16</title>
<g id="a_node16"><a xlink:title=" ">
<polygon fill="#ffffff" stroke="#bfbfbf" points="956.5,-56.5 956.5,-75.5 1027.5,-75.5 1027.5,-56.5 956.5,-56.5"/>
<text text-anchor="middle" x="992" y="-63.5" font-family="Helvetica,sans-Serif" font-size="10.00" fill="#000000">sys/mman.h</text>
</a>
</g>
</g>
<!-- Node1&#45;&gt;Node16 -->
<g id="edge15" class="edge">
<title>Node1&#45;&gt;Node16</title>
<path fill="none" stroke="#191970" d="M601.5968,-126.1047C678.772,-116.8438 817.629,-99.0549 946.1665,-76.0346"/>
<polygon fill="#191970" stroke="#191970" points="946.9712,-79.446 956.1902,-74.2249 945.7274,-72.5574 946.9712,-79.446"/>
</g>
<!-- Node17 -->
<g id="node17" class="node">
<title>Node17</title>
<g id="a_node17"><a xlink:href="../../de/d98/timepps_8h.html" target="_top" xlink:title=" ">
<polygon fill="#ffffff" stroke="#ff0000" points="820.5,-56.5 820.5,-75.5 879.5,-75.5 879.5,-56.5 820.5,-56.5"/>
<text text-anchor="middle" x="850" y="-63.5" font-family="Helvetica,sans-Serif" font-size="10.00" fill="#000000">timepps.h</text>
</a>
</g>
</g>
<!-- Node1&#45;&gt;Node17 -->
<g id="edge16" class="edge">
<title>Node1&#45;&gt;Node17</title>
<path fill="none" stroke="#191970" d="M601.7256,-121.097C654.1035,-110.4871 732.5437,-94.1855 810.2562,-76.103"/>
<polygon fill="#191970" stroke="#191970" points="811.2806,-79.4579 820.2213,-73.7734 809.6871,-72.6417 811.2806,-79.4579"/>
</g>
<!-- Node22 -->
<g id="node18" class="node">
<title>Node22</title>
<g id="a_node18"><a xlink:title=" ">
<polygon fill="#ffffff" stroke="#bfbfbf" points="1084.5,-56.5 1084.5,-75.5 1143.5,-75.5 1143.5,-56.5 1084.5,-56.5"/>
<text text-anchor="middle" x="1114" y="-63.5" font-family="Helvetica,sans-Serif" font-size="10.00" fill="#000000">inttypes.h</text>
</a>
</g>
</g>
<!-- Node1&#45;&gt;Node22 -->
<g id="edge19" class="edge">
<title>Node1&#45;&gt;Node22</title>
<path fill="none" stroke="#191970" d="M601.6944,-128.8233C699.8563,-121.448 901.3075,-104.1776 1070,-76 1071.4487,-75.758 1072.9213,-75.4978 1074.4064,-75.2234"/>
<polygon fill="#191970" stroke="#191970" points="1075.1527,-78.6435 1084.2706,-73.2478 1073.778,-71.7798 1075.1527,-78.6435"/>
</g>
<!-- Node17&#45;&gt;Node5 -->
<g id="edge18" class="edge">
<title>Node17&#45;&gt;Node5</title>
<path fill="none" stroke="#191970" d="M820.2199,-58.2327C817.1108,-57.4611 813.9939,-56.7038 811,-56 748.0085,-41.1919 674.164,-25.8243 631.4622,-17.1317"/>
<polygon fill="#191970" stroke="#191970" points="632.0547,-13.6806 621.5583,-15.1217 630.6624,-20.5408 632.0547,-13.6806"/>
</g>
<!-- Node17&#45;&gt;Node14 -->
<g id="edge17" class="edge">
<title>Node17&#45;&gt;Node14</title>
<path fill="none" stroke="#191970" d="M867.9412,-56.2455C884.04,-47.4928 907.8879,-34.527 926.2391,-24.5496"/>
<polygon fill="#191970" stroke="#191970" points="928.1507,-27.4942 935.2644,-19.6427 924.8071,-21.3444 928.1507,-27.4942"/>
</g>
</g>
</svg>
