<?xml version="1.0" encoding="UTF-8" standalone="no"?>
<!DOCTYPE svg PUBLIC "-//W3C//DTD SVG 1.1//EN"
 "http://www.w3.org/Graphics/SVG/1.1/DTD/svg11.dtd">
<!-- Generated by graphviz version 2.40.1 (20161225.0304)
 -->
<!-- Title: client/pps&#45;client.h Pages: 1 -->
<svg width="1152pt" height="140pt"
 viewBox="0.00 0.00 1151.50 140.00" xmlns="http://www.w3.org/2000/svg" xmlns:xlink="http://www.w3.org/1999/xlink">
<g id="graph0" class="graph" transform="scale(1 1) rotate(0) translate(4 136)">
<title>client/pps&#45;client.h</title>
<polygon fill="#ffffff" stroke="transparent" points="-4,4 -4,-136 1147.5,-136 1147.5,4 -4,4"/>
<!-- Node1 -->
<g id="node1" class="node">
<title>Node1</title>
<g id="a_node1"><a xlink:title="This file contains includes, defines and structures for PPS&#45;Client.">
<polygon fill="#bfbfbf" stroke="#000000" points="495.5,-112.5 495.5,-131.5 588.5,-131.5 588.5,-112.5 495.5,-112.5"/>
<text text-anchor="middle" x="542" y="-119.5" font-family="Helvetica,sans-Serif" font-size="10.00" fill="#000000">client/pps&#45;client.h</text>
</a>
</g>
</g>
<!-- Node2 -->
<g id="node2" class="node">
<title>Node2</title>
<g id="a_node2"><a xlink:title=" ">
<polygon fill="#ffffff" stroke="#bfbfbf" points="0,-56.5 0,-75.5 46,-75.5 46,-56.5 0,-56.5"/>
<text text-anchor="middle" x="23" y="-63.5" font-family="Helvetica,sans-Serif" font-size="10.00" fill="#000000">stdio.h</text>
</a>
</g>
</g>
<!-- Node1&#45;&gt;Node2 -->
<g id="edge1" class="edge">
<title>Node1&#45;&gt;Node2</title>
<path fill="none" stroke="#191970" d="M495.1967,-120.8197C409.5597,-117.9605 221.9517,-108.4569 56.1537,-75.8649"/>
<polygon fill="#191970" stroke="#191970" points="56.7645,-72.4179 46.2724,-73.8896 55.3923,-79.2821 56.7645,-72.4179"/>
</g>
<!-- Node3 -->
<g id="node3" class="node">
<title>Node3</title>
<g id="a_node3"><a xlink:title=" ">
<polygon fill="#ffffff" stroke="#bfbfbf" points="64,-56.5 64,-75.5 112,-75.5 112,-56.5 64,-56.5"/>
<text text-anchor="middle" x="88" y="-63.5" font-family="Helvetica,sans-Serif" font-size="10.00" fill="#000000">stdlib.h</text>
</a>
</g>
</g>
<!-- Node1&#45;&gt;Node3 -->
<g id="edge2" class="edge">
<title>Node1&#45;&gt;Node3</title>
<path fill="none" stroke="#191970" d="M495.4662,-119.7389C419.2169,-115.4211 262.8987,-104.0008 122.1258,-75.8934"/>
<polygon fill="#191970" stroke="#191970" points="122.5149,-72.401 112.0183,-73.8407 121.1217,-79.261 122.5149,-72.401"/>
</g>
<!-- Node4 -->
<g id="node4" class="node">
<title>Node4</title>
<g id="a_node4"><a xlink:title=" ">
<polygon fill="#ffffff" stroke="#bfbfbf" points="130,-56.5 130,-75.5 174,-75.5 174,-56.5 130,-56.5"/>
<text text-anchor="middle" x="152" y="-63.5" font-family="Helvetica,sans-Serif" font-size="10.00" fill="#000000">time.h</text>
</a>
</g>
</g>
<!-- Node1&#45;&gt;Node4 -->
<g id="edge3" class="edge">
<title>Node1&#45;&gt;Node4</title>
<path fill="none" stroke="#191970" d="M495.2656,-118.055C427.2012,-111.8298 297.0258,-98.1101 188,-76 186.7484,-75.7462 185.4764,-75.4723 184.1946,-75.1828"/>
<polygon fill="#191970" stroke="#191970" points="184.8985,-71.7514 174.3496,-72.7366 183.2105,-78.5448 184.8985,-71.7514"/>
</g>
<!-- Node5 -->
<g id="node5" class="node">
<title>Node5</title>
<g id="a_node5"><a xlink:title=" ">
<polygon fill="#ffffff" stroke="#bfbfbf" points="570.5,-.5 570.5,-19.5 621.5,-19.5 621.5,-.5 570.5,-.5"/>
<text text-anchor="middle" x="596" y="-7.5" font-family="Helvetica,sans-Serif" font-size="10.00" fill="#000000">unistd.h</text>
</a>
</g>
</g>
<!-- Node1&#45;&gt;Node5 -->
<g id="edge4" class="edge">
<title>Node1&#45;&gt;Node5</title>
<path fill="none" stroke="#191970" d="M495.4933,-118.6666C410.8605,-112.1251 238.7243,-96.4453 221,-76 215.1774,-69.2836 215.1097,-62.657 221,-56 243.2935,-30.8047 470.6995,-16.4492 560.1428,-11.741"/>
<polygon fill="#191970" stroke="#191970" points="560.5373,-15.2254 570.3436,-11.2146 560.1765,-8.2347 560.5373,-15.2254"/>
</g>
<!-- Node6 -->
<g id="node6" class="node">
<title>Node6</title>
<g id="a_node6"><a xlink:title=" ">
<polygon fill="#ffffff" stroke="#bfbfbf" points="230.5,-56.5 230.5,-75.5 287.5,-75.5 287.5,-56.5 230.5,-56.5"/>
<text text-anchor="middle" x="259" y="-63.5" font-family="Helvetica,sans-Serif" font-size="10.00" fill="#000000">pthread.h</text>
</a>
</g>
</g>
<!-- Node1&#45;&gt;Node6 -->
<g id="edge5" class="edge">
<title>Node1&#45;&gt;Node6</title>
<path fill="none" stroke="#191970" d="M495.2836,-114.2556C447.9588,-106.1811 372.4467,-92.6715 297.648,-76.0179"/>
<polygon fill="#191970" stroke="#191970" points="298.104,-72.5332 287.58,-73.7559 296.5695,-79.3629 298.104,-72.5332"/>
</g>
<!-- Node7 -->
<g id="node7" class="node">
<title>Node7</title>
<g id="a_node7"><a xlink:title=" ">
<polygon fill="#ffffff" stroke="#bfbfbf" points="306,-56.5 306,-75.5 356,-75.5 356,-56.5 306,-56.5"/>
<text text-anchor="middle" x="331" y="-63.5" font-family="Helvetica,sans-Serif" font-size="10.00" fill="#000000">signal.h</text>
</a>
</g>
</g>
<!-- Node1&#45;&gt;Node7 -->
<g id="edge6" class="edge">
<title>Node1&#45;&gt;Node7</title>
<path fill="none" stroke="#191970" d="M503.9265,-112.4775C470.1225,-103.94 419.1456,-90.864 366.1423,-76.2601"/>
<polygon fill="#191970" stroke="#191970" points="366.7967,-72.8097 356.2255,-73.5162 364.9299,-79.5562 366.7967,-72.8097"/>
</g>
<!-- Node8 -->
<g id="node8" class="node">
<title>Node8</title>
<g id="a_node8"><a xlink:title=" ">
<polygon fill="#ffffff" stroke="#bfbfbf" points="374.5,-56.5 374.5,-75.5 423.5,-75.5 423.5,-56.5 374.5,-56.5"/>
<text text-anchor="middle" x="399" y="-63.5" font-family="Helvetica,sans-Serif" font-size="10.00" fill="#000000">string.h</text>
</a>
</g>
</g>
<!-- Node1&#45;&gt;Node8 -->
<g id="edge7" class="edge">
<title>Node1&#45;&gt;Node8</title>
<path fill="none" stroke="#191970" d="M517.4174,-112.3733C494.0504,-103.2226 458.7138,-89.3844 432.7216,-79.2057"/>
<polygon fill="#191970" stroke="#191970" points="433.8495,-75.8886 423.2618,-75.5011 431.297,-82.4066 433.8495,-75.8886"/>
</g>
<!-- Node9 -->
<g id="node9" class="node">
<title>Node9</title>
<g id="a_node9"><a xlink:title=" ">
<polygon fill="#ffffff" stroke="#bfbfbf" points="442,-56.5 442,-75.5 502,-75.5 502,-56.5 442,-56.5"/>
<text text-anchor="middle" x="472" y="-63.5" font-family="Helvetica,sans-Serif" font-size="10.00" fill="#000000">sys/stat.h</text>
</a>
</g>
</g>
<!-- Node1&#45;&gt;Node9 -->
<g id="edge8" class="edge">
<title>Node1&#45;&gt;Node9</title>
<path fill="none" stroke="#191970" d="M529.8069,-112.2455C519.3679,-103.8943 504.1345,-91.7076 491.926,-81.9408"/>
<polygon fill="#191970" stroke="#191970" points="494.0485,-79.1566 484.0533,-75.6427 489.6756,-84.6227 494.0485,-79.1566"/>
</g>
<!-- Node10 -->
<g id="node10" class="node">
<title>Node10</title>
<g id="a_node10"><a xlink:title=" ">
<polygon fill="#ffffff" stroke="#bfbfbf" points="520,-56.5 520,-75.5 564,-75.5 564,-56.5 520,-56.5"/>
<text text-anchor="middle" x="542" y="-63.5" font-family="Helvetica,sans-Serif" font-size="10.00" fill="#000000">fcntl.h</text>
</a>
</g>
</g>
<!-- Node1&#45;&gt;Node10 -->
<g id="edge9" class="edge">
<title>Node1&#45;&gt;Node10</title>
<path fill="none" stroke="#191970" d="M542,-112.2455C542,-104.9382 542,-94.6944 542,-85.7046"/>
<polygon fill="#191970" stroke="#191970" points="545.5001,-85.6426 542,-75.6427 538.5001,-85.6427 545.5001,-85.6426"/>
</g>
<!-- Node11 -->
<g id="node11" class="node">
<title>Node11</title>
<g id="a_node11"><a xlink:title=" ">
<polygon fill="#ffffff" stroke="#bfbfbf" points="582,-56.5 582,-75.5 650,-75.5 650,-56.5 582,-56.5"/>
<text text-anchor="middle" x="616" y="-63.5" font-family="Helvetica,sans-Serif" font-size="10.00" fill="#000000">sys/timex.h</text>
</a>
</g>
</g>
<!-- Node1&#45;&gt;Node11 -->
<g id="edge10" class="edge">
<title>Node1&#45;&gt;Node11</title>
<path fill="none" stroke="#191970" d="M554.8898,-112.2455C565.9254,-103.8943 582.0292,-91.7076 594.9353,-81.9408"/>
<polygon fill="#191970" stroke="#191970" points="597.3959,-84.4681 603.2579,-75.6427 593.1717,-78.8862 597.3959,-84.4681"/>
</g>
<!-- Node12 -->
<g id="node12" class="node">
<title>Node12</title>
<g id="a_node12"><a xlink:title=" ">
<polygon fill="#ffffff" stroke="#bfbfbf" points="668.5,-56.5 668.5,-75.5 715.5,-75.5 715.5,-56.5 668.5,-56.5"/>
<text text-anchor="middle" x="692" y="-63.5" font-family="Helvetica,sans-Serif" font-size="10.00" fill="#000000">math.h</text>
</a>
</g>
</g>
<!-- Node1&#45;&gt;Node12 -->
<g id="edge11" class="edge">
<title>Node1&#45;&gt;Node12</title>
<path fill="none" stroke="#191970" d="M567.7859,-112.3733C592.8523,-103.0151 631.05,-88.7547 658.4664,-78.5192"/>
<polygon fill="#191970" stroke="#191970" points="659.8908,-81.7235 668.035,-74.9469 657.4425,-75.1656 659.8908,-81.7235"/>
</g>
<!-- Node13 -->
<g id="node13" class="node">
<title>Node13</title>
<g id="a_node13"><a xlink:title=" ">
<polygon fill="#ffffff" stroke="#bfbfbf" points="734,-56.5 734,-75.5 802,-75.5 802,-56.5 734,-56.5"/>
<text text-anchor="middle" x="768" y="-63.5" font-family="Helvetica,sans-Serif" font-size="10.00" fill="#000000">sys/types.h</text>
</a>
</g>
</g>
<!-- Node1&#45;&gt;Node13 -->
<g id="edge12" class="edge">
<title>Node1&#45;&gt;Node13</title>
<path fill="none" stroke="#191970" d="M580.594,-112.4369C620.426,-102.567 682.4621,-87.1952 724.1306,-76.8703"/>
<polygon fill="#191970" stroke="#191970" points="725.1337,-80.2277 733.9983,-74.4252 723.45,-73.4331 725.1337,-80.2277"/>
</g>
<!-- Node14 -->
<g id="node14" class="node">
<title>Node14</title>
<g id="a_node14"><a xlink:title=" ">
<polygon fill="#ffffff" stroke="#bfbfbf" points="929.5,-.5 929.5,-19.5 976.5,-19.5 976.5,-.5 929.5,-.5"/>
<text text-anchor="middle" x="953" y="-7.5" font-family="Helvetica,sans-Serif" font-size="10.00" fill="#000000">errno.h</text>
</a>
</g>
</g>
<!-- Node1&#45;&gt;Node14 -->
<g id="edge13" class="edge">
<title>Node1&#45;&gt;Node14</title>
<path fill="none" stroke="#191970" d="M588.7005,-121.162C706.2469,-118.5712 1007.1322,-108.772 1037,-76 1057.3789,-53.6395 1017.6799,-32.9774 986.1926,-20.9283"/>
<polygon fill="#191970" stroke="#191970" points="987.3536,-17.6262 976.7599,-17.4731 984.9459,-24.1991 987.3536,-17.6262"/>
</g>
<!-- Node15 -->
<g id="node15" class="node">
<title>Node15</title>
<g id="a_node15"><a xlink:title=" ">
<polygon fill="#ffffff" stroke="#bfbfbf" points="898,-56.5 898,-75.5 938,-75.5 938,-56.5 898,-56.5"/>
<text text-anchor="middle" x="918" y="-63.5" font-family="Helvetica,sans-Serif" font-size="10.00" fill="#000000">poll.h</text>
</a>
</g>
</g>
<!-- Node1&#45;&gt;Node15 -->
<g id="edge14" class="edge">
<title>Node1&#45;&gt;Node15</title>
<path fill="none" stroke="#191970" d="M588.6726,-118.6202C655.6148,-113.1369 782.459,-100.3737 888,-76 888.1003,-75.9768 888.2007,-75.9535 888.3013,-75.9299"/>
<polygon fill="#191970" stroke="#191970" points="889.1059,-79.3388 897.8155,-73.3061 887.2449,-72.5907 889.1059,-79.3388"/>
</g>
<!-- Node16 -->
<g id="node16" class="node">
<title>Node16</title>
<g id="a_node16"><a xlink:title=" ">
<polygon fill="#ffffff" stroke="#bfbfbf" points="956.5,-56.5 956.5,-75.5 1027.5,-75.5 1027.5,-56.5 956.5,-56.5"/>
<text text-anchor="middle" x="992" y="-63.5" font-family="Helvetica,sans-Serif" font-size="10.00" fill="#000000">sys/mman.h</text>
</a>
</g>
</g>
<!-- Node1&#45;&gt;Node16 -->
<g id="edge15" class="edge">
<title>Node1&#45;&gt;Node16</title>
<path fill="none" stroke="#191970" d="M588.6889,-118.3104C662.4466,-112.1291 810.5956,-98.2854 946.0605,-76.0008"/>
<polygon fill="#191970" stroke="#191970" points="946.9159,-79.4067 956.2054,-74.312 945.7663,-72.5017 946.9159,-79.4067"/>
</g>
<!-- Node17 -->
<g id="node17" class="node">
<title>Node17</title>
<g id="a_node17"><a xlink:href="../../de/d98/timepps_8h.html" target="_top" xlink:title=" ">
<polygon fill="#ffffff" stroke="#ff0000" points="820.5,-56.5 820.5,-75.5 879.5,-75.5 879.5,-56.5 820.5,-56.5"/>
<text text-anchor="middle" x="850" y="-63.5" font-family="Helvetica,sans-Serif" font-size="10.00" fill="#000000">timepps.h</text>
</a>
</g>
</g>
<!-- Node1&#45;&gt;Node17 -->
<g id="edge16" class="edge">
<title>Node1&#45;&gt;Node17</title>
<path fill="none" stroke="#191970" d="M588.8732,-115.1723C640.6708,-107.363 726.7479,-93.6069 810.334,-76.004"/>
<polygon fill="#191970" stroke="#191970" points="811.1956,-79.3991 820.2485,-73.8951 809.7392,-72.5523 811.1956,-79.3991"/>
</g>
<!-- Node22 -->
<g id="node18" class="node">
<title>Node22</title>
<g id="a_node18"><a xlink:title=" ">
<polygon fill="#ffffff" stroke="#bfbfbf" points="1084.5,-56.5 1084.5,-75.5 1143.5,-75.5 1143.5,-56.5 1084.5,-56.5"/>
<text text-anchor="middle" x="1114" y="-63.5" font-family="Helvetica,sans-Serif" font-size="10.00" fill="#000000">inttypes.h</text>
</a>
</g>
</g>
<!-- Node1&#45;&gt;Node22 -->
<g id="edge19" class="edge">
<title>Node1&#45;&gt;Node22</title>
<path fill="none" stroke="#191970" d="M588.5179,-120.0842C680.8079,-115.8128 893.411,-103.6268 1070,-76 1071.4512,-75.773 1072.9258,-75.5256 1074.4127,-75.2619"/>
<polygon fill="#191970" stroke="#191970" points="1075.1416,-78.6858 1084.2842,-73.332 1073.7984,-71.8158 1075.1416,-78.6858"/>
</g>
<!-- Node17&#45;&gt;Node5 -->
<g id="edge18" class="edge">
<title>Node17&#45;&gt;Node5</title>
<path fill="none" stroke="#191970" d="M820.2199,-58.2327C817.1108,-57.4611 813.9939,-56.7038 811,-56 748.0085,-41.1919 674.164,-25.8243 631.4622,-17.1317"/>
<polygon fill="#191970" stroke="#191970" points="632.0547,-13.6806 621.5583,-15.1217 630.6624,-20.5408 632.0547,-13.6806"/>
</g>
<!-- Node17&#45;&gt;Node14 -->
<g id="edge17" class="edge">
<title>Node17&#45;&gt;Node14</title>
<path fill="none" stroke="#191970" d="M867.9412,-56.2455C884.04,-47.4928 907.8879,-34.527 926.2391,-24.5496"/>
<polygon fill="#191970" stroke="#191970" points="928.1507,-27.4942 935.2644,-19.6427 924.8071,-21.3444 928.1507,-27.4942"/>
</g>
</g>
</svg>
