<?xml version="1.0" encoding="UTF-8" standalone="no"?>
<!DOCTYPE svg PUBLIC "-//W3C//DTD SVG 1.1//EN"
 "http://www.w3.org/Graphics/SVG/1.1/DTD/svg11.dtd">
<!-- Generated by graphviz version 2.43.0 (0)
 -->
<!-- Title: client/pps&#45;client.h Pages: 1 -->
<svg width="1261pt" height="140pt"
 viewBox="0.00 0.00 1260.50 140.00" xmlns="http://www.w3.org/2000/svg" xmlns:xlink="http://www.w3.org/1999/xlink">
<g id="graph0" class="graph" transform="scale(1 1) rotate(0) translate(4 136)">
<title>client/pps&#45;client.h</title>
<polygon fill="white" stroke="transparent" points="-4,4 -4,-136 1256.5,-136 1256.5,4 -4,4"/>
<!-- Node1 -->
<g id="node1" class="node">
<title>Node1</title>
<g id="a_node1"><a xlink:title="This file contains includes, defines and structures for PPS&#45;Client.">
<polygon fill="#bfbfbf" stroke="black" points="497,-112.5 497,-131.5 601,-131.5 601,-112.5 497,-112.5"/>
<text text-anchor="middle" x="549" y="-119.5" font-family="Helvetica,sans-Serif" font-size="10.00">client/pps&#45;client.h</text>
</a>
</g>
</g>
<!-- Node2 -->
<g id="node2" class="node">
<title>Node2</title>
<g id="a_node2"><a xlink:title=" ">
<polygon fill="white" stroke="#bfbfbf" points="0,-56.5 0,-75.5 50,-75.5 50,-56.5 0,-56.5"/>
<text text-anchor="middle" x="25" y="-63.5" font-family="Helvetica,sans-Serif" font-size="10.00">stdio.h</text>
</a>
</g>
</g>
<!-- Node1&#45;&gt;Node2 -->
<g id="edge1" class="edge">
<title>Node1&#45;&gt;Node2</title>
<path fill="none" stroke="midnightblue" d="M496.76,-119.07C408.62,-115.19 224.68,-104.41 60.44,-75.97"/>
<polygon fill="midnightblue" stroke="midnightblue" points="60.6,-72.44 50.15,-74.16 59.39,-79.34 60.6,-72.44"/>
</g>
<!-- Node3 -->
<g id="node3" class="node">
<title>Node3</title>
<g id="a_node3"><a xlink:title=" ">
<polygon fill="white" stroke="#bfbfbf" points="68.5,-56.5 68.5,-75.5 121.5,-75.5 121.5,-56.5 68.5,-56.5"/>
<text text-anchor="middle" x="95" y="-63.5" font-family="Helvetica,sans-Serif" font-size="10.00">stdlib.h</text>
</a>
</g>
</g>
<!-- Node1&#45;&gt;Node3 -->
<g id="edge2" class="edge">
<title>Node1&#45;&gt;Node3</title>
<path fill="none" stroke="midnightblue" d="M496.87,-117.7C419.31,-112.29 268.87,-99.84 131.51,-75.84"/>
<polygon fill="midnightblue" stroke="midnightblue" points="132.11,-72.39 121.65,-74.1 130.88,-79.29 132.11,-72.39"/>
</g>
<!-- Node4 -->
<g id="node4" class="node">
<title>Node4</title>
<g id="a_node4"><a xlink:title=" ">
<polygon fill="white" stroke="#bfbfbf" points="140,-56.5 140,-75.5 188,-75.5 188,-56.5 140,-56.5"/>
<text text-anchor="middle" x="164" y="-63.5" font-family="Helvetica,sans-Serif" font-size="10.00">time.h</text>
</a>
</g>
</g>
<!-- Node1&#45;&gt;Node4 -->
<g id="edge3" class="edge">
<title>Node1&#45;&gt;Node4</title>
<path fill="none" stroke="midnightblue" d="M496.71,-115.93C428.56,-108.92 305.83,-94.98 202,-76 200.72,-75.77 199.43,-75.52 198.12,-75.26"/>
<polygon fill="midnightblue" stroke="midnightblue" points="198.56,-71.77 188.04,-73.09 197.08,-78.62 198.56,-71.77"/>
</g>
<!-- Node5 -->
<g id="node5" class="node">
<title>Node5</title>
<g id="a_node5"><a xlink:title=" ">
<polygon fill="white" stroke="#bfbfbf" points="189,-0.5 189,-19.5 245,-19.5 245,-0.5 189,-0.5"/>
<text text-anchor="middle" x="217" y="-7.5" font-family="Helvetica,sans-Serif" font-size="10.00">unistd.h</text>
</a>
</g>
</g>
<!-- Node1&#45;&gt;Node5 -->
<g id="edge4" class="edge">
<title>Node1&#45;&gt;Node5</title>
<path fill="none" stroke="midnightblue" d="M496.84,-120.25C417.82,-118.02 272.94,-109.37 235,-76 221.97,-64.54 217.99,-44.56 216.96,-29.77"/>
<polygon fill="midnightblue" stroke="midnightblue" points="220.45,-29.58 216.63,-19.7 213.46,-29.8 220.45,-29.58"/>
</g>
<!-- Node6 -->
<g id="node6" class="node">
<title>Node6</title>
<g id="a_node6"><a xlink:title=" ">
<polygon fill="white" stroke="#bfbfbf" points="404.5,-56.5 404.5,-75.5 467.5,-75.5 467.5,-56.5 404.5,-56.5"/>
<text text-anchor="middle" x="436" y="-63.5" font-family="Helvetica,sans-Serif" font-size="10.00">pthread.h</text>
</a>
</g>
</g>
<!-- Node1&#45;&gt;Node6 -->
<g id="edge5" class="edge">
<title>Node1&#45;&gt;Node6</title>
<path fill="none" stroke="midnightblue" d="M531.09,-112.44C512.75,-103.68 483.99,-89.94 462.91,-79.86"/>
<polygon fill="midnightblue" stroke="midnightblue" points="464.35,-76.67 453.82,-75.52 461.33,-82.99 464.35,-76.67"/>
</g>
<!-- Node7 -->
<g id="node7" class="node">
<title>Node7</title>
<g id="a_node7"><a xlink:title=" ">
<polygon fill="white" stroke="#bfbfbf" points="485.5,-56.5 485.5,-75.5 540.5,-75.5 540.5,-56.5 485.5,-56.5"/>
<text text-anchor="middle" x="513" y="-63.5" font-family="Helvetica,sans-Serif" font-size="10.00">signal.h</text>
</a>
</g>
</g>
<!-- Node1&#45;&gt;Node7 -->
<g id="edge6" class="edge">
<title>Node1&#45;&gt;Node7</title>
<path fill="none" stroke="midnightblue" d="M543.06,-112.08C538.02,-104.53 530.66,-93.49 524.49,-84.23"/>
<polygon fill="midnightblue" stroke="midnightblue" points="527.29,-82.13 518.83,-75.75 521.47,-86.01 527.29,-82.13"/>
</g>
<!-- Node8 -->
<g id="node8" class="node">
<title>Node8</title>
<g id="a_node8"><a xlink:title=" ">
<polygon fill="white" stroke="#bfbfbf" points="558.5,-56.5 558.5,-75.5 611.5,-75.5 611.5,-56.5 558.5,-56.5"/>
<text text-anchor="middle" x="585" y="-63.5" font-family="Helvetica,sans-Serif" font-size="10.00">string.h</text>
</a>
</g>
</g>
<!-- Node1&#45;&gt;Node8 -->
<g id="edge7" class="edge">
<title>Node1&#45;&gt;Node8</title>
<path fill="none" stroke="midnightblue" d="M554.94,-112.08C559.98,-104.53 567.34,-93.49 573.51,-84.23"/>
<polygon fill="midnightblue" stroke="midnightblue" points="576.53,-86.01 579.17,-75.75 570.71,-82.13 576.53,-86.01"/>
</g>
<!-- Node9 -->
<g id="node9" class="node">
<title>Node9</title>
<g id="a_node9"><a xlink:title=" ">
<polygon fill="white" stroke="#bfbfbf" points="630,-56.5 630,-75.5 694,-75.5 694,-56.5 630,-56.5"/>
<text text-anchor="middle" x="662" y="-63.5" font-family="Helvetica,sans-Serif" font-size="10.00">sys/stat.h</text>
</a>
</g>
</g>
<!-- Node1&#45;&gt;Node9 -->
<g id="edge8" class="edge">
<title>Node1&#45;&gt;Node9</title>
<path fill="none" stroke="midnightblue" d="M566.91,-112.44C585.25,-103.68 614.01,-89.94 635.09,-79.86"/>
<polygon fill="midnightblue" stroke="midnightblue" points="636.67,-82.99 644.18,-75.52 633.65,-76.67 636.67,-82.99"/>
</g>
<!-- Node10 -->
<g id="node10" class="node">
<title>Node10</title>
<g id="a_node10"><a xlink:title=" ">
<polygon fill="white" stroke="#bfbfbf" points="712.5,-56.5 712.5,-75.5 759.5,-75.5 759.5,-56.5 712.5,-56.5"/>
<text text-anchor="middle" x="736" y="-63.5" font-family="Helvetica,sans-Serif" font-size="10.00">fcntl.h</text>
</a>
</g>
</g>
<!-- Node1&#45;&gt;Node10 -->
<g id="edge9" class="edge">
<title>Node1&#45;&gt;Node10</title>
<path fill="none" stroke="midnightblue" d="M578.63,-112.44C612.37,-102.7 667.38,-86.82 702.61,-76.64"/>
<polygon fill="midnightblue" stroke="midnightblue" points="703.79,-79.94 712.43,-73.81 701.85,-73.22 703.79,-79.94"/>
</g>
<!-- Node11 -->
<g id="node11" class="node">
<title>Node11</title>
<g id="a_node11"><a xlink:title=" ">
<polygon fill="white" stroke="#bfbfbf" points="778,-56.5 778,-75.5 852,-75.5 852,-56.5 778,-56.5"/>
<text text-anchor="middle" x="815" y="-63.5" font-family="Helvetica,sans-Serif" font-size="10.00">sys/timex.h</text>
</a>
</g>
</g>
<!-- Node1&#45;&gt;Node11 -->
<g id="edge10" class="edge">
<title>Node1&#45;&gt;Node11</title>
<path fill="none" stroke="midnightblue" d="M591.15,-112.44C639.25,-102.68 717.73,-86.75 767.84,-76.57"/>
<polygon fill="midnightblue" stroke="midnightblue" points="768.67,-79.98 777.77,-74.56 767.27,-73.12 768.67,-79.98"/>
</g>
<!-- Node12 -->
<g id="node12" class="node">
<title>Node12</title>
<g id="a_node12"><a xlink:title=" ">
<polygon fill="white" stroke="#bfbfbf" points="263,-0.5 263,-19.5 331,-19.5 331,-0.5 263,-0.5"/>
<text text-anchor="middle" x="297" y="-7.5" font-family="Helvetica,sans-Serif" font-size="10.00">sys/time.h</text>
</a>
</g>
</g>
<!-- Node1&#45;&gt;Node12 -->
<g id="edge11" class="edge">
<title>Node1&#45;&gt;Node12</title>
<path fill="none" stroke="midnightblue" d="M496.81,-112.94C462.12,-106.22 416.26,-94.67 379,-76 353.28,-63.11 327.99,-41.29 312.45,-26.52"/>
<polygon fill="midnightblue" stroke="midnightblue" points="314.87,-23.99 305.26,-19.53 309.99,-29.01 314.87,-23.99"/>
</g>
<!-- Node13 -->
<g id="node13" class="node">
<title>Node13</title>
<g id="a_node13"><a xlink:title=" ">
<polygon fill="white" stroke="#bfbfbf" points="870.5,-56.5 870.5,-75.5 921.5,-75.5 921.5,-56.5 870.5,-56.5"/>
<text text-anchor="middle" x="896" y="-63.5" font-family="Helvetica,sans-Serif" font-size="10.00">math.h</text>
</a>
</g>
</g>
<!-- Node1&#45;&gt;Node13 -->
<g id="edge12" class="edge">
<title>Node1&#45;&gt;Node13</title>
<path fill="none" stroke="midnightblue" d="M601.19,-115.23C661.32,-108.19 763.26,-95.05 860.46,-75.9"/>
<polygon fill="midnightblue" stroke="midnightblue" points="861.34,-79.3 870.46,-73.91 859.97,-72.43 861.34,-79.3"/>
</g>
<!-- Node14 -->
<g id="node14" class="node">
<title>Node14</title>
<g id="a_node14"><a xlink:title=" ">
<polygon fill="white" stroke="#bfbfbf" points="940,-56.5 940,-75.5 1012,-75.5 1012,-56.5 940,-56.5"/>
<text text-anchor="middle" x="976" y="-63.5" font-family="Helvetica,sans-Serif" font-size="10.00">sys/types.h</text>
</a>
</g>
</g>
<!-- Node1&#45;&gt;Node14 -->
<g id="edge13" class="edge">
<title>Node1&#45;&gt;Node14</title>
<path fill="none" stroke="midnightblue" d="M601.08,-116.2C672.84,-109.29 806.33,-95.38 929.7,-76.1"/>
<polygon fill="midnightblue" stroke="midnightblue" points="930.36,-79.54 939.7,-74.52 929.27,-72.62 930.36,-79.54"/>
</g>
<!-- Node15 -->
<g id="node15" class="node">
<title>Node15</title>
<g id="a_node15"><a xlink:title=" ">
<polygon fill="white" stroke="#bfbfbf" points="349.5,-0.5 349.5,-19.5 400.5,-19.5 400.5,-0.5 349.5,-0.5"/>
<text text-anchor="middle" x="375" y="-7.5" font-family="Helvetica,sans-Serif" font-size="10.00">errno.h</text>
</a>
</g>
</g>
<!-- Node1&#45;&gt;Node15 -->
<g id="edge14" class="edge">
<title>Node1&#45;&gt;Node15</title>
<path fill="none" stroke="midnightblue" d="M496.72,-117.82C463.86,-113.17 422.78,-102.08 396,-76 383.67,-63.99 378.57,-44.69 376.46,-30.24"/>
<polygon fill="midnightblue" stroke="midnightblue" points="379.9,-29.48 375.34,-19.92 372.94,-30.24 379.9,-29.48"/>
</g>
<!-- Node16 -->
<g id="node16" class="node">
<title>Node16</title>
<g id="a_node16"><a xlink:title=" ">
<polygon fill="white" stroke="#bfbfbf" points="1030,-56.5 1030,-75.5 1074,-75.5 1074,-56.5 1030,-56.5"/>
<text text-anchor="middle" x="1052" y="-63.5" font-family="Helvetica,sans-Serif" font-size="10.00">poll.h</text>
</a>
</g>
</g>
<!-- Node1&#45;&gt;Node16 -->
<g id="edge15" class="edge">
<title>Node1&#45;&gt;Node16</title>
<path fill="none" stroke="midnightblue" d="M601.13,-119.22C686.82,-115.6 862.8,-105.25 1019.93,-75.87"/>
<polygon fill="midnightblue" stroke="midnightblue" points="1020.6,-79.3 1029.77,-73.99 1019.29,-72.42 1020.6,-79.3"/>
</g>
<!-- Node17 -->
<g id="node17" class="node">
<title>Node17</title>
<g id="a_node17"><a xlink:title=" ">
<polygon fill="white" stroke="#bfbfbf" points="1092.5,-56.5 1092.5,-75.5 1169.5,-75.5 1169.5,-56.5 1092.5,-56.5"/>
<text text-anchor="middle" x="1131" y="-63.5" font-family="Helvetica,sans-Serif" font-size="10.00">sys/mman.h</text>
</a>
</g>
</g>
<!-- Node1&#45;&gt;Node17 -->
<g id="edge16" class="edge">
<title>Node1&#45;&gt;Node17</title>
<path fill="none" stroke="midnightblue" d="M601.12,-118.37C695.15,-113.23 899.58,-100.31 1082.22,-75.96"/>
<polygon fill="midnightblue" stroke="midnightblue" points="1082.84,-79.41 1092.28,-74.61 1081.9,-72.48 1082.84,-79.41"/>
</g>
<!-- Node18 -->
<g id="node18" class="node">
<title>Node18</title>
<g id="a_node18"><a xlink:href="../../de/d98/timepps_8h.html" target="_top" xlink:title=" ">
<polygon fill="white" stroke="red" points="244.5,-56.5 244.5,-75.5 309.5,-75.5 309.5,-56.5 244.5,-56.5"/>
<text text-anchor="middle" x="277" y="-63.5" font-family="Helvetica,sans-Serif" font-size="10.00">timepps.h</text>
</a>
</g>
</g>
<!-- Node1&#45;&gt;Node18 -->
<g id="edge17" class="edge">
<title>Node1&#45;&gt;Node18</title>
<path fill="none" stroke="midnightblue" d="M505.9,-112.44C454.89,-102.32 370.47,-85.56 319.66,-75.47"/>
<polygon fill="midnightblue" stroke="midnightblue" points="320.14,-72 309.65,-73.48 318.78,-78.86 320.14,-72"/>
</g>
<!-- Node22 -->
<g id="node19" class="node">
<title>Node22</title>
<g id="a_node19"><a xlink:title=" ">
<polygon fill="white" stroke="#bfbfbf" points="1187.5,-56.5 1187.5,-75.5 1252.5,-75.5 1252.5,-56.5 1187.5,-56.5"/>
<text text-anchor="middle" x="1220" y="-63.5" font-family="Helvetica,sans-Serif" font-size="10.00">inttypes.h</text>
</a>
</g>
</g>
<!-- Node1&#45;&gt;Node22 -->
<g id="edge21" class="edge">
<title>Node1&#45;&gt;Node22</title>
<path fill="none" stroke="midnightblue" d="M601.13,-119.83C707.71,-116.88 958.29,-107.12 1177.33,-76.05"/>
<polygon fill="midnightblue" stroke="midnightblue" points="1178,-79.49 1187.4,-74.6 1177.01,-72.56 1178,-79.49"/>
</g>
<!-- Node18&#45;&gt;Node5 -->
<g id="edge19" class="edge">
<title>Node18&#45;&gt;Node5</title>
<path fill="none" stroke="midnightblue" d="M267.36,-56.32C258.49,-48.34 245.13,-36.31 234.39,-26.65"/>
<polygon fill="midnightblue" stroke="midnightblue" points="236.59,-23.92 226.82,-19.83 231.91,-29.13 236.59,-23.92"/>
</g>
<!-- Node18&#45;&gt;Node12 -->
<g id="edge20" class="edge">
<title>Node18&#45;&gt;Node12</title>
<path fill="none" stroke="midnightblue" d="M280.3,-56.08C282.98,-48.85 286.85,-38.41 290.19,-29.4"/>
<polygon fill="midnightblue" stroke="midnightblue" points="293.57,-30.34 293.76,-19.75 287,-27.91 293.57,-30.34"/>
</g>
<!-- Node18&#45;&gt;Node15 -->
<g id="edge18" class="edge">
<title>Node18&#45;&gt;Node15</title>
<path fill="none" stroke="midnightblue" d="M292.75,-56.32C308.32,-47.74 332.38,-34.49 350.46,-24.52"/>
<polygon fill="midnightblue" stroke="midnightblue" points="352.22,-27.55 359.29,-19.65 348.85,-21.42 352.22,-27.55"/>
</g>
</g>
</svg>
