<?xml version="1.0" encoding="UTF-8" standalone="no"?>
<!DOCTYPE svg PUBLIC "-//W3C//DTD SVG 1.1//EN"
 "http://www.w3.org/Graphics/SVG/1.1/DTD/svg11.dtd">
<!-- Generated by graphviz version 2.40.1 (20161225.0304)
 -->
<!-- Title: writeTimestamp Pages: 1 -->
<svg width="298pt" height="47pt"
 viewBox="0.00 0.00 298.00 47.00" xmlns="http://www.w3.org/2000/svg" xmlns:xlink="http://www.w3.org/1999/xlink">
<g id="graph0" class="graph" transform="scale(1 1) rotate(0) translate(4 43)">
<title>writeTimestamp</title>
<polygon fill="#ffffff" stroke="transparent" points="-4,4 -4,-43 294,-43 294,4 -4,4"/>
<!-- Node1 -->
<g id="node1" class="node">
<title>Node1</title>
<g id="a_node1"><a xlink:title=" ">
<polygon fill="#bfbfbf" stroke="#000000" points="0,-.5 0,-19.5 86,-19.5 86,-.5 0,-.5"/>
<text text-anchor="middle" x="43" y="-7.5" font-family="Helvetica,sans-Serif" font-size="10.00" fill="#000000">writeTimestamp</text>
</a>
</g>
</g>
<!-- Node2 -->
<g id="node2" class="node">
<title>Node2</title>
<g id="a_node2"><a xlink:href="../../d0/d3e/pps-files_8cpp.html#a44d1b7b3f8e3181274fae172922847b6" target="_top" xlink:title=" ">
<polygon fill="#ffffff" stroke="#ff0000" points="122,-19.5 122,-38.5 189,-38.5 189,-19.5 122,-19.5"/>
<text text-anchor="middle" x="155.5" y="-26.5" font-family="Helvetica,sans-Serif" font-size="10.00" fill="#000000">open_logerr</text>
</a>
</g>
</g>
<!-- Node1&#45;&gt;Node2 -->
<g id="edge1" class="edge">
<title>Node1&#45;&gt;Node2</title>
<path fill="none" stroke="#191970" d="M86.1737,-17.2916C94.5437,-18.7052 103.3226,-20.1878 111.7121,-21.6047"/>
<polygon fill="#191970" stroke="#191970" points="111.2554,-25.0771 121.6986,-23.2913 112.4212,-18.1748 111.2554,-25.0771"/>
</g>
<!-- Node4 -->
<g id="node3" class="node">
<title>Node4</title>
<g id="a_node3"><a xlink:href="../../d0/d3e/pps-files_8cpp.html#a6d6a61f9f40278df5e7ba5fa5b3a9d31" target="_top" xlink:title=" ">
<polygon fill="#ffffff" stroke="#ff0000" points="225,-.5 225,-19.5 290,-19.5 290,-.5 225,-.5"/>
<text text-anchor="middle" x="257.5" y="-7.5" font-family="Helvetica,sans-Serif" font-size="10.00" fill="#000000">writeToLog</text>
</a>
</g>
</g>
<!-- Node1&#45;&gt;Node4 -->
<g id="edge3" class="edge">
<title>Node1&#45;&gt;Node4</title>
<path fill="none" stroke="#191970" d="M86.1492,-10C123.6108,-10 177.5529,-10 214.8631,-10"/>
<polygon fill="#191970" stroke="#191970" points="214.918,-13.5001 224.918,-10 214.9179,-6.5001 214.918,-13.5001"/>
</g>
<!-- Node2&#45;&gt;Node4 -->
<g id="edge2" class="edge">
<title>Node2&#45;&gt;Node4</title>
<path fill="none" stroke="#191970" d="M189.1813,-22.726C197.4394,-21.1878 206.385,-19.5214 214.9978,-17.9171"/>
<polygon fill="#191970" stroke="#191970" points="215.7046,-21.3457 224.8946,-16.0736 214.4227,-14.4641 215.7046,-21.3457"/>
</g>
</g>
</svg>
