<?xml version="1.0" encoding="UTF-8" standalone="no"?>
<!DOCTYPE svg PUBLIC "-//W3C//DTD SVG 1.1//EN"
 "http://www.w3.org/Graphics/SVG/1.1/DTD/svg11.dtd">
<!-- Generated by graphviz version 2.40.1 (20161225.0304)
 -->
<!-- Title: bufferStatusMsg Pages: 1 -->
<svg width="393pt" height="180pt"
 viewBox="0.00 0.00 393.00 180.00" xmlns="http://www.w3.org/2000/svg" xmlns:xlink="http://www.w3.org/1999/xlink">
<g id="graph0" class="graph" transform="scale(1 1) rotate(0) translate(4 176)">
<title>bufferStatusMsg</title>
<polygon fill="#ffffff" stroke="transparent" points="-4,4 -4,-176 389,-176 389,4 -4,4"/>
<!-- Node1 -->
<g id="node1" class="node">
<title>Node1</title>
<g id="a_node1"><a xlink:title=" ">
<polygon fill="#bfbfbf" stroke="#000000" points="296,-76.5 296,-95.5 385,-95.5 385,-76.5 296,-76.5"/>
<text text-anchor="middle" x="340.5" y="-83.5" font-family="Helvetica,sans-Serif" font-size="10.00" fill="#000000">bufferStatusMsg</text>
</a>
</g>
</g>
<!-- Node2 -->
<g id="node2" class="node">
<title>Node2</title>
<g id="a_node2"><a xlink:href="../../d0/d3e/pps-files_8cpp.html#a99055dd0dc705a74bb0b3ab03fea92e3" target="_top" xlink:title=" ">
<polygon fill="#ffffff" stroke="#ff0000" points="148,-152.5 148,-171.5 246,-171.5 246,-152.5 148,-152.5"/>
<text text-anchor="middle" x="197" y="-159.5" font-family="Helvetica,sans-Serif" font-size="10.00" fill="#000000">bufferStateParams</text>
</a>
</g>
</g>
<!-- Node1&#45;&gt;Node2 -->
<g id="edge1" class="edge">
<title>Node1&#45;&gt;Node2</title>
<path fill="none" stroke="#191970" d="M319.1229,-101.5721C303.3103,-112.6462 280.9695,-127.381 260,-138 249.1406,-143.4992 236.707,-148.4913 225.7704,-152.4806"/>
<polygon fill="#191970" stroke="#191970" points="321.4956,-104.1797 327.619,-95.5337 317.4403,-98.474 321.4956,-104.1797"/>
</g>
<!-- Node4 -->
<g id="node3" class="node">
<title>Node4</title>
<g id="a_node3"><a xlink:href="../../d5/d60/pps-client_8cpp.html#a0ddf1224851353fc92bfbff6f499fa97" target="_top" xlink:title=" ">
<polygon fill="#ffffff" stroke="#000000" points="30,-95.5 30,-114.5 68,-114.5 68,-95.5 30,-95.5"/>
<text text-anchor="middle" x="49" y="-102.5" font-family="Helvetica,sans-Serif" font-size="10.00" fill="#000000">main</text>
</a>
</g>
</g>
<!-- Node1&#45;&gt;Node4 -->
<g id="edge2" class="edge">
<title>Node1&#45;&gt;Node4</title>
<path fill="none" stroke="#191970" d="M298.0052,-97.97C285.8338,-100.8677 272.4805,-103.5471 260,-105 189.7746,-113.1752 105.5089,-109.0237 68.2874,-106.4853"/>
<polygon fill="#191970" stroke="#191970" points="299.0471,-101.3176 307.9062,-95.5067 297.357,-94.5247 299.0471,-101.3176"/>
</g>
<!-- Node5 -->
<g id="node4" class="node">
<title>Node5</title>
<g id="a_node4"><a xlink:href="../../d5/d60/pps-client_8cpp.html#a0010a2340006cbbcd5a4588b587a59c7" target="_top" xlink:title=" ">
<polygon fill="#ffffff" stroke="#ff0000" points="0,-57.5 0,-76.5 98,-76.5 98,-57.5 0,-57.5"/>
<text text-anchor="middle" x="49" y="-64.5" font-family="Helvetica,sans-Serif" font-size="10.00" fill="#000000">readPPS_SetTime</text>
</a>
</g>
</g>
<!-- Node1&#45;&gt;Node5 -->
<g id="edge3" class="edge">
<title>Node1&#45;&gt;Node5</title>
<path fill="none" stroke="#191970" d="M298.0052,-74.03C285.8338,-71.1323 272.4805,-68.4529 260,-67 204.8749,-60.5827 141.0983,-61.7609 98.2163,-63.7921"/>
<polygon fill="#191970" stroke="#191970" points="297.357,-77.4753 307.9062,-76.4933 299.0471,-70.6824 297.357,-77.4753"/>
</g>
<!-- Node6 -->
<g id="node5" class="node">
<title>Node6</title>
<g id="a_node5"><a xlink:href="../../d0/d3e/pps-files_8cpp.html#a6d6a61f9f40278df5e7ba5fa5b3a9d31" target="_top" xlink:title=" ">
<polygon fill="#ffffff" stroke="#ff0000" points="164.5,-76.5 164.5,-95.5 229.5,-95.5 229.5,-76.5 164.5,-76.5"/>
<text text-anchor="middle" x="197" y="-83.5" font-family="Helvetica,sans-Serif" font-size="10.00" fill="#000000">writeToLog</text>
</a>
</g>
</g>
<!-- Node1&#45;&gt;Node6 -->
<g id="edge4" class="edge">
<title>Node1&#45;&gt;Node6</title>
<path fill="none" stroke="#191970" d="M285.8761,-86C266.9528,-86 246.3416,-86 229.7363,-86"/>
<polygon fill="#191970" stroke="#191970" points="285.8823,-89.5001 295.8823,-86 285.8823,-82.5001 285.8823,-89.5001"/>
</g>
<!-- Node52 -->
<g id="node6" class="node">
<title>Node52</title>
<g id="a_node6"><a xlink:href="../../d0/d3e/pps-files_8cpp.html#a01969eeb557969d5dbd30f22e2cdecc3" target="_top" xlink:title=" ">
<polygon fill="#ffffff" stroke="#ff0000" points="134,-.5 134,-19.5 260,-19.5 260,-.5 134,-.5"/>
<text text-anchor="middle" x="197" y="-7.5" font-family="Helvetica,sans-Serif" font-size="10.00" fill="#000000">writeToLogNoTimestamp</text>
</a>
</g>
</g>
<!-- Node1&#45;&gt;Node52 -->
<g id="edge7" class="edge">
<title>Node1&#45;&gt;Node52</title>
<path fill="none" stroke="#191970" d="M319.1229,-70.4279C303.3103,-59.3538 280.9695,-44.619 260,-34 249.1406,-28.5008 236.707,-23.5087 225.7704,-19.5194"/>
<polygon fill="#191970" stroke="#191970" points="317.4403,-73.526 327.619,-76.4663 321.4956,-67.8203 317.4403,-73.526"/>
</g>
<!-- Node6&#45;&gt;Node4 -->
<g id="edge5" class="edge">
<title>Node6&#45;&gt;Node4</title>
<path fill="none" stroke="#191970" d="M154.0678,-91.5116C125.6655,-95.1578 89.8027,-99.7618 68.173,-102.5386"/>
<polygon fill="#191970" stroke="#191970" points="154.6811,-94.9616 164.154,-90.2167 153.7897,-88.0186 154.6811,-94.9616"/>
</g>
<!-- Node6&#45;&gt;Node5 -->
<g id="edge6" class="edge">
<title>Node6&#45;&gt;Node5</title>
<path fill="none" stroke="#191970" d="M154.1887,-80.504C136.6351,-78.2505 116.2158,-75.6291 98.0634,-73.2987"/>
<polygon fill="#191970" stroke="#191970" points="153.7897,-83.9814 164.154,-81.7833 154.6811,-77.0384 153.7897,-83.9814"/>
</g>
</g>
</svg>
