<?xml version="1.0" encoding="UTF-8" standalone="no"?>
<!DOCTYPE svg PUBLIC "-//W3C//DTD SVG 1.1//EN"
 "http://www.w3.org/Graphics/SVG/1.1/DTD/svg11.dtd">
<!-- Generated by graphviz version 2.40.1 (20161225.0304)
 -->
<!-- Title: getRPiCPU Pages: 1 -->
<svg width="280pt" height="47pt"
 viewBox="0.00 0.00 280.00 47.00" xmlns="http://www.w3.org/2000/svg" xmlns:xlink="http://www.w3.org/1999/xlink">
<g id="graph0" class="graph" transform="scale(1 1) rotate(0) translate(4 43)">
<title>getRPiCPU</title>
<polygon fill="#ffffff" stroke="transparent" points="-4,4 -4,-43 276,-43 276,4 -4,4"/>
<!-- Node1 -->
<g id="node1" class="node">
<title>Node1</title>
<g id="a_node1"><a xlink:title=" ">
<polygon fill="#bfbfbf" stroke="#000000" points="0,-.5 0,-19.5 68,-19.5 68,-.5 0,-.5"/>
<text text-anchor="middle" x="34" y="-7.5" font-family="Helvetica,sans-Serif" font-size="10.00" fill="#000000">getRPiCPU</text>
</a>
</g>
</g>
<!-- Node2 -->
<g id="node2" class="node">
<title>Node2</title>
<g id="a_node2"><a xlink:href="../../d0/d3e/pps-files_8cpp.html#a44d1b7b3f8e3181274fae172922847b6" target="_top" xlink:title=" ">
<polygon fill="#ffffff" stroke="#ff0000" points="104,-19.5 104,-38.5 171,-38.5 171,-19.5 104,-19.5"/>
<text text-anchor="middle" x="137.5" y="-26.5" font-family="Helvetica,sans-Serif" font-size="10.00" fill="#000000">open_logerr</text>
</a>
</g>
</g>
<!-- Node1&#45;&gt;Node2 -->
<g id="edge1" class="edge">
<title>Node1&#45;&gt;Node2</title>
<path fill="none" stroke="#191970" d="M68.1766,-16.274C76.3869,-17.7812 85.2668,-19.4113 93.8427,-20.9856"/>
<polygon fill="#191970" stroke="#191970" points="93.2444,-24.4342 103.7121,-22.7974 94.5084,-17.5492 93.2444,-24.4342"/>
</g>
<!-- Node4 -->
<g id="node3" class="node">
<title>Node4</title>
<g id="a_node3"><a xlink:href="../../d0/d3e/pps-files_8cpp.html#a6d6a61f9f40278df5e7ba5fa5b3a9d31" target="_top" xlink:title=" ">
<polygon fill="#ffffff" stroke="#ff0000" points="207,-.5 207,-19.5 272,-19.5 272,-.5 207,-.5"/>
<text text-anchor="middle" x="239.5" y="-7.5" font-family="Helvetica,sans-Serif" font-size="10.00" fill="#000000">writeToLog</text>
</a>
</g>
</g>
<!-- Node1&#45;&gt;Node4 -->
<g id="edge3" class="edge">
<title>Node1&#45;&gt;Node4</title>
<path fill="none" stroke="#191970" d="M68.3961,-10C103.5924,-10 158.3722,-10 196.431,-10"/>
<polygon fill="#191970" stroke="#191970" points="196.6921,-13.5001 206.692,-10 196.692,-6.5001 196.6921,-13.5001"/>
</g>
<!-- Node2&#45;&gt;Node4 -->
<g id="edge2" class="edge">
<title>Node2&#45;&gt;Node4</title>
<path fill="none" stroke="#191970" d="M171.1813,-22.726C179.4394,-21.1878 188.385,-19.5214 196.9978,-17.9171"/>
<polygon fill="#191970" stroke="#191970" points="197.7046,-21.3457 206.8946,-16.0736 196.4227,-14.4641 197.7046,-21.3457"/>
</g>
</g>
</svg>
