<?xml version="1.0" encoding="UTF-8" standalone="no"?>
<!DOCTYPE svg PUBLIC "-//W3C//DTD SVG 1.1//EN"
 "http://www.w3.org/Graphics/SVG/1.1/DTD/svg11.dtd">
<!-- Generated by graphviz version 2.43.0 (0)
 -->
<!-- Title: open_logerr Pages: 1 -->
<svg width="231pt" height="408pt"
 viewBox="0.00 0.00 231.00 408.00" xmlns="http://www.w3.org/2000/svg" xmlns:xlink="http://www.w3.org/1999/xlink">
<g id="graph0" class="graph" transform="scale(1 1) rotate(0) translate(4 404)">
<title>open_logerr</title>
<polygon fill="white" stroke="transparent" points="-4,4 -4,-404 227,-404 227,4 -4,4"/>
<!-- Node1 -->
<g id="node1" class="node">
<title>Node1</title>
<g id="a_node1"><a xlink:title=" ">
<polygon fill="#bfbfbf" stroke="black" points="149,-190.5 149,-209.5 223,-209.5 223,-190.5 149,-190.5"/>
<text text-anchor="middle" x="186" y="-197.5" font-family="Helvetica,sans-Serif" font-size="10.00">open_logerr</text>
</a>
</g>
</g>
<!-- Node2 -->
<g id="node2" class="node">
<title>Node2</title>
<g id="a_node2"><a xlink:href="../../d0/d3e/pps-files_8cpp.html#a9942302e3e5272291f62fda42bdf6319" target="_top" xlink:title=" ">
<polygon fill="white" stroke="red" points="17,-380.5 17,-399.5 96,-399.5 96,-380.5 17,-380.5"/>
<text text-anchor="middle" x="56.5" y="-387.5" font-family="Helvetica,sans-Serif" font-size="10.00">createPIDfile</text>
</a>
</g>
</g>
<!-- Node1&#45;&gt;Node2 -->
<g id="edge1" class="edge">
<title>Node1&#45;&gt;Node2</title>
<path fill="none" stroke="midnightblue" d="M182.07,-219.69C175.8,-254.96 157.83,-329.15 113,-371 108.16,-375.52 102.2,-378.97 96,-381.6"/>
<polygon fill="midnightblue" stroke="midnightblue" points="185.54,-220.13 183.71,-209.69 178.64,-218.99 185.54,-220.13"/>
</g>
<!-- Node4 -->
<g id="node3" class="node">
<title>Node4</title>
<g id="a_node3"><a xlink:href="../../d0/d3e/pps-files_8cpp.html#aa402d7b46a75b43bb077558f5343f3b8" target="_top" xlink:title=" ">
<polygon fill="white" stroke="red" points="3,-342.5 3,-361.5 110,-361.5 110,-342.5 3,-342.5"/>
<text text-anchor="middle" x="56.5" y="-349.5" font-family="Helvetica,sans-Serif" font-size="10.00">daemonSaveArray</text>
</a>
</g>
</g>
<!-- Node1&#45;&gt;Node4 -->
<g id="edge2" class="edge">
<title>Node1&#45;&gt;Node4</title>
<path fill="none" stroke="midnightblue" d="M179.54,-219.28C170.43,-248.07 149.44,-302.17 113,-333 108.41,-336.88 102.99,-339.98 97.37,-342.46"/>
<polygon fill="midnightblue" stroke="midnightblue" points="182.93,-220.18 182.46,-209.59 176.22,-218.16 182.93,-220.18"/>
</g>
<!-- Node7 -->
<g id="node4" class="node">
<title>Node7</title>
<g id="a_node4"><a xlink:href="../../d0/d3e/pps-files_8cpp.html#ab03cf9b5563affdcf46a4ca95d4ff4ed" target="_top" xlink:title=" ">
<polygon fill="white" stroke="black" points="19.5,-304.5 19.5,-323.5 93.5,-323.5 93.5,-304.5 19.5,-304.5"/>
<text text-anchor="middle" x="56.5" y="-311.5" font-family="Helvetica,sans-Serif" font-size="10.00">getChildPID</text>
</a>
</g>
</g>
<!-- Node1&#45;&gt;Node7 -->
<g id="edge3" class="edge">
<title>Node1&#45;&gt;Node7</title>
<path fill="none" stroke="midnightblue" d="M175.39,-218.61C163.47,-239.94 141.23,-274.59 113,-295 107.22,-299.18 100.46,-302.49 93.67,-305.1"/>
<polygon fill="midnightblue" stroke="midnightblue" points="178.59,-220.05 180.25,-209.58 172.43,-216.72 178.59,-220.05"/>
</g>
<!-- Node8 -->
<g id="node5" class="node">
<title>Node8</title>
<g id="a_node5"><a xlink:href="../../d0/d3e/pps-files_8cpp.html#a383f3dca6d9e0e5135fdf2a7158d8e8b" target="_top" xlink:title=" ">
<polygon fill="white" stroke="red" points="22.5,-266.5 22.5,-285.5 90.5,-285.5 90.5,-266.5 22.5,-266.5"/>
<text text-anchor="middle" x="56.5" y="-273.5" font-family="Helvetica,sans-Serif" font-size="10.00">getRPiCPU</text>
</a>
</g>
</g>
<!-- Node1&#45;&gt;Node8 -->
<g id="edge4" class="edge">
<title>Node1&#45;&gt;Node8</title>
<path fill="none" stroke="midnightblue" d="M167.7,-216.49C153.82,-229 133.35,-245.89 113,-257 106.03,-260.81 98.15,-264.06 90.57,-266.74"/>
<polygon fill="midnightblue" stroke="midnightblue" points="170.08,-219.06 175.07,-209.71 165.34,-213.91 170.08,-219.06"/>
</g>
<!-- Node12 -->
<g id="node6" class="node">
<title>Node12</title>
<g id="a_node6"><a xlink:href="../../d0/d3e/pps-files_8cpp.html#a4e1eee07f00ecb77c3ae3f508744f610" target="_top" xlink:title=" ">
<polygon fill="white" stroke="red" points="6,-228.5 6,-247.5 107,-247.5 107,-228.5 6,-228.5"/>
<text text-anchor="middle" x="56.5" y="-235.5" font-family="Helvetica,sans-Serif" font-size="10.00">saveDoubleArray</text>
</a>
</g>
</g>
<!-- Node1&#45;&gt;Node12 -->
<g id="edge5" class="edge">
<title>Node1&#45;&gt;Node12</title>
<path fill="none" stroke="midnightblue" d="M142.94,-212.54C125.6,-217.7 105.82,-223.6 89.66,-228.41"/>
<polygon fill="midnightblue" stroke="midnightblue" points="144.24,-215.8 152.83,-209.59 142.24,-209.09 144.24,-215.8"/>
</g>
<!-- Node15 -->
<g id="node7" class="node">
<title>Node15</title>
<g id="a_node7"><a xlink:href="../../d0/d3e/pps-files_8cpp.html#a5ec7f61f0d9d13be935f67a3e9c71f56" target="_top" xlink:title=" ">
<polygon fill="white" stroke="red" points="13.5,-190.5 13.5,-209.5 99.5,-209.5 99.5,-190.5 13.5,-190.5"/>
<text text-anchor="middle" x="56.5" y="-197.5" font-family="Helvetica,sans-Serif" font-size="10.00">saveLastState</text>
</a>
</g>
</g>
<!-- Node1&#45;&gt;Node15 -->
<g id="edge6" class="edge">
<title>Node1&#45;&gt;Node15</title>
<path fill="none" stroke="midnightblue" d="M138.43,-200C125.74,-200 112.07,-200 99.65,-200"/>
<polygon fill="midnightblue" stroke="midnightblue" points="138.8,-203.5 148.8,-200 138.8,-196.5 138.8,-203.5"/>
</g>
<!-- Node16 -->
<g id="node8" class="node">
<title>Node16</title>
<g id="a_node8"><a xlink:href="../../d0/d3e/pps-files_8cpp.html#aa688c89aacc832cc1e7ef6ff1be6541e" target="_top" xlink:title=" ">
<polygon fill="white" stroke="red" points="7.5,-152.5 7.5,-171.5 105.5,-171.5 105.5,-152.5 7.5,-152.5"/>
<text text-anchor="middle" x="56.5" y="-159.5" font-family="Helvetica,sans-Serif" font-size="10.00">writeDistribution</text>
</a>
</g>
</g>
<!-- Node1&#45;&gt;Node16 -->
<g id="edge7" class="edge">
<title>Node1&#45;&gt;Node16</title>
<path fill="none" stroke="midnightblue" d="M142.94,-187.46C125.6,-182.3 105.82,-176.4 89.66,-171.59"/>
<polygon fill="midnightblue" stroke="midnightblue" points="142.24,-190.91 152.83,-190.41 144.24,-184.2 142.24,-190.91"/>
</g>
<!-- Node19 -->
<g id="node9" class="node">
<title>Node19</title>
<g id="a_node9"><a xlink:href="../../d0/d3e/pps-files_8cpp.html#a493e043705885cfcebc5ac807989eb4d" target="_top" xlink:title=" ">
<polygon fill="white" stroke="red" points="0,-114.5 0,-133.5 113,-133.5 113,-114.5 0,-114.5"/>
<text text-anchor="middle" x="56.5" y="-121.5" font-family="Helvetica,sans-Serif" font-size="10.00">writeFrequencyVars</text>
</a>
</g>
</g>
<!-- Node1&#45;&gt;Node19 -->
<g id="edge8" class="edge">
<title>Node1&#45;&gt;Node19</title>
<path fill="none" stroke="midnightblue" d="M167.7,-183.51C153.82,-171 133.35,-154.11 113,-143 106.3,-139.34 98.76,-136.19 91.45,-133.57"/>
<polygon fill="midnightblue" stroke="midnightblue" points="165.34,-186.09 175.07,-190.29 170.08,-180.94 165.34,-186.09"/>
</g>
<!-- Node20 -->
<g id="node10" class="node">
<title>Node20</title>
<g id="a_node10"><a xlink:href="../../d0/d3e/pps-files_8cpp.html#a73e9f77c69f58e616293b5ca5126e77f" target="_top" xlink:title=" ">
<polygon fill="white" stroke="red" points="18.5,-76.5 18.5,-95.5 94.5,-95.5 94.5,-76.5 18.5,-76.5"/>
<text text-anchor="middle" x="56.5" y="-83.5" font-family="Helvetica,sans-Serif" font-size="10.00">writeOffsets</text>
</a>
</g>
</g>
<!-- Node1&#45;&gt;Node20 -->
<g id="edge9" class="edge">
<title>Node1&#45;&gt;Node20</title>
<path fill="none" stroke="midnightblue" d="M175.39,-181.39C163.47,-160.06 141.23,-125.41 113,-105 107.47,-101 101.03,-97.79 94.54,-95.24"/>
<polygon fill="midnightblue" stroke="midnightblue" points="172.43,-183.28 180.25,-190.42 178.59,-179.95 172.43,-183.28"/>
</g>
<!-- Node21 -->
<g id="node11" class="node">
<title>Node21</title>
<g id="a_node11"><a xlink:href="../../d0/d3e/pps-files_8cpp.html#afdccb305ab5e5c4f3402fe7969c6737b" target="_top" xlink:title=" ">
<polygon fill="white" stroke="red" points="3.5,-38.5 3.5,-57.5 109.5,-57.5 109.5,-38.5 3.5,-38.5"/>
<text text-anchor="middle" x="56.5" y="-45.5" font-family="Helvetica,sans-Serif" font-size="10.00">writeStatusStrings</text>
</a>
</g>
</g>
<!-- Node1&#45;&gt;Node21 -->
<g id="edge10" class="edge">
<title>Node1&#45;&gt;Node21</title>
<path fill="none" stroke="midnightblue" d="M179.54,-180.72C170.43,-151.93 149.44,-97.83 113,-67 108.41,-63.12 102.99,-60.02 97.37,-57.54"/>
<polygon fill="midnightblue" stroke="midnightblue" points="176.22,-181.84 182.46,-190.41 182.93,-179.82 176.22,-181.84"/>
</g>
<!-- Node22 -->
<g id="node12" class="node">
<title>Node22</title>
<g id="a_node12"><a xlink:href="../../d0/d3e/pps-files_8cpp.html#aad53ec22f551c789425b2870f59fbae9" target="_top" xlink:title=" ">
<polygon fill="white" stroke="red" points="8,-0.5 8,-19.5 105,-19.5 105,-0.5 8,-0.5"/>
<text text-anchor="middle" x="56.5" y="-7.5" font-family="Helvetica,sans-Serif" font-size="10.00">writeTimestamp</text>
</a>
</g>
</g>
<!-- Node1&#45;&gt;Node22 -->
<g id="edge11" class="edge">
<title>Node1&#45;&gt;Node22</title>
<path fill="none" stroke="midnightblue" d="M182.07,-180.31C175.8,-145.04 157.83,-70.85 113,-29 108.83,-25.11 103.83,-22.01 98.56,-19.54"/>
<polygon fill="midnightblue" stroke="midnightblue" points="178.64,-181.01 183.71,-190.31 185.54,-179.87 178.64,-181.01"/>
</g>
</g>
</svg>
