<?xml version="1.0" encoding="UTF-8" standalone="no"?>
<!DOCTYPE svg PUBLIC "-//W3C//DTD SVG 1.1//EN"
 "http://www.w3.org/Graphics/SVG/1.1/DTD/svg11.dtd">
<!-- Generated by graphviz version 2.43.0 (0)
 -->
<!-- Title: getConfigs Pages: 1 -->
<svg width="232pt" height="256pt"
 viewBox="0.00 0.00 232.00 256.00" xmlns="http://www.w3.org/2000/svg" xmlns:xlink="http://www.w3.org/1999/xlink">
<g id="graph0" class="graph" transform="scale(1 1) rotate(0) translate(4 252)">
<title>getConfigs</title>
<polygon fill="white" stroke="transparent" points="-4,4 -4,-252 228,-252 228,4 -4,4"/>
<!-- Node1 -->
<g id="node1" class="node">
<title>Node1</title>
<g id="a_node1"><a xlink:title=" ">
<polygon fill="#bfbfbf" stroke="black" points="0,-114.5 0,-133.5 68,-133.5 68,-114.5 0,-114.5"/>
<text text-anchor="middle" x="34" y="-121.5" font-family="Helvetica,sans-Serif" font-size="10.00">getConfigs</text>
</a>
</g>
</g>
<!-- Node2 -->
<g id="node2" class="node">
<title>Node2</title>
<g id="a_node2"><a xlink:href="../../d0/d3e/pps-files_8cpp.html#aa561b252a1493fe975df246f58e4687b" target="_top" xlink:title=" ">
<polygon fill="white" stroke="black" points="133.5,-228.5 133.5,-247.5 194.5,-247.5 194.5,-228.5 133.5,-228.5"/>
<text text-anchor="middle" x="164" y="-235.5" font-family="Helvetica,sans-Serif" font-size="10.00">getString</text>
</a>
</g>
</g>
<!-- Node1&#45;&gt;Node2 -->
<g id="edge1" class="edge">
<title>Node1&#45;&gt;Node2</title>
<path fill="none" stroke="midnightblue" d="M39.4,-133.64C48.63,-152.76 71.81,-195.68 104,-219 109.8,-223.2 116.56,-226.5 123.41,-229.08"/>
<polygon fill="midnightblue" stroke="midnightblue" points="122.79,-232.57 133.38,-232.38 124.98,-225.92 122.79,-232.57"/>
</g>
<!-- Node3 -->
<g id="node3" class="node">
<title>Node3</title>
<g id="a_node3"><a xlink:href="../../d0/d3e/pps-files_8cpp.html#a2a2f0cb3677098122f66c3aee0b97dad" target="_top" xlink:title=" ">
<polygon fill="white" stroke="red" points="130,-190.5 130,-209.5 198,-209.5 198,-190.5 130,-190.5"/>
<text text-anchor="middle" x="164" y="-197.5" font-family="Helvetica,sans-Serif" font-size="10.00">isDisabled</text>
</a>
</g>
</g>
<!-- Node1&#45;&gt;Node3 -->
<g id="edge2" class="edge">
<title>Node1&#45;&gt;Node3</title>
<path fill="none" stroke="midnightblue" d="M44.4,-133.8C56.93,-146.35 80.29,-168.01 104,-181 109.14,-183.81 114.76,-186.29 120.43,-188.45"/>
<polygon fill="midnightblue" stroke="midnightblue" points="119.34,-191.77 129.93,-191.77 121.65,-185.17 119.34,-191.77"/>
</g>
<!-- Node5 -->
<g id="node4" class="node">
<title>Node5</title>
<g id="a_node4"><a xlink:href="../../d0/d3e/pps-files_8cpp.html#ae1ed7854dcdca9d0cd8368693da83102" target="_top" xlink:title=" ">
<polygon fill="white" stroke="red" points="132,-152.5 132,-171.5 196,-171.5 196,-152.5 132,-152.5"/>
<text text-anchor="middle" x="164" y="-159.5" font-family="Helvetica,sans-Serif" font-size="10.00">isEnabled</text>
</a>
</g>
</g>
<!-- Node1&#45;&gt;Node5 -->
<g id="edge3" class="edge">
<title>Node1&#45;&gt;Node5</title>
<path fill="none" stroke="midnightblue" d="M67.3,-133.59C83.77,-138.48 103.98,-144.48 121.58,-149.7"/>
<polygon fill="midnightblue" stroke="midnightblue" points="121.01,-153.19 131.6,-152.68 123.01,-146.48 121.01,-153.19"/>
</g>
<!-- Node6 -->
<g id="node5" class="node">
<title>Node6</title>
<g id="a_node5"><a xlink:href="../../d0/d3e/pps-files_8cpp.html#a14e312f99e221dfc6863ec3277522ea5" target="_top" xlink:title=" ">
<polygon fill="white" stroke="red" points="104,-114.5 104,-133.5 224,-133.5 224,-114.5 104,-114.5"/>
<text text-anchor="middle" x="164" y="-121.5" font-family="Helvetica,sans-Serif" font-size="10.00">processWriteRequest</text>
</a>
</g>
</g>
<!-- Node1&#45;&gt;Node6 -->
<g id="edge4" class="edge">
<title>Node1&#45;&gt;Node6</title>
<path fill="none" stroke="midnightblue" d="M68.3,-124C76.07,-124 84.63,-124 93.34,-124"/>
<polygon fill="midnightblue" stroke="midnightblue" points="93.59,-127.5 103.59,-124 93.59,-120.5 93.59,-127.5"/>
</g>
<!-- Node14 -->
<g id="node6" class="node">
<title>Node14</title>
<g id="a_node6"><a xlink:href="../../d0/d3e/pps-files_8cpp.html#ab54f3174d0d64527d7cf57100ce6ef2e" target="_top" xlink:title=" ">
<polygon fill="white" stroke="black" points="121,-76.5 121,-95.5 207,-95.5 207,-76.5 121,-76.5"/>
<text text-anchor="middle" x="164" y="-83.5" font-family="Helvetica,sans-Serif" font-size="10.00">readConfigFile</text>
</a>
</g>
</g>
<!-- Node1&#45;&gt;Node14 -->
<g id="edge5" class="edge">
<title>Node1&#45;&gt;Node14</title>
<path fill="none" stroke="midnightblue" d="M67.3,-114.41C83.52,-109.6 103.38,-103.7 120.79,-98.53"/>
<polygon fill="midnightblue" stroke="midnightblue" points="122.12,-101.79 130.71,-95.59 120.13,-95.08 122.12,-101.79"/>
</g>
<!-- Node15 -->
<g id="node7" class="node">
<title>Node15</title>
<g id="a_node7"><a xlink:href="../../d0/d3e/pps-files_8cpp.html#a82b5d210a2a50fc93755e34d3016247e" target="_top" xlink:title=" ">
<polygon fill="white" stroke="red" points="107,-38.5 107,-57.5 221,-57.5 221,-38.5 107,-38.5"/>
<text text-anchor="middle" x="164" y="-45.5" font-family="Helvetica,sans-Serif" font-size="10.00">writeErrorDistribFile</text>
</a>
</g>
</g>
<!-- Node1&#45;&gt;Node15 -->
<g id="edge6" class="edge">
<title>Node1&#45;&gt;Node15</title>
<path fill="none" stroke="midnightblue" d="M44.4,-114.2C56.93,-101.65 80.29,-79.99 104,-67 107.93,-64.85 112.14,-62.89 116.44,-61.13"/>
<polygon fill="midnightblue" stroke="midnightblue" points="117.78,-64.37 125.91,-57.57 115.32,-57.81 117.78,-64.37"/>
</g>
<!-- Node17 -->
<g id="node8" class="node">
<title>Node17</title>
<g id="a_node8"><a xlink:href="../../d0/d3e/pps-files_8cpp.html#a376e9b76d9e9b1caf06ae3bd8c969f46" target="_top" xlink:title=" ">
<polygon fill="white" stroke="red" points="107,-0.5 107,-19.5 221,-19.5 221,-0.5 107,-0.5"/>
<text text-anchor="middle" x="164" y="-7.5" font-family="Helvetica,sans-Serif" font-size="10.00">writeJitterDistribFile</text>
</a>
</g>
</g>
<!-- Node1&#45;&gt;Node17 -->
<g id="edge7" class="edge">
<title>Node1&#45;&gt;Node17</title>
<path fill="none" stroke="midnightblue" d="M39.4,-114.36C48.63,-95.24 71.81,-52.32 104,-29 106.66,-27.07 109.52,-25.34 112.5,-23.77"/>
<polygon fill="midnightblue" stroke="midnightblue" points="114.06,-26.91 121.71,-19.57 111.15,-20.54 114.06,-26.91"/>
</g>
</g>
</svg>
