<?xml version="1.0" encoding="UTF-8" standalone="no"?>
<!DOCTYPE svg PUBLIC "-//W3C//DTD SVG 1.1//EN"
 "http://www.w3.org/Graphics/SVG/1.1/DTD/svg11.dtd">
<!-- Generated by graphviz version 2.43.0 (0)
 -->
<!-- Title: getSharedConfigs Pages: 1 -->
<svg width="232pt" height="142pt"
 viewBox="0.00 0.00 232.00 142.00" xmlns="http://www.w3.org/2000/svg" xmlns:xlink="http://www.w3.org/1999/xlink">
<g id="graph0" class="graph" transform="scale(1 1) rotate(0) translate(4 138)">
<title>getSharedConfigs</title>
<polygon fill="white" stroke="transparent" points="-4,4 -4,-138 228,-138 228,4 -4,4"/>
<!-- Node1 -->
<g id="node1" class="node">
<title>Node1</title>
<g id="a_node1"><a xlink:title=" ">
<polygon fill="#bfbfbf" stroke="black" points="0,-57.5 0,-76.5 102,-76.5 102,-57.5 0,-57.5"/>
<text text-anchor="middle" x="51" y="-64.5" font-family="Helvetica,sans-Serif" font-size="10.00">getSharedConfigs</text>
</a>
</g>
</g>
<!-- Node2 -->
<g id="node2" class="node">
<title>Node2</title>
<g id="a_node2"><a xlink:href="../../d0/d3e/pps-files_8cpp.html#aa561b252a1493fe975df246f58e4687b" target="_top" xlink:title=" ">
<polygon fill="white" stroke="black" points="150.5,-114.5 150.5,-133.5 211.5,-133.5 211.5,-114.5 150.5,-114.5"/>
<text text-anchor="middle" x="181" y="-121.5" font-family="Helvetica,sans-Serif" font-size="10.00">getString</text>
</a>
</g>
</g>
<!-- Node1&#45;&gt;Node2 -->
<g id="edge1" class="edge">
<title>Node1&#45;&gt;Node2</title>
<path fill="none" stroke="midnightblue" d="M73.42,-76.54C94.19,-85.79 125.9,-99.91 149.34,-110.35"/>
<polygon fill="midnightblue" stroke="midnightblue" points="147.95,-113.56 158.51,-114.43 150.79,-107.16 147.95,-113.56"/>
</g>
<!-- Node3 -->
<g id="node3" class="node">
<title>Node3</title>
<g id="a_node3"><a xlink:href="../../d0/d3e/pps-files_8cpp.html#a2a2f0cb3677098122f66c3aee0b97dad" target="_top" xlink:title=" ">
<polygon fill="white" stroke="red" points="147,-76.5 147,-95.5 215,-95.5 215,-76.5 147,-76.5"/>
<text text-anchor="middle" x="181" y="-83.5" font-family="Helvetica,sans-Serif" font-size="10.00">isDisabled</text>
</a>
</g>
</g>
<!-- Node1&#45;&gt;Node3 -->
<g id="edge2" class="edge">
<title>Node1&#45;&gt;Node3</title>
<path fill="none" stroke="midnightblue" d="M102.22,-74.45C113.7,-76.16 125.79,-77.95 136.94,-79.61"/>
<polygon fill="midnightblue" stroke="midnightblue" points="136.45,-83.07 146.86,-81.08 137.48,-76.15 136.45,-83.07"/>
</g>
<!-- Node5 -->
<g id="node4" class="node">
<title>Node5</title>
<g id="a_node4"><a xlink:href="../../d0/d3e/pps-files_8cpp.html#ae1ed7854dcdca9d0cd8368693da83102" target="_top" xlink:title=" ">
<polygon fill="white" stroke="red" points="149,-38.5 149,-57.5 213,-57.5 213,-38.5 149,-38.5"/>
<text text-anchor="middle" x="181" y="-45.5" font-family="Helvetica,sans-Serif" font-size="10.00">isEnabled</text>
</a>
</g>
</g>
<!-- Node1&#45;&gt;Node5 -->
<g id="edge3" class="edge">
<title>Node1&#45;&gt;Node5</title>
<path fill="none" stroke="midnightblue" d="M102.22,-59.55C114.36,-57.74 127.18,-55.84 138.85,-54.11"/>
<polygon fill="midnightblue" stroke="midnightblue" points="139.37,-57.57 148.75,-52.64 138.34,-50.65 139.37,-57.57"/>
</g>
<!-- Node6 -->
<g id="node5" class="node">
<title>Node6</title>
<g id="a_node5"><a xlink:href="../../d0/d3e/pps-files_8cpp.html#ab54f3174d0d64527d7cf57100ce6ef2e" target="_top" xlink:title=" ">
<polygon fill="white" stroke="black" points="138,-0.5 138,-19.5 224,-19.5 224,-0.5 138,-0.5"/>
<text text-anchor="middle" x="181" y="-7.5" font-family="Helvetica,sans-Serif" font-size="10.00">readConfigFile</text>
</a>
</g>
</g>
<!-- Node1&#45;&gt;Node6 -->
<g id="edge4" class="edge">
<title>Node1&#45;&gt;Node6</title>
<path fill="none" stroke="midnightblue" d="M73.42,-57.46C94.19,-48.21 125.9,-34.09 149.34,-23.65"/>
<polygon fill="midnightblue" stroke="midnightblue" points="150.79,-26.84 158.51,-19.57 147.95,-20.44 150.79,-26.84"/>
</g>
</g>
</svg>
