<?xml version="1.0" encoding="UTF-8" standalone="no"?>
<!DOCTYPE svg PUBLIC "-//W3C//DTD SVG 1.1//EN"
 "http://www.w3.org/Graphics/SVG/1.1/DTD/svg11.dtd">
<!-- Generated by graphviz version 2.43.0 (0)
 -->
<!-- Title: parseSaveDataRequest Pages: 1 -->
<svg width="282pt" height="104pt"
 viewBox="0.00 0.00 282.00 104.00" xmlns="http://www.w3.org/2000/svg" xmlns:xlink="http://www.w3.org/1999/xlink">
<g id="graph0" class="graph" transform="scale(1 1) rotate(0) translate(4 100)">
<title>parseSaveDataRequest</title>
<polygon fill="white" stroke="transparent" points="-4,4 -4,-100 278,-100 278,4 -4,4"/>
<!-- Node1 -->
<g id="node1" class="node">
<title>Node1</title>
<g id="a_node1"><a xlink:title=" ">
<polygon fill="#bfbfbf" stroke="black" points="0,-38.5 0,-57.5 131,-57.5 131,-38.5 0,-38.5"/>
<text text-anchor="middle" x="65.5" y="-45.5" font-family="Helvetica,sans-Serif" font-size="10.00">parseSaveDataRequest</text>
</a>
</g>
</g>
<!-- Node2 -->
<g id="node2" class="node">
<title>Node2</title>
<g id="a_node2"><a xlink:href="../../d0/d3e/pps-files_8cpp.html#aa402d7b46a75b43bb077558f5343f3b8" target="_top" xlink:title=" ">
<polygon fill="white" stroke="red" points="167,-76.5 167,-95.5 274,-95.5 274,-76.5 167,-76.5"/>
<text text-anchor="middle" x="220.5" y="-83.5" font-family="Helvetica,sans-Serif" font-size="10.00">daemonSaveArray</text>
</a>
</g>
</g>
<!-- Node1&#45;&gt;Node2 -->
<g id="edge1" class="edge">
<title>Node1&#45;&gt;Node2</title>
<path fill="none" stroke="midnightblue" d="M105.11,-57.59C125.21,-62.58 149.98,-68.73 171.32,-74.03"/>
<polygon fill="midnightblue" stroke="midnightblue" points="170.62,-77.47 181.17,-76.48 172.31,-70.67 170.62,-77.47"/>
</g>
<!-- Node7 -->
<g id="node3" class="node">
<title>Node7</title>
<g id="a_node3"><a xlink:href="../../d0/d3e/pps-files_8cpp.html#acee307839ee7844080177e544b8b63d0" target="_top" xlink:title=" ">
<polygon fill="white" stroke="black" points="185,-38.5 185,-57.5 256,-57.5 256,-38.5 185,-38.5"/>
<text text-anchor="middle" x="220.5" y="-45.5" font-family="Helvetica,sans-Serif" font-size="10.00">missingArg</text>
</a>
</g>
</g>
<!-- Node1&#45;&gt;Node7 -->
<g id="edge2" class="edge">
<title>Node1&#45;&gt;Node7</title>
<path fill="none" stroke="midnightblue" d="M131.39,-48C146.05,-48 161.3,-48 174.91,-48"/>
<polygon fill="midnightblue" stroke="midnightblue" points="174.96,-51.5 184.96,-48 174.96,-44.5 174.96,-51.5"/>
</g>
<!-- Node8 -->
<g id="node4" class="node">
<title>Node8</title>
<g id="a_node4"><a xlink:href="../../d0/d3e/pps-files_8cpp.html#a8837a1d11d52d5de8fb802ac99f84a3d" target="_top" xlink:title=" ">
<polygon fill="white" stroke="black" points="167.5,-0.5 167.5,-19.5 273.5,-19.5 273.5,-0.5 167.5,-0.5"/>
<text text-anchor="middle" x="220.5" y="-7.5" font-family="Helvetica,sans-Serif" font-size="10.00">printAcceptedArgs</text>
</a>
</g>
</g>
<!-- Node1&#45;&gt;Node8 -->
<g id="edge3" class="edge">
<title>Node1&#45;&gt;Node8</title>
<path fill="none" stroke="midnightblue" d="M105.11,-38.41C125.21,-33.42 149.98,-27.27 171.32,-21.97"/>
<polygon fill="midnightblue" stroke="midnightblue" points="172.31,-25.33 181.17,-19.52 170.62,-18.53 172.31,-25.33"/>
</g>
</g>
</svg>
