<?xml version="1.0" encoding="UTF-8" standalone="no"?>
<!DOCTYPE svg PUBLIC "-//W3C//DTD SVG 1.1//EN"
 "http://www.w3.org/Graphics/SVG/1.1/DTD/svg11.dtd">
<!-- Generated by graphviz version 2.40.1 (20161225.0304)
 -->
<!-- Title: parseSaveDataRequest Pages: 1 -->
<svg width="262pt" height="104pt"
 viewBox="0.00 0.00 262.00 104.00" xmlns="http://www.w3.org/2000/svg" xmlns:xlink="http://www.w3.org/1999/xlink">
<g id="graph0" class="graph" transform="scale(1 1) rotate(0) translate(4 100)">
<title>parseSaveDataRequest</title>
<polygon fill="#ffffff" stroke="transparent" points="-4,4 -4,-100 258,-100 258,4 -4,4"/>
<!-- Node1 -->
<g id="node1" class="node">
<title>Node1</title>
<g id="a_node1"><a xlink:title=" ">
<polygon fill="#bfbfbf" stroke="#000000" points="0,-38.5 0,-57.5 121,-57.5 121,-38.5 0,-38.5"/>
<text text-anchor="middle" x="60.5" y="-45.5" font-family="Helvetica,sans-Serif" font-size="10.00" fill="#000000">parseSaveDataRequest</text>
</a>
</g>
</g>
<!-- Node2 -->
<g id="node2" class="node">
<title>Node2</title>
<g id="a_node2"><a xlink:href="../../d0/d3e/pps-files_8cpp.html#aa402d7b46a75b43bb077558f5343f3b8" target="_top" xlink:title=" ">
<polygon fill="#ffffff" stroke="#ff0000" points="157,-76.5 157,-95.5 254,-95.5 254,-76.5 157,-76.5"/>
<text text-anchor="middle" x="205.5" y="-83.5" font-family="Helvetica,sans-Serif" font-size="10.00" fill="#000000">daemonSaveArray</text>
</a>
</g>
</g>
<!-- Node1&#45;&gt;Node2 -->
<g id="edge1" class="edge">
<title>Node1&#45;&gt;Node2</title>
<path fill="none" stroke="#191970" d="M97.0896,-57.589C115.9654,-62.5358 139.1859,-68.6211 159.2879,-73.8892"/>
<polygon fill="#191970" stroke="#191970" points="158.6129,-77.3305 169.1735,-76.4799 160.3875,-70.5591 158.6129,-77.3305"/>
</g>
<!-- Node7 -->
<g id="node3" class="node">
<title>Node7</title>
<g id="a_node3"><a xlink:href="../../d0/d3e/pps-files_8cpp.html#acee307839ee7844080177e544b8b63d0" target="_top" xlink:title=" ">
<polygon fill="#ffffff" stroke="#000000" points="173,-38.5 173,-57.5 238,-57.5 238,-38.5 173,-38.5"/>
<text text-anchor="middle" x="205.5" y="-45.5" font-family="Helvetica,sans-Serif" font-size="10.00" fill="#000000">missingArg</text>
</a>
</g>
</g>
<!-- Node1&#45;&gt;Node7 -->
<g id="edge2" class="edge">
<title>Node1&#45;&gt;Node7</title>
<path fill="none" stroke="#191970" d="M121.1529,-48C135.1145,-48 149.6786,-48 162.698,-48"/>
<polygon fill="#191970" stroke="#191970" points="162.7671,-51.5001 172.7671,-48 162.767,-44.5001 162.7671,-51.5001"/>
</g>
<!-- Node8 -->
<g id="node4" class="node">
<title>Node8</title>
<g id="a_node4"><a xlink:href="../../d0/d3e/pps-files_8cpp.html#a8837a1d11d52d5de8fb802ac99f84a3d" target="_top" xlink:title=" ">
<polygon fill="#ffffff" stroke="#000000" points="157,-.5 157,-19.5 254,-19.5 254,-.5 157,-.5"/>
<text text-anchor="middle" x="205.5" y="-7.5" font-family="Helvetica,sans-Serif" font-size="10.00" fill="#000000">printAcceptedArgs</text>
</a>
</g>
</g>
<!-- Node1&#45;&gt;Node8 -->
<g id="edge3" class="edge">
<title>Node1&#45;&gt;Node8</title>
<path fill="none" stroke="#191970" d="M97.0896,-38.411C115.9654,-33.4642 139.1859,-27.3789 159.2879,-22.1108"/>
<polygon fill="#191970" stroke="#191970" points="160.3875,-25.4409 169.1735,-19.5201 158.6129,-18.6695 160.3875,-25.4409"/>
</g>
</g>
</svg>
