<?xml version="1.0" encoding="UTF-8" standalone="no"?>
<!DOCTYPE svg PUBLIC "-//W3C//DTD SVG 1.1//EN"
 "http://www.w3.org/Graphics/SVG/1.1/DTD/svg11.dtd">
<!-- Generated by graphviz version 2.43.0 (0)
 -->
<!-- Title: missingArg Pages: 1 -->
<svg width="373pt" height="47pt"
 viewBox="0.00 0.00 373.00 47.00" xmlns="http://www.w3.org/2000/svg" xmlns:xlink="http://www.w3.org/1999/xlink">
<g id="graph0" class="graph" transform="scale(1 1) rotate(0) translate(4 43)">
<title>missingArg</title>
<polygon fill="white" stroke="transparent" points="-4,4 -4,-43 369,-43 369,4 -4,4"/>
<!-- Node1 -->
<g id="node1" class="node">
<title>Node1</title>
<g id="a_node1"><a xlink:title=" ">
<polygon fill="#bfbfbf" stroke="black" points="294,-19.5 294,-38.5 365,-38.5 365,-19.5 294,-19.5"/>
<text text-anchor="middle" x="329.5" y="-26.5" font-family="Helvetica,sans-Serif" font-size="10.00">missingArg</text>
</a>
</g>
</g>
<!-- Node2 -->
<g id="node2" class="node">
<title>Node2</title>
<g id="a_node2"><a xlink:href="../../d0/d3e/pps-files_8cpp.html#aa3e1b9d34eeedb9b1d03863dee0b8e58" target="_top" xlink:title=" ">
<polygon fill="white" stroke="red" points="0,-19.5 0,-38.5 91,-38.5 91,-19.5 0,-19.5"/>
<text text-anchor="middle" x="45.5" y="-26.5" font-family="Helvetica,sans-Serif" font-size="10.00">accessDaemon</text>
</a>
</g>
</g>
<!-- Node1&#45;&gt;Node2 -->
<g id="edge1" class="edge">
<title>Node1&#45;&gt;Node2</title>
<path fill="none" stroke="midnightblue" d="M283.85,-29C231.1,-29 143.87,-29 91.13,-29"/>
<polygon fill="midnightblue" stroke="midnightblue" points="283.92,-32.5 293.92,-29 283.92,-25.5 283.92,-32.5"/>
</g>
<!-- Node4 -->
<g id="node3" class="node">
<title>Node4</title>
<g id="a_node3"><a xlink:href="../../d0/d3e/pps-files_8cpp.html#ac20a2f5a5d6284628d71e7e0cdc08248" target="_top" xlink:title=" ">
<polygon fill="white" stroke="black" points="127,-0.5 127,-19.5 258,-19.5 258,-0.5 127,-0.5"/>
<text text-anchor="middle" x="192.5" y="-7.5" font-family="Helvetica,sans-Serif" font-size="10.00">parseSaveDataRequest</text>
</a>
</g>
</g>
<!-- Node1&#45;&gt;Node4 -->
<g id="edge2" class="edge">
<title>Node1&#45;&gt;Node4</title>
<path fill="none" stroke="midnightblue" d="M283.64,-22.69C275.42,-21.53 266.69,-20.3 258.03,-19.08"/>
<polygon fill="midnightblue" stroke="midnightblue" points="283.34,-26.18 293.73,-24.11 284.32,-19.25 283.34,-26.18"/>
</g>
<!-- Node4&#45;&gt;Node2 -->
<g id="edge3" class="edge">
<title>Node4&#45;&gt;Node2</title>
<path fill="none" stroke="midnightblue" d="M116.54,-19.82C107.94,-20.95 99.39,-22.07 91.36,-23.12"/>
<polygon fill="midnightblue" stroke="midnightblue" points="117.17,-23.27 126.63,-18.5 116.26,-16.33 117.17,-23.27"/>
</g>
</g>
</svg>
