<?xml version="1.0" encoding="UTF-8" standalone="no"?>
<!DOCTYPE svg PUBLIC "-//W3C//DTD SVG 1.1//EN"
 "http://www.w3.org/Graphics/SVG/1.1/DTD/svg11.dtd">
<!-- Generated by graphviz version 2.40.1 (20161225.0304)
 -->
<!-- Title: writeToLog Pages: 1 -->
<svg width="604pt" height="1218pt"
 viewBox="0.00 0.00 604.00 1218.00" xmlns="http://www.w3.org/2000/svg" xmlns:xlink="http://www.w3.org/1999/xlink">
<g id="graph0" class="graph" transform="scale(1 1) rotate(0) translate(4 1214)">
<title>writeToLog</title>
<polygon fill="#ffffff" stroke="transparent" points="-4,4 -4,-1214 600,-1214 600,4 -4,4"/>
<!-- Node1 -->
<g id="node1" class="node">
<title>Node1</title>
<g id="a_node1"><a xlink:title=" ">
<polygon fill="#bfbfbf" stroke="#000000" points="531,-601.5 531,-620.5 596,-620.5 596,-601.5 531,-601.5"/>
<text text-anchor="middle" x="563.5" y="-608.5" font-family="Helvetica,sans-Serif" font-size="10.00" fill="#000000">writeToLog</text>
</a>
</g>
</g>
<!-- Node2 -->
<g id="node2" class="node">
<title>Node2</title>
<g id="a_node2"><a xlink:href="../../d0/d3e/pps-files_8cpp.html#ad046d9f994e8b0cb8dae1a628c405393" target="_top" xlink:title=" ">
<polygon fill="#ffffff" stroke="#ff0000" points="379,-1190.5 379,-1209.5 477,-1209.5 477,-1190.5 379,-1190.5"/>
<text text-anchor="middle" x="428" y="-1197.5" font-family="Helvetica,sans-Serif" font-size="10.00" fill="#000000">alignNumbersAfter</text>
</a>
</g>
</g>
<!-- Node1&#45;&gt;Node2 -->
<g id="edge1" class="edge">
<title>Node1&#45;&gt;Node2</title>
<path fill="none" stroke="#191970" d="M562.4105,-630.7947C556.9755,-726.4734 531.5919,-1138.1718 495,-1181 490.2091,-1186.6074 483.8973,-1190.6212 477.0614,-1193.4827"/>
<polygon fill="#191970" stroke="#191970" points="565.9211,-630.7018 562.9859,-620.5217 558.9321,-630.3103 565.9211,-630.7018"/>
</g>
<!-- Node6 -->
<g id="node3" class="node">
<title>Node6</title>
<g id="a_node3"><a xlink:href="../../d0/d3e/pps-files_8cpp.html#a6bcf95536c2895ba1756f092de49baa3" target="_top" xlink:title=" ">
<polygon fill="#ffffff" stroke="#ff0000" points="393.5,-1152.5 393.5,-1171.5 462.5,-1171.5 462.5,-1152.5 393.5,-1152.5"/>
<text text-anchor="middle" x="428" y="-1159.5" font-family="Helvetica,sans-Serif" font-size="10.00" fill="#000000">alignTokens</text>
</a>
</g>
</g>
<!-- Node1&#45;&gt;Node6 -->
<g id="edge2" class="edge">
<title>Node1&#45;&gt;Node6</title>
<path fill="none" stroke="#191970" d="M562.1519,-630.6766C555.7691,-721.5116 527.5368,-1097.6031 495,-1138 487.0171,-1147.9113 474.612,-1153.7323 462.6354,-1157.1498"/>
<polygon fill="#191970" stroke="#191970" points="565.6479,-630.8543 562.8496,-620.6357 558.6648,-630.369 565.6479,-630.8543"/>
</g>
<!-- Node7 -->
<g id="node4" class="node">
<title>Node7</title>
<g id="a_node4"><a xlink:href="../../d0/d3e/pps-files_8cpp.html#a9942302e3e5272291f62fda42bdf6319" target="_top" xlink:title=" ">
<polygon fill="#ffffff" stroke="#000000" points="236,-582.5 236,-601.5 310,-601.5 310,-582.5 236,-582.5"/>
<text text-anchor="middle" x="273" y="-589.5" font-family="Helvetica,sans-Serif" font-size="10.00" fill="#000000">createPIDfile</text>
</a>
</g>
</g>
<!-- Node1&#45;&gt;Node7 -->
<g id="edge3" class="edge">
<title>Node1&#45;&gt;Node7</title>
<path fill="none" stroke="#191970" d="M520.6295,-608.1961C463.7087,-604.4732 364.1137,-597.9592 310.2038,-594.4333"/>
<polygon fill="#191970" stroke="#191970" points="520.5335,-611.6972 530.7407,-608.8574 520.9904,-604.7121 520.5335,-611.6972"/>
</g>
<!-- Node5 -->
<g id="node5" class="node">
<title>Node5</title>
<g id="a_node5"><a xlink:href="../../d5/d60/pps-client_8cpp.html#a0ddf1224851353fc92bfbff6f499fa97" target="_top" xlink:title=" ">
<polygon fill="#ffffff" stroke="#000000" points="0,-1000.5 0,-1019.5 38,-1019.5 38,-1000.5 0,-1000.5"/>
<text text-anchor="middle" x="19" y="-1007.5" font-family="Helvetica,sans-Serif" font-size="10.00" fill="#000000">main</text>
</a>
</g>
</g>
<!-- Node1&#45;&gt;Node5 -->
<g id="edge17" class="edge">
<title>Node1&#45;&gt;Node5</title>
<path fill="none" stroke="#191970" d="M561.8865,-630.8016C554.9863,-713.1612 526.8545,-1025.6737 495,-1055 426.1276,-1118.4062 162.2404,-1071.2633 74,-1040 59.6468,-1034.9147 44.5435,-1026.4193 33.8031,-1019.7644"/>
<polygon fill="#191970" stroke="#191970" points="565.3807,-631.0158 562.7175,-620.7612 558.4045,-630.4384 565.3807,-631.0158"/>
</g>
<!-- Node8 -->
<g id="node6" class="node">
<title>Node8</title>
<g id="a_node6"><a xlink:href="../../d0/d3e/pps-files_8cpp.html#aa402d7b46a75b43bb077558f5343f3b8" target="_top" xlink:title=" ">
<polygon fill="#ffffff" stroke="#ff0000" points="224.5,-535.5 224.5,-554.5 321.5,-554.5 321.5,-535.5 224.5,-535.5"/>
<text text-anchor="middle" x="273" y="-542.5" font-family="Helvetica,sans-Serif" font-size="10.00" fill="#000000">daemonSaveArray</text>
</a>
</g>
</g>
<!-- Node1&#45;&gt;Node8 -->
<g id="edge5" class="edge">
<title>Node1&#45;&gt;Node8</title>
<path fill="none" stroke="#191970" d="M520.9489,-600.2575C512.3678,-598.1425 503.403,-595.9697 495,-594 433.7078,-579.6327 362.6138,-564.1472 317.7249,-554.5141"/>
<polygon fill="#191970" stroke="#191970" points="520.2412,-603.6879 530.7897,-602.6981 521.9263,-596.8938 520.2412,-603.6879"/>
</g>
<!-- Node11 -->
<g id="node7" class="node">
<title>Node11</title>
<g id="a_node7"><a xlink:href="../../d5/d60/pps-client_8cpp.html#a3f6b018eacd7b65348729b5fe8e36d62" target="_top" xlink:title=" ">
<polygon fill="#ffffff" stroke="#ff0000" points="361,-191 361,-221 495,-221 495,-191 361,-191"/>
<text text-anchor="start" x="369" y="-209" font-family="Helvetica,sans-Serif" font-size="10.00" fill="#000000">detectExteralSystemClock</text>
<text text-anchor="middle" x="428" y="-198" font-family="Helvetica,sans-Serif" font-size="10.00" fill="#000000">Change</text>
</a>
</g>
</g>
<!-- Node1&#45;&gt;Node11 -->
<g id="edge6" class="edge">
<title>Node1&#45;&gt;Node11</title>
<path fill="none" stroke="#191970" d="M562.2677,-590.9748C557.6343,-521.5495 539.2157,-292.3591 495,-236 490.2013,-229.8834 483.8854,-224.9784 477.0477,-221.0549"/>
<polygon fill="#191970" stroke="#191970" points="558.8006,-591.6008 562.9357,-601.3553 565.7862,-591.1512 558.8006,-591.6008"/>
</g>
<!-- Node15 -->
<g id="node8" class="node">
<title>Node15</title>
<g id="a_node8"><a xlink:href="../../d5/d60/pps-client_8cpp.html#a591a0ae1642849d67e2e71ee667051b7" target="_top" xlink:title=" ">
<polygon fill="#ffffff" stroke="#000000" points="380.5,-886.5 380.5,-905.5 475.5,-905.5 475.5,-886.5 380.5,-886.5"/>
<text text-anchor="middle" x="428" y="-893.5" font-family="Helvetica,sans-Serif" font-size="10.00" fill="#000000">detectMissedPPS</text>
</a>
</g>
</g>
<!-- Node1&#45;&gt;Node15 -->
<g id="edge7" class="edge">
<title>Node1&#45;&gt;Node15</title>
<path fill="none" stroke="#191970" d="M560.7262,-630.7792C552.7196,-685.2791 528.0189,-835.9648 495,-872 489.2404,-878.2857 481.7183,-882.9266 473.8021,-886.3526"/>
<polygon fill="#191970" stroke="#191970" points="564.2186,-631.0818 562.1783,-620.6853 557.29,-630.085 564.2186,-631.0818"/>
</g>
<!-- Node14 -->
<g id="node9" class="node">
<title>Node14</title>
<g id="a_node9"><a xlink:href="../../d5/d60/pps-client_8cpp.html#a0010a2340006cbbcd5a4588b587a59c7" target="_top" xlink:title=" ">
<polygon fill="#ffffff" stroke="#000000" points="224,-848.5 224,-867.5 322,-867.5 322,-848.5 224,-848.5"/>
<text text-anchor="middle" x="273" y="-855.5" font-family="Helvetica,sans-Serif" font-size="10.00" fill="#000000">readPPS_SetTime</text>
</a>
</g>
</g>
<!-- Node1&#45;&gt;Node14 -->
<g id="edge37" class="edge">
<title>Node1&#45;&gt;Node14</title>
<path fill="none" stroke="#191970" d="M560.1807,-630.568C551.4808,-679.4271 526.4974,-804.7388 495,-831 446.989,-871.0294 371.5607,-871.3885 322.1904,-866.1425"/>
<polygon fill="#191970" stroke="#191970" points="563.6446,-631.0773 561.9127,-620.625 556.7485,-629.8759 563.6446,-631.0773"/>
</g>
<!-- Node4 -->
<g id="node10" class="node">
<title>Node4</title>
<g id="a_node10"><a xlink:href="../../d5/d60/pps-client_8cpp.html#a22519b13ce414a4bf003faf65bd68144" target="_top" xlink:title=" ">
<polygon fill="#ffffff" stroke="#000000" points="95,-772.5 95,-791.5 164,-791.5 164,-772.5 95,-772.5"/>
<text text-anchor="middle" x="129.5" y="-779.5" font-family="Helvetica,sans-Serif" font-size="10.00" fill="#000000">waitForPPS</text>
</a>
</g>
</g>
<!-- Node1&#45;&gt;Node4 -->
<g id="edge56" class="edge">
<title>Node1&#45;&gt;Node4</title>
<path fill="none" stroke="#191970" d="M544.1258,-626.8426C530.9033,-637.0695 512.6486,-650.0813 495,-659 463.8527,-674.7403 240.9929,-746.4312 159.3633,-772.4933"/>
<polygon fill="#191970" stroke="#191970" points="546.3555,-629.5415 552.0312,-620.5951 542.0153,-624.0494 546.3555,-629.5415"/>
</g>
<!-- Node16 -->
<g id="node11" class="node">
<title>Node16</title>
<g id="a_node11"><a xlink:href="../../d0/d3e/pps-files_8cpp.html#aee5d43bdb96bc26a9e211a6b70e4e15b" target="_top" xlink:title=" ">
<polygon fill="#ffffff" stroke="#000000" points="96,-1114.5 96,-1133.5 163,-1133.5 163,-1114.5 96,-1114.5"/>
<text text-anchor="middle" x="129.5" y="-1121.5" font-family="Helvetica,sans-Serif" font-size="10.00" fill="#000000">find_source</text>
</a>
</g>
</g>
<!-- Node1&#45;&gt;Node16 -->
<g id="edge11" class="edge">
<title>Node1&#45;&gt;Node16</title>
<path fill="none" stroke="#191970" d="M562.1623,-631.1056C556.114,-719.105 530.0876,-1067.4045 495,-1100 447.5364,-1144.0925 244.0976,-1133.2016 163.0305,-1126.9191"/>
<polygon fill="#191970" stroke="#191970" points="565.6712,-631.0927 562.8552,-620.8789 558.6872,-630.6194 565.6712,-631.0927"/>
</g>
<!-- Node17 -->
<g id="node12" class="node">
<title>Node17</title>
<g id="a_node12"><a xlink:href="../../d0/d3e/pps-files_8cpp.html#a80576b7ed0230355826c49f761ce773f" target="_top" xlink:title=" ">
<polygon fill="#ffffff" stroke="#000000" points="230,-1000.5 230,-1019.5 316,-1019.5 316,-1000.5 230,-1000.5"/>
<text text-anchor="middle" x="273" y="-1007.5" font-family="Helvetica,sans-Serif" font-size="10.00" fill="#000000">getLinuxVersion</text>
</a>
</g>
</g>
<!-- Node1&#45;&gt;Node17 -->
<g id="edge13" class="edge">
<title>Node1&#45;&gt;Node17</title>
<path fill="none" stroke="#191970" d="M562.9713,-630.9679C560.6433,-702.1608 548.8632,-941.9253 495,-991 445.532,-1036.0702 361.5401,-1028.9021 312.2765,-1019.5164"/>
<polygon fill="#191970" stroke="#191970" points="566.4776,-630.8073 563.2778,-620.7072 559.4807,-630.5982 566.4776,-630.8073"/>
</g>
<!-- Node18 -->
<g id="node13" class="node">
<title>Node18</title>
<g id="a_node13"><a xlink:href="../../d0/d3e/pps-files_8cpp.html#a4ce5021ab20b957eb5bd60c89d389685" target="_top" xlink:title=" ">
<polygon fill="#ffffff" stroke="#000000" points="234.5,-1038.5 234.5,-1057.5 311.5,-1057.5 311.5,-1038.5 234.5,-1038.5"/>
<text text-anchor="middle" x="273" y="-1045.5" font-family="Helvetica,sans-Serif" font-size="10.00" fill="#000000">getRootHome</text>
</a>
</g>
</g>
<!-- Node1&#45;&gt;Node18 -->
<g id="edge14" class="edge">
<title>Node1&#45;&gt;Node18</title>
<path fill="none" stroke="#191970" d="M563.2109,-631.0609C561.6914,-705.917 552.3,-967.4172 495,-1022 446.1104,-1068.5712 361.1216,-1063.846 311.6918,-1056.0408"/>
<polygon fill="#191970" stroke="#191970" points="566.7164,-630.77 563.3933,-620.7098 559.7175,-630.6466 566.7164,-630.77"/>
</g>
<!-- Node19 -->
<g id="node14" class="node">
<title>Node19</title>
<g id="a_node14"><a xlink:href="../../d0/d3e/pps-files_8cpp.html#a383f3dca6d9e0e5135fdf2a7158d8e8b" target="_top" xlink:title=" ">
<polygon fill="#ffffff" stroke="#ff0000" points="239,-478.5 239,-497.5 307,-497.5 307,-478.5 239,-478.5"/>
<text text-anchor="middle" x="273" y="-485.5" font-family="Helvetica,sans-Serif" font-size="10.00" fill="#000000">getRPiCPU</text>
</a>
</g>
</g>
<!-- Node1&#45;&gt;Node19 -->
<g id="edge16" class="edge">
<title>Node1&#45;&gt;Node19</title>
<path fill="none" stroke="#191970" d="M544.7886,-594.4226C531.6134,-583.4383 513.1538,-569.3775 495,-560 432.1819,-527.551 351.8538,-505.8854 307.0742,-495.3794"/>
<polygon fill="#191970" stroke="#191970" points="542.7497,-597.284 552.6271,-601.1164 547.2955,-591.9609 542.7497,-597.284"/>
</g>
<!-- Node21 -->
<g id="node15" class="node">
<title>Node21</title>
<g id="a_node15"><a xlink:href="../../d0/d3e/pps-files_8cpp.html#a44d1b7b3f8e3181274fae172922847b6" target="_top" xlink:title=" ">
<polygon fill="#ffffff" stroke="#ff0000" points="394.5,-468.5 394.5,-487.5 461.5,-487.5 461.5,-468.5 394.5,-468.5"/>
<text text-anchor="middle" x="428" y="-475.5" font-family="Helvetica,sans-Serif" font-size="10.00" fill="#000000">open_logerr</text>
</a>
</g>
</g>
<!-- Node1&#45;&gt;Node21 -->
<g id="edge18" class="edge">
<title>Node1&#45;&gt;Node21</title>
<path fill="none" stroke="#191970" d="M556.1344,-591.8391C545.9109,-567.6479 525.2026,-526.2666 495,-502 485.3681,-494.2611 473.0377,-488.9062 461.5868,-485.2535"/>
<polygon fill="#191970" stroke="#191970" points="552.9835,-593.3831 559.9811,-601.3383 559.4717,-590.7557 552.9835,-593.3831"/>
</g>
<!-- Node23 -->
<g id="node16" class="node">
<title>Node23</title>
<g id="a_node16"><a xlink:href="../../d0/d3e/pps-files_8cpp.html#a4e1eee07f00ecb77c3ae3f508744f610" target="_top" xlink:title=" ">
<polygon fill="#ffffff" stroke="#000000" points="227,-430.5 227,-449.5 319,-449.5 319,-430.5 227,-430.5"/>
<text text-anchor="middle" x="273" y="-437.5" font-family="Helvetica,sans-Serif" font-size="10.00" fill="#000000">saveDoubleArray</text>
</a>
</g>
</g>
<!-- Node1&#45;&gt;Node23 -->
<g id="edge38" class="edge">
<title>Node1&#45;&gt;Node23</title>
<path fill="none" stroke="#191970" d="M561.0247,-591.5401C555.6461,-558.1674 539.5608,-490.5699 495,-459 443.5508,-422.5499 367.6178,-424.8139 319.2376,-431.2693"/>
<polygon fill="#191970" stroke="#191970" points="557.5622,-592.0515 562.4639,-601.4442 564.4894,-591.0448 557.5622,-592.0515"/>
</g>
<!-- Node24 -->
<g id="node17" class="node">
<title>Node24</title>
<g id="a_node17"><a xlink:href="../../d0/d3e/pps-files_8cpp.html#a14e312f99e221dfc6863ec3277522ea5" target="_top" xlink:title=" ">
<polygon fill="#ffffff" stroke="#ff0000" points="74,-335.5 74,-354.5 185,-354.5 185,-335.5 74,-335.5"/>
<text text-anchor="middle" x="129.5" y="-342.5" font-family="Helvetica,sans-Serif" font-size="10.00" fill="#000000">processWriteRequest</text>
</a>
</g>
</g>
<!-- Node1&#45;&gt;Node24 -->
<g id="edge35" class="edge">
<title>Node1&#45;&gt;Node24</title>
<path fill="none" stroke="#191970" d="M562.6896,-591.1638C559.5119,-524.497 545.4716,-310.3649 495,-269 447.9066,-230.4037 278.2688,-248.3181 221,-269 183.9027,-282.3972 151.2275,-318.1091 137.0262,-335.3804"/>
<polygon fill="#191970" stroke="#191970" points="559.1947,-591.3574 563.137,-601.1915 566.1877,-591.0454 559.1947,-591.3574"/>
</g>
<!-- Node26 -->
<g id="node18" class="node">
<title>Node26</title>
<g id="a_node18"><a xlink:href="../../d0/d3e/pps-files_8cpp.html#a5ec7f61f0d9d13be935f67a3e9c71f56" target="_top" xlink:title=" ">
<polygon fill="#ffffff" stroke="#000000" points="233,-658.5 233,-677.5 313,-677.5 313,-658.5 233,-658.5"/>
<text text-anchor="middle" x="273" y="-665.5" font-family="Helvetica,sans-Serif" font-size="10.00" fill="#000000">saveLastState</text>
</a>
</g>
</g>
<!-- Node1&#45;&gt;Node26 -->
<g id="edge41" class="edge">
<title>Node1&#45;&gt;Node26</title>
<path fill="none" stroke="#191970" d="M528.947,-623.8892C518.1847,-627.5541 506.2008,-631.2832 495,-634 432.2881,-649.2108 357.8776,-658.9646 313.1044,-663.9598"/>
<polygon fill="#191970" stroke="#191970" points="530.1462,-627.1777 538.4298,-620.5723 527.835,-620.5703 530.1462,-627.1777"/>
</g>
<!-- Node27 -->
<g id="node19" class="node">
<title>Node27</title>
<g id="a_node19"><a xlink:href="../../d0/d3e/pps-files_8cpp.html#aa688c89aacc832cc1e7ef6ff1be6541e" target="_top" xlink:title=" ">
<polygon fill="#ffffff" stroke="#ff0000" points="229.5,-354.5 229.5,-373.5 316.5,-373.5 316.5,-354.5 229.5,-354.5"/>
<text text-anchor="middle" x="273" y="-361.5" font-family="Helvetica,sans-Serif" font-size="10.00" fill="#000000">writeDistribution</text>
</a>
</g>
</g>
<!-- Node1&#45;&gt;Node27 -->
<g id="edge57" class="edge">
<title>Node1&#45;&gt;Node27</title>
<path fill="none" stroke="#191970" d="M560.3408,-591.2891C551.9362,-541.4759 527.4364,-412.6089 495,-386 444.9935,-344.9776 365.7572,-348.1145 316.7073,-355.2537"/>
<polygon fill="#191970" stroke="#191970" points="556.9284,-592.1072 562.008,-601.4049 563.8352,-590.9689 556.9284,-592.1072"/>
</g>
<!-- Node30 -->
<g id="node20" class="node">
<title>Node30</title>
<g id="a_node20"><a xlink:href="../../d0/d3e/pps-files_8cpp.html#a493e043705885cfcebc5ac807989eb4d" target="_top" xlink:title=" ">
<polygon fill="#ffffff" stroke="#000000" points="221,-392.5 221,-411.5 325,-411.5 325,-392.5 221,-392.5"/>
<text text-anchor="middle" x="273" y="-399.5" font-family="Helvetica,sans-Serif" font-size="10.00" fill="#000000">writeFrequencyVars</text>
</a>
</g>
</g>
<!-- Node1&#45;&gt;Node30 -->
<g id="edge58" class="edge">
<title>Node1&#45;&gt;Node30</title>
<path fill="none" stroke="#191970" d="M559.1071,-591.4649C548.9097,-547.9564 522.4046,-445.2347 495,-424 446.9341,-386.7557 374.3267,-386.9194 325.3578,-392.6159"/>
<polygon fill="#191970" stroke="#191970" points="555.737,-592.427 561.3893,-601.3881 562.5589,-590.8581 555.737,-592.427"/>
</g>
<!-- Node31 -->
<g id="node21" class="node">
<title>Node31</title>
<g id="a_node21"><a xlink:href="../../d0/d3e/pps-files_8cpp.html#a73e9f77c69f58e616293b5ca5126e77f" target="_top" xlink:title=" ">
<polygon fill="#ffffff" stroke="#000000" points="238,-278.5 238,-297.5 308,-297.5 308,-278.5 238,-278.5"/>
<text text-anchor="middle" x="273" y="-285.5" font-family="Helvetica,sans-Serif" font-size="10.00" fill="#000000">writeOffsets</text>
</a>
</g>
</g>
<!-- Node1&#45;&gt;Node31 -->
<g id="edge59" class="edge">
<title>Node1&#45;&gt;Node31</title>
<path fill="none" stroke="#191970" d="M561.9937,-591.2443C556.9004,-530.0998 538.1703,-345.7987 495,-308 443.3213,-262.7515 356.5805,-270.635 308.2433,-279.7245"/>
<polygon fill="#191970" stroke="#191970" points="558.5245,-591.7708 562.8114,-601.4596 565.5022,-591.2121 558.5245,-591.7708"/>
</g>
<!-- Node32 -->
<g id="node22" class="node">
<title>Node32</title>
<g id="a_node22"><a xlink:href="../../d0/d3e/pps-files_8cpp.html#afdccb305ab5e5c4f3402fe7969c6737b" target="_top" xlink:title=" ">
<polygon fill="#ffffff" stroke="#000000" points="224.5,-620.5 224.5,-639.5 321.5,-639.5 321.5,-620.5 224.5,-620.5"/>
<text text-anchor="middle" x="273" y="-627.5" font-family="Helvetica,sans-Serif" font-size="10.00" fill="#000000">writeStatusStrings</text>
</a>
</g>
</g>
<!-- Node1&#45;&gt;Node32 -->
<g id="edge60" class="edge">
<title>Node1&#45;&gt;Node32</title>
<path fill="none" stroke="#191970" d="M520.6322,-614.1945C512.1392,-614.8089 503.2885,-615.4362 495,-616 435.2798,-620.0625 366.4935,-624.3379 321.5126,-627.0791"/>
<polygon fill="#191970" stroke="#191970" points="521.0335,-617.6746 530.7524,-613.4565 520.5243,-610.6931 521.0335,-617.6746"/>
</g>
<!-- Node33 -->
<g id="node23" class="node">
<title>Node33</title>
<g id="a_node23"><a xlink:href="../../d0/d3e/pps-files_8cpp.html#aad53ec22f551c789425b2870f59fbae9" target="_top" xlink:title=" ">
<polygon fill="#ffffff" stroke="#ff0000" points="230,-316.5 230,-335.5 316,-335.5 316,-316.5 230,-316.5"/>
<text text-anchor="middle" x="273" y="-323.5" font-family="Helvetica,sans-Serif" font-size="10.00" fill="#000000">writeTimestamp</text>
</a>
</g>
</g>
<!-- Node1&#45;&gt;Node33 -->
<g id="edge61" class="edge">
<title>Node1&#45;&gt;Node33</title>
<path fill="none" stroke="#191970" d="M561.284,-591.2672C554.6044,-535.5826 532.7675,-379.1756 495,-347 445.4916,-304.8218 365.3556,-308.9586 316.1121,-316.7865"/>
<polygon fill="#191970" stroke="#191970" points="557.8154,-591.7405 562.449,-601.2684 564.7684,-590.9306 557.8154,-591.7405"/>
</g>
<!-- Node35 -->
<g id="node24" class="node">
<title>Node35</title>
<g id="a_node24"><a xlink:href="../../d0/d3e/pps-files_8cpp.html#ac59e9111236426cdcbea6d1774ca7fea" target="_top" xlink:title=" ">
<polygon fill="#ffffff" stroke="#ff0000" points="234.5,-886.5 234.5,-905.5 311.5,-905.5 311.5,-886.5 234.5,-886.5"/>
<text text-anchor="middle" x="273" y="-893.5" font-family="Helvetica,sans-Serif" font-size="10.00" fill="#000000">ppsIsRunning</text>
</a>
</g>
</g>
<!-- Node1&#45;&gt;Node35 -->
<g id="edge34" class="edge">
<title>Node1&#45;&gt;Node35</title>
<path fill="none" stroke="#191970" d="M562.146,-630.9896C557.502,-692.8334 539.9522,-879.0497 495,-915 467.6601,-936.8649 368.0043,-918.3135 311.9587,-905.5668"/>
<polygon fill="#191970" stroke="#191970" points="565.6627,-630.8803 562.887,-620.6556 558.6807,-630.3797 565.6627,-630.8803"/>
</g>
<!-- Node36 -->
<g id="node25" class="node">
<title>Node36</title>
<g id="a_node25"><a xlink:href="../../d0/d3e/pps-files_8cpp.html#a459e7950f1def63780ba7fda8e3c12d2" target="_top" xlink:title=" ">
<polygon fill="#ffffff" stroke="#ff0000" points="395.5,-152.5 395.5,-171.5 460.5,-171.5 460.5,-152.5 395.5,-152.5"/>
<text text-anchor="middle" x="428" y="-159.5" font-family="Helvetica,sans-Serif" font-size="10.00" fill="#000000">read_logerr</text>
</a>
</g>
</g>
<!-- Node1&#45;&gt;Node36 -->
<g id="edge36" class="edge">
<title>Node1&#45;&gt;Node36</title>
<path fill="none" stroke="#191970" d="M563.0855,-591.2812C561.0913,-515.3595 550.1479,-243.094 495,-181 486.3289,-171.2368 473.0495,-166.3297 460.5933,-163.919"/>
<polygon fill="#191970" stroke="#191970" points="559.5885,-591.4528 563.3266,-601.3663 566.5865,-591.2854 559.5885,-591.4528"/>
</g>
<!-- Node38 -->
<g id="node26" class="node">
<title>Node38</title>
<g id="a_node26"><a xlink:href="../../df/d28/pps-serial_8cpp.html#a017c6d120d7bd920065a7fece4d53978" target="_top" xlink:title=" ">
<polygon fill="#ffffff" stroke="#000000" points="233,-810.5 233,-829.5 313,-829.5 313,-810.5 233,-810.5"/>
<text text-anchor="middle" x="273" y="-817.5" font-family="Helvetica,sans-Serif" font-size="10.00" fill="#000000">saveGPSTime</text>
</a>
</g>
</g>
<!-- Node1&#45;&gt;Node38 -->
<g id="edge39" class="edge">
<title>Node1&#45;&gt;Node38</title>
<path fill="none" stroke="#191970" d="M559.2381,-630.5893C549.2277,-674.6784 522.9408,-779.5346 495,-801 442.6986,-841.1803 361.5902,-836.2672 313.2464,-828.5034"/>
<polygon fill="#191970" stroke="#191970" points="562.6658,-631.299 561.4236,-620.7772 555.8332,-629.7771 562.6658,-631.299"/>
</g>
<!-- Node39 -->
<g id="node27" class="node">
<title>Node39</title>
<g id="a_node27"><a xlink:href="../../df/d28/pps-serial_8cpp.html#a4749205b4ede5570376cf2d476014337" target="_top" xlink:title=" ">
<polygon fill="#ffffff" stroke="#000000" points="382,-114.5 382,-133.5 474,-133.5 474,-114.5 382,-114.5"/>
<text text-anchor="middle" x="428" y="-121.5" font-family="Helvetica,sans-Serif" font-size="10.00" fill="#000000">saveTimestamps</text>
</a>
</g>
</g>
<!-- Node1&#45;&gt;Node39 -->
<g id="edge42" class="edge">
<title>Node1&#45;&gt;Node39</title>
<path fill="none" stroke="#191970" d="M561.8603,-591.1183C554.6962,-506.2875 525.1506,-177.3833 495,-143 489.4997,-136.7275 482.097,-132.456 474.2171,-129.5625"/>
<polygon fill="#191970" stroke="#191970" points="558.3835,-591.543 562.7043,-601.2167 565.3592,-590.96 558.3835,-591.543"/>
</g>
<!-- Node40 -->
<g id="node28" class="node">
<title>Node40</title>
<g id="a_node28"><a xlink:href="../../d5/d60/pps-client_8cpp.html#a1b63d979f88bd573c07f93f9275a9d6d" target="_top" xlink:title=" ">
<polygon fill="#ffffff" stroke="#ff0000" points="362.5,-76.5 362.5,-95.5 493.5,-95.5 493.5,-76.5 362.5,-76.5"/>
<text text-anchor="middle" x="428" y="-83.5" font-family="Helvetica,sans-Serif" font-size="10.00" fill="#000000">setClockFractionalSecond</text>
</a>
</g>
</g>
<!-- Node1&#45;&gt;Node40 -->
<g id="edge43" class="edge">
<title>Node1&#45;&gt;Node40</title>
<path fill="none" stroke="#191970" d="M562.0965,-591.2229C555.621,-502.3393 527.5539,-142.5302 495,-105 491.6726,-101.164 487.6336,-98.0752 483.2061,-95.5918"/>
<polygon fill="#191970" stroke="#191970" points="558.6128,-591.5767 562.8222,-601.2994 565.5948,-591.0738 558.6128,-591.5767"/>
</g>
<!-- Node42 -->
<g id="node29" class="node">
<title>Node42</title>
<g id="a_node29"><a xlink:href="../../d5/d60/pps-client_8cpp.html#a2237f5f4d517383c7b5d34dd7864272b" target="_top" xlink:title=" ">
<polygon fill="#ffffff" stroke="#ff0000" points="374.5,-38.5 374.5,-57.5 481.5,-57.5 481.5,-38.5 374.5,-38.5"/>
<text text-anchor="middle" x="428" y="-45.5" font-family="Helvetica,sans-Serif" font-size="10.00" fill="#000000">setClockToGPStime</text>
</a>
</g>
</g>
<!-- Node1&#45;&gt;Node42 -->
<g id="edge44" class="edge">
<title>Node1&#45;&gt;Node42</title>
<path fill="none" stroke="#191970" d="M562.2933,-591.2366C556.4511,-498.3142 529.9527,-107.6761 495,-67 491.2965,-62.69 486.6945,-59.3222 481.6488,-56.6959"/>
<polygon fill="#191970" stroke="#191970" points="558.8159,-591.7109 562.9286,-601.4749 565.8024,-591.2773 558.8159,-591.7109"/>
</g>
<!-- Node43 -->
<g id="node30" class="node">
<title>Node43</title>
<g id="a_node30"><a xlink:href="../../d5/d60/pps-client_8cpp.html#a576eb54270dcbc8c14f4f253c1ab7432" target="_top" xlink:title=" ">
<polygon fill="#ffffff" stroke="#ff0000" points="375,-.5 375,-19.5 481,-19.5 481,-.5 375,-.5"/>
<text text-anchor="middle" x="428" y="-7.5" font-family="Helvetica,sans-Serif" font-size="10.00" fill="#000000">setClocktoNISTtime</text>
</a>
</g>
</g>
<!-- Node1&#45;&gt;Node43 -->
<g id="edge45" class="edge">
<title>Node1&#45;&gt;Node43</title>
<path fill="none" stroke="#191970" d="M562.4556,-591.087C557.1911,-493.9589 532.3359,-72.8073 495,-29 491.1571,-24.491 486.3307,-21.0121 481.0381,-18.334"/>
<polygon fill="#191970" stroke="#191970" points="558.9715,-591.4795 563,-601.2785 565.9615,-591.106 558.9715,-591.4795"/>
</g>
<!-- Node44 -->
<g id="node31" class="node">
<title>Node44</title>
<g id="a_node31"><a xlink:href="../../d5/d60/pps-client_8cpp.html#a505a6be9b7669b349cea03a9fe663d74" target="_top" xlink:title=" ">
<polygon fill="#ffffff" stroke="#ff0000" points="389,-772.5 389,-791.5 467,-791.5 467,-772.5 389,-772.5"/>
<text text-anchor="middle" x="428" y="-779.5" font-family="Helvetica,sans-Serif" font-size="10.00" fill="#000000">setSyncDelay</text>
</a>
</g>
</g>
<!-- Node1&#45;&gt;Node44 -->
<g id="edge46" class="edge">
<title>Node1&#45;&gt;Node44</title>
<path fill="none" stroke="#191970" d="M560.086,-630.9578C553.4647,-663.484 535.7765,-727.8193 495,-763 487.2188,-769.7134 477.2184,-774.0633 467.3303,-776.8792"/>
<polygon fill="#191970" stroke="#191970" points="563.5727,-631.3548 561.9862,-620.8794 556.6939,-630.0578 563.5727,-631.3548"/>
</g>
<!-- Node46 -->
<g id="node32" class="node">
<title>Node46</title>
<g id="a_node32"><a xlink:href="../../d0/d3e/pps-files_8cpp.html#a19da05b45d1e94170f5fe86decb70bfb" target="_top" xlink:title=" ">
<polygon fill="#ffffff" stroke="#ff0000" points="389.5,-962.5 389.5,-981.5 466.5,-981.5 466.5,-962.5 389.5,-962.5"/>
<text text-anchor="middle" x="428" y="-969.5" font-family="Helvetica,sans-Serif" font-size="10.00" fill="#000000">sysCommand</text>
</a>
</g>
</g>
<!-- Node1&#45;&gt;Node46 -->
<g id="edge48" class="edge">
<title>Node1&#45;&gt;Node46</title>
<path fill="none" stroke="#191970" d="M561.9963,-630.7775C556.7023,-695.4944 536.9388,-899.5688 495,-948 487.7205,-956.4064 477.2785,-961.8683 466.7973,-965.4171"/>
<polygon fill="#191970" stroke="#191970" points="565.4946,-630.9366 562.7951,-620.6914 558.5164,-630.3839 565.4946,-630.9366"/>
</g>
<!-- Node50 -->
<g id="node33" class="node">
<title>Node50</title>
<g id="a_node33"><a xlink:href="../../d0/d3e/pps-files_8cpp.html#a6092b615f5e717c843a1948b2a34cf6a" target="_top" xlink:title=" ">
<polygon fill="#ffffff" stroke="#000000" points="389.5,-734.5 389.5,-753.5 466.5,-753.5 466.5,-734.5 389.5,-734.5"/>
<text text-anchor="middle" x="428" y="-741.5" font-family="Helvetica,sans-Serif" font-size="10.00" fill="#000000">TERMhandler</text>
</a>
</g>
</g>
<!-- Node1&#45;&gt;Node50 -->
<g id="edge54" class="edge">
<title>Node1&#45;&gt;Node50</title>
<path fill="none" stroke="#191970" d="M556.1344,-630.1609C545.9109,-654.3521 525.2026,-695.7334 495,-720 486.8129,-726.578 476.6761,-731.4337 466.787,-734.9856"/>
<polygon fill="#191970" stroke="#191970" points="559.4717,-631.2443 559.9811,-620.6617 552.9835,-628.6169 559.4717,-631.2443"/>
</g>
<!-- Node7&#45;&gt;Node5 -->
<g id="edge4" class="edge">
<title>Node7&#45;&gt;Node5</title>
<path fill="none" stroke="#191970" d="M230.3871,-605.7213C227.1206,-607.3254 223.9506,-609.0828 221,-611 142.1951,-662.2054 118.5513,-680.2511 74,-763 28.8072,-846.9403 20.7117,-966.0503 19.2939,-1000.3935"/>
<polygon fill="#191970" stroke="#191970" points="232.0039,-608.8337 239.7459,-601.601 229.1833,-602.4271 232.0039,-608.8337"/>
</g>
<!-- Node15&#45;&gt;Node14 -->
<g id="edge8" class="edge">
<title>Node15&#45;&gt;Node14</title>
<path fill="none" stroke="#191970" d="M378.8895,-883.96C357.2353,-878.6512 332.1498,-872.5012 311.8318,-867.5201"/>
<polygon fill="#191970" stroke="#191970" points="378.3412,-887.4292 388.887,-886.411 380.008,-880.6305 378.3412,-887.4292"/>
</g>
<!-- Node14&#45;&gt;Node4 -->
<g id="edge9" class="edge">
<title>Node14&#45;&gt;Node4</title>
<path fill="none" stroke="#191970" d="M234.007,-844.7565C229.5637,-842.9527 225.1454,-841.0215 221,-839 191.8979,-824.8083 160.3429,-803.7668 142.9405,-791.6145"/>
<polygon fill="#191970" stroke="#191970" points="233.0881,-848.1534 243.6777,-848.4872 235.6076,-841.6225 233.0881,-848.1534"/>
</g>
<!-- Node4&#45;&gt;Node5 -->
<g id="edge10" class="edge">
<title>Node4&#45;&gt;Node5</title>
<path fill="none" stroke="#191970" d="M120.4328,-800.7088C97.9733,-847.0505 40.3675,-965.9114 23.627,-1000.4528"/>
<polygon fill="#191970" stroke="#191970" points="123.6809,-802.0319 124.8926,-791.5066 117.3817,-798.979 123.6809,-802.0319"/>
</g>
<!-- Node16&#45;&gt;Node5 -->
<g id="edge12" class="edge">
<title>Node16&#45;&gt;Node5</title>
<path fill="none" stroke="#191970" d="M89.0394,-1110.0585C83.6595,-1107.2164 78.4679,-1103.8809 74,-1100 47.4567,-1076.9443 29.7909,-1037.8472 22.6169,-1019.7396"/>
<polygon fill="#191970" stroke="#191970" points="87.6406,-1113.2687 98.1764,-1114.385 90.6363,-1106.9421 87.6406,-1113.2687"/>
</g>
<!-- Node18&#45;&gt;Node5 -->
<g id="edge15" class="edge">
<title>Node18&#45;&gt;Node5</title>
<path fill="none" stroke="#191970" d="M224.2779,-1040.7109C167.723,-1032.2499 77.2174,-1018.7097 38.0685,-1012.8528"/>
<polygon fill="#191970" stroke="#191970" points="224.015,-1044.2104 234.4229,-1042.2286 225.0508,-1037.2875 224.015,-1044.2104"/>
</g>
<!-- Node21&#45;&gt;Node7 -->
<g id="edge19" class="edge">
<title>Node21&#45;&gt;Node7</title>
<path fill="none" stroke="#191970" d="M410.6764,-494.342C390.8751,-512.5626 357.0509,-542.3158 325,-564 314.8941,-570.8372 302.9474,-577.3682 293.0549,-582.4002"/>
<polygon fill="#191970" stroke="#191970" points="413.0768,-496.8894 418.021,-487.5189 408.3124,-491.7609 413.0768,-496.8894"/>
</g>
<!-- Node21&#45;&gt;Node8 -->
<g id="edge20" class="edge">
<title>Node21&#45;&gt;Node8</title>
<path fill="none" stroke="#191970" d="M396.5647,-491.5882C366.4385,-504.6105 321.7358,-523.9336 295.1665,-535.4183"/>
<polygon fill="#191970" stroke="#191970" points="398.0019,-494.78 405.7923,-487.5995 395.2244,-488.3546 398.0019,-494.78"/>
</g>
<!-- Node21&#45;&gt;Node19 -->
<g id="edge21" class="edge">
<title>Node21&#45;&gt;Node19</title>
<path fill="none" stroke="#191970" d="M384.2681,-480.8214C359.8194,-482.3987 329.7973,-484.3357 307.1023,-485.7999"/>
<polygon fill="#191970" stroke="#191970" points="384.6134,-484.3065 394.3673,-480.1699 384.1627,-477.321 384.6134,-484.3065"/>
</g>
<!-- Node21&#45;&gt;Node23 -->
<g id="edge22" class="edge">
<title>Node21&#45;&gt;Node23</title>
<path fill="none" stroke="#191970" d="M384.5738,-467.3536C361.7048,-461.747 333.8935,-454.9287 311.7584,-449.5021"/>
<polygon fill="#191970" stroke="#191970" points="383.8215,-470.7727 394.3673,-469.7546 385.4883,-463.9741 383.8215,-470.7727"/>
</g>
<!-- Node21&#45;&gt;Node26 -->
<g id="edge24" class="edge">
<title>Node21&#45;&gt;Node26</title>
<path fill="none" stroke="#191970" d="M421.3741,-497.2095C408.3454,-532.2576 376.1327,-606.8424 325,-649 320.3279,-652.852 314.8061,-655.9588 309.1358,-658.4538"/>
<polygon fill="#191970" stroke="#191970" points="424.71,-498.2759 424.8013,-487.6815 418.1231,-495.9066 424.71,-498.2759"/>
</g>
<!-- Node21&#45;&gt;Node27 -->
<g id="edge26" class="edge">
<title>Node21&#45;&gt;Node27</title>
<path fill="none" stroke="#191970" d="M413.0591,-460.5178C394.3447,-439.569 360.4122,-404.5978 325,-383 318.9277,-379.2965 312.021,-376.1466 305.2697,-373.5395"/>
<polygon fill="#191970" stroke="#191970" points="410.666,-463.0973 419.8918,-468.3065 415.9282,-458.481 410.666,-463.0973"/>
</g>
<!-- Node21&#45;&gt;Node30 -->
<g id="edge27" class="edge">
<title>Node21&#45;&gt;Node30</title>
<path fill="none" stroke="#191970" d="M403.6455,-463.1115C383.1169,-450.9083 352.7356,-433.6491 325,-421 317.5667,-417.61 309.3369,-414.3765 301.6589,-411.5693"/>
<polygon fill="#191970" stroke="#191970" points="401.9636,-466.184 412.3393,-468.3278 405.5652,-460.1816 401.9636,-466.184"/>
</g>
<!-- Node21&#45;&gt;Node31 -->
<g id="edge29" class="edge">
<title>Node21&#45;&gt;Node31</title>
<path fill="none" stroke="#191970" d="M421.3741,-458.7905C408.3454,-423.7424 376.1327,-349.1576 325,-307 320.0313,-302.9034 314.1015,-299.6497 308.0542,-297.0783"/>
<polygon fill="#191970" stroke="#191970" points="418.1231,-460.0934 424.8013,-468.3185 424.71,-457.7241 418.1231,-460.0934"/>
</g>
<!-- Node21&#45;&gt;Node32 -->
<g id="edge31" class="edge">
<title>Node21&#45;&gt;Node32</title>
<path fill="none" stroke="#191970" d="M418.2756,-496.4077C402.3839,-524.8275 368.2404,-579.4014 325,-611 319.8006,-614.7995 313.7609,-617.9117 307.677,-620.436"/>
<polygon fill="#191970" stroke="#191970" points="421.404,-497.9814 423.1205,-487.5265 415.2589,-494.6291 421.404,-497.9814"/>
</g>
<!-- Node21&#45;&gt;Node33 -->
<g id="edge33" class="edge">
<title>Node21&#45;&gt;Node33</title>
<path fill="none" stroke="#191970" d="M418.2756,-459.5923C402.3839,-431.1725 368.2404,-376.5986 325,-345 319.8006,-341.2005 313.7609,-338.0883 307.677,-335.564"/>
<polygon fill="#191970" stroke="#191970" points="415.2589,-461.3709 423.1205,-468.4735 421.404,-458.0186 415.2589,-461.3709"/>
</g>
<!-- Node23&#45;&gt;Node24 -->
<g id="edge23" class="edge">
<title>Node23&#45;&gt;Node24</title>
<path fill="none" stroke="#191970" d="M231.9571,-426.5306C228.1728,-424.8361 224.4633,-422.9909 221,-421 187.7001,-401.8577 154.4869,-370.4117 138.8132,-354.6459"/>
<polygon fill="#191970" stroke="#191970" points="230.8413,-429.8562 241.4206,-430.4288 233.5074,-423.3838 230.8413,-429.8562"/>
</g>
<!-- Node26&#45;&gt;Node4 -->
<g id="edge25" class="edge">
<title>Node26&#45;&gt;Node4</title>
<path fill="none" stroke="#191970" d="M238.4048,-681.9221C232.4006,-684.905 226.3677,-688.29 221,-692 185.8066,-716.3244 151.9346,-754.7872 137.1981,-772.4983"/>
<polygon fill="#191970" stroke="#191970" points="240.1348,-684.9772 247.7168,-677.5769 237.1748,-678.6338 240.1348,-684.9772"/>
</g>
<!-- Node30&#45;&gt;Node24 -->
<g id="edge28" class="edge">
<title>Node30&#45;&gt;Node24</title>
<path fill="none" stroke="#191970" d="M236.8031,-389.003C231.4892,-387.0287 226.0927,-384.9868 221,-383 197.2837,-373.7475 170.4074,-362.4925 151.9516,-354.6429"/>
<polygon fill="#191970" stroke="#191970" points="235.602,-392.2904 246.1955,-392.4574 238.0183,-385.7206 235.602,-392.2904"/>
</g>
<!-- Node31&#45;&gt;Node24 -->
<g id="edge30" class="edge">
<title>Node31&#45;&gt;Node24</title>
<path fill="none" stroke="#191970" d="M236.8031,-300.997C231.4892,-302.9713 226.0927,-305.0132 221,-307 197.2837,-316.2525 170.4074,-327.5075 151.9516,-335.3571"/>
<polygon fill="#191970" stroke="#191970" points="238.0183,-304.2794 246.1955,-297.5426 235.602,-297.7096 238.0183,-304.2794"/>
</g>
<!-- Node32&#45;&gt;Node4 -->
<g id="edge32" class="edge">
<title>Node32&#45;&gt;Node4</title>
<path fill="none" stroke="#191970" d="M228.4243,-644.08C225.8153,-645.5703 223.3148,-647.2062 221,-649 175.5845,-684.1928 144.2303,-748.3084 133.5401,-772.4578"/>
<polygon fill="#191970" stroke="#191970" points="230.1792,-647.1172 237.6016,-639.5568 227.0845,-640.8384 230.1792,-647.1172"/>
</g>
<!-- Node38&#45;&gt;Node4 -->
<g id="edge40" class="edge">
<title>Node38&#45;&gt;Node4</title>
<path fill="none" stroke="#191970" d="M227.0742,-807.8385C206.6892,-802.4404 183.095,-796.1924 164.2145,-791.1927"/>
<polygon fill="#191970" stroke="#191970" points="226.2261,-811.2345 236.7889,-810.411 228.0181,-804.4677 226.2261,-811.2345"/>
</g>
<!-- Node44&#45;&gt;Node4 -->
<g id="edge47" class="edge">
<title>Node44&#45;&gt;Node4</title>
<path fill="none" stroke="#191970" d="M378.9146,-782C318.4871,-782 217.3767,-782 164.358,-782"/>
<polygon fill="#191970" stroke="#191970" points="378.9764,-785.5001 388.9763,-782 378.9763,-778.5001 378.9764,-785.5001"/>
</g>
<!-- Node46&#45;&gt;Node5 -->
<g id="edge51" class="edge">
<title>Node46&#45;&gt;Node5</title>
<path fill="none" stroke="#191970" d="M379.2523,-976.4432C337.3032,-980.2742 275.1617,-985.9671 221,-991 153.8349,-997.2412 74.1211,-1004.7769 38.2165,-1008.178"/>
<polygon fill="#191970" stroke="#191970" points="379.8248,-979.9056 389.4651,-975.5109 379.1883,-972.9346 379.8248,-979.9056"/>
</g>
<!-- Node46&#45;&gt;Node4 -->
<g id="edge53" class="edge">
<title>Node46&#45;&gt;Node4</title>
<path fill="none" stroke="#191970" d="M379.2997,-962.6171C326.4846,-951.748 246.3223,-933.0185 221,-915 174.1867,-881.6892 143.6734,-816.4414 133.3737,-791.7663"/>
<polygon fill="#191970" stroke="#191970" points="378.6518,-966.057 389.1486,-964.6184 380.0458,-959.1971 378.6518,-966.057"/>
</g>
<!-- Node46&#45;&gt;Node17 -->
<g id="edge49" class="edge">
<title>Node46&#45;&gt;Node17</title>
<path fill="none" stroke="#191970" d="M379.5411,-983.8802C357.7132,-989.2316 332.2921,-995.4639 311.7569,-1000.4983"/>
<polygon fill="#191970" stroke="#191970" points="380.4078,-987.2715 389.2868,-981.491 378.741,-980.4728 380.4078,-987.2715"/>
</g>
<!-- Node46&#45;&gt;Node18 -->
<g id="edge50" class="edge">
<title>Node46&#45;&gt;Node18</title>
<path fill="none" stroke="#191970" d="M403.6455,-986.8885C383.1169,-999.0917 352.7356,-1016.3509 325,-1029 317.5667,-1032.39 309.3369,-1035.6235 301.6589,-1038.4307"/>
<polygon fill="#191970" stroke="#191970" points="405.5652,-989.8184 412.3393,-981.6722 401.9636,-983.816 405.5652,-989.8184"/>
</g>
<!-- Node46&#45;&gt;Node35 -->
<g id="edge52" class="edge">
<title>Node46&#45;&gt;Node35</title>
<path fill="none" stroke="#191970" d="M385.1931,-958.9609C376.956,-955.8179 368.5493,-952.1488 361,-948 343.236,-938.2376 342.3151,-930.5381 325,-920 316.0818,-914.5723 305.7314,-909.5595 296.624,-905.5344"/>
<polygon fill="#191970" stroke="#191970" points="384.129,-962.2978 394.7233,-962.4059 386.5088,-955.7147 384.129,-962.2978"/>
</g>
<!-- Node50&#45;&gt;Node4 -->
<g id="edge55" class="edge">
<title>Node50&#45;&gt;Node4</title>
<path fill="none" stroke="#191970" d="M379.2351,-750.2079C318.8758,-757.8919 217.5733,-770.788 164.4388,-777.5522"/>
<polygon fill="#191970" stroke="#191970" points="379.8044,-753.6638 389.2824,-748.9289 378.9204,-746.7198 379.8044,-753.6638"/>
</g>
</g>
</svg>
