<?xml version="1.0" encoding="UTF-8" standalone="no"?>
<!DOCTYPE svg PUBLIC "-//W3C//DTD SVG 1.1//EN"
 "http://www.w3.org/Graphics/SVG/1.1/DTD/svg11.dtd">
<!-- Generated by graphviz version 2.40.1 (20161225.0304)
 -->
<!-- Title: couldNotOpenMsgTo Pages: 1 -->
<svg width="382pt" height="120pt"
 viewBox="0.00 0.00 382.00 120.17" xmlns="http://www.w3.org/2000/svg" xmlns:xlink="http://www.w3.org/1999/xlink">
<g id="graph0" class="graph" transform="scale(1 1) rotate(0) translate(4 116.1659)">
<title>couldNotOpenMsgTo</title>
<polygon fill="#ffffff" stroke="transparent" points="-4,4 -4,-116.1659 378,-116.1659 378,4 -4,4"/>
<!-- Node1 -->
<g id="node1" class="node">
<title>Node1</title>
<g id="a_node1"><a xlink:title=" ">
<polygon fill="#bfbfbf" stroke="#000000" points="265,-57.5 265,-76.5 374,-76.5 374,-57.5 265,-57.5"/>
<text text-anchor="middle" x="319.5" y="-64.5" font-family="Helvetica,sans-Serif" font-size="10.00" fill="#000000">couldNotOpenMsgTo</text>
</a>
</g>
</g>
<!-- Node2 -->
<g id="node2" class="node">
<title>Node2</title>
<g id="a_node2"><a xlink:href="../../d0/d3e/pps-files_8cpp.html#a44d1b7b3f8e3181274fae172922847b6" target="_top" xlink:title=" ">
<polygon fill="#ffffff" stroke="#ff0000" points="0,-76.5 0,-95.5 67,-95.5 67,-76.5 0,-76.5"/>
<text text-anchor="middle" x="33.5" y="-83.5" font-family="Helvetica,sans-Serif" font-size="10.00" fill="#000000">open_logerr</text>
</a>
</g>
</g>
<!-- Node1&#45;&gt;Node2 -->
<g id="edge1" class="edge">
<title>Node1&#45;&gt;Node2</title>
<path fill="none" stroke="#191970" d="M293.4018,-81.2348C275.7851,-90.0092 251.6929,-100.429 229,-105 174.1026,-116.0578 158.5022,-112.4499 103,-105 89.1147,-103.1362 74.0763,-99.2665 61.5515,-95.5028"/>
<polygon fill="#191970" stroke="#191970" points="295.1756,-84.2585 302.4726,-76.577 291.9781,-78.0314 295.1756,-84.2585"/>
</g>
<!-- Node26 -->
<g id="node3" class="node">
<title>Node26</title>
<g id="a_node3"><a xlink:href="../../d0/d3e/pps-files_8cpp.html#a5e4671d51ee126315cb694ef235d359a" target="_top" xlink:title=" ">
<polygon fill="#ffffff" stroke="#ff0000" points="109.5,-76.5 109.5,-95.5 222.5,-95.5 222.5,-76.5 109.5,-76.5"/>
<text text-anchor="middle" x="166" y="-83.5" font-family="Helvetica,sans-Serif" font-size="10.00" fill="#000000">writeFileMsgToLogbuf</text>
</a>
</g>
</g>
<!-- Node1&#45;&gt;Node26 -->
<g id="edge2" class="edge">
<title>Node1&#45;&gt;Node26</title>
<path fill="none" stroke="#191970" d="M254.8406,-75.0034C244.1657,-76.3248 233.1706,-77.6857 222.7097,-78.9806"/>
<polygon fill="#191970" stroke="#191970" points="255.4551,-78.4542 264.9494,-73.7522 254.5952,-71.5072 255.4551,-78.4542"/>
</g>
<!-- Node30 -->
<g id="node4" class="node">
<title>Node30</title>
<g id="a_node4"><a xlink:href="../../d0/d3e/pps-files_8cpp.html#a6d6a61f9f40278df5e7ba5fa5b3a9d31" target="_top" xlink:title=" ">
<polygon fill="#ffffff" stroke="#ff0000" points="133.5,-38.5 133.5,-57.5 198.5,-57.5 198.5,-38.5 133.5,-38.5"/>
<text text-anchor="middle" x="166" y="-45.5" font-family="Helvetica,sans-Serif" font-size="10.00" fill="#000000">writeToLog</text>
</a>
</g>
</g>
<!-- Node1&#45;&gt;Node30 -->
<g id="edge3" class="edge">
<title>Node1&#45;&gt;Node30</title>
<path fill="none" stroke="#191970" d="M254.9756,-59.0133C235.6669,-56.6233 215.2986,-54.1021 198.9296,-52.076"/>
<polygon fill="#191970" stroke="#191970" points="254.5952,-62.4928 264.9494,-60.2478 255.4551,-55.5458 254.5952,-62.4928"/>
</g>
<!-- Node54 -->
<g id="node5" class="node">
<title>Node54</title>
<g id="a_node5"><a xlink:href="../../d0/d3e/pps-files_8cpp.html#a01969eeb557969d5dbd30f22e2cdecc3" target="_top" xlink:title=" ">
<polygon fill="#ffffff" stroke="#ff0000" points="103,-.5 103,-19.5 229,-19.5 229,-.5 103,-.5"/>
<text text-anchor="middle" x="166" y="-7.5" font-family="Helvetica,sans-Serif" font-size="10.00" fill="#000000">writeToLogNoTimestamp</text>
</a>
</g>
</g>
<!-- Node1&#45;&gt;Node54 -->
<g id="edge5" class="edge">
<title>Node1&#45;&gt;Node54</title>
<path fill="none" stroke="#191970" d="M288.9138,-53.2168C271.5236,-45.6185 249.2408,-36.2791 229,-29 219.6474,-25.6366 209.3756,-22.3649 199.8894,-19.511"/>
<polygon fill="#191970" stroke="#191970" points="287.9731,-56.6272 298.5351,-57.4606 290.7981,-50.2225 287.9731,-56.6272"/>
</g>
<!-- Node30&#45;&gt;Node2 -->
<g id="edge4" class="edge">
<title>Node30&#45;&gt;Node2</title>
<path fill="none" stroke="#191970" d="M123.3921,-60.2196C105.0614,-65.4767 83.9513,-71.531 66.7964,-76.4509"/>
<polygon fill="#191970" stroke="#191970" points="124.5996,-63.5145 133.2472,-57.3933 122.6698,-56.7857 124.5996,-63.5145"/>
</g>
</g>
</svg>
