<?xml version="1.0" encoding="UTF-8" standalone="no"?>
<!DOCTYPE svg PUBLIC "-//W3C//DTD SVG 1.1//EN"
 "http://www.w3.org/Graphics/SVG/1.1/DTD/svg11.dtd">
<!-- Generated by graphviz version 2.40.1 (20161225.0304)
 -->
<!-- Title: saveDoubleArray Pages: 1 -->
<svg width="304pt" height="47pt"
 viewBox="0.00 0.00 304.00 47.00" xmlns="http://www.w3.org/2000/svg" xmlns:xlink="http://www.w3.org/1999/xlink">
<g id="graph0" class="graph" transform="scale(1 1) rotate(0) translate(4 43)">
<title>saveDoubleArray</title>
<polygon fill="#ffffff" stroke="transparent" points="-4,4 -4,-43 300,-43 300,4 -4,4"/>
<!-- Node1 -->
<g id="node1" class="node">
<title>Node1</title>
<g id="a_node1"><a xlink:title=" ">
<polygon fill="#bfbfbf" stroke="#000000" points="0,-.5 0,-19.5 92,-19.5 92,-.5 0,-.5"/>
<text text-anchor="middle" x="46" y="-7.5" font-family="Helvetica,sans-Serif" font-size="10.00" fill="#000000">saveDoubleArray</text>
</a>
</g>
</g>
<!-- Node2 -->
<g id="node2" class="node">
<title>Node2</title>
<g id="a_node2"><a xlink:href="../../d0/d3e/pps-files_8cpp.html#a44d1b7b3f8e3181274fae172922847b6" target="_top" xlink:title=" ">
<polygon fill="#ffffff" stroke="#ff0000" points="128,-19.5 128,-38.5 195,-38.5 195,-19.5 128,-19.5"/>
<text text-anchor="middle" x="161.5" y="-26.5" font-family="Helvetica,sans-Serif" font-size="10.00" fill="#000000">open_logerr</text>
</a>
</g>
</g>
<!-- Node1&#45;&gt;Node2 -->
<g id="edge1" class="edge">
<title>Node1&#45;&gt;Node2</title>
<path fill="none" stroke="#191970" d="M92.3128,-17.6185C100.7902,-19.0131 109.6102,-20.464 118.002,-21.8445"/>
<polygon fill="#191970" stroke="#191970" points="117.5383,-25.3152 127.9738,-23.4849 118.6746,-18.408 117.5383,-25.3152"/>
</g>
<!-- Node4 -->
<g id="node3" class="node">
<title>Node4</title>
<g id="a_node3"><a xlink:href="../../d0/d3e/pps-files_8cpp.html#a6d6a61f9f40278df5e7ba5fa5b3a9d31" target="_top" xlink:title=" ">
<polygon fill="#ffffff" stroke="#ff0000" points="231,-.5 231,-19.5 296,-19.5 296,-.5 231,-.5"/>
<text text-anchor="middle" x="263.5" y="-7.5" font-family="Helvetica,sans-Serif" font-size="10.00" fill="#000000">writeToLog</text>
</a>
</g>
</g>
<!-- Node1&#45;&gt;Node4 -->
<g id="edge3" class="edge">
<title>Node1&#45;&gt;Node4</title>
<path fill="none" stroke="#191970" d="M92.1262,-10C130.0332,-10 183.3397,-10 220.3962,-10"/>
<polygon fill="#191970" stroke="#191970" points="220.8646,-13.5001 230.8645,-10 220.8645,-6.5001 220.8646,-13.5001"/>
</g>
<!-- Node2&#45;&gt;Node4 -->
<g id="edge2" class="edge">
<title>Node2&#45;&gt;Node4</title>
<path fill="none" stroke="#191970" d="M195.1813,-22.726C203.4394,-21.1878 212.385,-19.5214 220.9978,-17.9171"/>
<polygon fill="#191970" stroke="#191970" points="221.7046,-21.3457 230.8946,-16.0736 220.4227,-14.4641 221.7046,-21.3457"/>
</g>
</g>
</svg>
