<?xml version="1.0" encoding="UTF-8" standalone="no"?>
<!DOCTYPE svg PUBLIC "-//W3C//DTD SVG 1.1//EN"
 "http://www.w3.org/Graphics/SVG/1.1/DTD/svg11.dtd">
<!-- Generated by graphviz version 2.40.1 (20161225.0304)
 -->
<!-- Title: createPIDfile Pages: 1 -->
<svg width="286pt" height="47pt"
 viewBox="0.00 0.00 286.00 47.00" xmlns="http://www.w3.org/2000/svg" xmlns:xlink="http://www.w3.org/1999/xlink">
<g id="graph0" class="graph" transform="scale(1 1) rotate(0) translate(4 43)">
<title>createPIDfile</title>
<polygon fill="#ffffff" stroke="transparent" points="-4,4 -4,-43 282,-43 282,4 -4,4"/>
<!-- Node1 -->
<g id="node1" class="node">
<title>Node1</title>
<g id="a_node1"><a xlink:title=" ">
<polygon fill="#bfbfbf" stroke="#000000" points="0,-.5 0,-19.5 74,-19.5 74,-.5 0,-.5"/>
<text text-anchor="middle" x="37" y="-7.5" font-family="Helvetica,sans-Serif" font-size="10.00" fill="#000000">createPIDfile</text>
</a>
</g>
</g>
<!-- Node2 -->
<g id="node2" class="node">
<title>Node2</title>
<g id="a_node2"><a xlink:href="../../d0/d3e/pps-files_8cpp.html#a44d1b7b3f8e3181274fae172922847b6" target="_top" xlink:title=" ">
<polygon fill="#ffffff" stroke="#ff0000" points="110,-19.5 110,-38.5 177,-38.5 177,-19.5 110,-19.5"/>
<text text-anchor="middle" x="143.5" y="-26.5" font-family="Helvetica,sans-Serif" font-size="10.00" fill="#000000">open_logerr</text>
</a>
</g>
</g>
<!-- Node1&#45;&gt;Node2 -->
<g id="edge1" class="edge">
<title>Node1&#45;&gt;Node2</title>
<path fill="none" stroke="#191970" d="M74.2485,-16.6453C82.4363,-18.106 91.1804,-19.666 99.6024,-21.1685"/>
<polygon fill="#191970" stroke="#191970" points="99.1971,-24.6514 109.6564,-22.9622 100.4266,-17.7602 99.1971,-24.6514"/>
</g>
<!-- Node4 -->
<g id="node3" class="node">
<title>Node4</title>
<g id="a_node3"><a xlink:href="../../d0/d3e/pps-files_8cpp.html#a6d6a61f9f40278df5e7ba5fa5b3a9d31" target="_top" xlink:title=" ">
<polygon fill="#ffffff" stroke="#ff0000" points="213,-.5 213,-19.5 278,-19.5 278,-.5 213,-.5"/>
<text text-anchor="middle" x="245.5" y="-7.5" font-family="Helvetica,sans-Serif" font-size="10.00" fill="#000000">writeToLog</text>
</a>
</g>
</g>
<!-- Node1&#45;&gt;Node4 -->
<g id="edge3" class="edge">
<title>Node1&#45;&gt;Node4</title>
<path fill="none" stroke="#191970" d="M74.2756,-10C110.3571,-10 165.0005,-10 202.8103,-10"/>
<polygon fill="#191970" stroke="#191970" points="202.9988,-13.5001 212.9988,-10 202.9988,-6.5001 202.9988,-13.5001"/>
</g>
<!-- Node2&#45;&gt;Node4 -->
<g id="edge2" class="edge">
<title>Node2&#45;&gt;Node4</title>
<path fill="none" stroke="#191970" d="M177.1813,-22.726C185.4394,-21.1878 194.385,-19.5214 202.9978,-17.9171"/>
<polygon fill="#191970" stroke="#191970" points="203.7046,-21.3457 212.8946,-16.0736 202.4227,-14.4641 203.7046,-21.3457"/>
</g>
</g>
</svg>
