<?xml version="1.0" encoding="UTF-8" standalone="no"?>
<!DOCTYPE svg PUBLIC "-//W3C//DTD SVG 1.1//EN"
 "http://www.w3.org/Graphics/SVG/1.1/DTD/svg11.dtd">
<!-- Generated by graphviz version 2.40.1 (20161225.0304)
 -->
<!-- Title: open_logerr Pages: 1 -->
<svg width="215pt" height="408pt"
 viewBox="0.00 0.00 215.00 408.00" xmlns="http://www.w3.org/2000/svg" xmlns:xlink="http://www.w3.org/1999/xlink">
<g id="graph0" class="graph" transform="scale(1 1) rotate(0) translate(4 404)">
<title>open_logerr</title>
<polygon fill="#ffffff" stroke="transparent" points="-4,4 -4,-404 211,-404 211,4 -4,4"/>
<!-- Node1 -->
<g id="node1" class="node">
<title>Node1</title>
<g id="a_node1"><a xlink:title=" ">
<polygon fill="#bfbfbf" stroke="#000000" points="140,-190.5 140,-209.5 207,-209.5 207,-190.5 140,-190.5"/>
<text text-anchor="middle" x="173.5" y="-197.5" font-family="Helvetica,sans-Serif" font-size="10.00" fill="#000000">open_logerr</text>
</a>
</g>
</g>
<!-- Node2 -->
<g id="node2" class="node">
<title>Node2</title>
<g id="a_node2"><a xlink:href="../../d0/d3e/pps-files_8cpp.html#a9942302e3e5272291f62fda42bdf6319" target="_top" xlink:title=" ">
<polygon fill="#ffffff" stroke="#ff0000" points="15,-380.5 15,-399.5 89,-399.5 89,-380.5 15,-380.5"/>
<text text-anchor="middle" x="52" y="-387.5" font-family="Helvetica,sans-Serif" font-size="10.00" fill="#000000">createPIDfile</text>
</a>
</g>
</g>
<!-- Node1&#45;&gt;Node2 -->
<g id="edge1" class="edge">
<title>Node1&#45;&gt;Node2</title>
<path fill="none" stroke="#191970" d="M170.797,-219.5881C164.9468,-254.7002 147.9068,-328.6344 104,-371 99.7808,-375.0711 94.6199,-378.2808 89.2056,-380.8085"/>
<polygon fill="#191970" stroke="#191970" points="174.266,-220.0566 172.323,-209.6415 167.3469,-218.995 174.266,-220.0566"/>
</g>
<!-- Node4 -->
<g id="node3" class="node">
<title>Node4</title>
<g id="a_node3"><a xlink:href="../../d0/d3e/pps-files_8cpp.html#aa402d7b46a75b43bb077558f5343f3b8" target="_top" xlink:title=" ">
<polygon fill="#ffffff" stroke="#ff0000" points="3.5,-342.5 3.5,-361.5 100.5,-361.5 100.5,-342.5 3.5,-342.5"/>
<text text-anchor="middle" x="52" y="-349.5" font-family="Helvetica,sans-Serif" font-size="10.00" fill="#000000">daemonSaveArray</text>
</a>
</g>
</g>
<!-- Node1&#45;&gt;Node4 -->
<g id="edge2" class="edge">
<title>Node1&#45;&gt;Node4</title>
<path fill="none" stroke="#191970" d="M168.3414,-219.1842C159.691,-247.8387 139.6106,-301.7803 104,-333 99.5913,-336.8651 94.3312,-339.967 88.8757,-342.45"/>
<polygon fill="#191970" stroke="#191970" points="171.7147,-220.1177 171.1057,-209.5404 164.9857,-218.1888 171.7147,-220.1177"/>
</g>
<!-- Node7 -->
<g id="node4" class="node">
<title>Node7</title>
<g id="a_node4"><a xlink:href="../../d0/d3e/pps-files_8cpp.html#ab03cf9b5563affdcf46a4ca95d4ff4ed" target="_top" xlink:title=" ">
<polygon fill="#ffffff" stroke="#000000" points="17,-304.5 17,-323.5 87,-323.5 87,-304.5 17,-304.5"/>
<text text-anchor="middle" x="52" y="-311.5" font-family="Helvetica,sans-Serif" font-size="10.00" fill="#000000">getChildPID</text>
</a>
</g>
</g>
<!-- Node1&#45;&gt;Node7 -->
<g id="edge3" class="edge">
<title>Node1&#45;&gt;Node7</title>
<path fill="none" stroke="#191970" d="M164.3052,-218.516C152.8822,-239.762 131.495,-274.325 104,-295 98.9299,-298.8125 93.0177,-301.9221 87.0347,-304.4377"/>
<polygon fill="#191970" stroke="#191970" points="167.4679,-220.02 168.9674,-209.5318 161.2547,-216.7957 167.4679,-220.02"/>
</g>
<!-- Node8 -->
<g id="node5" class="node">
<title>Node8</title>
<g id="a_node5"><a xlink:href="../../d0/d3e/pps-files_8cpp.html#a383f3dca6d9e0e5135fdf2a7158d8e8b" target="_top" xlink:title=" ">
<polygon fill="#ffffff" stroke="#ff0000" points="18,-266.5 18,-285.5 86,-285.5 86,-266.5 18,-266.5"/>
<text text-anchor="middle" x="52" y="-273.5" font-family="Helvetica,sans-Serif" font-size="10.00" fill="#000000">getRPiCPU</text>
</a>
</g>
</g>
<!-- Node1&#45;&gt;Node8 -->
<g id="edge4" class="edge">
<title>Node1&#45;&gt;Node8</title>
<path fill="none" stroke="#191970" d="M156.4645,-216.764C143.0926,-229.1971 123.5291,-245.8544 104,-257 97.6557,-260.6208 90.4954,-263.7663 83.5626,-266.3996"/>
<polygon fill="#191970" stroke="#191970" points="159.1031,-219.0845 163.9346,-209.6555 154.2776,-214.0135 159.1031,-219.0845"/>
</g>
<!-- Node12 -->
<g id="node6" class="node">
<title>Node12</title>
<g id="a_node6"><a xlink:href="../../d0/d3e/pps-files_8cpp.html#a4e1eee07f00ecb77c3ae3f508744f610" target="_top" xlink:title=" ">
<polygon fill="#ffffff" stroke="#ff0000" points="6,-228.5 6,-247.5 98,-247.5 98,-228.5 6,-228.5"/>
<text text-anchor="middle" x="52" y="-235.5" font-family="Helvetica,sans-Serif" font-size="10.00" fill="#000000">saveDoubleArray</text>
</a>
</g>
</g>
<!-- Node1&#45;&gt;Node12 -->
<g id="edge5" class="edge">
<title>Node1&#45;&gt;Node12</title>
<path fill="none" stroke="#191970" d="M132.956,-212.6804C116.5394,-217.8148 97.9011,-223.6441 82.6498,-228.4141"/>
<polygon fill="#191970" stroke="#191970" points="134.3411,-215.9145 142.8404,-209.589 132.2515,-209.2336 134.3411,-215.9145"/>
</g>
<!-- Node15 -->
<g id="node7" class="node">
<title>Node15</title>
<g id="a_node7"><a xlink:href="../../d0/d3e/pps-files_8cpp.html#a5ec7f61f0d9d13be935f67a3e9c71f56" target="_top" xlink:title=" ">
<polygon fill="#ffffff" stroke="#ff0000" points="12,-190.5 12,-209.5 92,-209.5 92,-190.5 12,-190.5"/>
<text text-anchor="middle" x="52" y="-197.5" font-family="Helvetica,sans-Serif" font-size="10.00" fill="#000000">saveLastState</text>
</a>
</g>
</g>
<!-- Node1&#45;&gt;Node15 -->
<g id="edge6" class="edge">
<title>Node1&#45;&gt;Node15</title>
<path fill="none" stroke="#191970" d="M129.9594,-200C117.6882,-200 104.3958,-200 92.3219,-200"/>
<polygon fill="#191970" stroke="#191970" points="129.978,-203.5001 139.978,-200 129.9779,-196.5001 129.978,-203.5001"/>
</g>
<!-- Node16 -->
<g id="node8" class="node">
<title>Node16</title>
<g id="a_node8"><a xlink:href="../../d0/d3e/pps-files_8cpp.html#aa688c89aacc832cc1e7ef6ff1be6541e" target="_top" xlink:title=" ">
<polygon fill="#ffffff" stroke="#ff0000" points="8.5,-152.5 8.5,-171.5 95.5,-171.5 95.5,-152.5 8.5,-152.5"/>
<text text-anchor="middle" x="52" y="-159.5" font-family="Helvetica,sans-Serif" font-size="10.00" fill="#000000">writeDistribution</text>
</a>
</g>
</g>
<!-- Node1&#45;&gt;Node16 -->
<g id="edge7" class="edge">
<title>Node1&#45;&gt;Node16</title>
<path fill="none" stroke="#191970" d="M132.956,-187.3196C116.5394,-182.1852 97.9011,-176.3559 82.6498,-171.5859"/>
<polygon fill="#191970" stroke="#191970" points="132.2515,-190.7664 142.8404,-190.411 134.3411,-184.0855 132.2515,-190.7664"/>
</g>
<!-- Node19 -->
<g id="node9" class="node">
<title>Node19</title>
<g id="a_node9"><a xlink:href="../../d0/d3e/pps-files_8cpp.html#a493e043705885cfcebc5ac807989eb4d" target="_top" xlink:title=" ">
<polygon fill="#ffffff" stroke="#ff0000" points="0,-114.5 0,-133.5 104,-133.5 104,-114.5 0,-114.5"/>
<text text-anchor="middle" x="52" y="-121.5" font-family="Helvetica,sans-Serif" font-size="10.00" fill="#000000">writeFrequencyVars</text>
</a>
</g>
</g>
<!-- Node1&#45;&gt;Node19 -->
<g id="edge8" class="edge">
<title>Node1&#45;&gt;Node19</title>
<path fill="none" stroke="#191970" d="M156.4645,-183.236C143.0926,-170.8029 123.5291,-154.1456 104,-143 97.6557,-139.3792 90.4954,-136.2337 83.5626,-133.6004"/>
<polygon fill="#191970" stroke="#191970" points="154.2776,-185.9865 163.9346,-190.3445 159.1031,-180.9155 154.2776,-185.9865"/>
</g>
<!-- Node20 -->
<g id="node10" class="node">
<title>Node20</title>
<g id="a_node10"><a xlink:href="../../d0/d3e/pps-files_8cpp.html#a73e9f77c69f58e616293b5ca5126e77f" target="_top" xlink:title=" ">
<polygon fill="#ffffff" stroke="#ff0000" points="17,-76.5 17,-95.5 87,-95.5 87,-76.5 17,-76.5"/>
<text text-anchor="middle" x="52" y="-83.5" font-family="Helvetica,sans-Serif" font-size="10.00" fill="#000000">writeOffsets</text>
</a>
</g>
</g>
<!-- Node1&#45;&gt;Node20 -->
<g id="edge9" class="edge">
<title>Node1&#45;&gt;Node20</title>
<path fill="none" stroke="#191970" d="M164.3052,-181.484C152.8822,-160.238 131.495,-125.675 104,-105 98.9299,-101.1875 93.0177,-98.0779 87.0347,-95.5623"/>
<polygon fill="#191970" stroke="#191970" points="161.2547,-183.2043 168.9674,-190.4682 167.4679,-179.98 161.2547,-183.2043"/>
</g>
<!-- Node21 -->
<g id="node11" class="node">
<title>Node21</title>
<g id="a_node11"><a xlink:href="../../d0/d3e/pps-files_8cpp.html#afdccb305ab5e5c4f3402fe7969c6737b" target="_top" xlink:title=" ">
<polygon fill="#ffffff" stroke="#ff0000" points="3.5,-38.5 3.5,-57.5 100.5,-57.5 100.5,-38.5 3.5,-38.5"/>
<text text-anchor="middle" x="52" y="-45.5" font-family="Helvetica,sans-Serif" font-size="10.00" fill="#000000">writeStatusStrings</text>
</a>
</g>
</g>
<!-- Node1&#45;&gt;Node21 -->
<g id="edge10" class="edge">
<title>Node1&#45;&gt;Node21</title>
<path fill="none" stroke="#191970" d="M168.3414,-180.8158C159.691,-152.1613 139.6106,-98.2197 104,-67 99.5913,-63.1349 94.3312,-60.033 88.8757,-57.55"/>
<polygon fill="#191970" stroke="#191970" points="164.9857,-181.8112 171.1057,-190.4596 171.7147,-179.8823 164.9857,-181.8112"/>
</g>
<!-- Node22 -->
<g id="node12" class="node">
<title>Node22</title>
<g id="a_node12"><a xlink:href="../../d0/d3e/pps-files_8cpp.html#aad53ec22f551c789425b2870f59fbae9" target="_top" xlink:title=" ">
<polygon fill="#ffffff" stroke="#ff0000" points="9,-.5 9,-19.5 95,-19.5 95,-.5 9,-.5"/>
<text text-anchor="middle" x="52" y="-7.5" font-family="Helvetica,sans-Serif" font-size="10.00" fill="#000000">writeTimestamp</text>
</a>
</g>
</g>
<!-- Node1&#45;&gt;Node22 -->
<g id="edge11" class="edge">
<title>Node1&#45;&gt;Node22</title>
<path fill="none" stroke="#191970" d="M170.797,-180.4119C164.9468,-145.2998 147.9068,-71.3656 104,-29 99.9883,-25.1291 95.1252,-22.037 90.0025,-19.5694"/>
<polygon fill="#191970" stroke="#191970" points="167.3469,-181.005 172.323,-190.3585 174.266,-179.9434 167.3469,-181.005"/>
</g>
</g>
</svg>
