<?xml version="1.0" encoding="UTF-8" standalone="no"?>
<!DOCTYPE svg PUBLIC "-//W3C//DTD SVG 1.1//EN"
 "http://www.w3.org/Graphics/SVG/1.1/DTD/svg11.dtd">
<!-- Generated by graphviz version 2.43.0 (0)
 -->
<!-- Title: couldNotOpenMsgTo Pages: 1 -->
<svg width="408pt" height="121pt"
 viewBox="0.00 0.00 408.00 120.64" xmlns="http://www.w3.org/2000/svg" xmlns:xlink="http://www.w3.org/1999/xlink">
<g id="graph0" class="graph" transform="scale(1 1) rotate(0) translate(4 116.64)">
<title>couldNotOpenMsgTo</title>
<polygon fill="white" stroke="transparent" points="-4,4 -4,-116.64 404,-116.64 404,4 -4,4"/>
<!-- Node1 -->
<g id="node1" class="node">
<title>Node1</title>
<g id="a_node1"><a xlink:title=" ">
<polygon fill="#bfbfbf" stroke="black" points="284,-57.5 284,-76.5 400,-76.5 400,-57.5 284,-57.5"/>
<text text-anchor="middle" x="342" y="-64.5" font-family="Helvetica,sans-Serif" font-size="10.00">couldNotOpenMsgTo</text>
</a>
</g>
</g>
<!-- Node2 -->
<g id="node2" class="node">
<title>Node2</title>
<g id="a_node2"><a xlink:href="../../d0/d3e/pps-files_8cpp.html#a44d1b7b3f8e3181274fae172922847b6" target="_top" xlink:title=" ">
<polygon fill="white" stroke="red" points="0,-76.5 0,-95.5 74,-95.5 74,-76.5 0,-76.5"/>
<text text-anchor="middle" x="37" y="-83.5" font-family="Helvetica,sans-Serif" font-size="10.00">open_logerr</text>
</a>
</g>
</g>
<!-- Node1&#45;&gt;Node2 -->
<g id="edge1" class="edge">
<title>Node1&#45;&gt;Node2</title>
<path fill="none" stroke="midnightblue" d="M314.13,-81.24C296.01,-90.01 271.25,-100.43 248,-105 187.82,-116.82 170.82,-112.89 110,-105 95.64,-103.14 80.06,-99.27 67.09,-95.5"/>
<polygon fill="midnightblue" stroke="midnightblue" points="316.08,-84.18 323.47,-76.58 312.96,-77.91 316.08,-84.18"/>
</g>
<!-- Node26 -->
<g id="node3" class="node">
<title>Node26</title>
<g id="a_node3"><a xlink:href="../../d0/d3e/pps-files_8cpp.html#a5e4671d51ee126315cb694ef235d359a" target="_top" xlink:title=" ">
<polygon fill="white" stroke="red" points="118,-76.5 118,-95.5 240,-95.5 240,-76.5 118,-76.5"/>
<text text-anchor="middle" x="179" y="-83.5" font-family="Helvetica,sans-Serif" font-size="10.00">writeFileMsgToLogbuf</text>
</a>
</g>
</g>
<!-- Node1&#45;&gt;Node26 -->
<g id="edge2" class="edge">
<title>Node1&#45;&gt;Node26</title>
<path fill="none" stroke="midnightblue" d="M273.66,-74.95C262.5,-76.26 250.99,-77.62 240.03,-78.92"/>
<polygon fill="midnightblue" stroke="midnightblue" points="274.26,-78.4 283.78,-73.75 273.44,-71.45 274.26,-78.4"/>
</g>
<!-- Node30 -->
<g id="node4" class="node">
<title>Node30</title>
<g id="a_node4"><a xlink:href="../../d0/d3e/pps-files_8cpp.html#a6d6a61f9f40278df5e7ba5fa5b3a9d31" target="_top" xlink:title=" ">
<polygon fill="white" stroke="red" points="144.5,-38.5 144.5,-57.5 213.5,-57.5 213.5,-38.5 144.5,-38.5"/>
<text text-anchor="middle" x="179" y="-45.5" font-family="Helvetica,sans-Serif" font-size="10.00">writeToLog</text>
</a>
</g>
</g>
<!-- Node1&#45;&gt;Node30 -->
<g id="edge3" class="edge">
<title>Node1&#45;&gt;Node30</title>
<path fill="none" stroke="midnightblue" d="M273.72,-59.06C252.98,-56.61 231.04,-54.02 213.6,-51.96"/>
<polygon fill="midnightblue" stroke="midnightblue" points="273.44,-62.55 283.78,-60.25 274.26,-55.6 273.44,-62.55"/>
</g>
<!-- Node54 -->
<g id="node5" class="node">
<title>Node54</title>
<g id="a_node5"><a xlink:href="../../d0/d3e/pps-files_8cpp.html#a01969eeb557969d5dbd30f22e2cdecc3" target="_top" xlink:title=" ">
<polygon fill="white" stroke="red" points="110,-0.5 110,-19.5 248,-19.5 248,-0.5 110,-0.5"/>
<text text-anchor="middle" x="179" y="-7.5" font-family="Helvetica,sans-Serif" font-size="10.00">writeToLogNoTimestamp</text>
</a>
</g>
</g>
<!-- Node1&#45;&gt;Node54 -->
<g id="edge5" class="edge">
<title>Node1&#45;&gt;Node54</title>
<path fill="none" stroke="midnightblue" d="M310.09,-53.32C292.15,-45.65 269.02,-36.2 248,-29 238.14,-25.62 227.34,-22.39 217.3,-19.59"/>
<polygon fill="midnightblue" stroke="midnightblue" points="308.9,-56.62 319.47,-57.38 311.68,-50.2 308.9,-56.62"/>
</g>
<!-- Node30&#45;&gt;Node2 -->
<g id="edge4" class="edge">
<title>Node30&#45;&gt;Node2</title>
<path fill="none" stroke="midnightblue" d="M134.77,-59.73C115.01,-65.1 91.9,-71.37 73.21,-76.44"/>
<polygon fill="midnightblue" stroke="midnightblue" points="135.73,-63.1 144.47,-57.1 133.9,-56.34 135.73,-63.1"/>
</g>
</g>
</svg>
