<?xml version="1.0" encoding="UTF-8" standalone="no"?>
<!DOCTYPE svg PUBLIC "-//W3C//DTD SVG 1.1//EN"
 "http://www.w3.org/Graphics/SVG/1.1/DTD/svg11.dtd">
<!-- Generated by graphviz version 2.40.1 (20161225.0304)
 -->
<!-- Title: accessDaemon Pages: 1 -->
<svg width="386pt" height="256pt"
 viewBox="0.00 0.00 386.00 256.00" xmlns="http://www.w3.org/2000/svg" xmlns:xlink="http://www.w3.org/1999/xlink">
<g id="graph0" class="graph" transform="scale(1 1) rotate(0) translate(4 252)">
<title>accessDaemon</title>
<polygon fill="#ffffff" stroke="transparent" points="-4,4 -4,-252 382,-252 382,4 -4,4"/>
<!-- Node1 -->
<g id="node1" class="node">
<title>Node1</title>
<g id="a_node1"><a xlink:title=" ">
<polygon fill="#bfbfbf" stroke="#000000" points="0,-114.5 0,-133.5 85,-133.5 85,-114.5 0,-114.5"/>
<text text-anchor="middle" x="42.5" y="-121.5" font-family="Helvetica,sans-Serif" font-size="10.00" fill="#000000">accessDaemon</text>
</a>
</g>
</g>
<!-- Node2 -->
<g id="node2" class="node">
<title>Node2</title>
<g id="a_node2"><a xlink:href="../../d0/d3e/pps-files_8cpp.html#ad437ed85144a7450770629ce0b2dcbff" target="_top" xlink:title=" ">
<polygon fill="#ffffff" stroke="#ff0000" points="135.5,-228.5 135.5,-247.5 230.5,-247.5 230.5,-228.5 135.5,-228.5"/>
<text text-anchor="middle" x="183" y="-235.5" font-family="Helvetica,sans-Serif" font-size="10.00" fill="#000000">getSharedConfigs</text>
</a>
</g>
</g>
<!-- Node1&#45;&gt;Node2 -->
<g id="edge1" class="edge">
<title>Node1&#45;&gt;Node2</title>
<path fill="none" stroke="#191970" d="M47.8373,-133.6646C58.9185,-152.8377 86.3045,-195.8302 121,-219 124.0837,-221.0593 127.4002,-222.9032 130.8386,-224.5531"/>
<polygon fill="#191970" stroke="#191970" points="129.5747,-227.8186 140.1487,-228.4818 132.2962,-221.3693 129.5747,-227.8186"/>
</g>
<!-- Node8 -->
<g id="node3" class="node">
<title>Node8</title>
<g id="a_node3"><a xlink:href="../../d0/d3e/pps-files_8cpp.html#a6a3869251603ae4e569abadbd7dab11c" target="_top" xlink:title=" ">
<polygon fill="#ffffff" stroke="#000000" points="150.5,-190.5 150.5,-209.5 215.5,-209.5 215.5,-190.5 150.5,-190.5"/>
<text text-anchor="middle" x="183" y="-197.5" font-family="Helvetica,sans-Serif" font-size="10.00" fill="#000000">INThandler</text>
</a>
</g>
</g>
<!-- Node1&#45;&gt;Node8 -->
<g id="edge2" class="edge">
<title>Node1&#45;&gt;Node8</title>
<path fill="none" stroke="#191970" d="M55.0337,-133.5386C70.1092,-144.7136 96.4593,-163.3112 121,-176 128.664,-179.9627 137.1384,-183.6574 145.2965,-186.9029"/>
<polygon fill="#191970" stroke="#191970" points="144.0705,-190.1812 154.6607,-190.4955 146.5779,-183.6457 144.0705,-190.1812"/>
</g>
<!-- Node9 -->
<g id="node4" class="node">
<title>Node9</title>
<g id="a_node4"><a xlink:href="../../d0/d3e/pps-files_8cpp.html#acee307839ee7844080177e544b8b63d0" target="_top" xlink:title=" ">
<polygon fill="#ffffff" stroke="#000000" points="297,-133.5 297,-152.5 362,-152.5 362,-133.5 297,-133.5"/>
<text text-anchor="middle" x="329.5" y="-140.5" font-family="Helvetica,sans-Serif" font-size="10.00" fill="#000000">missingArg</text>
</a>
</g>
</g>
<!-- Node1&#45;&gt;Node9 -->
<g id="edge3" class="edge">
<title>Node1&#45;&gt;Node9</title>
<path fill="none" stroke="#191970" d="M74.2689,-133.5061C88.4313,-137.2704 105.4059,-141.1397 121,-143 177.9922,-149.799 244.3726,-148.1756 286.6471,-145.9549"/>
<polygon fill="#191970" stroke="#191970" points="287.0668,-149.4369 296.855,-145.3822 286.6747,-142.4479 287.0668,-149.4369"/>
</g>
<!-- Node10 -->
<g id="node5" class="node">
<title>Node10</title>
<g id="a_node5"><a xlink:href="../../d0/d3e/pps-files_8cpp.html#ac20a2f5a5d6284628d71e7e0cdc08248" target="_top" xlink:title=" ">
<polygon fill="#ffffff" stroke="#ff0000" points="122.5,-114.5 122.5,-133.5 243.5,-133.5 243.5,-114.5 122.5,-114.5"/>
<text text-anchor="middle" x="183" y="-121.5" font-family="Helvetica,sans-Serif" font-size="10.00" fill="#000000">parseSaveDataRequest</text>
</a>
</g>
</g>
<!-- Node1&#45;&gt;Node10 -->
<g id="edge4" class="edge">
<title>Node1&#45;&gt;Node10</title>
<path fill="none" stroke="#191970" d="M85.0359,-124C93.6957,-124 103.0246,-124 112.3626,-124"/>
<polygon fill="#191970" stroke="#191970" points="112.4677,-127.5001 122.4677,-124 112.4676,-120.5001 112.4677,-127.5001"/>
</g>
<!-- Node16 -->
<g id="node6" class="node">
<title>Node16</title>
<g id="a_node6"><a xlink:href="../../d0/d3e/pps-files_8cpp.html#a8837a1d11d52d5de8fb802ac99f84a3d" target="_top" xlink:title=" ">
<polygon fill="#ffffff" stroke="#000000" points="281,-95.5 281,-114.5 378,-114.5 378,-95.5 281,-95.5"/>
<text text-anchor="middle" x="329.5" y="-102.5" font-family="Helvetica,sans-Serif" font-size="10.00" fill="#000000">printAcceptedArgs</text>
</a>
</g>
</g>
<!-- Node1&#45;&gt;Node16 -->
<g id="edge8" class="edge">
<title>Node1&#45;&gt;Node16</title>
<path fill="none" stroke="#191970" d="M74.2689,-114.4939C88.4313,-110.7296 105.4059,-106.8603 121,-105 171.3059,-98.9987 228.9263,-99.5594 270.8269,-101.3008"/>
<polygon fill="#191970" stroke="#191970" points="270.7104,-104.799 280.8577,-101.7526 271.0254,-97.8061 270.7104,-104.799"/>
</g>
<!-- Node17 -->
<g id="node7" class="node">
<title>Node17</title>
<g id="a_node7"><a xlink:href="../../d0/d3e/pps-files_8cpp.html#ac59e9111236426cdcbea6d1774ca7fea" target="_top" xlink:title=" ">
<polygon fill="#ffffff" stroke="#ff0000" points="144.5,-38.5 144.5,-57.5 221.5,-57.5 221.5,-38.5 144.5,-38.5"/>
<text text-anchor="middle" x="183" y="-45.5" font-family="Helvetica,sans-Serif" font-size="10.00" fill="#000000">ppsIsRunning</text>
</a>
</g>
</g>
<!-- Node1&#45;&gt;Node17 -->
<g id="edge7" class="edge">
<title>Node1&#45;&gt;Node17</title>
<path fill="none" stroke="#191970" d="M55.0337,-114.4614C70.1092,-103.2864 96.4593,-84.6888 121,-72 128.664,-68.0373 137.1384,-64.3426 145.2965,-61.0971"/>
<polygon fill="#191970" stroke="#191970" points="146.5779,-64.3543 154.6607,-57.5045 144.0705,-57.8188 146.5779,-64.3543"/>
</g>
<!-- Node19 -->
<g id="node8" class="node">
<title>Node19</title>
<g id="a_node8"><a xlink:href="../../d0/d3e/pps-files_8cpp.html#accdd08110477677873a18eea4520eb79" target="_top" xlink:title=" ">
<polygon fill="#ffffff" stroke="#ff0000" points="121,-.5 121,-19.5 245,-19.5 245,-.5 121,-.5"/>
<text text-anchor="middle" x="183" y="-7.5" font-family="Helvetica,sans-Serif" font-size="10.00" fill="#000000">showStatusEachSecond</text>
</a>
</g>
</g>
<!-- Node1&#45;&gt;Node19 -->
<g id="edge9" class="edge">
<title>Node1&#45;&gt;Node19</title>
<path fill="none" stroke="#191970" d="M47.8373,-114.3354C58.9185,-95.1623 86.3045,-52.1698 121,-29 124.0837,-26.9407 127.4002,-25.0968 130.8386,-23.4469"/>
<polygon fill="#191970" stroke="#191970" points="132.2962,-26.6307 140.1487,-19.5182 129.5747,-20.1814 132.2962,-26.6307"/>
</g>
<!-- Node10&#45;&gt;Node9 -->
<g id="edge5" class="edge">
<title>Node10&#45;&gt;Node9</title>
<path fill="none" stroke="#191970" d="M243.8565,-131.8926C258.1238,-133.743 273.0372,-135.6772 286.3461,-137.4032"/>
<polygon fill="#191970" stroke="#191970" points="286.2654,-140.922 296.6325,-138.7373 287.1658,-133.9802 286.2654,-140.922"/>
</g>
<!-- Node10&#45;&gt;Node16 -->
<g id="edge6" class="edge">
<title>Node10&#45;&gt;Node16</title>
<path fill="none" stroke="#191970" d="M243.8565,-116.1074C252.6711,-114.9642 261.7324,-113.789 270.5095,-112.6506"/>
<polygon fill="#191970" stroke="#191970" points="271.184,-116.0926 280.6508,-111.3354 270.2837,-109.1507 271.184,-116.0926"/>
</g>
</g>
</svg>
