<?xml version="1.0" encoding="UTF-8" standalone="no"?>
<!DOCTYPE svg PUBLIC "-//W3C//DTD SVG 1.1//EN"
 "http://www.w3.org/Graphics/SVG/1.1/DTD/svg11.dtd">
<!-- Generated by graphviz version 2.40.1 (20161225.0304)
 -->
<!-- Title: read_logerr Pages: 1 -->
<svg width="186pt" height="66pt"
 viewBox="0.00 0.00 186.00 66.00" xmlns="http://www.w3.org/2000/svg" xmlns:xlink="http://www.w3.org/1999/xlink">
<g id="graph0" class="graph" transform="scale(1 1) rotate(0) translate(4 62)">
<title>read_logerr</title>
<polygon fill="#ffffff" stroke="transparent" points="-4,4 -4,-62 182,-62 182,4 -4,4"/>
<!-- Node1 -->
<g id="node1" class="node">
<title>Node1</title>
<g id="a_node1"><a xlink:title=" ">
<polygon fill="#bfbfbf" stroke="#000000" points="113,-19.5 113,-38.5 178,-38.5 178,-19.5 113,-19.5"/>
<text text-anchor="middle" x="145.5" y="-26.5" font-family="Helvetica,sans-Serif" font-size="10.00" fill="#000000">read_logerr</text>
</a>
</g>
</g>
<!-- Node2 -->
<g id="node2" class="node">
<title>Node2</title>
<g id="a_node2"><a xlink:href="../../d0/d3e/pps-files_8cpp.html#ab03cf9b5563affdcf46a4ca95d4ff4ed" target="_top" xlink:title=" ">
<polygon fill="#ffffff" stroke="#000000" points="3.5,-38.5 3.5,-57.5 73.5,-57.5 73.5,-38.5 3.5,-38.5"/>
<text text-anchor="middle" x="38.5" y="-45.5" font-family="Helvetica,sans-Serif" font-size="10.00" fill="#000000">getChildPID</text>
</a>
</g>
</g>
<!-- Node1&#45;&gt;Node2 -->
<g id="edge1" class="edge">
<title>Node1&#45;&gt;Node2</title>
<path fill="none" stroke="#191970" d="M102.9169,-36.5615C93.1893,-38.2888 82.9587,-40.1055 73.5867,-41.7696"/>
<polygon fill="#191970" stroke="#191970" points="103.581,-39.9984 112.8151,-34.8039 102.3571,-33.1062 103.581,-39.9984"/>
</g>
<!-- Node3 -->
<g id="node3" class="node">
<title>Node3</title>
<g id="a_node3"><a xlink:href="../../d0/d3e/pps-files_8cpp.html#a64d14b3a59bfb90ce83b3a8071d0c3e7" target="_top" xlink:title=" ">
<polygon fill="#ffffff" stroke="#ff0000" points="0,-.5 0,-19.5 77,-19.5 77,-.5 0,-.5"/>
<text text-anchor="middle" x="38.5" y="-7.5" font-family="Helvetica,sans-Serif" font-size="10.00" fill="#000000">loadLastState</text>
</a>
</g>
</g>
<!-- Node1&#45;&gt;Node3 -->
<g id="edge2" class="edge">
<title>Node1&#45;&gt;Node3</title>
<path fill="none" stroke="#191970" d="M102.8135,-21.4202C94.415,-19.9288 85.6454,-18.3716 77.3801,-16.9039"/>
<polygon fill="#191970" stroke="#191970" points="102.3571,-24.8938 112.8151,-23.1961 103.581,-18.0016 102.3571,-24.8938"/>
</g>
</g>
</svg>
