<?xml version="1.0" encoding="UTF-8" standalone="no"?>
<!DOCTYPE svg PUBLIC "-//W3C//DTD SVG 1.1//EN"
 "http://www.w3.org/Graphics/SVG/1.1/DTD/svg11.dtd">
<!-- Generated by graphviz version 2.40.1 (20161225.0304)
 -->
<!-- Title: open_logerr Pages: 1 -->
<svg width="321pt" height="47pt"
 viewBox="0.00 0.00 321.00 47.00" xmlns="http://www.w3.org/2000/svg" xmlns:xlink="http://www.w3.org/1999/xlink">
<g id="graph0" class="graph" transform="scale(1 1) rotate(0) translate(4 43)">
<title>open_logerr</title>
<polygon fill="#ffffff" stroke="transparent" points="-4,4 -4,-43 317,-43 317,4 -4,4"/>
<!-- Node1 -->
<g id="node1" class="node">
<title>Node1</title>
<g id="a_node1"><a xlink:title=" ">
<polygon fill="#bfbfbf" stroke="#000000" points="0,-19.5 0,-38.5 67,-38.5 67,-19.5 0,-19.5"/>
<text text-anchor="middle" x="33.5" y="-26.5" font-family="Helvetica,sans-Serif" font-size="10.00" fill="#000000">open_logerr</text>
</a>
</g>
</g>
<!-- Node2 -->
<g id="node2" class="node">
<title>Node2</title>
<g id="a_node2"><a xlink:href="../../d0/d3e/pps-files_8cpp.html#ad570812a8fdee3634bc2488c34883d48" target="_top" xlink:title=" ">
<polygon fill="#ffffff" stroke="#000000" points="204,-19.5 204,-38.5 313,-38.5 313,-19.5 204,-19.5"/>
<text text-anchor="middle" x="258.5" y="-26.5" font-family="Helvetica,sans-Serif" font-size="10.00" fill="#000000">couldNotOpenMsgTo</text>
</a>
</g>
</g>
<!-- Node1&#45;&gt;Node2 -->
<g id="edge1" class="edge">
<title>Node1&#45;&gt;Node2</title>
<path fill="none" stroke="#191970" d="M67.1848,-29C100.4112,-29 152.0706,-29 193.337,-29"/>
<polygon fill="#191970" stroke="#191970" points="193.587,-32.5001 203.587,-29 193.587,-25.5001 193.587,-32.5001"/>
</g>
<!-- Node3 -->
<g id="node3" class="node">
<title>Node3</title>
<g id="a_node3"><a xlink:href="../../d0/d3e/pps-files_8cpp.html#a6d6a61f9f40278df5e7ba5fa5b3a9d31" target="_top" xlink:title=" ">
<polygon fill="#ffffff" stroke="#ff0000" points="103,-.5 103,-19.5 168,-19.5 168,-.5 103,-.5"/>
<text text-anchor="middle" x="135.5" y="-7.5" font-family="Helvetica,sans-Serif" font-size="10.00" fill="#000000">writeToLog</text>
</a>
</g>
</g>
<!-- Node1&#45;&gt;Node3 -->
<g id="edge2" class="edge">
<title>Node1&#45;&gt;Node3</title>
<path fill="none" stroke="#191970" d="M67.1813,-22.726C75.4394,-21.1878 84.385,-19.5214 92.9978,-17.9171"/>
<polygon fill="#191970" stroke="#191970" points="93.7046,-21.3457 102.8946,-16.0736 92.4227,-14.4641 93.7046,-21.3457"/>
</g>
<!-- Node3&#45;&gt;Node2 -->
<g id="edge3" class="edge">
<title>Node3&#45;&gt;Node2</title>
<path fill="none" stroke="#191970" d="M168.1388,-15.0418C176.1021,-16.2719 184.9004,-17.631 193.7883,-19.0039"/>
<polygon fill="#191970" stroke="#191970" points="193.4044,-22.486 203.8215,-20.5537 194.4731,-15.5681 193.4044,-22.486"/>
</g>
</g>
</svg>
