<?xml version="1.0" encoding="UTF-8" standalone="no"?>
<!DOCTYPE svg PUBLIC "-//W3C//DTD SVG 1.1//EN"
 "http://www.w3.org/Graphics/SVG/1.1/DTD/svg11.dtd">
<!-- Generated by graphviz version 2.40.1 (20161225.0304)
 -->
<!-- Title: getConfigs Pages: 1 -->
<svg width="219pt" height="256pt"
 viewBox="0.00 0.00 219.00 256.00" xmlns="http://www.w3.org/2000/svg" xmlns:xlink="http://www.w3.org/1999/xlink">
<g id="graph0" class="graph" transform="scale(1 1) rotate(0) translate(4 252)">
<title>getConfigs</title>
<polygon fill="#ffffff" stroke="transparent" points="-4,4 -4,-252 215,-252 215,4 -4,4"/>
<!-- Node1 -->
<g id="node1" class="node">
<title>Node1</title>
<g id="a_node1"><a xlink:title=" ">
<polygon fill="#bfbfbf" stroke="#000000" points="0,-114.5 0,-133.5 64,-133.5 64,-114.5 0,-114.5"/>
<text text-anchor="middle" x="32" y="-121.5" font-family="Helvetica,sans-Serif" font-size="10.00" fill="#000000">getConfigs</text>
</a>
</g>
</g>
<!-- Node2 -->
<g id="node2" class="node">
<title>Node2</title>
<g id="a_node2"><a xlink:href="../../d0/d3e/pps-files_8cpp.html#aa561b252a1493fe975df246f58e4687b" target="_top" xlink:title=" ">
<polygon fill="#ffffff" stroke="#000000" points="127.5,-228.5 127.5,-247.5 183.5,-247.5 183.5,-228.5 127.5,-228.5"/>
<text text-anchor="middle" x="155.5" y="-235.5" font-family="Helvetica,sans-Serif" font-size="10.00" fill="#000000">getString</text>
</a>
</g>
</g>
<!-- Node1&#45;&gt;Node2 -->
<g id="edge1" class="edge">
<title>Node1&#45;&gt;Node2</title>
<path fill="none" stroke="#191970" d="M36.3378,-133.5896C45.4234,-152.6278 68.2687,-195.3897 100,-219 105.2548,-222.9099 111.3721,-226.0545 117.5868,-228.5714"/>
<polygon fill="#191970" stroke="#191970" points="116.7285,-231.9807 127.3232,-232.0299 119.0716,-225.3845 116.7285,-231.9807"/>
</g>
<!-- Node3 -->
<g id="node3" class="node">
<title>Node3</title>
<g id="a_node3"><a xlink:href="../../d0/d3e/pps-files_8cpp.html#a2a2f0cb3677098122f66c3aee0b97dad" target="_top" xlink:title=" ">
<polygon fill="#ffffff" stroke="#ff0000" points="124.5,-190.5 124.5,-209.5 186.5,-209.5 186.5,-190.5 124.5,-190.5"/>
<text text-anchor="middle" x="155.5" y="-197.5" font-family="Helvetica,sans-Serif" font-size="10.00" fill="#000000">isDisabled</text>
</a>
</g>
</g>
<!-- Node1&#45;&gt;Node3 -->
<g id="edge2" class="edge">
<title>Node1&#45;&gt;Node3</title>
<path fill="none" stroke="#191970" d="M41.2756,-133.7437C53.631,-146.229 76.6561,-167.8278 100,-181 104.5943,-183.5924 109.6015,-185.9136 114.6664,-187.9671"/>
<polygon fill="#191970" stroke="#191970" points="113.7916,-191.3762 124.3843,-191.5874 116.2353,-184.8166 113.7916,-191.3762"/>
</g>
<!-- Node5 -->
<g id="node4" class="node">
<title>Node5</title>
<g id="a_node4"><a xlink:href="../../d0/d3e/pps-files_8cpp.html#ae1ed7854dcdca9d0cd8368693da83102" target="_top" xlink:title=" ">
<polygon fill="#ffffff" stroke="#ff0000" points="126,-152.5 126,-171.5 185,-171.5 185,-152.5 126,-152.5"/>
<text text-anchor="middle" x="155.5" y="-159.5" font-family="Helvetica,sans-Serif" font-size="10.00" fill="#000000">isEnabled</text>
</a>
</g>
</g>
<!-- Node1&#45;&gt;Node5 -->
<g id="edge3" class="edge">
<title>Node1&#45;&gt;Node5</title>
<path fill="none" stroke="#191970" d="M63.1643,-133.589C79.1728,-138.5147 98.8505,-144.5694 115.9214,-149.822"/>
<polygon fill="#191970" stroke="#191970" points="115.0367,-153.2116 125.6238,-152.8073 117.0953,-146.5212 115.0367,-153.2116"/>
</g>
<!-- Node6 -->
<g id="node5" class="node">
<title>Node6</title>
<g id="a_node5"><a xlink:href="../../d0/d3e/pps-files_8cpp.html#a14e312f99e221dfc6863ec3277522ea5" target="_top" xlink:title=" ">
<polygon fill="#ffffff" stroke="#ff0000" points="100,-114.5 100,-133.5 211,-133.5 211,-114.5 100,-114.5"/>
<text text-anchor="middle" x="155.5" y="-121.5" font-family="Helvetica,sans-Serif" font-size="10.00" fill="#000000">processWriteRequest</text>
</a>
</g>
</g>
<!-- Node1&#45;&gt;Node6 -->
<g id="edge4" class="edge">
<title>Node1&#45;&gt;Node6</title>
<path fill="none" stroke="#191970" d="M64.1258,-124C72.0187,-124 80.7579,-124 89.6111,-124"/>
<polygon fill="#191970" stroke="#191970" points="89.616,-127.5001 99.616,-124 89.616,-120.5001 89.616,-127.5001"/>
</g>
<!-- Node14 -->
<g id="node6" class="node">
<title>Node14</title>
<g id="a_node6"><a xlink:href="../../d0/d3e/pps-files_8cpp.html#ab54f3174d0d64527d7cf57100ce6ef2e" target="_top" xlink:title=" ">
<polygon fill="#ffffff" stroke="#000000" points="115.5,-76.5 115.5,-95.5 195.5,-95.5 195.5,-76.5 115.5,-76.5"/>
<text text-anchor="middle" x="155.5" y="-83.5" font-family="Helvetica,sans-Serif" font-size="10.00" fill="#000000">readConfigFile</text>
</a>
</g>
</g>
<!-- Node1&#45;&gt;Node14 -->
<g id="edge5" class="edge">
<title>Node1&#45;&gt;Node14</title>
<path fill="none" stroke="#191970" d="M63.1643,-114.411C78.8144,-109.5956 97.9712,-103.7012 114.771,-98.532"/>
<polygon fill="#191970" stroke="#191970" points="115.8172,-101.8721 124.3457,-95.5859 113.7586,-95.1816 115.8172,-101.8721"/>
</g>
<!-- Node15 -->
<g id="node7" class="node">
<title>Node15</title>
<g id="a_node7"><a xlink:href="../../d0/d3e/pps-files_8cpp.html#a82b5d210a2a50fc93755e34d3016247e" target="_top" xlink:title=" ">
<polygon fill="#ffffff" stroke="#ff0000" points="104,-38.5 104,-57.5 207,-57.5 207,-38.5 104,-38.5"/>
<text text-anchor="middle" x="155.5" y="-45.5" font-family="Helvetica,sans-Serif" font-size="10.00" fill="#000000">writeErrorDistribFile</text>
</a>
</g>
</g>
<!-- Node1&#45;&gt;Node15 -->
<g id="edge6" class="edge">
<title>Node1&#45;&gt;Node15</title>
<path fill="none" stroke="#191970" d="M41.2756,-114.2563C53.631,-101.771 76.6561,-80.1722 100,-67 103.692,-64.9167 107.6508,-63.0086 111.6918,-61.2737"/>
<polygon fill="#191970" stroke="#191970" points="113.1594,-64.4575 121.1837,-57.5393 110.5965,-57.9435 113.1594,-64.4575"/>
</g>
<!-- Node17 -->
<g id="node8" class="node">
<title>Node17</title>
<g id="a_node8"><a xlink:href="../../d0/d3e/pps-files_8cpp.html#a376e9b76d9e9b1caf06ae3bd8c969f46" target="_top" xlink:title=" ">
<polygon fill="#ffffff" stroke="#ff0000" points="103.5,-.5 103.5,-19.5 207.5,-19.5 207.5,-.5 103.5,-.5"/>
<text text-anchor="middle" x="155.5" y="-7.5" font-family="Helvetica,sans-Serif" font-size="10.00" fill="#000000">writeJitterDistribFile</text>
</a>
</g>
</g>
<!-- Node1&#45;&gt;Node17 -->
<g id="edge7" class="edge">
<title>Node1&#45;&gt;Node17</title>
<path fill="none" stroke="#191970" d="M36.3378,-114.4104C45.4234,-95.3722 68.2687,-52.6103 100,-29 102.4933,-27.1448 105.1809,-25.4619 107.9809,-23.9366"/>
<polygon fill="#191970" stroke="#191970" points="109.6563,-27.0162 117.2065,-19.5835 106.6691,-20.6855 109.6563,-27.0162"/>
</g>
</g>
</svg>
