<?xml version="1.0" encoding="UTF-8" standalone="no"?>
<!DOCTYPE svg PUBLIC "-//W3C//DTD SVG 1.1//EN"
 "http://www.w3.org/Graphics/SVG/1.1/DTD/svg11.dtd">
<!-- Generated by graphviz version 2.40.1 (20161225.0304)
 -->
<!-- Title: writeToLog Pages: 1 -->
<svg width="218pt" height="66pt"
 viewBox="0.00 0.00 218.00 66.00" xmlns="http://www.w3.org/2000/svg" xmlns:xlink="http://www.w3.org/1999/xlink">
<g id="graph0" class="graph" transform="scale(1 1) rotate(0) translate(4 62)">
<title>writeToLog</title>
<polygon fill="#ffffff" stroke="transparent" points="-4,4 -4,-62 214,-62 214,4 -4,4"/>
<!-- Node1 -->
<g id="node1" class="node">
<title>Node1</title>
<g id="a_node1"><a xlink:title=" ">
<polygon fill="#bfbfbf" stroke="#000000" points="0,-19.5 0,-38.5 65,-38.5 65,-19.5 0,-19.5"/>
<text text-anchor="middle" x="32.5" y="-26.5" font-family="Helvetica,sans-Serif" font-size="10.00" fill="#000000">writeToLog</text>
</a>
</g>
</g>
<!-- Node2 -->
<g id="node2" class="node">
<title>Node2</title>
<g id="a_node2"><a xlink:href="../../d0/d3e/pps-files_8cpp.html#a6f609d689ebe787455ce220808ca3ba0" target="_top" xlink:title=" ">
<polygon fill="#ffffff" stroke="#000000" points="111,-38.5 111,-57.5 200,-57.5 200,-38.5 111,-38.5"/>
<text text-anchor="middle" x="155.5" y="-45.5" font-family="Helvetica,sans-Serif" font-size="10.00" fill="#000000">bufferStatusMsg</text>
</a>
</g>
</g>
<!-- Node1&#45;&gt;Node2 -->
<g id="edge1" class="edge">
<title>Node1&#45;&gt;Node2</title>
<path fill="none" stroke="#191970" d="M65.1388,-34.0418C76.0368,-35.7252 88.4985,-37.6502 100.6139,-39.5217"/>
<polygon fill="#191970" stroke="#191970" points="100.2502,-43.0069 110.6673,-41.0746 101.3189,-36.089 100.2502,-43.0069"/>
</g>
<!-- Node3 -->
<g id="node3" class="node">
<title>Node3</title>
<g id="a_node3"><a xlink:href="../../d0/d3e/pps-files_8cpp.html#ad570812a8fdee3634bc2488c34883d48" target="_top" xlink:title=" ">
<polygon fill="#ffffff" stroke="#000000" points="101,-.5 101,-19.5 210,-19.5 210,-.5 101,-.5"/>
<text text-anchor="middle" x="155.5" y="-7.5" font-family="Helvetica,sans-Serif" font-size="10.00" fill="#000000">couldNotOpenMsgTo</text>
</a>
</g>
</g>
<!-- Node1&#45;&gt;Node3 -->
<g id="edge2" class="edge">
<title>Node1&#45;&gt;Node3</title>
<path fill="none" stroke="#191970" d="M65.1388,-23.9582C73.1021,-22.7281 81.9004,-21.369 90.7883,-19.9961"/>
<polygon fill="#191970" stroke="#191970" points="91.4731,-23.4319 100.8215,-18.4463 90.4044,-16.514 91.4731,-23.4319"/>
</g>
</g>
</svg>
