<?xml version="1.0" encoding="UTF-8" standalone="no"?>
<!DOCTYPE svg PUBLIC "-//W3C//DTD SVG 1.1//EN"
 "http://www.w3.org/Graphics/SVG/1.1/DTD/svg11.dtd">
<!-- Generated by graphviz version 2.43.0 (0)
 -->
<!-- Title: accessDaemon Pages: 1 -->
<svg width="408pt" height="256pt"
 viewBox="0.00 0.00 408.00 256.00" xmlns="http://www.w3.org/2000/svg" xmlns:xlink="http://www.w3.org/1999/xlink">
<g id="graph0" class="graph" transform="scale(1 1) rotate(0) translate(4 252)">
<title>accessDaemon</title>
<polygon fill="white" stroke="transparent" points="-4,4 -4,-252 404,-252 404,4 -4,4"/>
<!-- Node1 -->
<g id="node1" class="node">
<title>Node1</title>
<g id="a_node1"><a xlink:title=" ">
<polygon fill="#bfbfbf" stroke="black" points="0,-114.5 0,-133.5 91,-133.5 91,-114.5 0,-114.5"/>
<text text-anchor="middle" x="45.5" y="-121.5" font-family="Helvetica,sans-Serif" font-size="10.00">accessDaemon</text>
</a>
</g>
</g>
<!-- Node2 -->
<g id="node2" class="node">
<title>Node2</title>
<g id="a_node2"><a xlink:href="../../d0/d3e/pps-files_8cpp.html#ad437ed85144a7450770629ce0b2dcbff" target="_top" xlink:title=" ">
<polygon fill="white" stroke="red" points="141.5,-228.5 141.5,-247.5 243.5,-247.5 243.5,-228.5 141.5,-228.5"/>
<text text-anchor="middle" x="192.5" y="-235.5" font-family="Helvetica,sans-Serif" font-size="10.00">getSharedConfigs</text>
</a>
</g>
</g>
<!-- Node1&#45;&gt;Node2 -->
<g id="edge1" class="edge">
<title>Node1&#45;&gt;Node2</title>
<path fill="none" stroke="midnightblue" d="M52.02,-133.69C63.46,-152.92 91.67,-196 127,-219 130.17,-221.06 133.57,-222.91 137.09,-224.56"/>
<polygon fill="midnightblue" stroke="midnightblue" points="136.05,-227.91 146.63,-228.49 138.71,-221.44 136.05,-227.91"/>
</g>
<!-- Node8 -->
<g id="node3" class="node">
<title>Node8</title>
<g id="a_node3"><a xlink:href="../../d0/d3e/pps-files_8cpp.html#a6a3869251603ae4e569abadbd7dab11c" target="_top" xlink:title=" ">
<polygon fill="white" stroke="black" points="157.5,-190.5 157.5,-209.5 227.5,-209.5 227.5,-190.5 157.5,-190.5"/>
<text text-anchor="middle" x="192.5" y="-197.5" font-family="Helvetica,sans-Serif" font-size="10.00">INThandler</text>
</a>
</g>
</g>
<!-- Node1&#45;&gt;Node8 -->
<g id="edge2" class="edge">
<title>Node1&#45;&gt;Node8</title>
<path fill="none" stroke="midnightblue" d="M59.36,-133.57C74.83,-144.77 101.87,-163.39 127,-176 134.99,-180.01 143.82,-183.72 152.32,-186.98"/>
<polygon fill="midnightblue" stroke="midnightblue" points="151.12,-190.26 161.71,-190.44 153.54,-183.7 151.12,-190.26"/>
</g>
<!-- Node9 -->
<g id="node4" class="node">
<title>Node9</title>
<g id="a_node4"><a xlink:href="../../d0/d3e/pps-files_8cpp.html#acee307839ee7844080177e544b8b63d0" target="_top" xlink:title=" ">
<polygon fill="white" stroke="black" points="311.5,-133.5 311.5,-152.5 382.5,-152.5 382.5,-133.5 311.5,-133.5"/>
<text text-anchor="middle" x="347" y="-140.5" font-family="Helvetica,sans-Serif" font-size="10.00">missingArg</text>
</a>
</g>
</g>
<!-- Node1&#45;&gt;Node9 -->
<g id="edge3" class="edge">
<title>Node1&#45;&gt;Node9</title>
<path fill="none" stroke="midnightblue" d="M79.09,-133.51C93.62,-137.27 111.03,-141.14 127,-143 186.96,-149.98 256.78,-148.3 301.17,-146.02"/>
<polygon fill="midnightblue" stroke="midnightblue" points="301.55,-149.51 311.34,-145.46 301.16,-142.52 301.55,-149.51"/>
</g>
<!-- Node10 -->
<g id="node5" class="node">
<title>Node10</title>
<g id="a_node5"><a xlink:href="../../d0/d3e/pps-files_8cpp.html#ac20a2f5a5d6284628d71e7e0cdc08248" target="_top" xlink:title=" ">
<polygon fill="white" stroke="red" points="127,-114.5 127,-133.5 258,-133.5 258,-114.5 127,-114.5"/>
<text text-anchor="middle" x="192.5" y="-121.5" font-family="Helvetica,sans-Serif" font-size="10.00">parseSaveDataRequest</text>
</a>
</g>
</g>
<!-- Node1&#45;&gt;Node10 -->
<g id="edge4" class="edge">
<title>Node1&#45;&gt;Node10</title>
<path fill="none" stroke="midnightblue" d="M91.19,-124C99.32,-124 108.01,-124 116.73,-124"/>
<polygon fill="midnightblue" stroke="midnightblue" points="116.97,-127.5 126.97,-124 116.97,-120.5 116.97,-127.5"/>
</g>
<!-- Node16 -->
<g id="node6" class="node">
<title>Node16</title>
<g id="a_node6"><a xlink:href="../../d0/d3e/pps-files_8cpp.html#a8837a1d11d52d5de8fb802ac99f84a3d" target="_top" xlink:title=" ">
<polygon fill="white" stroke="black" points="294,-95.5 294,-114.5 400,-114.5 400,-95.5 294,-95.5"/>
<text text-anchor="middle" x="347" y="-102.5" font-family="Helvetica,sans-Serif" font-size="10.00">printAcceptedArgs</text>
</a>
</g>
</g>
<!-- Node1&#45;&gt;Node16 -->
<g id="edge8" class="edge">
<title>Node1&#45;&gt;Node16</title>
<path fill="none" stroke="midnightblue" d="M79.09,-114.49C93.62,-110.73 111.03,-106.86 127,-105 179.44,-98.89 239.43,-99.41 283.35,-101.17"/>
<polygon fill="midnightblue" stroke="midnightblue" points="283.45,-104.67 293.59,-101.61 283.75,-97.68 283.45,-104.67"/>
</g>
<!-- Node17 -->
<g id="node7" class="node">
<title>Node17</title>
<g id="a_node7"><a xlink:href="../../d0/d3e/pps-files_8cpp.html#ac59e9111236426cdcbea6d1774ca7fea" target="_top" xlink:title=" ">
<polygon fill="white" stroke="red" points="151.5,-38.5 151.5,-57.5 233.5,-57.5 233.5,-38.5 151.5,-38.5"/>
<text text-anchor="middle" x="192.5" y="-45.5" font-family="Helvetica,sans-Serif" font-size="10.00">ppsIsRunning</text>
</a>
</g>
</g>
<!-- Node1&#45;&gt;Node17 -->
<g id="edge7" class="edge">
<title>Node1&#45;&gt;Node17</title>
<path fill="none" stroke="midnightblue" d="M59.36,-114.43C74.83,-103.23 101.87,-84.61 127,-72 134.99,-67.99 143.82,-64.28 152.32,-61.02"/>
<polygon fill="midnightblue" stroke="midnightblue" points="153.54,-64.3 161.71,-57.56 151.12,-57.74 153.54,-64.3"/>
</g>
<!-- Node19 -->
<g id="node8" class="node">
<title>Node19</title>
<g id="a_node8"><a xlink:href="../../d0/d3e/pps-files_8cpp.html#accdd08110477677873a18eea4520eb79" target="_top" xlink:title=" ">
<polygon fill="white" stroke="red" points="127,-0.5 127,-19.5 258,-19.5 258,-0.5 127,-0.5"/>
<text text-anchor="middle" x="192.5" y="-7.5" font-family="Helvetica,sans-Serif" font-size="10.00">showStatusEachSecond</text>
</a>
</g>
</g>
<!-- Node1&#45;&gt;Node19 -->
<g id="edge9" class="edge">
<title>Node1&#45;&gt;Node19</title>
<path fill="none" stroke="midnightblue" d="M52.02,-114.31C63.46,-95.08 91.67,-52 127,-29 130.17,-26.94 133.57,-25.09 137.09,-23.44"/>
<polygon fill="midnightblue" stroke="midnightblue" points="138.71,-26.56 146.63,-19.51 136.05,-20.09 138.71,-26.56"/>
</g>
<!-- Node10&#45;&gt;Node9 -->
<g id="edge5" class="edge">
<title>Node10&#45;&gt;Node9</title>
<path fill="none" stroke="midnightblue" d="M258.17,-132.06C272.66,-133.86 287.73,-135.74 301.2,-137.42"/>
<polygon fill="midnightblue" stroke="midnightblue" points="300.8,-140.9 311.16,-138.66 301.67,-133.95 300.8,-140.9"/>
</g>
<!-- Node10&#45;&gt;Node16 -->
<g id="edge6" class="edge">
<title>Node10&#45;&gt;Node16</title>
<path fill="none" stroke="midnightblue" d="M258.17,-115.94C266.6,-114.89 275.22,-113.82 283.61,-112.77"/>
<polygon fill="midnightblue" stroke="midnightblue" points="284.2,-116.23 293.69,-111.52 283.34,-109.28 284.2,-116.23"/>
</g>
</g>
</svg>
