<?xml version="1.0" encoding="UTF-8" standalone="no"?>
<!DOCTYPE svg PUBLIC "-//W3C//DTD SVG 1.1//EN"
 "http://www.w3.org/Graphics/SVG/1.1/DTD/svg11.dtd">
<!-- Generated by graphviz version 2.40.1 (20161225.0304)
 -->
<!-- Title: writeOffsets Pages: 1 -->
<svg width="282pt" height="47pt"
 viewBox="0.00 0.00 282.00 47.00" xmlns="http://www.w3.org/2000/svg" xmlns:xlink="http://www.w3.org/1999/xlink">
<g id="graph0" class="graph" transform="scale(1 1) rotate(0) translate(4 43)">
<title>writeOffsets</title>
<polygon fill="#ffffff" stroke="transparent" points="-4,4 -4,-43 278,-43 278,4 -4,4"/>
<!-- Node1 -->
<g id="node1" class="node">
<title>Node1</title>
<g id="a_node1"><a xlink:title=" ">
<polygon fill="#bfbfbf" stroke="#000000" points="0,-.5 0,-19.5 70,-19.5 70,-.5 0,-.5"/>
<text text-anchor="middle" x="35" y="-7.5" font-family="Helvetica,sans-Serif" font-size="10.00" fill="#000000">writeOffsets</text>
</a>
</g>
</g>
<!-- Node2 -->
<g id="node2" class="node">
<title>Node2</title>
<g id="a_node2"><a xlink:href="../../d0/d3e/pps-files_8cpp.html#a44d1b7b3f8e3181274fae172922847b6" target="_top" xlink:title=" ">
<polygon fill="#ffffff" stroke="#ff0000" points="106,-19.5 106,-38.5 173,-38.5 173,-19.5 106,-19.5"/>
<text text-anchor="middle" x="139.5" y="-26.5" font-family="Helvetica,sans-Serif" font-size="10.00" fill="#000000">open_logerr</text>
</a>
</g>
</g>
<!-- Node1&#45;&gt;Node2 -->
<g id="edge1" class="edge">
<title>Node1&#45;&gt;Node2</title>
<path fill="none" stroke="#191970" d="M70.0877,-16.3796C78.3555,-17.8828 87.2682,-19.5033 95.8613,-21.0657"/>
<polygon fill="#191970" stroke="#191970" points="95.2795,-24.5172 105.7443,-22.8626 96.5318,-17.6301 95.2795,-24.5172"/>
</g>
<!-- Node4 -->
<g id="node3" class="node">
<title>Node4</title>
<g id="a_node3"><a xlink:href="../../d0/d3e/pps-files_8cpp.html#a6d6a61f9f40278df5e7ba5fa5b3a9d31" target="_top" xlink:title=" ">
<polygon fill="#ffffff" stroke="#ff0000" points="209,-.5 209,-19.5 274,-19.5 274,-.5 209,-.5"/>
<text text-anchor="middle" x="241.5" y="-7.5" font-family="Helvetica,sans-Serif" font-size="10.00" fill="#000000">writeToLog</text>
</a>
</g>
</g>
<!-- Node1&#45;&gt;Node4 -->
<g id="edge3" class="edge">
<title>Node1&#45;&gt;Node4</title>
<path fill="none" stroke="#191970" d="M70.0299,-10C105.4757,-10 160.3372,-10 198.4217,-10"/>
<polygon fill="#191970" stroke="#191970" points="198.6886,-13.5001 208.6886,-10 198.6885,-6.5001 198.6886,-13.5001"/>
</g>
<!-- Node2&#45;&gt;Node4 -->
<g id="edge2" class="edge">
<title>Node2&#45;&gt;Node4</title>
<path fill="none" stroke="#191970" d="M173.1813,-22.726C181.4394,-21.1878 190.385,-19.5214 198.9978,-17.9171"/>
<polygon fill="#191970" stroke="#191970" points="199.7046,-21.3457 208.8946,-16.0736 198.4227,-14.4641 199.7046,-21.3457"/>
</g>
</g>
</svg>
