<?xml version="1.0" encoding="UTF-8" standalone="no"?>
<!DOCTYPE svg PUBLIC "-//W3C//DTD SVG 1.1//EN"
 "http://www.w3.org/Graphics/SVG/1.1/DTD/svg11.dtd">
<!-- Generated by graphviz version 2.43.0 (0)
 -->
<!-- Title: writeToLog Pages: 1 -->
<svg width="641pt" height="1218pt"
 viewBox="0.00 0.00 641.00 1218.00" xmlns="http://www.w3.org/2000/svg" xmlns:xlink="http://www.w3.org/1999/xlink">
<g id="graph0" class="graph" transform="scale(1 1) rotate(0) translate(4 1214)">
<title>writeToLog</title>
<polygon fill="white" stroke="transparent" points="-4,4 -4,-1214 637,-1214 637,4 -4,4"/>
<!-- Node1 -->
<g id="node1" class="node">
<title>Node1</title>
<g id="a_node1"><a xlink:title=" ">
<polygon fill="#bfbfbf" stroke="black" points="564,-601.5 564,-620.5 633,-620.5 633,-601.5 564,-601.5"/>
<text text-anchor="middle" x="598.5" y="-608.5" font-family="Helvetica,sans-Serif" font-size="10.00">writeToLog</text>
</a>
</g>
</g>
<!-- Node2 -->
<g id="node2" class="node">
<title>Node2</title>
<g id="a_node2"><a xlink:href="../../d0/d3e/pps-files_8cpp.html#ad046d9f994e8b0cb8dae1a628c405393" target="_top" xlink:title=" ">
<polygon fill="white" stroke="red" points="401,-1190.5 401,-1209.5 509,-1209.5 509,-1190.5 401,-1190.5"/>
<text text-anchor="middle" x="455" y="-1197.5" font-family="Helvetica,sans-Serif" font-size="10.00">alignNumbersAfter</text>
</a>
</g>
</g>
<!-- Node1&#45;&gt;Node2 -->
<g id="edge1" class="edge">
<title>Node1&#45;&gt;Node2</title>
<path fill="none" stroke="midnightblue" d="M597.94,-630.75C599.54,-721.38 601.59,-1096.6 528,-1181 522.9,-1186.85 516.24,-1191 509.02,-1193.92"/>
<polygon fill="midnightblue" stroke="midnightblue" points="601.43,-630.45 597.74,-620.52 594.44,-630.59 601.43,-630.45"/>
</g>
<!-- Node6 -->
<g id="node3" class="node">
<title>Node6</title>
<g id="a_node3"><a xlink:href="../../d0/d3e/pps-files_8cpp.html#a6bcf95536c2895ba1756f092de49baa3" target="_top" xlink:title=" ">
<polygon fill="white" stroke="red" points="418,-1152.5 418,-1171.5 492,-1171.5 492,-1152.5 418,-1152.5"/>
<text text-anchor="middle" x="455" y="-1159.5" font-family="Helvetica,sans-Serif" font-size="10.00">alignTokens</text>
</a>
</g>
</g>
<!-- Node1&#45;&gt;Node6 -->
<g id="edge2" class="edge">
<title>Node1&#45;&gt;Node6</title>
<path fill="none" stroke="midnightblue" d="M597.6,-630.78C597.63,-716.92 593.58,-1058.56 528,-1138 519.11,-1148.77 505.24,-1154.74 492.03,-1158.03"/>
<polygon fill="midnightblue" stroke="midnightblue" points="601.1,-630.56 597.57,-620.57 594.1,-630.58 601.1,-630.56"/>
</g>
<!-- Node7 -->
<g id="node4" class="node">
<title>Node7</title>
<g id="a_node4"><a xlink:href="../../d0/d3e/pps-files_8cpp.html#a9942302e3e5272291f62fda42bdf6319" target="_top" xlink:title=" ">
<polygon fill="white" stroke="black" points="250,-582.5 250,-601.5 329,-601.5 329,-582.5 250,-582.5"/>
<text text-anchor="middle" x="289.5" y="-589.5" font-family="Helvetica,sans-Serif" font-size="10.00">createPIDfile</text>
</a>
</g>
</g>
<!-- Node1&#45;&gt;Node7 -->
<g id="edge3" class="edge">
<title>Node1&#45;&gt;Node7</title>
<path fill="none" stroke="midnightblue" d="M553.45,-608.27C493.27,-604.55 386.29,-597.93 329.09,-594.39"/>
<polygon fill="midnightblue" stroke="midnightblue" points="553.57,-611.79 563.77,-608.91 554,-604.8 553.57,-611.79"/>
</g>
<!-- Node5 -->
<g id="node5" class="node">
<title>Node5</title>
<g id="a_node5"><a xlink:href="../../d5/d60/pps-client_8cpp.html#a0ddf1224851353fc92bfbff6f499fa97" target="_top" xlink:title=" ">
<polygon fill="white" stroke="black" points="0,-1000.5 0,-1019.5 41,-1019.5 41,-1000.5 0,-1000.5"/>
<text text-anchor="middle" x="20.5" y="-1007.5" font-family="Helvetica,sans-Serif" font-size="10.00">main</text>
</a>
</g>
</g>
<!-- Node1&#45;&gt;Node5 -->
<g id="edge17" class="edge">
<title>Node1&#45;&gt;Node5</title>
<path fill="none" stroke="midnightblue" d="M597.56,-630.85C597.33,-709.65 592.1,-998.99 528,-1057 453.64,-1124.3 171.77,-1072.83 77,-1040 62.3,-1034.91 46.83,-1026.24 35.97,-1019.52"/>
<polygon fill="midnightblue" stroke="midnightblue" points="601.06,-630.8 597.56,-620.8 594.06,-630.8 601.06,-630.8"/>
</g>
<!-- Node8 -->
<g id="node6" class="node">
<title>Node8</title>
<g id="a_node6"><a xlink:href="../../d0/d3e/pps-files_8cpp.html#aa402d7b46a75b43bb077558f5343f3b8" target="_top" xlink:title=" ">
<polygon fill="white" stroke="red" points="236,-535.5 236,-554.5 343,-554.5 343,-535.5 236,-535.5"/>
<text text-anchor="middle" x="289.5" y="-542.5" font-family="Helvetica,sans-Serif" font-size="10.00">daemonSaveArray</text>
</a>
</g>
</g>
<!-- Node1&#45;&gt;Node8 -->
<g id="edge5" class="edge">
<title>Node1&#45;&gt;Node8</title>
<path fill="none" stroke="midnightblue" d="M554.08,-600.12C545.45,-598.03 536.45,-595.9 528,-594 462.9,-579.33 387.37,-564.04 339.28,-554.52"/>
<polygon fill="midnightblue" stroke="midnightblue" points="553.43,-603.57 563.98,-602.54 555.09,-596.77 553.43,-603.57"/>
</g>
<!-- Node11 -->
<g id="node7" class="node">
<title>Node11</title>
<g id="a_node7"><a xlink:href="../../d5/d60/pps-client_8cpp.html#a3f6b018eacd7b65348729b5fe8e36d62" target="_top" xlink:title=" ">
<polygon fill="white" stroke="red" points="382,-191 382,-221 528,-221 528,-191 382,-191"/>
<text text-anchor="start" x="390" y="-209" font-family="Helvetica,sans-Serif" font-size="10.00">detectExteralSystemClock</text>
<text text-anchor="middle" x="455" y="-198" font-family="Helvetica,sans-Serif" font-size="10.00">Change</text>
</a>
</g>
</g>
<!-- Node1&#45;&gt;Node11 -->
<g id="edge6" class="edge">
<title>Node1&#45;&gt;Node11</title>
<path fill="none" stroke="midnightblue" d="M596.26,-590.93C591.6,-521.36 573.04,-291.74 528,-236 523.06,-229.89 516.67,-225.01 509.73,-221.11"/>
<polygon fill="midnightblue" stroke="midnightblue" points="592.8,-591.58 596.93,-601.33 599.78,-591.13 592.8,-591.58"/>
</g>
<!-- Node15 -->
<g id="node8" class="node">
<title>Node15</title>
<g id="a_node8"><a xlink:href="../../d5/d60/pps-client_8cpp.html#a591a0ae1642849d67e2e71ee667051b7" target="_top" xlink:title=" ">
<polygon fill="white" stroke="black" points="405,-886.5 405,-905.5 505,-905.5 505,-886.5 405,-886.5"/>
<text text-anchor="middle" x="455" y="-893.5" font-family="Helvetica,sans-Serif" font-size="10.00">detectMissedPPS</text>
</a>
</g>
</g>
<!-- Node1&#45;&gt;Node15 -->
<g id="edge7" class="edge">
<title>Node1&#45;&gt;Node15</title>
<path fill="none" stroke="midnightblue" d="M598.18,-630.84C598.71,-678.87 593.29,-802.57 528,-872 521.77,-878.62 513.67,-883.42 505.16,-886.89"/>
<polygon fill="midnightblue" stroke="midnightblue" points="601.67,-630.5 597.96,-620.57 594.67,-630.65 601.67,-630.5"/>
</g>
<!-- Node14 -->
<g id="node9" class="node">
<title>Node14</title>
<g id="a_node9"><a xlink:href="../../d5/d60/pps-client_8cpp.html#a0010a2340006cbbcd5a4588b587a59c7" target="_top" xlink:title=" ">
<polygon fill="white" stroke="black" points="238.5,-848.5 238.5,-867.5 340.5,-867.5 340.5,-848.5 238.5,-848.5"/>
<text text-anchor="middle" x="289.5" y="-855.5" font-family="Helvetica,sans-Serif" font-size="10.00">readPPS_SetTime</text>
</a>
</g>
</g>
<!-- Node1&#45;&gt;Node14 -->
<g id="edge37" class="edge">
<title>Node1&#45;&gt;Node14</title>
<path fill="none" stroke="midnightblue" d="M597.9,-631.02C597.59,-675.18 590.05,-781.04 528,-832 475.59,-875.04 393.25,-873.71 340.59,-867.13"/>
<polygon fill="midnightblue" stroke="midnightblue" points="601.4,-630.95 597.85,-620.97 594.4,-630.99 601.4,-630.95"/>
</g>
<!-- Node4 -->
<g id="node10" class="node">
<title>Node4</title>
<g id="a_node10"><a xlink:href="../../d5/d60/pps-client_8cpp.html#a22519b13ce414a4bf003faf65bd68144" target="_top" xlink:title=" ">
<polygon fill="white" stroke="black" points="101.5,-772.5 101.5,-791.5 172.5,-791.5 172.5,-772.5 101.5,-772.5"/>
<text text-anchor="middle" x="137" y="-779.5" font-family="Helvetica,sans-Serif" font-size="10.00">waitForPPS</text>
</a>
</g>
</g>
<!-- Node1&#45;&gt;Node4 -->
<g id="edge56" class="edge">
<title>Node1&#45;&gt;Node4</title>
<path fill="none" stroke="midnightblue" d="M577.92,-627.31C564.54,-637.8 546.03,-651.1 528,-660 519.6,-664.15 259.49,-744.53 168.82,-772.5"/>
<polygon fill="midnightblue" stroke="midnightblue" points="580.31,-629.88 585.92,-620.89 575.93,-624.42 580.31,-629.88"/>
</g>
<!-- Node16 -->
<g id="node11" class="node">
<title>Node16</title>
<g id="a_node11"><a xlink:href="../../d0/d3e/pps-files_8cpp.html#aee5d43bdb96bc26a9e211a6b70e4e15b" target="_top" xlink:title=" ">
<polygon fill="white" stroke="black" points="101,-1114.5 101,-1133.5 173,-1133.5 173,-1114.5 101,-1114.5"/>
<text text-anchor="middle" x="137" y="-1121.5" font-family="Helvetica,sans-Serif" font-size="10.00">find_source</text>
</a>
</g>
</g>
<!-- Node1&#45;&gt;Node16 -->
<g id="edge11" class="edge">
<title>Node1&#45;&gt;Node16</title>
<path fill="none" stroke="midnightblue" d="M597.85,-631.11C598.84,-714.95 597.95,-1035.42 528,-1100 477.1,-1147 259.16,-1134.28 173.13,-1127.22"/>
<polygon fill="midnightblue" stroke="midnightblue" points="601.34,-630.84 597.7,-620.9 594.35,-630.94 601.34,-630.84"/>
</g>
<!-- Node17 -->
<g id="node12" class="node">
<title>Node17</title>
<g id="a_node12"><a xlink:href="../../d0/d3e/pps-files_8cpp.html#a80576b7ed0230355826c49f761ce773f" target="_top" xlink:title=" ">
<polygon fill="white" stroke="black" points="242,-1000.5 242,-1019.5 337,-1019.5 337,-1000.5 242,-1000.5"/>
<text text-anchor="middle" x="289.5" y="-1007.5" font-family="Helvetica,sans-Serif" font-size="10.00">getLinuxVersion</text>
</a>
</g>
</g>
<!-- Node1&#45;&gt;Node17 -->
<g id="edge13" class="edge">
<title>Node1&#45;&gt;Node17</title>
<path fill="none" stroke="midnightblue" d="M596.93,-630.98C594.43,-702.22 582.09,-942.12 528,-991 473.37,-1040.37 379.89,-1030.27 328,-1019.53"/>
<polygon fill="midnightblue" stroke="midnightblue" points="600.43,-630.82 597.26,-620.71 593.44,-630.6 600.43,-630.82"/>
</g>
<!-- Node18 -->
<g id="node13" class="node">
<title>Node18</title>
<g id="a_node13"><a xlink:href="../../d0/d3e/pps-files_8cpp.html#a4ce5021ab20b957eb5bd60c89d389685" target="_top" xlink:title=" ">
<polygon fill="white" stroke="black" points="247.5,-1038.5 247.5,-1057.5 331.5,-1057.5 331.5,-1038.5 247.5,-1038.5"/>
<text text-anchor="middle" x="289.5" y="-1045.5" font-family="Helvetica,sans-Serif" font-size="10.00">getRootHome</text>
</a>
</g>
</g>
<!-- Node1&#45;&gt;Node18 -->
<g id="edge14" class="edge">
<title>Node1&#45;&gt;Node18</title>
<path fill="none" stroke="midnightblue" d="M597.19,-631.13C595.58,-706.26 585.83,-968.66 528,-1023 475.43,-1072.4 384.6,-1066.2 331.81,-1057.15"/>
<polygon fill="midnightblue" stroke="midnightblue" points="600.69,-630.81 597.38,-620.75 593.7,-630.68 600.69,-630.81"/>
</g>
<!-- Node19 -->
<g id="node14" class="node">
<title>Node19</title>
<g id="a_node14"><a xlink:href="../../d0/d3e/pps-files_8cpp.html#a383f3dca6d9e0e5135fdf2a7158d8e8b" target="_top" xlink:title=" ">
<polygon fill="white" stroke="red" points="255.5,-478.5 255.5,-497.5 323.5,-497.5 323.5,-478.5 255.5,-478.5"/>
<text text-anchor="middle" x="289.5" y="-485.5" font-family="Helvetica,sans-Serif" font-size="10.00">getRPiCPU</text>
</a>
</g>
</g>
<!-- Node1&#45;&gt;Node19 -->
<g id="edge16" class="edge">
<title>Node1&#45;&gt;Node19</title>
<path fill="none" stroke="midnightblue" d="M579.01,-594.72C565.62,-583.63 546.67,-569.33 528,-560 459.21,-525.6 370.88,-504.17 323.71,-494.34"/>
<polygon fill="midnightblue" stroke="midnightblue" points="577.05,-597.65 586.94,-601.45 581.58,-592.31 577.05,-597.65"/>
</g>
<!-- Node21 -->
<g id="node15" class="node">
<title>Node21</title>
<g id="a_node15"><a xlink:href="../../d0/d3e/pps-files_8cpp.html#a44d1b7b3f8e3181274fae172922847b6" target="_top" xlink:title=" ">
<polygon fill="white" stroke="red" points="418,-468.5 418,-487.5 492,-487.5 492,-468.5 418,-468.5"/>
<text text-anchor="middle" x="455" y="-475.5" font-family="Helvetica,sans-Serif" font-size="10.00">open_logerr</text>
</a>
</g>
</g>
<!-- Node1&#45;&gt;Node21 -->
<g id="edge18" class="edge">
<title>Node1&#45;&gt;Node21</title>
<path fill="none" stroke="midnightblue" d="M590.04,-591.73C579.67,-567.43 558.68,-525.93 528,-502 517.61,-493.9 504.35,-488.46 492.05,-484.85"/>
<polygon fill="midnightblue" stroke="midnightblue" points="586.91,-593.35 593.94,-601.28 593.4,-590.7 586.91,-593.35"/>
</g>
<!-- Node23 -->
<g id="node16" class="node">
<title>Node23</title>
<g id="a_node16"><a xlink:href="../../d0/d3e/pps-files_8cpp.html#a4e1eee07f00ecb77c3ae3f508744f610" target="_top" xlink:title=" ">
<polygon fill="white" stroke="black" points="239,-430.5 239,-449.5 340,-449.5 340,-430.5 239,-430.5"/>
<text text-anchor="middle" x="289.5" y="-437.5" font-family="Helvetica,sans-Serif" font-size="10.00">saveDoubleArray</text>
</a>
</g>
</g>
<!-- Node1&#45;&gt;Node23 -->
<g id="edge38" class="edge">
<title>Node1&#45;&gt;Node23</title>
<path fill="none" stroke="midnightblue" d="M594.91,-591.51C589.34,-558.08 572.84,-490.4 528,-459 472.6,-420.21 391.09,-423.22 339.42,-430.46"/>
<polygon fill="midnightblue" stroke="midnightblue" points="591.46,-592.06 596.41,-601.43 598.38,-591.02 591.46,-592.06"/>
</g>
<!-- Node24 -->
<g id="node17" class="node">
<title>Node24</title>
<g id="a_node17"><a xlink:href="../../d0/d3e/pps-files_8cpp.html#a14e312f99e221dfc6863ec3277522ea5" target="_top" xlink:title=" ">
<polygon fill="white" stroke="red" points="77,-335.5 77,-354.5 197,-354.5 197,-335.5 77,-335.5"/>
<text text-anchor="middle" x="137" y="-342.5" font-family="Helvetica,sans-Serif" font-size="10.00">processWriteRequest</text>
</a>
</g>
</g>
<!-- Node1&#45;&gt;Node24 -->
<g id="edge35" class="edge">
<title>Node1&#45;&gt;Node24</title>
<path fill="none" stroke="midnightblue" d="M596.68,-591.43C593.43,-524.68 579.06,-307.8 528,-266 477.27,-224.47 294.64,-246.68 233,-269 195.07,-282.74 160.86,-318.28 145.93,-335.45"/>
<polygon fill="midnightblue" stroke="midnightblue" points="593.18,-591.61 597.14,-601.44 600.18,-591.29 593.18,-591.61"/>
</g>
<!-- Node26 -->
<g id="node18" class="node">
<title>Node26</title>
<g id="a_node18"><a xlink:href="../../d0/d3e/pps-files_8cpp.html#a5ec7f61f0d9d13be935f67a3e9c71f56" target="_top" xlink:title=" ">
<polygon fill="white" stroke="black" points="246.5,-658.5 246.5,-677.5 332.5,-677.5 332.5,-658.5 246.5,-658.5"/>
<text text-anchor="middle" x="289.5" y="-665.5" font-family="Helvetica,sans-Serif" font-size="10.00">saveLastState</text>
</a>
</g>
</g>
<!-- Node1&#45;&gt;Node26 -->
<g id="edge41" class="edge">
<title>Node1&#45;&gt;Node26</title>
<path fill="none" stroke="midnightblue" d="M562.72,-623.85C551.73,-627.55 539.46,-631.31 528,-634 460.49,-649.87 380.33,-659.48 332.53,-664.26"/>
<polygon fill="midnightblue" stroke="midnightblue" points="564.09,-627.08 572.39,-620.51 561.8,-620.47 564.09,-627.08"/>
</g>
<!-- Node27 -->
<g id="node19" class="node">
<title>Node27</title>
<g id="a_node19"><a xlink:href="../../d0/d3e/pps-files_8cpp.html#aa688c89aacc832cc1e7ef6ff1be6541e" target="_top" xlink:title=" ">
<polygon fill="white" stroke="red" points="240.5,-354.5 240.5,-373.5 338.5,-373.5 338.5,-354.5 240.5,-354.5"/>
<text text-anchor="middle" x="289.5" y="-361.5" font-family="Helvetica,sans-Serif" font-size="10.00">writeDistribution</text>
</a>
</g>
</g>
<!-- Node1&#45;&gt;Node27 -->
<g id="edge57" class="edge">
<title>Node1&#45;&gt;Node27</title>
<path fill="none" stroke="midnightblue" d="M598.19,-590.96C598.52,-545.79 592.33,-435.9 528,-384 472.93,-339.57 385.46,-345.57 333.45,-354.46"/>
<polygon fill="midnightblue" stroke="midnightblue" points="594.68,-591.14 597.98,-601.21 601.68,-591.28 594.68,-591.14"/>
</g>
<!-- Node30 -->
<g id="node20" class="node">
<title>Node30</title>
<g id="a_node20"><a xlink:href="../../d0/d3e/pps-files_8cpp.html#a493e043705885cfcebc5ac807989eb4d" target="_top" xlink:title=" ">
<polygon fill="white" stroke="black" points="233,-392.5 233,-411.5 346,-411.5 346,-392.5 233,-392.5"/>
<text text-anchor="middle" x="289.5" y="-399.5" font-family="Helvetica,sans-Serif" font-size="10.00">writeFrequencyVars</text>
</a>
</g>
</g>
<!-- Node1&#45;&gt;Node30 -->
<g id="edge58" class="edge">
<title>Node1&#45;&gt;Node30</title>
<path fill="none" stroke="midnightblue" d="M596.72,-590.94C593.99,-551.51 581.86,-464.15 528,-423 473.4,-381.28 389.75,-384.84 337.68,-392.49"/>
<polygon fill="midnightblue" stroke="midnightblue" points="593.23,-591.34 597.28,-601.13 600.22,-590.95 593.23,-591.34"/>
</g>
<!-- Node31 -->
<g id="node21" class="node">
<title>Node31</title>
<g id="a_node21"><a xlink:href="../../d0/d3e/pps-files_8cpp.html#a73e9f77c69f58e616293b5ca5126e77f" target="_top" xlink:title=" ">
<polygon fill="white" stroke="black" points="251.5,-278.5 251.5,-297.5 327.5,-297.5 327.5,-278.5 251.5,-278.5"/>
<text text-anchor="middle" x="289.5" y="-285.5" font-family="Helvetica,sans-Serif" font-size="10.00">writeOffsets</text>
</a>
</g>
</g>
<!-- Node1&#45;&gt;Node31 -->
<g id="edge59" class="edge">
<title>Node1&#45;&gt;Node31</title>
<path fill="none" stroke="midnightblue" d="M595.99,-591.01C590.86,-529.16 571.98,-342.76 528,-305 472.17,-257.07 379.16,-267.57 327.66,-278.42"/>
<polygon fill="midnightblue" stroke="midnightblue" points="592.53,-591.66 596.81,-601.35 599.5,-591.1 592.53,-591.66"/>
</g>
<!-- Node32 -->
<g id="node22" class="node">
<title>Node32</title>
<g id="a_node22"><a xlink:href="../../d0/d3e/pps-files_8cpp.html#afdccb305ab5e5c4f3402fe7969c6737b" target="_top" xlink:title=" ">
<polygon fill="white" stroke="black" points="236.5,-620.5 236.5,-639.5 342.5,-639.5 342.5,-620.5 236.5,-620.5"/>
<text text-anchor="middle" x="289.5" y="-627.5" font-family="Helvetica,sans-Serif" font-size="10.00">writeStatusStrings</text>
</a>
</g>
</g>
<!-- Node1&#45;&gt;Node32 -->
<g id="edge60" class="edge">
<title>Node1&#45;&gt;Node32</title>
<path fill="none" stroke="midnightblue" d="M553.74,-614.23C545.21,-614.84 536.32,-615.46 528,-616 464.32,-620.17 391,-624.4 342.87,-627.11"/>
<polygon fill="midnightblue" stroke="midnightblue" points="554.2,-617.71 563.92,-613.5 553.7,-610.73 554.2,-617.71"/>
</g>
<!-- Node33 -->
<g id="node23" class="node">
<title>Node33</title>
<g id="a_node23"><a xlink:href="../../d0/d3e/pps-files_8cpp.html#aad53ec22f551c789425b2870f59fbae9" target="_top" xlink:title=" ">
<polygon fill="white" stroke="red" points="241,-316.5 241,-335.5 338,-335.5 338,-316.5 241,-316.5"/>
<text text-anchor="middle" x="289.5" y="-323.5" font-family="Helvetica,sans-Serif" font-size="10.00">writeTimestamp</text>
</a>
</g>
</g>
<!-- Node1&#45;&gt;Node33 -->
<g id="edge61" class="edge">
<title>Node1&#45;&gt;Node33</title>
<path fill="none" stroke="midnightblue" d="M595.3,-591.46C588.58,-535.61 566.42,-377.2 528,-345 472.68,-298.64 382.43,-306.65 330.57,-316.45"/>
<polygon fill="midnightblue" stroke="midnightblue" points="591.83,-591.95 596.47,-601.47 598.78,-591.13 591.83,-591.95"/>
</g>
<!-- Node35 -->
<g id="node24" class="node">
<title>Node35</title>
<g id="a_node24"><a xlink:href="../../d0/d3e/pps-files_8cpp.html#ac59e9111236426cdcbea6d1774ca7fea" target="_top" xlink:title=" ">
<polygon fill="white" stroke="red" points="248.5,-886.5 248.5,-905.5 330.5,-905.5 330.5,-886.5 248.5,-886.5"/>
<text text-anchor="middle" x="289.5" y="-893.5" font-family="Helvetica,sans-Serif" font-size="10.00">ppsIsRunning</text>
</a>
</g>
</g>
<!-- Node1&#45;&gt;Node35 -->
<g id="edge34" class="edge">
<title>Node1&#45;&gt;Node35</title>
<path fill="none" stroke="midnightblue" d="M596.08,-630.99C591.22,-692.85 573.04,-879.09 528,-915 498.4,-938.59 389.76,-918.75 330.2,-905.51"/>
<polygon fill="midnightblue" stroke="midnightblue" points="599.6,-630.89 596.85,-620.66 592.61,-630.37 599.6,-630.89"/>
</g>
<!-- Node36 -->
<g id="node25" class="node">
<title>Node36</title>
<g id="a_node25"><a xlink:href="../../d0/d3e/pps-files_8cpp.html#a459e7950f1def63780ba7fda8e3c12d2" target="_top" xlink:title=" ">
<polygon fill="white" stroke="red" points="419,-152.5 419,-171.5 491,-171.5 491,-152.5 419,-152.5"/>
<text text-anchor="middle" x="455" y="-159.5" font-family="Helvetica,sans-Serif" font-size="10.00">read_logerr</text>
</a>
</g>
</g>
<!-- Node1&#45;&gt;Node36 -->
<g id="edge36" class="edge">
<title>Node1&#45;&gt;Node36</title>
<path fill="none" stroke="midnightblue" d="M597.07,-591.25C595.01,-515.2 583.8,-242.55 528,-181 518.71,-170.75 504.61,-165.75 491.34,-163.4"/>
<polygon fill="midnightblue" stroke="midnightblue" points="593.57,-591.44 597.32,-601.35 600.57,-591.27 593.57,-591.44"/>
</g>
<!-- Node38 -->
<g id="node26" class="node">
<title>Node38</title>
<g id="a_node26"><a xlink:href="../../df/d28/pps-serial_8cpp.html#a017c6d120d7bd920065a7fece4d53978" target="_top" xlink:title=" ">
<polygon fill="white" stroke="black" points="247.5,-810.5 247.5,-829.5 331.5,-829.5 331.5,-810.5 247.5,-810.5"/>
<text text-anchor="middle" x="289.5" y="-817.5" font-family="Helvetica,sans-Serif" font-size="10.00">saveGPSTime</text>
</a>
</g>
</g>
<!-- Node1&#45;&gt;Node38 -->
<g id="edge39" class="edge">
<title>Node1&#45;&gt;Node38</title>
<path fill="none" stroke="midnightblue" d="M596.86,-630.75C594.39,-670.38 582.72,-759.41 528,-801 471.2,-844.18 383.11,-837.8 331.69,-829.04"/>
<polygon fill="midnightblue" stroke="midnightblue" points="600.36,-630.7 597.35,-620.54 593.37,-630.36 600.36,-630.7"/>
</g>
<!-- Node39 -->
<g id="node27" class="node">
<title>Node39</title>
<g id="a_node27"><a xlink:href="../../df/d28/pps-serial_8cpp.html#a4749205b4ede5570376cf2d476014337" target="_top" xlink:title=" ">
<polygon fill="white" stroke="black" points="404.5,-114.5 404.5,-133.5 505.5,-133.5 505.5,-114.5 404.5,-114.5"/>
<text text-anchor="middle" x="455" y="-121.5" font-family="Helvetica,sans-Serif" font-size="10.00">saveTimestamps</text>
</a>
</g>
</g>
<!-- Node1&#45;&gt;Node39 -->
<g id="edge42" class="edge">
<title>Node1&#45;&gt;Node39</title>
<path fill="none" stroke="midnightblue" d="M597.35,-591.08C596.36,-510.61 588.57,-210.67 528,-143 522.05,-136.35 514.08,-131.91 505.6,-128.96"/>
<polygon fill="midnightblue" stroke="midnightblue" points="593.86,-591.34 597.46,-601.3 600.86,-591.27 593.86,-591.34"/>
</g>
<!-- Node40 -->
<g id="node28" class="node">
<title>Node40</title>
<g id="a_node28"><a xlink:href="../../d5/d60/pps-client_8cpp.html#a1b63d979f88bd573c07f93f9275a9d6d" target="_top" xlink:title=" ">
<polygon fill="white" stroke="red" points="384,-76.5 384,-95.5 526,-95.5 526,-76.5 384,-76.5"/>
<text text-anchor="middle" x="455" y="-83.5" font-family="Helvetica,sans-Serif" font-size="10.00">setClockFractionalSecond</text>
</a>
</g>
</g>
<!-- Node1&#45;&gt;Node40 -->
<g id="edge43" class="edge">
<title>Node1&#45;&gt;Node40</title>
<path fill="none" stroke="midnightblue" d="M597.6,-591.11C597.62,-506.66 593.4,-178.87 528,-105 524.66,-101.22 520.66,-98.16 516.29,-95.67"/>
<polygon fill="midnightblue" stroke="midnightblue" points="594.1,-591.35 597.58,-601.35 601.1,-591.36 594.1,-591.35"/>
</g>
<!-- Node42 -->
<g id="node29" class="node">
<title>Node42</title>
<g id="a_node29"><a xlink:href="../../d5/d60/pps-client_8cpp.html#a2237f5f4d517383c7b5d34dd7864272b" target="_top" xlink:title=" ">
<polygon fill="white" stroke="red" points="399.5,-38.5 399.5,-57.5 510.5,-57.5 510.5,-38.5 399.5,-38.5"/>
<text text-anchor="middle" x="455" y="-45.5" font-family="Helvetica,sans-Serif" font-size="10.00">setClockToGPStime</text>
</a>
</g>
</g>
<!-- Node1&#45;&gt;Node42 -->
<g id="edge44" class="edge">
<title>Node1&#45;&gt;Node42</title>
<path fill="none" stroke="midnightblue" d="M597.81,-591.32C598.79,-503.37 598.29,-147.16 528,-67 523.31,-61.65 517.31,-57.73 510.79,-54.86"/>
<polygon fill="midnightblue" stroke="midnightblue" points="594.31,-591.45 597.68,-601.49 601.31,-591.54 594.31,-591.45"/>
</g>
<!-- Node43 -->
<g id="node30" class="node">
<title>Node43</title>
<g id="a_node30"><a xlink:href="../../d5/d60/pps-client_8cpp.html#a576eb54270dcbc8c14f4f253c1ab7432" target="_top" xlink:title=" ">
<polygon fill="white" stroke="red" points="398.5,-0.5 398.5,-19.5 511.5,-19.5 511.5,-0.5 398.5,-0.5"/>
<text text-anchor="middle" x="455" y="-7.5" font-family="Helvetica,sans-Serif" font-size="10.00">setClocktoNISTtime</text>
</a>
</g>
</g>
<!-- Node1&#45;&gt;Node43 -->
<g id="edge45" class="edge">
<title>Node1&#45;&gt;Node43</title>
<path fill="none" stroke="midnightblue" d="M596.44,-591.07C591.08,-493.87 565.78,-72.44 528,-29 523.5,-23.83 517.78,-19.99 511.54,-17.14"/>
<polygon fill="midnightblue" stroke="midnightblue" points="592.95,-591.48 596.99,-601.27 599.94,-591.1 592.95,-591.48"/>
</g>
<!-- Node44 -->
<g id="node31" class="node">
<title>Node44</title>
<g id="a_node31"><a xlink:href="../../d5/d60/pps-client_8cpp.html#a505a6be9b7669b349cea03a9fe663d74" target="_top" xlink:title=" ">
<polygon fill="white" stroke="red" points="413.5,-772.5 413.5,-791.5 496.5,-791.5 496.5,-772.5 413.5,-772.5"/>
<text text-anchor="middle" x="455" y="-779.5" font-family="Helvetica,sans-Serif" font-size="10.00">setSyncDelay</text>
</a>
</g>
</g>
<!-- Node1&#45;&gt;Node44 -->
<g id="edge46" class="edge">
<title>Node1&#45;&gt;Node44</title>
<path fill="none" stroke="midnightblue" d="M594.12,-630.58C587.45,-663.08 569.49,-728.05 528,-763 519.2,-770.41 507.82,-774.97 496.71,-777.76"/>
<polygon fill="midnightblue" stroke="midnightblue" points="597.59,-631.02 596.02,-620.54 590.72,-629.71 597.59,-631.02"/>
</g>
<!-- Node46 -->
<g id="node32" class="node">
<title>Node46</title>
<g id="a_node32"><a xlink:href="../../d0/d3e/pps-files_8cpp.html#a19da05b45d1e94170f5fe86decb70bfb" target="_top" xlink:title=" ">
<polygon fill="white" stroke="red" points="413.5,-962.5 413.5,-981.5 496.5,-981.5 496.5,-962.5 413.5,-962.5"/>
<text text-anchor="middle" x="455" y="-969.5" font-family="Helvetica,sans-Serif" font-size="10.00">sysCommand</text>
</a>
</g>
</g>
<!-- Node1&#45;&gt;Node46 -->
<g id="edge48" class="edge">
<title>Node1&#45;&gt;Node46</title>
<path fill="none" stroke="midnightblue" d="M595.98,-630.82C590.61,-695.66 570.57,-900.07 528,-948 519.86,-957.16 508.14,-962.83 496.5,-966.34"/>
<polygon fill="midnightblue" stroke="midnightblue" points="599.48,-630.96 596.79,-620.71 592.5,-630.4 599.48,-630.96"/>
</g>
<!-- Node50 -->
<g id="node33" class="node">
<title>Node50</title>
<g id="a_node33"><a xlink:href="../../d0/d3e/pps-files_8cpp.html#a6092b615f5e717c843a1948b2a34cf6a" target="_top" xlink:title=" ">
<polygon fill="white" stroke="black" points="414.5,-734.5 414.5,-753.5 495.5,-753.5 495.5,-734.5 414.5,-734.5"/>
<text text-anchor="middle" x="455" y="-741.5" font-family="Helvetica,sans-Serif" font-size="10.00">TERMhandler</text>
</a>
</g>
</g>
<!-- Node1&#45;&gt;Node50 -->
<g id="edge54" class="edge">
<title>Node1&#45;&gt;Node50</title>
<path fill="none" stroke="midnightblue" d="M590.04,-630.27C579.67,-654.57 558.68,-696.07 528,-720 518.65,-727.29 506.98,-732.43 495.77,-736.01"/>
<polygon fill="midnightblue" stroke="midnightblue" points="593.4,-631.3 593.94,-620.72 586.91,-628.65 593.4,-631.3"/>
</g>
<!-- Node7&#45;&gt;Node5 -->
<g id="edge4" class="edge">
<title>Node7&#45;&gt;Node5</title>
<path fill="none" stroke="midnightblue" d="M243.24,-605.57C239.69,-607.21 236.23,-609.02 233,-611 150.53,-661.69 124.23,-678.5 77,-763 30.47,-846.25 22.94,-965.84 21.73,-1000.35"/>
<polygon fill="midnightblue" stroke="midnightblue" points="244.9,-608.67 252.8,-601.6 242.22,-602.2 244.9,-608.67"/>
</g>
<!-- Node15&#45;&gt;Node14 -->
<g id="edge8" class="edge">
<title>Node15&#45;&gt;Node14</title>
<path fill="none" stroke="midnightblue" d="M402.82,-884.1C379.83,-878.76 353.09,-872.55 331.46,-867.52"/>
<polygon fill="midnightblue" stroke="midnightblue" points="402.21,-887.56 412.74,-886.41 403.79,-880.74 402.21,-887.56"/>
</g>
<!-- Node14&#45;&gt;Node4 -->
<g id="edge9" class="edge">
<title>Node14&#45;&gt;Node4</title>
<path fill="none" stroke="midnightblue" d="M247.49,-845.06C242.54,-843.18 237.61,-841.15 233,-839 202.83,-824.97 170.05,-803.87 151.97,-791.67"/>
<polygon fill="midnightblue" stroke="midnightblue" points="246.34,-848.36 256.93,-848.48 248.72,-841.78 246.34,-848.36"/>
</g>
<!-- Node4&#45;&gt;Node5 -->
<g id="edge10" class="edge">
<title>Node4&#45;&gt;Node5</title>
<path fill="none" stroke="midnightblue" d="M126.6,-800.71C103.33,-847.05 43.64,-965.91 26.29,-1000.45"/>
<polygon fill="midnightblue" stroke="midnightblue" points="129.87,-802.01 131.23,-791.51 123.61,-798.87 129.87,-802.01"/>
</g>
<!-- Node16&#45;&gt;Node5 -->
<g id="edge12" class="edge">
<title>Node16&#45;&gt;Node5</title>
<path fill="none" stroke="midnightblue" d="M92.61,-1110.13C87.03,-1107.29 81.65,-1103.94 77,-1100 49.95,-1077.11 32.14,-1037.58 25.02,-1019.51"/>
<polygon fill="midnightblue" stroke="midnightblue" points="91.55,-1113.49 102.11,-1114.43 94.44,-1107.11 91.55,-1113.49"/>
</g>
<!-- Node18&#45;&gt;Node5 -->
<g id="edge15" class="edge">
<title>Node18&#45;&gt;Node5</title>
<path fill="none" stroke="midnightblue" d="M237.39,-1040.73C177.75,-1032.24 82.07,-1018.62 41.12,-1012.79"/>
<polygon fill="midnightblue" stroke="midnightblue" points="236.97,-1044.2 247.37,-1042.15 237.96,-1037.27 236.97,-1044.2"/>
</g>
<!-- Node21&#45;&gt;Node7 -->
<g id="edge19" class="edge">
<title>Node21&#45;&gt;Node7</title>
<path fill="none" stroke="midnightblue" d="M435.8,-494.42C415.01,-512.71 379.52,-542.52 346,-564 335.19,-570.93 322.43,-577.47 311.88,-582.48"/>
<polygon fill="midnightblue" stroke="midnightblue" points="438.36,-496.82 443.52,-487.57 433.72,-491.59 438.36,-496.82"/>
</g>
<!-- Node21&#45;&gt;Node8 -->
<g id="edge20" class="edge">
<title>Node21&#45;&gt;Node8</title>
<path fill="none" stroke="midnightblue" d="M421.25,-491.42C389.47,-504.44 342.03,-523.88 313.88,-535.42"/>
<polygon fill="midnightblue" stroke="midnightblue" points="422.65,-494.63 430.57,-487.6 419.99,-488.15 422.65,-494.63"/>
</g>
<!-- Node21&#45;&gt;Node19 -->
<g id="edge21" class="edge">
<title>Node21&#45;&gt;Node19</title>
<path fill="none" stroke="midnightblue" d="M407.43,-480.85C380.68,-482.48 347.73,-484.5 323.63,-485.97"/>
<polygon fill="midnightblue" stroke="midnightblue" points="407.95,-484.32 417.71,-480.22 407.52,-477.34 407.95,-484.32"/>
</g>
<!-- Node21&#45;&gt;Node23 -->
<g id="edge22" class="edge">
<title>Node21&#45;&gt;Node23</title>
<path fill="none" stroke="midnightblue" d="M407.78,-467.26C383.8,-461.68 354.76,-454.94 331.58,-449.55"/>
<polygon fill="midnightblue" stroke="midnightblue" points="407.18,-470.71 417.71,-469.57 408.77,-463.89 407.18,-470.71"/>
</g>
<!-- Node21&#45;&gt;Node26 -->
<g id="edge24" class="edge">
<title>Node21&#45;&gt;Node26</title>
<path fill="none" stroke="midnightblue" d="M446.87,-497.31C432.92,-532.53 398.68,-607.38 346,-649 341.13,-652.85 335.42,-655.95 329.56,-658.43"/>
<polygon fill="midnightblue" stroke="midnightblue" points="450.23,-498.33 450.55,-487.74 443.7,-495.82 450.23,-498.33"/>
</g>
<!-- Node21&#45;&gt;Node27 -->
<g id="edge26" class="edge">
<title>Node21&#45;&gt;Node27</title>
<path fill="none" stroke="midnightblue" d="M438.5,-460.72C418.83,-439.73 382.99,-404.46 346,-383 339.57,-379.27 332.29,-376.12 325.18,-373.53"/>
<polygon fill="midnightblue" stroke="midnightblue" points="436.09,-463.27 445.44,-468.26 441.24,-458.53 436.09,-463.27"/>
</g>
<!-- Node21&#45;&gt;Node30 -->
<g id="edge27" class="edge">
<title>Node21&#45;&gt;Node30</title>
<path fill="none" stroke="midnightblue" d="M429.1,-463.43C407.55,-451.17 375.33,-433.67 346,-421 338.05,-417.57 329.26,-414.32 321.07,-411.51"/>
<polygon fill="midnightblue" stroke="midnightblue" points="427.51,-466.55 437.92,-468.5 430.99,-460.48 427.51,-466.55"/>
</g>
<!-- Node21&#45;&gt;Node31 -->
<g id="edge29" class="edge">
<title>Node21&#45;&gt;Node31</title>
<path fill="none" stroke="midnightblue" d="M446.87,-458.69C432.92,-423.47 398.68,-348.62 346,-307 340.57,-302.71 334.1,-299.35 327.54,-296.74"/>
<polygon fill="midnightblue" stroke="midnightblue" points="443.7,-460.18 450.55,-468.26 450.23,-457.67 443.7,-460.18"/>
</g>
<!-- Node21&#45;&gt;Node32 -->
<g id="edge31" class="edge">
<title>Node21&#45;&gt;Node32</title>
<path fill="none" stroke="midnightblue" d="M443.66,-496.5C426.79,-525.04 390.73,-579.78 346,-611 340.49,-614.85 334.13,-617.97 327.73,-620.49"/>
<polygon fill="midnightblue" stroke="midnightblue" points="446.84,-497.99 448.8,-487.58 440.77,-494.49 446.84,-497.99"/>
</g>
<!-- Node21&#45;&gt;Node33 -->
<g id="edge33" class="edge">
<title>Node21&#45;&gt;Node33</title>
<path fill="none" stroke="midnightblue" d="M443.66,-459.5C426.79,-430.96 390.73,-376.22 346,-345 340.49,-341.15 334.13,-338.03 327.73,-335.51"/>
<polygon fill="midnightblue" stroke="midnightblue" points="440.77,-461.51 448.8,-468.42 446.84,-458.01 440.77,-461.51"/>
</g>
<!-- Node23&#45;&gt;Node24 -->
<g id="edge23" class="edge">
<title>Node23&#45;&gt;Node24</title>
<path fill="none" stroke="midnightblue" d="M244.91,-426.71C240.8,-424.97 236.77,-423.07 233,-421 198.57,-402.09 164.02,-370.54 147.7,-354.7"/>
<polygon fill="midnightblue" stroke="midnightblue" points="243.95,-430.09 254.54,-430.45 246.49,-423.57 243.95,-430.09"/>
</g>
<!-- Node26&#45;&gt;Node4 -->
<g id="edge25" class="edge">
<title>Node26&#45;&gt;Node4</title>
<path fill="none" stroke="midnightblue" d="M251.87,-681.66C245.37,-684.69 238.83,-688.15 233,-692 196.59,-716.02 161.36,-754.64 146.02,-772.44"/>
<polygon fill="midnightblue" stroke="midnightblue" points="253.51,-684.76 261.27,-677.55 250.7,-678.35 253.51,-684.76"/>
</g>
<!-- Node30&#45;&gt;Node24 -->
<g id="edge28" class="edge">
<title>Node30&#45;&gt;Node24</title>
<path fill="none" stroke="midnightblue" d="M250.09,-389.13C244.35,-387.13 238.51,-385.04 233,-383 208.18,-373.8 180.07,-362.43 160.91,-354.54"/>
<polygon fill="midnightblue" stroke="midnightblue" points="249,-392.46 259.6,-392.41 251.29,-385.84 249,-392.46"/>
</g>
<!-- Node31&#45;&gt;Node24 -->
<g id="edge30" class="edge">
<title>Node31&#45;&gt;Node24</title>
<path fill="none" stroke="midnightblue" d="M250.09,-300.87C244.35,-302.87 238.51,-304.96 233,-307 208.18,-316.2 180.07,-327.57 160.91,-335.46"/>
<polygon fill="midnightblue" stroke="midnightblue" points="251.29,-304.16 259.6,-297.59 249,-297.54 251.29,-304.16"/>
</g>
<!-- Node32&#45;&gt;Node4 -->
<g id="edge32" class="edge">
<title>Node32&#45;&gt;Node4</title>
<path fill="none" stroke="midnightblue" d="M240.98,-643.93C238.18,-645.46 235.49,-647.14 233,-649 186.35,-683.75 153.49,-748.13 142.25,-772.4"/>
<polygon fill="midnightblue" stroke="midnightblue" points="242.65,-647.01 250.2,-639.58 239.67,-640.68 242.65,-647.01"/>
</g>
<!-- Node38&#45;&gt;Node4 -->
<g id="edge40" class="edge">
<title>Node38&#45;&gt;Node4</title>
<path fill="none" stroke="midnightblue" d="M240.66,-807.92C218.56,-802.34 192.8,-795.84 172.62,-790.74"/>
<polygon fill="midnightblue" stroke="midnightblue" points="239.97,-811.36 250.52,-810.41 241.68,-804.57 239.97,-811.36"/>
</g>
<!-- Node44&#45;&gt;Node4 -->
<g id="edge47" class="edge">
<title>Node44&#45;&gt;Node4</title>
<path fill="none" stroke="midnightblue" d="M402.97,-782C338.26,-782 228.44,-782 172.69,-782"/>
<polygon fill="midnightblue" stroke="midnightblue" points="403.34,-785.5 413.34,-782 403.34,-778.5 403.34,-785.5"/>
</g>
<!-- Node46&#45;&gt;Node5 -->
<g id="edge51" class="edge">
<title>Node46&#45;&gt;Node5</title>
<path fill="none" stroke="midnightblue" d="M403.22,-976.31C358.42,-980.13 291.37,-985.87 233,-991 162.3,-997.21 78.34,-1004.83 41.03,-1008.22"/>
<polygon fill="midnightblue" stroke="midnightblue" points="403.6,-979.79 413.26,-975.46 403,-972.82 403.6,-979.79"/>
</g>
<!-- Node46&#45;&gt;Node4 -->
<g id="edge53" class="edge">
<title>Node46&#45;&gt;Node4</title>
<path fill="none" stroke="midnightblue" d="M402.91,-963.02C346.6,-952.4 260.37,-933.79 233,-915 185.04,-882.08 152.97,-816.6 142.1,-791.81"/>
<polygon fill="midnightblue" stroke="midnightblue" points="402.58,-966.52 413.05,-964.91 403.86,-959.64 402.58,-966.52"/>
</g>
<!-- Node46&#45;&gt;Node17 -->
<g id="edge49" class="edge">
<title>Node46&#45;&gt;Node17</title>
<path fill="none" stroke="midnightblue" d="M403.19,-983.81C380.1,-989.18 353.14,-995.44 331.38,-1000.5"/>
<polygon fill="midnightblue" stroke="midnightblue" points="404.22,-987.16 413.16,-981.49 402.63,-980.35 404.22,-987.16"/>
</g>
<!-- Node46&#45;&gt;Node18 -->
<g id="edge50" class="edge">
<title>Node46&#45;&gt;Node18</title>
<path fill="none" stroke="midnightblue" d="M429.1,-986.57C407.55,-998.83 375.33,-1016.33 346,-1029 338.05,-1032.43 329.26,-1035.68 321.07,-1038.49"/>
<polygon fill="midnightblue" stroke="midnightblue" points="430.99,-989.52 437.92,-981.5 427.51,-983.45 430.99,-989.52"/>
</g>
<!-- Node46&#45;&gt;Node35 -->
<g id="edge52" class="edge">
<title>Node46&#45;&gt;Node35</title>
<path fill="none" stroke="midnightblue" d="M408,-959.26C399.14,-956.09 390.1,-952.34 382,-948 364.13,-938.44 363.44,-930.33 346,-920 336.7,-914.49 325.89,-909.53 316.31,-905.57"/>
<polygon fill="midnightblue" stroke="midnightblue" points="406.89,-962.58 417.48,-962.47 409.13,-955.95 406.89,-962.58"/>
</g>
<!-- Node50&#45;&gt;Node4 -->
<g id="edge55" class="edge">
<title>Node50&#45;&gt;Node4</title>
<path fill="none" stroke="midnightblue" d="M403.98,-750.02C339.51,-757.77 229.05,-771.05 172.93,-777.8"/>
<polygon fill="midnightblue" stroke="midnightblue" points="404.79,-753.44 414.3,-748.77 403.95,-746.49 404.79,-753.44"/>
</g>
</g>
</svg>
