<?xml version="1.0" encoding="UTF-8" standalone="no"?>
<!DOCTYPE svg PUBLIC "-//W3C//DTD SVG 1.1//EN"
 "http://www.w3.org/Graphics/SVG/1.1/DTD/svg11.dtd">
<!-- Generated by graphviz version 2.43.0 (0)
 -->
<!-- Title: writeStatusStrings Pages: 1 -->
<svg width="329pt" height="47pt"
 viewBox="0.00 0.00 329.00 47.00" xmlns="http://www.w3.org/2000/svg" xmlns:xlink="http://www.w3.org/1999/xlink">
<g id="graph0" class="graph" transform="scale(1 1) rotate(0) translate(4 43)">
<title>writeStatusStrings</title>
<polygon fill="white" stroke="transparent" points="-4,4 -4,-43 325,-43 325,4 -4,4"/>
<!-- Node1 -->
<g id="node1" class="node">
<title>Node1</title>
<g id="a_node1"><a xlink:title=" ">
<polygon fill="#bfbfbf" stroke="black" points="0,-0.5 0,-19.5 106,-19.5 106,-0.5 0,-0.5"/>
<text text-anchor="middle" x="53" y="-7.5" font-family="Helvetica,sans-Serif" font-size="10.00">writeStatusStrings</text>
</a>
</g>
</g>
<!-- Node2 -->
<g id="node2" class="node">
<title>Node2</title>
<g id="a_node2"><a xlink:href="../../d0/d3e/pps-files_8cpp.html#a44d1b7b3f8e3181274fae172922847b6" target="_top" xlink:title=" ">
<polygon fill="white" stroke="red" points="142,-19.5 142,-38.5 216,-38.5 216,-19.5 142,-19.5"/>
<text text-anchor="middle" x="179" y="-26.5" font-family="Helvetica,sans-Serif" font-size="10.00">open_logerr</text>
</a>
</g>
</g>
<!-- Node1&#45;&gt;Node2 -->
<g id="edge1" class="edge">
<title>Node1&#45;&gt;Node2</title>
<path fill="none" stroke="midnightblue" d="M106.23,-18C114.7,-19.3 123.42,-20.64 131.73,-21.91"/>
<polygon fill="midnightblue" stroke="midnightblue" points="131.22,-25.37 141.63,-23.43 132.28,-18.45 131.22,-25.37"/>
</g>
<!-- Node4 -->
<g id="node3" class="node">
<title>Node4</title>
<g id="a_node3"><a xlink:href="../../d0/d3e/pps-files_8cpp.html#a6d6a61f9f40278df5e7ba5fa5b3a9d31" target="_top" xlink:title=" ">
<polygon fill="white" stroke="red" points="252,-0.5 252,-19.5 321,-19.5 321,-0.5 252,-0.5"/>
<text text-anchor="middle" x="286.5" y="-7.5" font-family="Helvetica,sans-Serif" font-size="10.00">writeToLog</text>
</a>
</g>
</g>
<!-- Node1&#45;&gt;Node4 -->
<g id="edge3" class="edge">
<title>Node1&#45;&gt;Node4</title>
<path fill="none" stroke="midnightblue" d="M106.24,-10C146.96,-10 202.85,-10 241.35,-10"/>
<polygon fill="midnightblue" stroke="midnightblue" points="241.72,-13.5 251.72,-10 241.72,-6.5 241.72,-13.5"/>
</g>
<!-- Node2&#45;&gt;Node4 -->
<g id="edge2" class="edge">
<title>Node2&#45;&gt;Node4</title>
<path fill="none" stroke="midnightblue" d="M216.01,-22.51C224.34,-21.02 233.28,-19.4 241.89,-17.85"/>
<polygon fill="midnightblue" stroke="midnightblue" points="242.56,-21.29 251.78,-16.07 241.32,-14.4 242.56,-21.29"/>
</g>
</g>
</svg>
