<?xml version="1.0" encoding="UTF-8" standalone="no"?>
<!DOCTYPE svg PUBLIC "-//W3C//DTD SVG 1.1//EN"
 "http://www.w3.org/Graphics/SVG/1.1/DTD/svg11.dtd">
<!-- Generated by graphviz version 2.43.0 (0)
 -->
<!-- Title: writeToLog Pages: 1 -->
<svg width="229pt" height="66pt"
 viewBox="0.00 0.00 229.00 66.00" xmlns="http://www.w3.org/2000/svg" xmlns:xlink="http://www.w3.org/1999/xlink">
<g id="graph0" class="graph" transform="scale(1 1) rotate(0) translate(4 62)">
<title>writeToLog</title>
<polygon fill="white" stroke="transparent" points="-4,4 -4,-62 225,-62 225,4 -4,4"/>
<!-- Node1 -->
<g id="node1" class="node">
<title>Node1</title>
<g id="a_node1"><a xlink:title=" ">
<polygon fill="#bfbfbf" stroke="black" points="0,-19.5 0,-38.5 69,-38.5 69,-19.5 0,-19.5"/>
<text text-anchor="middle" x="34.5" y="-26.5" font-family="Helvetica,sans-Serif" font-size="10.00">writeToLog</text>
</a>
</g>
</g>
<!-- Node2 -->
<g id="node2" class="node">
<title>Node2</title>
<g id="a_node2"><a xlink:href="../../d0/d3e/pps-files_8cpp.html#a6f609d689ebe787455ce220808ca3ba0" target="_top" xlink:title=" ">
<polygon fill="white" stroke="black" points="115,-38.5 115,-57.5 211,-57.5 211,-38.5 115,-38.5"/>
<text text-anchor="middle" x="163" y="-45.5" font-family="Helvetica,sans-Serif" font-size="10.00">bufferStatusMsg</text>
</a>
</g>
</g>
<!-- Node1&#45;&gt;Node2 -->
<g id="edge1" class="edge">
<title>Node1&#45;&gt;Node2</title>
<path fill="none" stroke="midnightblue" d="M69.07,-34.04C80.05,-35.69 92.57,-37.57 104.79,-39.41"/>
<polygon fill="midnightblue" stroke="midnightblue" points="104.53,-42.91 114.94,-40.93 105.57,-35.99 104.53,-42.91"/>
</g>
<!-- Node3 -->
<g id="node3" class="node">
<title>Node3</title>
<g id="a_node3"><a xlink:href="../../d0/d3e/pps-files_8cpp.html#ad570812a8fdee3634bc2488c34883d48" target="_top" xlink:title=" ">
<polygon fill="white" stroke="black" points="105,-0.5 105,-19.5 221,-19.5 221,-0.5 105,-0.5"/>
<text text-anchor="middle" x="163" y="-7.5" font-family="Helvetica,sans-Serif" font-size="10.00">couldNotOpenMsgTo</text>
</a>
</g>
</g>
<!-- Node1&#45;&gt;Node3 -->
<g id="edge2" class="edge">
<title>Node1&#45;&gt;Node3</title>
<path fill="none" stroke="midnightblue" d="M69.07,-23.96C77.04,-22.76 85.84,-21.44 94.73,-20.1"/>
<polygon fill="midnightblue" stroke="midnightblue" points="95.42,-23.54 104.79,-18.59 94.38,-16.62 95.42,-23.54"/>
</g>
</g>
</svg>
