<?xml version="1.0" encoding="UTF-8" standalone="no"?>
<!DOCTYPE svg PUBLIC "-//W3C//DTD SVG 1.1//EN"
 "http://www.w3.org/Graphics/SVG/1.1/DTD/svg11.dtd">
<!-- Generated by graphviz version 2.40.1 (20161225.0304)
 -->
<!-- Title: showStatusEachSecond Pages: 1 -->
<svg width="246pt" height="104pt"
 viewBox="0.00 0.00 246.00 104.00" xmlns="http://www.w3.org/2000/svg" xmlns:xlink="http://www.w3.org/1999/xlink">
<g id="graph0" class="graph" transform="scale(1 1) rotate(0) translate(4 100)">
<title>showStatusEachSecond</title>
<polygon fill="#ffffff" stroke="transparent" points="-4,4 -4,-100 242,-100 242,4 -4,4"/>
<!-- Node1 -->
<g id="node1" class="node">
<title>Node1</title>
<g id="a_node1"><a xlink:title=" ">
<polygon fill="#bfbfbf" stroke="#000000" points="0,-38.5 0,-57.5 124,-57.5 124,-38.5 0,-38.5"/>
<text text-anchor="middle" x="62" y="-45.5" font-family="Helvetica,sans-Serif" font-size="10.00" fill="#000000">showStatusEachSecond</text>
</a>
</g>
</g>
<!-- Node2 -->
<g id="node2" class="node">
<title>Node2</title>
<g id="a_node2"><a xlink:href="../../d0/d3e/pps-files_8cpp.html#a614325a5ddd56a0f08a04763bde4fe41" target="_top" xlink:title=" ">
<polygon fill="#ffffff" stroke="#000000" points="165,-76.5 165,-95.5 233,-95.5 233,-76.5 165,-76.5"/>
<text text-anchor="middle" x="199" y="-83.5" font-family="Helvetica,sans-Serif" font-size="10.00" fill="#000000">getSeqNum</text>
</a>
</g>
</g>
<!-- Node1&#45;&gt;Node2 -->
<g id="edge1" class="edge">
<title>Node1&#45;&gt;Node2</title>
<path fill="none" stroke="#191970" d="M96.5709,-57.589C114.3095,-62.5092 136.1093,-68.5559 155.0316,-73.8044"/>
<polygon fill="#191970" stroke="#191970" points="154.3431,-77.2455 164.9148,-76.5457 156.2141,-70.5002 154.3431,-77.2455"/>
</g>
<!-- Node3 -->
<g id="node3" class="node">
<title>Node3</title>
<g id="a_node3"><a xlink:href="../../d5/d60/pps-client_8cpp.html#aaf2d0a99430a6d5253b8c395c30ca7e3" target="_top" xlink:title=" ">
<polygon fill="#ffffff" stroke="#000000" points="162.5,-38.5 162.5,-57.5 235.5,-57.5 235.5,-38.5 162.5,-38.5"/>
<text text-anchor="middle" x="199" y="-45.5" font-family="Helvetica,sans-Serif" font-size="10.00" fill="#000000">gettimeofday</text>
</a>
</g>
</g>
<!-- Node1&#45;&gt;Node3 -->
<g id="edge2" class="edge">
<title>Node1&#45;&gt;Node3</title>
<path fill="none" stroke="#191970" d="M124.0865,-48C133.4495,-48 142.9737,-48 151.9512,-48"/>
<polygon fill="#191970" stroke="#191970" points="152.1965,-51.5001 162.1964,-48 152.1964,-44.5001 152.1965,-51.5001"/>
</g>
<!-- Node4 -->
<g id="node4" class="node">
<title>Node4</title>
<g id="a_node4"><a xlink:href="../../d5/d60/pps-client_8cpp.html#a505a6be9b7669b349cea03a9fe663d74" target="_top" xlink:title=" ">
<polygon fill="#ffffff" stroke="#ff0000" points="160,-.5 160,-19.5 238,-19.5 238,-.5 160,-.5"/>
<text text-anchor="middle" x="199" y="-7.5" font-family="Helvetica,sans-Serif" font-size="10.00" fill="#000000">setSyncDelay</text>
</a>
</g>
</g>
<!-- Node1&#45;&gt;Node4 -->
<g id="edge3" class="edge">
<title>Node1&#45;&gt;Node4</title>
<path fill="none" stroke="#191970" d="M96.5709,-38.411C114.1752,-33.5281 135.7793,-27.5357 154.601,-22.315"/>
<polygon fill="#191970" stroke="#191970" points="155.7395,-25.6315 164.4402,-19.5859 153.8685,-18.8862 155.7395,-25.6315"/>
</g>
</g>
</svg>
