<?xml version="1.0" encoding="UTF-8" standalone="no"?>
<!DOCTYPE svg PUBLIC "-//W3C//DTD SVG 1.1//EN"
 "http://www.w3.org/Graphics/SVG/1.1/DTD/svg11.dtd">
<!-- Generated by graphviz version 2.43.0 (0)
 -->
<!-- Title: writeTimestamp Pages: 1 -->
<svg width="320pt" height="47pt"
 viewBox="0.00 0.00 320.00 47.00" xmlns="http://www.w3.org/2000/svg" xmlns:xlink="http://www.w3.org/1999/xlink">
<g id="graph0" class="graph" transform="scale(1 1) rotate(0) translate(4 43)">
<title>writeTimestamp</title>
<polygon fill="white" stroke="transparent" points="-4,4 -4,-43 316,-43 316,4 -4,4"/>
<!-- Node1 -->
<g id="node1" class="node">
<title>Node1</title>
<g id="a_node1"><a xlink:title=" ">
<polygon fill="#bfbfbf" stroke="black" points="0,-0.5 0,-19.5 97,-19.5 97,-0.5 0,-0.5"/>
<text text-anchor="middle" x="48.5" y="-7.5" font-family="Helvetica,sans-Serif" font-size="10.00">writeTimestamp</text>
</a>
</g>
</g>
<!-- Node2 -->
<g id="node2" class="node">
<title>Node2</title>
<g id="a_node2"><a xlink:href="../../d0/d3e/pps-files_8cpp.html#a44d1b7b3f8e3181274fae172922847b6" target="_top" xlink:title=" ">
<polygon fill="white" stroke="red" points="133,-19.5 133,-38.5 207,-38.5 207,-19.5 133,-19.5"/>
<text text-anchor="middle" x="170" y="-26.5" font-family="Helvetica,sans-Serif" font-size="10.00">open_logerr</text>
</a>
</g>
</g>
<!-- Node1&#45;&gt;Node2 -->
<g id="edge1" class="edge">
<title>Node1&#45;&gt;Node2</title>
<path fill="none" stroke="midnightblue" d="M97.07,-17.56C105.49,-18.9 114.25,-20.3 122.64,-21.63"/>
<polygon fill="midnightblue" stroke="midnightblue" points="122.21,-25.11 132.64,-23.22 123.31,-18.19 122.21,-25.11"/>
</g>
<!-- Node4 -->
<g id="node3" class="node">
<title>Node4</title>
<g id="a_node3"><a xlink:href="../../d0/d3e/pps-files_8cpp.html#a6d6a61f9f40278df5e7ba5fa5b3a9d31" target="_top" xlink:title=" ">
<polygon fill="white" stroke="red" points="243,-0.5 243,-19.5 312,-19.5 312,-0.5 243,-0.5"/>
<text text-anchor="middle" x="277.5" y="-7.5" font-family="Helvetica,sans-Serif" font-size="10.00">writeToLog</text>
</a>
</g>
</g>
<!-- Node1&#45;&gt;Node4 -->
<g id="edge3" class="edge">
<title>Node1&#45;&gt;Node4</title>
<path fill="none" stroke="midnightblue" d="M97.09,-10C137.02,-10 193.6,-10 232.49,-10"/>
<polygon fill="midnightblue" stroke="midnightblue" points="232.96,-13.5 242.96,-10 232.96,-6.5 232.96,-13.5"/>
</g>
<!-- Node2&#45;&gt;Node4 -->
<g id="edge2" class="edge">
<title>Node2&#45;&gt;Node4</title>
<path fill="none" stroke="midnightblue" d="M207.01,-22.51C215.34,-21.02 224.28,-19.4 232.89,-17.85"/>
<polygon fill="midnightblue" stroke="midnightblue" points="233.56,-21.29 242.78,-16.07 232.32,-14.4 233.56,-21.29"/>
</g>
</g>
</svg>
