<?xml version="1.0" encoding="UTF-8" standalone="no"?>
<!DOCTYPE svg PUBLIC "-//W3C//DTD SVG 1.1//EN"
 "http://www.w3.org/Graphics/SVG/1.1/DTD/svg11.dtd">
<!-- Generated by graphviz version 2.43.0 (0)
 -->
<!-- Title: ppsIsRunning Pages: 1 -->
<svg width="314pt" height="47pt"
 viewBox="0.00 0.00 314.00 47.00" xmlns="http://www.w3.org/2000/svg" xmlns:xlink="http://www.w3.org/1999/xlink">
<g id="graph0" class="graph" transform="scale(1 1) rotate(0) translate(4 43)">
<title>ppsIsRunning</title>
<polygon fill="white" stroke="transparent" points="-4,4 -4,-43 310,-43 310,4 -4,4"/>
<!-- Node1 -->
<g id="node1" class="node">
<title>Node1</title>
<g id="a_node1"><a xlink:title=" ">
<polygon fill="#bfbfbf" stroke="black" points="0,-0.5 0,-19.5 82,-19.5 82,-0.5 0,-0.5"/>
<text text-anchor="middle" x="41" y="-7.5" font-family="Helvetica,sans-Serif" font-size="10.00">ppsIsRunning</text>
</a>
</g>
</g>
<!-- Node2 -->
<g id="node2" class="node">
<title>Node2</title>
<g id="a_node2"><a xlink:href="../../d0/d3e/pps-files_8cpp.html#a19da05b45d1e94170f5fe86decb70bfb" target="_top" xlink:title=" ">
<polygon fill="white" stroke="black" points="118,-19.5 118,-38.5 201,-38.5 201,-19.5 118,-19.5"/>
<text text-anchor="middle" x="159.5" y="-26.5" font-family="Helvetica,sans-Serif" font-size="10.00">sysCommand</text>
</a>
</g>
</g>
<!-- Node1&#45;&gt;Node2 -->
<g id="edge1" class="edge">
<title>Node1&#45;&gt;Node2</title>
<path fill="none" stroke="midnightblue" d="M82.09,-16.54C90.42,-17.9 99.29,-19.34 107.94,-20.75"/>
<polygon fill="midnightblue" stroke="midnightblue" points="107.5,-24.23 117.94,-22.38 108.63,-17.32 107.5,-24.23"/>
</g>
<!-- Node3 -->
<g id="node3" class="node">
<title>Node3</title>
<g id="a_node3"><a xlink:href="../../d0/d3e/pps-files_8cpp.html#a6d6a61f9f40278df5e7ba5fa5b3a9d31" target="_top" xlink:title=" ">
<polygon fill="white" stroke="red" points="237,-0.5 237,-19.5 306,-19.5 306,-0.5 237,-0.5"/>
<text text-anchor="middle" x="271.5" y="-7.5" font-family="Helvetica,sans-Serif" font-size="10.00">writeToLog</text>
</a>
</g>
</g>
<!-- Node1&#45;&gt;Node3 -->
<g id="edge3" class="edge">
<title>Node1&#45;&gt;Node3</title>
<path fill="none" stroke="midnightblue" d="M82.06,-10C122.54,-10 184.89,-10 226.66,-10"/>
<polygon fill="midnightblue" stroke="midnightblue" points="226.81,-13.5 236.81,-10 226.81,-6.5 226.81,-13.5"/>
</g>
<!-- Node2&#45;&gt;Node3 -->
<g id="edge2" class="edge">
<title>Node2&#45;&gt;Node3</title>
<path fill="none" stroke="midnightblue" d="M201.15,-21.98C209.5,-20.54 218.33,-19.01 226.79,-17.55"/>
<polygon fill="midnightblue" stroke="midnightblue" points="227.6,-20.96 236.86,-15.81 226.41,-14.06 227.6,-20.96"/>
</g>
</g>
</svg>
