<?xml version="1.0" encoding="UTF-8" standalone="no"?>
<!DOCTYPE svg PUBLIC "-//W3C//DTD SVG 1.1//EN"
 "http://www.w3.org/Graphics/SVG/1.1/DTD/svg11.dtd">
<!-- Generated by graphviz version 2.40.1 (20161225.0304)
 -->
<!-- Title: processWriteRequest Pages: 1 -->
<svg width="360pt" height="142pt"
 viewBox="0.00 0.00 360.00 142.00" xmlns="http://www.w3.org/2000/svg" xmlns:xlink="http://www.w3.org/1999/xlink">
<g id="graph0" class="graph" transform="scale(1 1) rotate(0) translate(4 138)">
<title>processWriteRequest</title>
<polygon fill="#ffffff" stroke="transparent" points="-4,4 -4,-138 356,-138 356,4 -4,4"/>
<!-- Node1 -->
<g id="node1" class="node">
<title>Node1</title>
<g id="a_node1"><a xlink:title=" ">
<polygon fill="#bfbfbf" stroke="#000000" points="0,-57.5 0,-76.5 111,-76.5 111,-57.5 0,-57.5"/>
<text text-anchor="middle" x="55.5" y="-64.5" font-family="Helvetica,sans-Serif" font-size="10.00" fill="#000000">processWriteRequest</text>
</a>
</g>
</g>
<!-- Node2 -->
<g id="node2" class="node">
<title>Node2</title>
<g id="a_node2"><a xlink:href="../../d0/d3e/pps-files_8cpp.html#a4e1eee07f00ecb77c3ae3f508744f610" target="_top" xlink:title=" ">
<polygon fill="#ffffff" stroke="#ff0000" points="153,-114.5 153,-133.5 245,-133.5 245,-114.5 153,-114.5"/>
<text text-anchor="middle" x="199" y="-121.5" font-family="Helvetica,sans-Serif" font-size="10.00" fill="#000000">saveDoubleArray</text>
</a>
</g>
</g>
<!-- Node1&#45;&gt;Node2 -->
<g id="edge1" class="edge">
<title>Node1&#45;&gt;Node2</title>
<path fill="none" stroke="#191970" d="M79.5187,-76.5405C103.0072,-85.8705 138.9858,-100.1616 165.3259,-110.6242"/>
<polygon fill="#191970" stroke="#191970" points="164.3172,-113.9895 174.903,-114.4284 166.9014,-107.4839 164.3172,-113.9895"/>
</g>
<!-- Node5 -->
<g id="node3" class="node">
<title>Node5</title>
<g id="a_node3"><a xlink:href="../../d0/d3e/pps-files_8cpp.html#a6d6a61f9f40278df5e7ba5fa5b3a9d31" target="_top" xlink:title=" ">
<polygon fill="#ffffff" stroke="#ff0000" points="287,-57.5 287,-76.5 352,-76.5 352,-57.5 287,-57.5"/>
<text text-anchor="middle" x="319.5" y="-64.5" font-family="Helvetica,sans-Serif" font-size="10.00" fill="#000000">writeToLog</text>
</a>
</g>
</g>
<!-- Node1&#45;&gt;Node5 -->
<g id="edge7" class="edge">
<title>Node1&#45;&gt;Node5</title>
<path fill="none" stroke="#191970" d="M111.165,-67C160.5669,-67 231.703,-67 276.7511,-67"/>
<polygon fill="#191970" stroke="#191970" points="276.7808,-70.5001 286.7807,-67 276.7807,-63.5001 276.7808,-70.5001"/>
</g>
<!-- Node7 -->
<g id="node4" class="node">
<title>Node7</title>
<g id="a_node4"><a xlink:href="../../d0/d3e/pps-files_8cpp.html#a493e043705885cfcebc5ac807989eb4d" target="_top" xlink:title=" ">
<polygon fill="#ffffff" stroke="#ff0000" points="147,-38.5 147,-57.5 251,-57.5 251,-38.5 147,-38.5"/>
<text text-anchor="middle" x="199" y="-45.5" font-family="Helvetica,sans-Serif" font-size="10.00" fill="#000000">writeFrequencyVars</text>
</a>
</g>
</g>
<!-- Node1&#45;&gt;Node7 -->
<g id="edge3" class="edge">
<title>Node1&#45;&gt;Node7</title>
<path fill="none" stroke="#191970" d="M111.3917,-59.5997C119.6721,-58.5034 128.249,-57.3677 136.6509,-56.2553"/>
<polygon fill="#191970" stroke="#191970" points="137.3269,-59.6964 146.7809,-54.914 136.408,-52.757 137.3269,-59.6964"/>
</g>
<!-- Node8 -->
<g id="node5" class="node">
<title>Node8</title>
<g id="a_node5"><a xlink:href="../../d0/d3e/pps-files_8cpp.html#a73e9f77c69f58e616293b5ca5126e77f" target="_top" xlink:title=" ">
<polygon fill="#ffffff" stroke="#ff0000" points="164,-.5 164,-19.5 234,-19.5 234,-.5 164,-.5"/>
<text text-anchor="middle" x="199" y="-7.5" font-family="Helvetica,sans-Serif" font-size="10.00" fill="#000000">writeOffsets</text>
</a>
</g>
</g>
<!-- Node1&#45;&gt;Node8 -->
<g id="edge5" class="edge">
<title>Node1&#45;&gt;Node8</title>
<path fill="none" stroke="#191970" d="M77.9516,-57.3571C96.4074,-49.5075 123.2837,-38.2525 147,-29 152.0927,-27.0132 157.4892,-24.9713 162.8031,-22.997"/>
<polygon fill="#191970" stroke="#191970" points="164.0183,-26.2794 172.1955,-19.5426 161.602,-19.7096 164.0183,-26.2794"/>
</g>
<!-- Node2&#45;&gt;Node5 -->
<g id="edge2" class="edge">
<title>Node2&#45;&gt;Node5</title>
<path fill="none" stroke="#191970" d="M220.2889,-114.2706C229.7157,-109.9376 240.9278,-104.7501 251,-100 264.0008,-93.8687 278.3351,-86.9828 290.5164,-81.0936"/>
<polygon fill="#191970" stroke="#191970" points="292.2832,-84.1268 299.7573,-76.6176 289.2317,-77.8269 292.2832,-84.1268"/>
</g>
<!-- Node7&#45;&gt;Node5 -->
<g id="edge4" class="edge">
<title>Node7&#45;&gt;Node5</title>
<path fill="none" stroke="#191970" d="M251.1522,-56.2232C259.6496,-57.563 268.3659,-58.9374 276.6084,-60.237"/>
<polygon fill="#191970" stroke="#191970" points="276.3201,-63.7347 286.7432,-61.835 277.4104,-56.8201 276.3201,-63.7347"/>
</g>
<!-- Node8&#45;&gt;Node5 -->
<g id="edge6" class="edge">
<title>Node8&#45;&gt;Node5</title>
<path fill="none" stroke="#191970" d="M227.6613,-19.5642C235.3392,-22.3714 243.5685,-25.6062 251,-29 266.0314,-35.8646 282.2257,-44.7735 295.0926,-52.2396"/>
<polygon fill="#191970" stroke="#191970" points="293.4163,-55.3142 303.8095,-57.3713 296.9675,-49.2819 293.4163,-55.3142"/>
</g>
</g>
</svg>
