<?xml version="1.0" encoding="UTF-8" standalone="no"?>
<!DOCTYPE svg PUBLIC "-//W3C//DTD SVG 1.1//EN"
 "http://www.w3.org/Graphics/SVG/1.1/DTD/svg11.dtd">
<!-- Generated by graphviz version 2.40.1 (20161225.0304)
 -->
<!-- Title: sysCommand Pages: 1 -->
<svg width="315pt" height="294pt"
 viewBox="0.00 0.00 315.00 294.00" xmlns="http://www.w3.org/2000/svg" xmlns:xlink="http://www.w3.org/1999/xlink">
<g id="graph0" class="graph" transform="scale(1 1) rotate(0) translate(4 290)">
<title>sysCommand</title>
<polygon fill="#ffffff" stroke="transparent" points="-4,4 -4,-290 311,-290 311,4 -4,4"/>
<!-- Node1 -->
<g id="node1" class="node">
<title>Node1</title>
<g id="a_node1"><a xlink:title=" ">
<polygon fill="#bfbfbf" stroke="#000000" points="230,-133.5 230,-152.5 307,-152.5 307,-133.5 230,-133.5"/>
<text text-anchor="middle" x="268.5" y="-140.5" font-family="Helvetica,sans-Serif" font-size="10.00" fill="#000000">sysCommand</text>
</a>
</g>
</g>
<!-- Node2 -->
<g id="node2" class="node">
<title>Node2</title>
<g id="a_node2"><a xlink:href="../../d0/d3e/pps-files_8cpp.html#ad4dd294e11fee1536b4589d5a899ca6e" target="_top" xlink:title=" ">
<polygon fill="#ffffff" stroke="#ff0000" points="74,-266.5 74,-285.5 194,-285.5 194,-266.5 74,-266.5"/>
<text text-anchor="middle" x="134" y="-273.5" font-family="Helvetica,sans-Serif" font-size="10.00" fill="#000000">assignProcessorAffinity</text>
</a>
</g>
</g>
<!-- Node1&#45;&gt;Node2 -->
<g id="edge1" class="edge">
<title>Node1&#45;&gt;Node2</title>
<path fill="none" stroke="#191970" d="M261.0544,-161.7851C250.0985,-187.0582 227.2681,-231.7452 194,-257 188.8653,-260.8979 182.9104,-264.0083 176.7861,-266.4872"/>
<polygon fill="#191970" stroke="#191970" points="264.2885,-163.123 264.9028,-152.546 257.8267,-160.4314 264.2885,-163.123"/>
</g>
<!-- Node7 -->
<g id="node3" class="node">
<title>Node7</title>
<g id="a_node3"><a xlink:href="../../d5/d60/pps-client_8cpp.html#a45f6556dce353a14a22a6fa6b976ebcd" target="_top" xlink:title=" ">
<polygon fill="#ffffff" stroke="#ff0000" points="95,-228.5 95,-247.5 173,-247.5 173,-228.5 95,-228.5"/>
<text text-anchor="middle" x="134" y="-235.5" font-family="Helvetica,sans-Serif" font-size="10.00" fill="#000000">doTimeFixups</text>
</a>
</g>
</g>
<!-- Node1&#45;&gt;Node7 -->
<g id="edge2" class="edge">
<title>Node1&#45;&gt;Node7</title>
<path fill="none" stroke="#191970" d="M255.3602,-160.762C241.7757,-177.9486 219.0676,-203.5957 194,-219 187.6697,-222.89 180.469,-226.0541 173.3069,-228.6033"/>
<polygon fill="#191970" stroke="#191970" points="258.2795,-162.7071 261.5965,-152.6448 252.7286,-158.4424 258.2795,-162.7071"/>
</g>
<!-- Node9 -->
<g id="node4" class="node">
<title>Node9</title>
<g id="a_node4"><a xlink:href="../../d0/d3e/pps-files_8cpp.html#a80576b7ed0230355826c49f761ce773f" target="_top" xlink:title=" ">
<polygon fill="#ffffff" stroke="#000000" points="91,-190.5 91,-209.5 177,-209.5 177,-190.5 91,-190.5"/>
<text text-anchor="middle" x="134" y="-197.5" font-family="Helvetica,sans-Serif" font-size="10.00" fill="#000000">getLinuxVersion</text>
</a>
</g>
</g>
<!-- Node1&#45;&gt;Node9 -->
<g id="edge3" class="edge">
<title>Node1&#45;&gt;Node9</title>
<path fill="none" stroke="#191970" d="M242.6197,-157.5338C228.5123,-165.1134 210.5906,-174.1964 194,-181 185.6092,-184.441 176.3522,-187.6479 167.6728,-190.4109"/>
<polygon fill="#191970" stroke="#191970" points="244.611,-160.4344 251.7137,-152.5729 241.2588,-154.2893 244.611,-160.4344"/>
</g>
<!-- Node10 -->
<g id="node5" class="node">
<title>Node10</title>
<g id="a_node5"><a xlink:href="../../dc/d4f/pps-sntp_8cpp.html#aa8aaca53b26e1cb32310370e1b18ec81" target="_top" xlink:title=" ">
<polygon fill="#ffffff" stroke="#ff0000" points="96.5,-152.5 96.5,-171.5 171.5,-171.5 171.5,-152.5 96.5,-152.5"/>
<text text-anchor="middle" x="134" y="-159.5" font-family="Helvetica,sans-Serif" font-size="10.00" fill="#000000">getNISTTime</text>
</a>
</g>
</g>
<!-- Node1&#45;&gt;Node10 -->
<g id="edge4" class="edge">
<title>Node1&#45;&gt;Node10</title>
<path fill="none" stroke="#191970" d="M219.7846,-149.8817C203.9137,-152.1237 186.549,-154.5767 171.6194,-156.6857"/>
<polygon fill="#191970" stroke="#191970" points="220.5456,-153.3091 229.9577,-148.4446 219.5664,-146.3779 220.5456,-153.3091"/>
</g>
<!-- Node12 -->
<g id="node6" class="node">
<title>Node12</title>
<g id="a_node6"><a xlink:href="../../d0/d3e/pps-files_8cpp.html#a4ce5021ab20b957eb5bd60c89d389685" target="_top" xlink:title=" ">
<polygon fill="#ffffff" stroke="#000000" points="95.5,-114.5 95.5,-133.5 172.5,-133.5 172.5,-114.5 95.5,-114.5"/>
<text text-anchor="middle" x="134" y="-121.5" font-family="Helvetica,sans-Serif" font-size="10.00" fill="#000000">getRootHome</text>
</a>
</g>
</g>
<!-- Node1&#45;&gt;Node12 -->
<g id="edge5" class="edge">
<title>Node1&#45;&gt;Node12</title>
<path fill="none" stroke="#191970" d="M219.9613,-136.1432C204.3704,-133.9408 187.3217,-131.5324 172.5479,-129.4454"/>
<polygon fill="#191970" stroke="#191970" points="219.5664,-139.6221 229.9577,-137.5554 220.5456,-132.6909 219.5664,-139.6221"/>
</g>
<!-- Node4 -->
<g id="node7" class="node">
<title>Node4</title>
<g id="a_node7"><a xlink:href="../../d5/d60/pps-client_8cpp.html#a0ddf1224851353fc92bfbff6f499fa97" target="_top" xlink:title=" ">
<polygon fill="#ffffff" stroke="#000000" points="0,-76.5 0,-95.5 38,-95.5 38,-76.5 0,-76.5"/>
<text text-anchor="middle" x="19" y="-83.5" font-family="Helvetica,sans-Serif" font-size="10.00" fill="#000000">main</text>
</a>
</g>
</g>
<!-- Node1&#45;&gt;Node4 -->
<g id="edge7" class="edge">
<title>Node1&#45;&gt;Node4</title>
<path fill="none" stroke="#191970" d="M245.1394,-128.2921C230.9027,-120.0523 212.0332,-110.3795 194,-105 139.0902,-88.6197 70.7374,-86.0416 38.0894,-85.8347"/>
<polygon fill="#191970" stroke="#191970" points="243.3894,-131.3236 253.7706,-133.4405 246.9753,-125.3118 243.3894,-131.3236"/>
</g>
<!-- Node13 -->
<g id="node8" class="node">
<title>Node13</title>
<g id="a_node8"><a xlink:href="../../d0/d3e/pps-files_8cpp.html#ac59e9111236426cdcbea6d1774ca7fea" target="_top" xlink:title=" ">
<polygon fill="#ffffff" stroke="#ff0000" points="95.5,-38.5 95.5,-57.5 172.5,-57.5 172.5,-38.5 95.5,-38.5"/>
<text text-anchor="middle" x="134" y="-45.5" font-family="Helvetica,sans-Serif" font-size="10.00" fill="#000000">ppsIsRunning</text>
</a>
</g>
</g>
<!-- Node1&#45;&gt;Node13 -->
<g id="edge8" class="edge">
<title>Node1&#45;&gt;Node13</title>
<path fill="none" stroke="#191970" d="M253.3494,-125.1153C239.2821,-109.4137 217.0855,-86.8273 194,-72 184.9378,-66.1796 174.2348,-61.3495 164.3959,-57.5854"/>
<polygon fill="#191970" stroke="#191970" points="251.0627,-127.817 260.2823,-133.0372 256.3304,-123.207 251.0627,-127.817"/>
</g>
<!-- Node6 -->
<g id="node9" class="node">
<title>Node6</title>
<g id="a_node9"><a xlink:href="../../d5/d60/pps-client_8cpp.html#a22519b13ce414a4bf003faf65bd68144" target="_top" xlink:title=" ">
<polygon fill="#ffffff" stroke="#000000" points="99.5,-.5 99.5,-19.5 168.5,-19.5 168.5,-.5 99.5,-.5"/>
<text text-anchor="middle" x="134" y="-7.5" font-family="Helvetica,sans-Serif" font-size="10.00" fill="#000000">waitForPPS</text>
</a>
</g>
</g>
<!-- Node1&#45;&gt;Node6 -->
<g id="edge9" class="edge">
<title>Node1&#45;&gt;Node6</title>
<path fill="none" stroke="#191970" d="M261.0544,-124.2149C250.0985,-98.9418 227.2681,-54.2548 194,-29 186.6025,-23.3844 177.5028,-19.4032 168.6467,-16.5903"/>
<polygon fill="#191970" stroke="#191970" points="257.8267,-125.5686 264.9028,-133.454 264.2885,-122.877 257.8267,-125.5686"/>
</g>
<!-- Node12&#45;&gt;Node4 -->
<g id="edge6" class="edge">
<title>Node12&#45;&gt;Node4</title>
<path fill="none" stroke="#191970" d="M95.2856,-111.2074C76.0989,-104.8675 53.7772,-97.4916 38.2565,-92.363"/>
<polygon fill="#191970" stroke="#191970" points="94.3874,-114.5967 104.9806,-114.411 96.5837,-107.9502 94.3874,-114.5967"/>
</g>
<!-- Node6&#45;&gt;Node4 -->
<g id="edge10" class="edge">
<title>Node6&#45;&gt;Node4</title>
<path fill="none" stroke="#191970" d="M89.5812,-21.2791C84.1462,-23.457 78.8174,-26.0134 74,-29 53.6635,-41.6078 35.5633,-63.4094 26.0544,-76.0826"/>
<polygon fill="#191970" stroke="#191970" points="91.1627,-24.4301 99.3916,-17.7565 88.7971,-17.8419 91.1627,-24.4301"/>
</g>
</g>
</svg>
