<?xml version="1.0" encoding="UTF-8" standalone="no"?>
<!DOCTYPE svg PUBLIC "-//W3C//DTD SVG 1.1//EN"
 "http://www.w3.org/Graphics/SVG/1.1/DTD/svg11.dtd">
<!-- Generated by graphviz version 2.43.0 (0)
 -->
<!-- Title: getLinuxVersion Pages: 1 -->
<svg width="327pt" height="47pt"
 viewBox="0.00 0.00 327.00 47.00" xmlns="http://www.w3.org/2000/svg" xmlns:xlink="http://www.w3.org/1999/xlink">
<g id="graph0" class="graph" transform="scale(1 1) rotate(0) translate(4 43)">
<title>getLinuxVersion</title>
<polygon fill="white" stroke="transparent" points="-4,4 -4,-43 323,-43 323,4 -4,4"/>
<!-- Node1 -->
<g id="node1" class="node">
<title>Node1</title>
<g id="a_node1"><a xlink:title=" ">
<polygon fill="#bfbfbf" stroke="black" points="0,-0.5 0,-19.5 95,-19.5 95,-0.5 0,-0.5"/>
<text text-anchor="middle" x="47.5" y="-7.5" font-family="Helvetica,sans-Serif" font-size="10.00">getLinuxVersion</text>
</a>
</g>
</g>
<!-- Node2 -->
<g id="node2" class="node">
<title>Node2</title>
<g id="a_node2"><a xlink:href="../../d0/d3e/pps-files_8cpp.html#a19da05b45d1e94170f5fe86decb70bfb" target="_top" xlink:title=" ">
<polygon fill="white" stroke="black" points="131,-19.5 131,-38.5 214,-38.5 214,-19.5 131,-19.5"/>
<text text-anchor="middle" x="172.5" y="-26.5" font-family="Helvetica,sans-Serif" font-size="10.00">sysCommand</text>
</a>
</g>
</g>
<!-- Node1&#45;&gt;Node2 -->
<g id="edge1" class="edge">
<title>Node1&#45;&gt;Node2</title>
<path fill="none" stroke="midnightblue" d="M95,-17.18C103.51,-18.5 112.42,-19.87 121.04,-21.21"/>
<polygon fill="midnightblue" stroke="midnightblue" points="120.56,-24.67 130.98,-22.74 121.63,-17.75 120.56,-24.67"/>
</g>
<!-- Node3 -->
<g id="node3" class="node">
<title>Node3</title>
<g id="a_node3"><a xlink:href="../../d0/d3e/pps-files_8cpp.html#a6d6a61f9f40278df5e7ba5fa5b3a9d31" target="_top" xlink:title=" ">
<polygon fill="white" stroke="red" points="250,-0.5 250,-19.5 319,-19.5 319,-0.5 250,-0.5"/>
<text text-anchor="middle" x="284.5" y="-7.5" font-family="Helvetica,sans-Serif" font-size="10.00">writeToLog</text>
</a>
</g>
</g>
<!-- Node1&#45;&gt;Node3 -->
<g id="edge3" class="edge">
<title>Node1&#45;&gt;Node3</title>
<path fill="none" stroke="midnightblue" d="M95.21,-10C137.2,-10 198.42,-10 239.54,-10"/>
<polygon fill="midnightblue" stroke="midnightblue" points="239.79,-13.5 249.79,-10 239.79,-6.5 239.79,-13.5"/>
</g>
<!-- Node2&#45;&gt;Node3 -->
<g id="edge2" class="edge">
<title>Node2&#45;&gt;Node3</title>
<path fill="none" stroke="midnightblue" d="M214.15,-21.98C222.5,-20.54 231.33,-19.01 239.79,-17.55"/>
<polygon fill="midnightblue" stroke="midnightblue" points="240.6,-20.96 249.86,-15.81 239.41,-14.06 240.6,-20.96"/>
</g>
</g>
</svg>
