<?xml version="1.0" encoding="UTF-8" standalone="no"?>
<!DOCTYPE svg PUBLIC "-//W3C//DTD SVG 1.1//EN"
 "http://www.w3.org/Graphics/SVG/1.1/DTD/svg11.dtd">
<!-- Generated by graphviz version 2.43.0 (0)
 -->
<!-- Title: processWriteRequest Pages: 1 -->
<svg width="382pt" height="142pt"
 viewBox="0.00 0.00 382.00 142.00" xmlns="http://www.w3.org/2000/svg" xmlns:xlink="http://www.w3.org/1999/xlink">
<g id="graph0" class="graph" transform="scale(1 1) rotate(0) translate(4 138)">
<title>processWriteRequest</title>
<polygon fill="white" stroke="transparent" points="-4,4 -4,-138 378,-138 378,4 -4,4"/>
<!-- Node1 -->
<g id="node1" class="node">
<title>Node1</title>
<g id="a_node1"><a xlink:title=" ">
<polygon fill="#bfbfbf" stroke="black" points="0,-57.5 0,-76.5 120,-76.5 120,-57.5 0,-57.5"/>
<text text-anchor="middle" x="60" y="-64.5" font-family="Helvetica,sans-Serif" font-size="10.00">processWriteRequest</text>
</a>
</g>
</g>
<!-- Node2 -->
<g id="node2" class="node">
<title>Node2</title>
<g id="a_node2"><a xlink:href="../../d0/d3e/pps-files_8cpp.html#a4e1eee07f00ecb77c3ae3f508744f610" target="_top" xlink:title=" ">
<polygon fill="white" stroke="red" points="162,-114.5 162,-133.5 263,-133.5 263,-114.5 162,-114.5"/>
<text text-anchor="middle" x="212.5" y="-121.5" font-family="Helvetica,sans-Serif" font-size="10.00">saveDoubleArray</text>
</a>
</g>
</g>
<!-- Node1&#45;&gt;Node2 -->
<g id="edge1" class="edge">
<title>Node1&#45;&gt;Node2</title>
<path fill="none" stroke="midnightblue" d="M86.19,-76.54C110.93,-85.91 148.89,-100.29 176.55,-110.76"/>
<polygon fill="midnightblue" stroke="midnightblue" points="175.64,-114.16 186.23,-114.43 178.12,-107.61 175.64,-114.16"/>
</g>
<!-- Node5 -->
<g id="node3" class="node">
<title>Node5</title>
<g id="a_node3"><a xlink:href="../../d0/d3e/pps-files_8cpp.html#a6d6a61f9f40278df5e7ba5fa5b3a9d31" target="_top" xlink:title=" ">
<polygon fill="white" stroke="red" points="305,-57.5 305,-76.5 374,-76.5 374,-57.5 305,-57.5"/>
<text text-anchor="middle" x="339.5" y="-64.5" font-family="Helvetica,sans-Serif" font-size="10.00">writeToLog</text>
</a>
</g>
</g>
<!-- Node1&#45;&gt;Node5 -->
<g id="edge7" class="edge">
<title>Node1&#45;&gt;Node5</title>
<path fill="none" stroke="midnightblue" d="M120.19,-67C172.43,-67 247.39,-67 294.49,-67"/>
<polygon fill="midnightblue" stroke="midnightblue" points="294.67,-70.5 304.67,-67 294.67,-63.5 294.67,-70.5"/>
</g>
<!-- Node7 -->
<g id="node4" class="node">
<title>Node7</title>
<g id="a_node4"><a xlink:href="../../d0/d3e/pps-files_8cpp.html#a493e043705885cfcebc5ac807989eb4d" target="_top" xlink:title=" ">
<polygon fill="white" stroke="red" points="156,-38.5 156,-57.5 269,-57.5 269,-38.5 156,-38.5"/>
<text text-anchor="middle" x="212.5" y="-45.5" font-family="Helvetica,sans-Serif" font-size="10.00">writeFrequencyVars</text>
</a>
</g>
</g>
<!-- Node1&#45;&gt;Node7 -->
<g id="edge3" class="edge">
<title>Node1&#45;&gt;Node7</title>
<path fill="none" stroke="midnightblue" d="M120.05,-59.55C128.36,-58.5 136.95,-57.41 145.39,-56.35"/>
<polygon fill="midnightblue" stroke="midnightblue" points="146.09,-59.79 155.57,-55.06 145.21,-52.84 146.09,-59.79"/>
</g>
<!-- Node8 -->
<g id="node5" class="node">
<title>Node8</title>
<g id="a_node5"><a xlink:href="../../d0/d3e/pps-files_8cpp.html#a73e9f77c69f58e616293b5ca5126e77f" target="_top" xlink:title=" ">
<polygon fill="white" stroke="red" points="174.5,-0.5 174.5,-19.5 250.5,-19.5 250.5,-0.5 174.5,-0.5"/>
<text text-anchor="middle" x="212.5" y="-7.5" font-family="Helvetica,sans-Serif" font-size="10.00">writeOffsets</text>
</a>
</g>
</g>
<!-- Node1&#45;&gt;Node8 -->
<g id="edge5" class="edge">
<title>Node1&#45;&gt;Node8</title>
<path fill="none" stroke="midnightblue" d="M83.91,-57.46C103.07,-49.57 131.18,-38.2 156,-29 161.51,-26.96 167.35,-24.87 173.09,-22.87"/>
<polygon fill="midnightblue" stroke="midnightblue" points="174.29,-26.16 182.6,-19.59 172,-19.54 174.29,-26.16"/>
</g>
<!-- Node2&#45;&gt;Node5 -->
<g id="edge2" class="edge">
<title>Node2&#45;&gt;Node5</title>
<path fill="none" stroke="midnightblue" d="M235.99,-114.49C246.12,-110.15 258.2,-104.9 269,-100 282.47,-93.89 297.3,-86.89 309.78,-80.91"/>
<polygon fill="midnightblue" stroke="midnightblue" points="311.32,-84.06 318.81,-76.57 308.28,-77.75 311.32,-84.06"/>
</g>
<!-- Node7&#45;&gt;Node5 -->
<g id="edge4" class="edge">
<title>Node7&#45;&gt;Node5</title>
<path fill="none" stroke="midnightblue" d="M269.05,-56.44C277.77,-57.77 286.67,-59.12 295.06,-60.4"/>
<polygon fill="midnightblue" stroke="midnightblue" points="294.58,-63.86 304.99,-61.91 295.63,-56.94 294.58,-63.86"/>
</g>
<!-- Node8&#45;&gt;Node5 -->
<g id="edge6" class="edge">
<title>Node8&#45;&gt;Node5</title>
<path fill="none" stroke="midnightblue" d="M244.39,-19.53C252.51,-22.32 261.17,-25.55 269,-29 284.39,-35.78 300.94,-44.76 314.03,-52.28"/>
<polygon fill="midnightblue" stroke="midnightblue" points="312.48,-55.43 322.88,-57.45 316.01,-49.39 312.48,-55.43"/>
</g>
</g>
</svg>
