<?xml version="1.0" encoding="UTF-8" standalone="no"?>
<!DOCTYPE svg PUBLIC "-//W3C//DTD SVG 1.1//EN"
 "http://www.w3.org/Graphics/SVG/1.1/DTD/svg11.dtd">
<!-- Generated by graphviz version 2.43.0 (0)
 -->
<!-- Title: sysCommand Pages: 1 -->
<svg width="335pt" height="294pt"
 viewBox="0.00 0.00 335.00 294.00" xmlns="http://www.w3.org/2000/svg" xmlns:xlink="http://www.w3.org/1999/xlink">
<g id="graph0" class="graph" transform="scale(1 1) rotate(0) translate(4 290)">
<title>sysCommand</title>
<polygon fill="white" stroke="transparent" points="-4,4 -4,-290 331,-290 331,4 -4,4"/>
<!-- Node1 -->
<g id="node1" class="node">
<title>Node1</title>
<g id="a_node1"><a xlink:title=" ">
<polygon fill="#bfbfbf" stroke="black" points="244,-133.5 244,-152.5 327,-152.5 327,-133.5 244,-133.5"/>
<text text-anchor="middle" x="285.5" y="-140.5" font-family="Helvetica,sans-Serif" font-size="10.00">sysCommand</text>
</a>
</g>
</g>
<!-- Node2 -->
<g id="node2" class="node">
<title>Node2</title>
<g id="a_node2"><a xlink:href="../../d0/d3e/pps-files_8cpp.html#ad4dd294e11fee1536b4589d5a899ca6e" target="_top" xlink:title=" ">
<polygon fill="white" stroke="red" points="77,-266.5 77,-285.5 208,-285.5 208,-266.5 77,-266.5"/>
<text text-anchor="middle" x="142.5" y="-273.5" font-family="Helvetica,sans-Serif" font-size="10.00">assignProcessorAffinity</text>
</a>
</g>
</g>
<!-- Node1&#45;&gt;Node2 -->
<g id="edge1" class="edge">
<title>Node1&#45;&gt;Node2</title>
<path fill="none" stroke="midnightblue" d="M276.79,-161.88C265.47,-187.27 241.95,-232.09 208,-257 202.73,-260.87 196.68,-263.95 190.44,-266.41"/>
<polygon fill="midnightblue" stroke="midnightblue" points="280.05,-163.17 280.77,-152.6 273.62,-160.41 280.05,-163.17"/>
</g>
<!-- Node7 -->
<g id="node3" class="node">
<title>Node7</title>
<g id="a_node3"><a xlink:href="../../d5/d60/pps-client_8cpp.html#a45f6556dce353a14a22a6fa6b976ebcd" target="_top" xlink:title=" ">
<polygon fill="white" stroke="red" points="100,-228.5 100,-247.5 185,-247.5 185,-228.5 100,-228.5"/>
<text text-anchor="middle" x="142.5" y="-235.5" font-family="Helvetica,sans-Serif" font-size="10.00">doTimeFixups</text>
</a>
</g>
</g>
<!-- Node1&#45;&gt;Node7 -->
<g id="edge2" class="edge">
<title>Node1&#45;&gt;Node7</title>
<path fill="none" stroke="midnightblue" d="M270.97,-160.86C257,-178.12 233.66,-203.82 208,-219 200.97,-223.16 192.96,-226.47 185.03,-229.07"/>
<polygon fill="midnightblue" stroke="midnightblue" points="273.96,-162.72 277.39,-152.7 268.46,-158.4 273.96,-162.72"/>
</g>
<!-- Node9 -->
<g id="node4" class="node">
<title>Node9</title>
<g id="a_node4"><a xlink:href="../../d0/d3e/pps-files_8cpp.html#a80576b7ed0230355826c49f761ce773f" target="_top" xlink:title=" ">
<polygon fill="white" stroke="black" points="95,-190.5 95,-209.5 190,-209.5 190,-190.5 95,-190.5"/>
<text text-anchor="middle" x="142.5" y="-197.5" font-family="Helvetica,sans-Serif" font-size="10.00">getLinuxVersion</text>
</a>
</g>
</g>
<!-- Node1&#45;&gt;Node9 -->
<g id="edge3" class="edge">
<title>Node1&#45;&gt;Node9</title>
<path fill="none" stroke="midnightblue" d="M258.35,-157.41C243.81,-165.06 225.21,-174.25 208,-181 199.09,-184.49 189.27,-187.7 180.04,-190.44"/>
<polygon fill="midnightblue" stroke="midnightblue" points="260.1,-160.44 267.27,-152.64 256.8,-154.27 260.1,-160.44"/>
</g>
<!-- Node10 -->
<g id="node5" class="node">
<title>Node10</title>
<g id="a_node5"><a xlink:href="../../dc/d4f/pps-sntp_8cpp.html#aa8aaca53b26e1cb32310370e1b18ec81" target="_top" xlink:title=" ">
<polygon fill="white" stroke="red" points="102.5,-152.5 102.5,-171.5 182.5,-171.5 182.5,-152.5 102.5,-152.5"/>
<text text-anchor="middle" x="142.5" y="-159.5" font-family="Helvetica,sans-Serif" font-size="10.00">getNISTTime</text>
</a>
</g>
</g>
<!-- Node1&#45;&gt;Node10 -->
<g id="edge4" class="edge">
<title>Node1&#45;&gt;Node10</title>
<path fill="none" stroke="midnightblue" d="M233.54,-149.87C216.8,-152.12 198.47,-154.59 182.74,-156.71"/>
<polygon fill="midnightblue" stroke="midnightblue" points="234.27,-153.3 243.72,-148.5 233.34,-146.36 234.27,-153.3"/>
</g>
<!-- Node12 -->
<g id="node6" class="node">
<title>Node12</title>
<g id="a_node6"><a xlink:href="../../d0/d3e/pps-files_8cpp.html#a4ce5021ab20b957eb5bd60c89d389685" target="_top" xlink:title=" ">
<polygon fill="white" stroke="black" points="100.5,-114.5 100.5,-133.5 184.5,-133.5 184.5,-114.5 100.5,-114.5"/>
<text text-anchor="middle" x="142.5" y="-121.5" font-family="Helvetica,sans-Serif" font-size="10.00">getRootHome</text>
</a>
</g>
</g>
<!-- Node1&#45;&gt;Node12 -->
<g id="edge5" class="edge">
<title>Node1&#45;&gt;Node12</title>
<path fill="none" stroke="midnightblue" d="M233.43,-136.12C217.41,-133.96 199.93,-131.6 184.68,-129.55"/>
<polygon fill="midnightblue" stroke="midnightblue" points="233.34,-139.64 243.72,-137.5 234.27,-132.7 233.34,-139.64"/>
</g>
<!-- Node4 -->
<g id="node7" class="node">
<title>Node4</title>
<g id="a_node7"><a xlink:href="../../d5/d60/pps-client_8cpp.html#a0ddf1224851353fc92bfbff6f499fa97" target="_top" xlink:title=" ">
<polygon fill="white" stroke="black" points="0,-76.5 0,-95.5 41,-95.5 41,-76.5 0,-76.5"/>
<text text-anchor="middle" x="20.5" y="-83.5" font-family="Helvetica,sans-Serif" font-size="10.00">main</text>
</a>
</g>
</g>
<!-- Node1&#45;&gt;Node4 -->
<g id="edge7" class="edge">
<title>Node1&#45;&gt;Node4</title>
<path fill="none" stroke="midnightblue" d="M260.47,-128.26C245.84,-120.01 226.47,-110.34 208,-105 149.06,-87.97 75.8,-85.72 41.27,-85.71"/>
<polygon fill="midnightblue" stroke="midnightblue" points="258.94,-131.42 269.35,-133.42 262.46,-125.37 258.94,-131.42"/>
</g>
<!-- Node13 -->
<g id="node8" class="node">
<title>Node13</title>
<g id="a_node8"><a xlink:href="../../d0/d3e/pps-files_8cpp.html#ac59e9111236426cdcbea6d1774ca7fea" target="_top" xlink:title=" ">
<polygon fill="white" stroke="red" points="101.5,-38.5 101.5,-57.5 183.5,-57.5 183.5,-38.5 101.5,-38.5"/>
<text text-anchor="middle" x="142.5" y="-45.5" font-family="Helvetica,sans-Serif" font-size="10.00">ppsIsRunning</text>
</a>
</g>
</g>
<!-- Node1&#45;&gt;Node13 -->
<g id="edge8" class="edge">
<title>Node1&#45;&gt;Node13</title>
<path fill="none" stroke="midnightblue" d="M269.81,-125.96C255.41,-110.15 232.17,-86.89 208,-72 198.44,-66.11 187.2,-61.31 176.81,-57.59"/>
<polygon fill="midnightblue" stroke="midnightblue" points="267.22,-128.32 276.49,-133.46 272.45,-123.66 267.22,-128.32"/>
</g>
<!-- Node6 -->
<g id="node9" class="node">
<title>Node6</title>
<g id="a_node9"><a xlink:href="../../d5/d60/pps-client_8cpp.html#a22519b13ce414a4bf003faf65bd68144" target="_top" xlink:title=" ">
<polygon fill="white" stroke="black" points="107,-0.5 107,-19.5 178,-19.5 178,-0.5 107,-0.5"/>
<text text-anchor="middle" x="142.5" y="-7.5" font-family="Helvetica,sans-Serif" font-size="10.00">waitForPPS</text>
</a>
</g>
</g>
<!-- Node1&#45;&gt;Node6 -->
<g id="edge9" class="edge">
<title>Node1&#45;&gt;Node6</title>
<path fill="none" stroke="midnightblue" d="M276.79,-124.12C265.47,-98.73 241.95,-53.91 208,-29 199.25,-22.58 188.34,-18.31 178,-15.49"/>
<polygon fill="midnightblue" stroke="midnightblue" points="273.62,-125.59 280.77,-133.4 280.05,-122.83 273.62,-125.59"/>
</g>
<!-- Node12&#45;&gt;Node4 -->
<g id="edge6" class="edge">
<title>Node12&#45;&gt;Node4</title>
<path fill="none" stroke="midnightblue" d="M101.59,-111.36C81.31,-104.94 57.57,-97.42 41.23,-92.25"/>
<polygon fill="midnightblue" stroke="midnightblue" points="100.63,-114.73 111.22,-114.41 102.74,-108.06 100.63,-114.73"/>
</g>
<!-- Node6&#45;&gt;Node4 -->
<g id="edge10" class="edge">
<title>Node6&#45;&gt;Node4</title>
<path fill="none" stroke="midnightblue" d="M97.39,-19.69C90.3,-22.17 83.25,-25.23 77,-29 56.18,-41.55 37.76,-63.79 28.27,-76.46"/>
<polygon fill="midnightblue" stroke="midnightblue" points="98.51,-23.01 106.99,-16.67 96.4,-16.33 98.51,-23.01"/>
</g>
</g>
</svg>
