<?xml version="1.0" encoding="UTF-8" standalone="no"?>
<!DOCTYPE svg PUBLIC "-//W3C//DTD SVG 1.1//EN"
 "http://www.w3.org/Graphics/SVG/1.1/DTD/svg11.dtd">
<!-- Generated by graphviz version 2.43.0 (0)
 -->
<!-- Title: bufferStatusMsg Pages: 1 -->
<svg width="416pt" height="180pt"
 viewBox="0.00 0.00 416.00 180.00" xmlns="http://www.w3.org/2000/svg" xmlns:xlink="http://www.w3.org/1999/xlink">
<g id="graph0" class="graph" transform="scale(1 1) rotate(0) translate(4 176)">
<title>bufferStatusMsg</title>
<polygon fill="white" stroke="transparent" points="-4,4 -4,-176 412,-176 412,4 -4,4"/>
<!-- Node1 -->
<g id="node1" class="node">
<title>Node1</title>
<g id="a_node1"><a xlink:title=" ">
<polygon fill="#bfbfbf" stroke="black" points="312,-76.5 312,-95.5 408,-95.5 408,-76.5 312,-76.5"/>
<text text-anchor="middle" x="360" y="-83.5" font-family="Helvetica,sans-Serif" font-size="10.00">bufferStatusMsg</text>
</a>
</g>
</g>
<!-- Node2 -->
<g id="node2" class="node">
<title>Node2</title>
<g id="a_node2"><a xlink:href="../../d0/d3e/pps-files_8cpp.html#a99055dd0dc705a74bb0b3ab03fea92e3" target="_top" xlink:title=" ">
<polygon fill="white" stroke="red" points="153.5,-152.5 153.5,-171.5 260.5,-171.5 260.5,-152.5 153.5,-152.5"/>
<text text-anchor="middle" x="207" y="-159.5" font-family="Helvetica,sans-Serif" font-size="10.00">bufferStateParams</text>
</a>
</g>
</g>
<!-- Node1&#45;&gt;Node2 -->
<g id="edge1" class="edge">
<title>Node1&#45;&gt;Node2</title>
<path fill="none" stroke="midnightblue" d="M337.42,-101.37C321.1,-112.53 297.84,-127.46 276,-138 264.5,-143.55 251.37,-148.49 239.73,-152.42"/>
<polygon fill="midnightblue" stroke="midnightblue" points="339.51,-104.19 345.73,-95.61 335.51,-98.43 339.51,-104.19"/>
</g>
<!-- Node4 -->
<g id="node3" class="node">
<title>Node4</title>
<g id="a_node3"><a xlink:href="../../d5/d60/pps-client_8cpp.html#a0ddf1224851353fc92bfbff6f499fa97" target="_top" xlink:title=" ">
<polygon fill="white" stroke="black" points="30.5,-95.5 30.5,-114.5 71.5,-114.5 71.5,-95.5 30.5,-95.5"/>
<text text-anchor="middle" x="51" y="-102.5" font-family="Helvetica,sans-Serif" font-size="10.00">main</text>
</a>
</g>
</g>
<!-- Node1&#45;&gt;Node4 -->
<g id="edge2" class="edge">
<title>Node1&#45;&gt;Node4</title>
<path fill="none" stroke="midnightblue" d="M315.54,-97.88C302.89,-100.81 288.98,-103.53 276,-105 200.84,-113.49 110.59,-109.08 71.56,-106.47"/>
<polygon fill="midnightblue" stroke="midnightblue" points="316.48,-101.26 325.38,-95.51 314.83,-94.45 316.48,-101.26"/>
</g>
<!-- Node5 -->
<g id="node4" class="node">
<title>Node5</title>
<g id="a_node4"><a xlink:href="../../d5/d60/pps-client_8cpp.html#a0010a2340006cbbcd5a4588b587a59c7" target="_top" xlink:title=" ">
<polygon fill="white" stroke="red" points="0,-57.5 0,-76.5 102,-76.5 102,-57.5 0,-57.5"/>
<text text-anchor="middle" x="51" y="-64.5" font-family="Helvetica,sans-Serif" font-size="10.00">readPPS_SetTime</text>
</a>
</g>
</g>
<!-- Node1&#45;&gt;Node5 -->
<g id="edge3" class="edge">
<title>Node1&#45;&gt;Node5</title>
<path fill="none" stroke="midnightblue" d="M315.54,-74.12C302.89,-71.19 288.98,-68.47 276,-67 216.49,-60.28 147.52,-61.64 102,-63.8"/>
<polygon fill="midnightblue" stroke="midnightblue" points="314.83,-77.55 325.38,-76.49 316.48,-70.74 314.83,-77.55"/>
</g>
<!-- Node6 -->
<g id="node5" class="node">
<title>Node6</title>
<g id="a_node5"><a xlink:href="../../d0/d3e/pps-files_8cpp.html#a6d6a61f9f40278df5e7ba5fa5b3a9d31" target="_top" xlink:title=" ">
<polygon fill="white" stroke="red" points="172.5,-76.5 172.5,-95.5 241.5,-95.5 241.5,-76.5 172.5,-76.5"/>
<text text-anchor="middle" x="207" y="-83.5" font-family="Helvetica,sans-Serif" font-size="10.00">writeToLog</text>
</a>
</g>
</g>
<!-- Node1&#45;&gt;Node6 -->
<g id="edge4" class="edge">
<title>Node1&#45;&gt;Node6</title>
<path fill="none" stroke="midnightblue" d="M301.59,-86C281.41,-86 259.39,-86 241.79,-86"/>
<polygon fill="midnightblue" stroke="midnightblue" points="301.64,-89.5 311.64,-86 301.64,-82.5 301.64,-89.5"/>
</g>
<!-- Node52 -->
<g id="node6" class="node">
<title>Node52</title>
<g id="a_node6"><a xlink:href="../../d0/d3e/pps-files_8cpp.html#a01969eeb557969d5dbd30f22e2cdecc3" target="_top" xlink:title=" ">
<polygon fill="white" stroke="red" points="138,-0.5 138,-19.5 276,-19.5 276,-0.5 138,-0.5"/>
<text text-anchor="middle" x="207" y="-7.5" font-family="Helvetica,sans-Serif" font-size="10.00">writeToLogNoTimestamp</text>
</a>
</g>
</g>
<!-- Node1&#45;&gt;Node52 -->
<g id="edge7" class="edge">
<title>Node1&#45;&gt;Node52</title>
<path fill="none" stroke="midnightblue" d="M337.42,-70.63C321.1,-59.47 297.84,-44.54 276,-34 264.5,-28.45 251.37,-23.51 239.73,-19.58"/>
<polygon fill="midnightblue" stroke="midnightblue" points="335.51,-73.57 345.73,-76.39 339.51,-67.81 335.51,-73.57"/>
</g>
<!-- Node6&#45;&gt;Node4 -->
<g id="edge5" class="edge">
<title>Node6&#45;&gt;Node4</title>
<path fill="none" stroke="midnightblue" d="M162.04,-91.42C132.23,-95.1 94.26,-99.79 71.61,-102.58"/>
<polygon fill="midnightblue" stroke="midnightblue" points="162.71,-94.87 172.2,-90.17 161.85,-87.92 162.71,-94.87"/>
</g>
<!-- Node6&#45;&gt;Node5 -->
<g id="edge6" class="edge">
<title>Node6&#45;&gt;Node5</title>
<path fill="none" stroke="midnightblue" d="M162.17,-80.59C143.44,-78.28 121.47,-75.57 102.1,-73.18"/>
<polygon fill="midnightblue" stroke="midnightblue" points="161.85,-84.08 172.2,-81.83 162.71,-77.13 161.85,-84.08"/>
</g>
</g>
</svg>
