<?xml version="1.0" encoding="UTF-8" standalone="no"?>
<!DOCTYPE svg PUBLIC "-//W3C//DTD SVG 1.1//EN"
 "http://www.w3.org/Graphics/SVG/1.1/DTD/svg11.dtd">
<!-- Generated by graphviz version 2.43.0 (0)
 -->
<!-- Title: writeToLogNoTimestamp Pages: 1 -->
<svg width="298pt" height="66pt"
 viewBox="0.00 0.00 298.00 66.00" xmlns="http://www.w3.org/2000/svg" xmlns:xlink="http://www.w3.org/1999/xlink">
<g id="graph0" class="graph" transform="scale(1 1) rotate(0) translate(4 62)">
<title>writeToLogNoTimestamp</title>
<polygon fill="white" stroke="transparent" points="-4,4 -4,-62 294,-62 294,4 -4,4"/>
<!-- Node1 -->
<g id="node1" class="node">
<title>Node1</title>
<g id="a_node1"><a xlink:title=" ">
<polygon fill="#bfbfbf" stroke="black" points="0,-19.5 0,-38.5 138,-38.5 138,-19.5 0,-19.5"/>
<text text-anchor="middle" x="69" y="-26.5" font-family="Helvetica,sans-Serif" font-size="10.00">writeToLogNoTimestamp</text>
</a>
</g>
</g>
<!-- Node2 -->
<g id="node2" class="node">
<title>Node2</title>
<g id="a_node2"><a xlink:href="../../d0/d3e/pps-files_8cpp.html#a6f609d689ebe787455ce220808ca3ba0" target="_top" xlink:title=" ">
<polygon fill="white" stroke="black" points="184,-38.5 184,-57.5 280,-57.5 280,-38.5 184,-38.5"/>
<text text-anchor="middle" x="232" y="-45.5" font-family="Helvetica,sans-Serif" font-size="10.00">bufferStatusMsg</text>
</a>
</g>
</g>
<!-- Node1&#45;&gt;Node2 -->
<g id="edge1" class="edge">
<title>Node1&#45;&gt;Node2</title>
<path fill="none" stroke="midnightblue" d="M138.28,-37.06C149.96,-38.44 161.99,-39.86 173.36,-41.2"/>
<polygon fill="midnightblue" stroke="midnightblue" points="173.24,-44.71 183.58,-42.4 174.06,-37.76 173.24,-44.71"/>
</g>
<!-- Node3 -->
<g id="node3" class="node">
<title>Node3</title>
<g id="a_node3"><a xlink:href="../../d0/d3e/pps-files_8cpp.html#ad570812a8fdee3634bc2488c34883d48" target="_top" xlink:title=" ">
<polygon fill="white" stroke="black" points="174,-0.5 174,-19.5 290,-19.5 290,-0.5 174,-0.5"/>
<text text-anchor="middle" x="232" y="-7.5" font-family="Helvetica,sans-Serif" font-size="10.00">couldNotOpenMsgTo</text>
</a>
</g>
</g>
<!-- Node1&#45;&gt;Node3 -->
<g id="edge2" class="edge">
<title>Node1&#45;&gt;Node3</title>
<path fill="none" stroke="midnightblue" d="M138.28,-20.94C146.69,-19.95 155.28,-18.94 163.67,-17.95"/>
<polygon fill="midnightblue" stroke="midnightblue" points="164.27,-21.4 173.79,-16.75 163.45,-14.45 164.27,-21.4"/>
</g>
</g>
</svg>
