<?xml version="1.0" encoding="UTF-8" standalone="no"?>
<!DOCTYPE svg PUBLIC "-//W3C//DTD SVG 1.1//EN"
 "http://www.w3.org/Graphics/SVG/1.1/DTD/svg11.dtd">
<!-- Generated by graphviz version 2.40.1 (20161225.0304)
 -->
<!-- Title: hasString Pages: 1 -->
<svg width="164pt" height="66pt"
 viewBox="0.00 0.00 164.00 66.00" xmlns="http://www.w3.org/2000/svg" xmlns:xlink="http://www.w3.org/1999/xlink">
<g id="graph0" class="graph" transform="scale(1 1) rotate(0) translate(4 62)">
<title>hasString</title>
<polygon fill="#ffffff" stroke="transparent" points="-4,4 -4,-62 160,-62 160,4 -4,4"/>
<!-- Node1 -->
<g id="node1" class="node">
<title>Node1</title>
<g id="a_node1"><a xlink:title=" ">
<polygon fill="#bfbfbf" stroke="#000000" points="98,-19.5 98,-38.5 156,-38.5 156,-19.5 98,-19.5"/>
<text text-anchor="middle" x="127" y="-26.5" font-family="Helvetica,sans-Serif" font-size="10.00" fill="#000000">hasString</text>
</a>
</g>
</g>
<!-- Node2 -->
<g id="node2" class="node">
<title>Node2</title>
<g id="a_node2"><a xlink:href="../../d0/d3e/pps-files_8cpp.html#a2a2f0cb3677098122f66c3aee0b97dad" target="_top" xlink:title=" ">
<polygon fill="#ffffff" stroke="#ff0000" points="0,-38.5 0,-57.5 62,-57.5 62,-38.5 0,-38.5"/>
<text text-anchor="middle" x="31" y="-45.5" font-family="Helvetica,sans-Serif" font-size="10.00" fill="#000000">isDisabled</text>
</a>
</g>
</g>
<!-- Node1&#45;&gt;Node2 -->
<g id="edge1" class="edge">
<title>Node1&#45;&gt;Node2</title>
<path fill="none" stroke="#191970" d="M88.1137,-36.6962C79.5295,-38.3952 70.5416,-40.1741 62.3032,-41.8046"/>
<polygon fill="#191970" stroke="#191970" points="88.8062,-40.1272 97.9363,-34.7522 87.447,-33.2604 88.8062,-40.1272"/>
</g>
<!-- Node10 -->
<g id="node3" class="node">
<title>Node10</title>
<g id="a_node3"><a xlink:href="../../d0/d3e/pps-files_8cpp.html#ae1ed7854dcdca9d0cd8368693da83102" target="_top" xlink:title=" ">
<polygon fill="#ffffff" stroke="#ff0000" points="1.5,-.5 1.5,-19.5 60.5,-19.5 60.5,-.5 1.5,-.5"/>
<text text-anchor="middle" x="31" y="-7.5" font-family="Helvetica,sans-Serif" font-size="10.00" fill="#000000">isEnabled</text>
</a>
</g>
</g>
<!-- Node1&#45;&gt;Node10 -->
<g id="edge2" class="edge">
<title>Node1&#45;&gt;Node10</title>
<path fill="none" stroke="#191970" d="M87.9133,-21.2641C78.8039,-19.4612 69.2505,-17.5704 60.6285,-15.864"/>
<polygon fill="#191970" stroke="#191970" points="87.447,-24.7396 97.9363,-23.2478 88.8061,-17.8728 87.447,-24.7396"/>
</g>
</g>
</svg>
