<?xml version="1.0" encoding="UTF-8" standalone="no"?>
<!DOCTYPE svg PUBLIC "-//W3C//DTD SVG 1.1//EN"
 "http://www.w3.org/Graphics/SVG/1.1/DTD/svg11.dtd">
<!-- Generated by graphviz version 2.40.1 (20161225.0304)
 -->
<!-- Title: writeDistribution Pages: 1 -->
<svg width="235pt" height="66pt"
 viewBox="0.00 0.00 235.00 66.00" xmlns="http://www.w3.org/2000/svg" xmlns:xlink="http://www.w3.org/1999/xlink">
<g id="graph0" class="graph" transform="scale(1 1) rotate(0) translate(4 62)">
<title>writeDistribution</title>
<polygon fill="#ffffff" stroke="transparent" points="-4,4 -4,-62 231,-62 231,4 -4,4"/>
<!-- Node1 -->
<g id="node1" class="node">
<title>Node1</title>
<g id="a_node1"><a xlink:title=" ">
<polygon fill="#bfbfbf" stroke="#000000" points="140,-19.5 140,-38.5 227,-38.5 227,-19.5 140,-19.5"/>
<text text-anchor="middle" x="183.5" y="-26.5" font-family="Helvetica,sans-Serif" font-size="10.00" fill="#000000">writeDistribution</text>
</a>
</g>
</g>
<!-- Node2 -->
<g id="node2" class="node">
<title>Node2</title>
<g id="a_node2"><a xlink:href="../../d0/d3e/pps-files_8cpp.html#a82b5d210a2a50fc93755e34d3016247e" target="_top" xlink:title=" ">
<polygon fill="#ffffff" stroke="#ff0000" points=".5,-38.5 .5,-57.5 103.5,-57.5 103.5,-38.5 .5,-38.5"/>
<text text-anchor="middle" x="52" y="-45.5" font-family="Helvetica,sans-Serif" font-size="10.00" fill="#000000">writeErrorDistribFile</text>
</a>
</g>
</g>
<!-- Node1&#45;&gt;Node2 -->
<g id="edge1" class="edge">
<title>Node1&#45;&gt;Node2</title>
<path fill="none" stroke="#191970" d="M129.8004,-36.7589C121.2146,-37.9994 112.3448,-39.281 103.8042,-40.515"/>
<polygon fill="#191970" stroke="#191970" points="130.3157,-40.2209 139.7124,-35.3267 129.3146,-33.2928 130.3157,-40.2209"/>
</g>
<!-- Node8 -->
<g id="node3" class="node">
<title>Node8</title>
<g id="a_node3"><a xlink:href="../../d0/d3e/pps-files_8cpp.html#a376e9b76d9e9b1caf06ae3bd8c969f46" target="_top" xlink:title=" ">
<polygon fill="#ffffff" stroke="#ff0000" points="0,-.5 0,-19.5 104,-19.5 104,-.5 0,-.5"/>
<text text-anchor="middle" x="52" y="-7.5" font-family="Helvetica,sans-Serif" font-size="10.00" fill="#000000">writeJitterDistribFile</text>
</a>
</g>
</g>
<!-- Node1&#45;&gt;Node8 -->
<g id="edge2" class="edge">
<title>Node1&#45;&gt;Node8</title>
<path fill="none" stroke="#191970" d="M129.655,-21.2201C121.2696,-20.0085 112.617,-18.7583 104.2674,-17.5519"/>
<polygon fill="#191970" stroke="#191970" points="129.3146,-24.7072 139.7124,-22.6733 130.3157,-17.7791 129.3146,-24.7072"/>
</g>
</g>
</svg>
