<?xml version="1.0" encoding="UTF-8" standalone="no"?>
<!DOCTYPE svg PUBLIC "-//W3C//DTD SVG 1.1//EN"
 "http://www.w3.org/Graphics/SVG/1.1/DTD/svg11.dtd">
<!-- Generated by graphviz version 2.40.1 (20161225.0304)
 -->
<!-- Title: bufferStateParams Pages: 1 -->
<svg width="240pt" height="104pt"
 viewBox="0.00 0.00 240.00 104.00" xmlns="http://www.w3.org/2000/svg" xmlns:xlink="http://www.w3.org/1999/xlink">
<g id="graph0" class="graph" transform="scale(1 1) rotate(0) translate(4 100)">
<title>bufferStateParams</title>
<polygon fill="#ffffff" stroke="transparent" points="-4,4 -4,-100 236,-100 236,4 -4,4"/>
<!-- Node1 -->
<g id="node1" class="node">
<title>Node1</title>
<g id="a_node1"><a xlink:title=" ">
<polygon fill="#bfbfbf" stroke="#000000" points="0,-38.5 0,-57.5 98,-57.5 98,-38.5 0,-38.5"/>
<text text-anchor="middle" x="49" y="-45.5" font-family="Helvetica,sans-Serif" font-size="10.00" fill="#000000">bufferStateParams</text>
</a>
</g>
</g>
<!-- Node2 -->
<g id="node2" class="node">
<title>Node2</title>
<g id="a_node2"><a xlink:href="../../d0/d3e/pps-files_8cpp.html#ad046d9f994e8b0cb8dae1a628c405393" target="_top" xlink:title=" ">
<polygon fill="#ffffff" stroke="#ff0000" points="134,-76.5 134,-95.5 232,-95.5 232,-76.5 134,-76.5"/>
<text text-anchor="middle" x="183" y="-83.5" font-family="Helvetica,sans-Serif" font-size="10.00" fill="#000000">alignNumbersAfter</text>
</a>
</g>
</g>
<!-- Node1&#45;&gt;Node2 -->
<g id="edge1" class="edge">
<title>Node1&#45;&gt;Node2</title>
<path fill="none" stroke="#191970" d="M82.8139,-57.589C100.0326,-62.4719 121.1637,-68.4643 139.5733,-73.685"/>
<polygon fill="#191970" stroke="#191970" points="138.6214,-77.053 149.197,-76.4141 140.5312,-70.3185 138.6214,-77.053"/>
</g>
<!-- Node6 -->
<g id="node3" class="node">
<title>Node6</title>
<g id="a_node3"><a xlink:href="../../d0/d3e/pps-files_8cpp.html#a6bcf95536c2895ba1756f092de49baa3" target="_top" xlink:title=" ">
<polygon fill="#ffffff" stroke="#ff0000" points="148.5,-38.5 148.5,-57.5 217.5,-57.5 217.5,-38.5 148.5,-38.5"/>
<text text-anchor="middle" x="183" y="-45.5" font-family="Helvetica,sans-Serif" font-size="10.00" fill="#000000">alignTokens</text>
</a>
</g>
</g>
<!-- Node1&#45;&gt;Node6 -->
<g id="edge2" class="edge">
<title>Node1&#45;&gt;Node6</title>
<path fill="none" stroke="#191970" d="M98.1358,-48C111.0906,-48 125.0067,-48 137.7462,-48"/>
<polygon fill="#191970" stroke="#191970" points="138.1238,-51.5001 148.1238,-48 138.1237,-44.5001 138.1238,-51.5001"/>
</g>
<!-- Node4 -->
<g id="node4" class="node">
<title>Node4</title>
<g id="a_node4"><a xlink:href="../../d0/d3e/pps-files_8cpp.html#a6f609d689ebe787455ce220808ca3ba0" target="_top" xlink:title=" ">
<polygon fill="#ffffff" stroke="#000000" points="138.5,-.5 138.5,-19.5 227.5,-19.5 227.5,-.5 138.5,-.5"/>
<text text-anchor="middle" x="183" y="-7.5" font-family="Helvetica,sans-Serif" font-size="10.00" fill="#000000">bufferStatusMsg</text>
</a>
</g>
</g>
<!-- Node1&#45;&gt;Node4 -->
<g id="edge3" class="edge">
<title>Node1&#45;&gt;Node4</title>
<path fill="none" stroke="#191970" d="M82.8139,-38.411C100.0326,-33.5281 121.1637,-27.5357 139.5733,-22.315"/>
<polygon fill="#191970" stroke="#191970" points="140.5312,-25.6815 149.197,-19.5859 138.6214,-18.947 140.5312,-25.6815"/>
</g>
</g>
</svg>
