<?xml version="1.0" encoding="UTF-8" standalone="no"?>
<!DOCTYPE svg PUBLIC "-//W3C//DTD SVG 1.1//EN"
 "http://www.w3.org/Graphics/SVG/1.1/DTD/svg11.dtd">
<!-- Generated by graphviz version 2.43.0 (0)
 -->
<!-- Title: saveDoubleArray Pages: 1 -->
<svg width="324pt" height="47pt"
 viewBox="0.00 0.00 324.00 47.00" xmlns="http://www.w3.org/2000/svg" xmlns:xlink="http://www.w3.org/1999/xlink">
<g id="graph0" class="graph" transform="scale(1 1) rotate(0) translate(4 43)">
<title>saveDoubleArray</title>
<polygon fill="white" stroke="transparent" points="-4,4 -4,-43 320,-43 320,4 -4,4"/>
<!-- Node1 -->
<g id="node1" class="node">
<title>Node1</title>
<g id="a_node1"><a xlink:title=" ">
<polygon fill="#bfbfbf" stroke="black" points="0,-0.5 0,-19.5 101,-19.5 101,-0.5 0,-0.5"/>
<text text-anchor="middle" x="50.5" y="-7.5" font-family="Helvetica,sans-Serif" font-size="10.00">saveDoubleArray</text>
</a>
</g>
</g>
<!-- Node2 -->
<g id="node2" class="node">
<title>Node2</title>
<g id="a_node2"><a xlink:href="../../d0/d3e/pps-files_8cpp.html#a44d1b7b3f8e3181274fae172922847b6" target="_top" xlink:title=" ">
<polygon fill="white" stroke="red" points="137,-19.5 137,-38.5 211,-38.5 211,-19.5 137,-19.5"/>
<text text-anchor="middle" x="174" y="-26.5" font-family="Helvetica,sans-Serif" font-size="10.00">open_logerr</text>
</a>
</g>
</g>
<!-- Node1&#45;&gt;Node2 -->
<g id="edge1" class="edge">
<title>Node1&#45;&gt;Node2</title>
<path fill="none" stroke="midnightblue" d="M101.27,-17.78C109.75,-19.11 118.52,-20.48 126.9,-21.79"/>
<polygon fill="midnightblue" stroke="midnightblue" points="126.46,-25.26 136.88,-23.35 127.54,-18.35 126.46,-25.26"/>
</g>
<!-- Node4 -->
<g id="node3" class="node">
<title>Node4</title>
<g id="a_node3"><a xlink:href="../../d0/d3e/pps-files_8cpp.html#a6d6a61f9f40278df5e7ba5fa5b3a9d31" target="_top" xlink:title=" ">
<polygon fill="white" stroke="red" points="247,-0.5 247,-19.5 316,-19.5 316,-0.5 247,-0.5"/>
<text text-anchor="middle" x="281.5" y="-7.5" font-family="Helvetica,sans-Serif" font-size="10.00">writeToLog</text>
</a>
</g>
</g>
<!-- Node1&#45;&gt;Node4 -->
<g id="edge3" class="edge">
<title>Node1&#45;&gt;Node4</title>
<path fill="none" stroke="midnightblue" d="M101.19,-10C141.47,-10 197.71,-10 236.41,-10"/>
<polygon fill="midnightblue" stroke="midnightblue" points="236.83,-13.5 246.83,-10 236.83,-6.5 236.83,-13.5"/>
</g>
<!-- Node2&#45;&gt;Node4 -->
<g id="edge2" class="edge">
<title>Node2&#45;&gt;Node4</title>
<path fill="none" stroke="midnightblue" d="M211.01,-22.51C219.34,-21.02 228.28,-19.4 236.89,-17.85"/>
<polygon fill="midnightblue" stroke="midnightblue" points="237.56,-21.29 246.78,-16.07 236.32,-14.4 237.56,-21.29"/>
</g>
</g>
</svg>
