<?xml version="1.0" encoding="UTF-8" standalone="no"?>
<!DOCTYPE svg PUBLIC "-//W3C//DTD SVG 1.1//EN"
 "http://www.w3.org/Graphics/SVG/1.1/DTD/svg11.dtd">
<!-- Generated by graphviz version 2.40.1 (20161225.0304)
 -->
<!-- Title: getSharedConfigs Pages: 1 -->
<svg width="219pt" height="142pt"
 viewBox="0.00 0.00 219.00 142.00" xmlns="http://www.w3.org/2000/svg" xmlns:xlink="http://www.w3.org/1999/xlink">
<g id="graph0" class="graph" transform="scale(1 1) rotate(0) translate(4 138)">
<title>getSharedConfigs</title>
<polygon fill="#ffffff" stroke="transparent" points="-4,4 -4,-138 215,-138 215,4 -4,4"/>
<!-- Node1 -->
<g id="node1" class="node">
<title>Node1</title>
<g id="a_node1"><a xlink:title=" ">
<polygon fill="#bfbfbf" stroke="#000000" points="0,-57.5 0,-76.5 95,-76.5 95,-57.5 0,-57.5"/>
<text text-anchor="middle" x="47.5" y="-64.5" font-family="Helvetica,sans-Serif" font-size="10.00" fill="#000000">getSharedConfigs</text>
</a>
</g>
</g>
<!-- Node2 -->
<g id="node2" class="node">
<title>Node2</title>
<g id="a_node2"><a xlink:href="../../d0/d3e/pps-files_8cpp.html#aa561b252a1493fe975df246f58e4687b" target="_top" xlink:title=" ">
<polygon fill="#ffffff" stroke="#000000" points="143,-114.5 143,-133.5 199,-133.5 199,-114.5 143,-114.5"/>
<text text-anchor="middle" x="171" y="-121.5" font-family="Helvetica,sans-Serif" font-size="10.00" fill="#000000">getString</text>
</a>
</g>
</g>
<!-- Node1&#45;&gt;Node2 -->
<g id="edge1" class="edge">
<title>Node1&#45;&gt;Node2</title>
<path fill="none" stroke="#191970" d="M68.1711,-76.5405C88.1188,-85.7472 118.5336,-99.7847 141.1161,-110.2074"/>
<polygon fill="#191970" stroke="#191970" points="139.7151,-113.4156 150.2614,-114.4284 142.6486,-107.0599 139.7151,-113.4156"/>
</g>
<!-- Node3 -->
<g id="node3" class="node">
<title>Node3</title>
<g id="a_node3"><a xlink:href="../../d0/d3e/pps-files_8cpp.html#a2a2f0cb3677098122f66c3aee0b97dad" target="_top" xlink:title=" ">
<polygon fill="#ffffff" stroke="#ff0000" points="140,-76.5 140,-95.5 202,-95.5 202,-76.5 140,-76.5"/>
<text text-anchor="middle" x="171" y="-83.5" font-family="Helvetica,sans-Serif" font-size="10.00" fill="#000000">isDisabled</text>
</a>
</g>
</g>
<!-- Node1&#45;&gt;Node3 -->
<g id="edge2" class="edge">
<title>Node1&#45;&gt;Node3</title>
<path fill="none" stroke="#191970" d="M95.2483,-74.3459C106.5646,-76.0869 118.5432,-77.9297 129.5529,-79.6235"/>
<polygon fill="#191970" stroke="#191970" points="129.3425,-83.1323 139.7584,-81.1936 130.4069,-76.2136 129.3425,-83.1323"/>
</g>
<!-- Node5 -->
<g id="node4" class="node">
<title>Node5</title>
<g id="a_node4"><a xlink:href="../../d0/d3e/pps-files_8cpp.html#ae1ed7854dcdca9d0cd8368693da83102" target="_top" xlink:title=" ">
<polygon fill="#ffffff" stroke="#ff0000" points="141.5,-38.5 141.5,-57.5 200.5,-57.5 200.5,-38.5 141.5,-38.5"/>
<text text-anchor="middle" x="171" y="-45.5" font-family="Helvetica,sans-Serif" font-size="10.00" fill="#000000">isEnabled</text>
</a>
</g>
</g>
<!-- Node1&#45;&gt;Node5 -->
<g id="edge3" class="edge">
<title>Node1&#45;&gt;Node5</title>
<path fill="none" stroke="#191970" d="M95.2483,-59.6541C107.0971,-57.8312 119.6718,-55.8966 131.1002,-54.1384"/>
<polygon fill="#191970" stroke="#191970" points="131.8682,-57.5615 141.2197,-52.5816 130.8038,-50.6429 131.8682,-57.5615"/>
</g>
<!-- Node6 -->
<g id="node5" class="node">
<title>Node6</title>
<g id="a_node5"><a xlink:href="../../d0/d3e/pps-files_8cpp.html#ab54f3174d0d64527d7cf57100ce6ef2e" target="_top" xlink:title=" ">
<polygon fill="#ffffff" stroke="#000000" points="131,-.5 131,-19.5 211,-19.5 211,-.5 131,-.5"/>
<text text-anchor="middle" x="171" y="-7.5" font-family="Helvetica,sans-Serif" font-size="10.00" fill="#000000">readConfigFile</text>
</a>
</g>
</g>
<!-- Node1&#45;&gt;Node6 -->
<g id="edge4" class="edge">
<title>Node1&#45;&gt;Node6</title>
<path fill="none" stroke="#191970" d="M68.1711,-57.4595C88.1188,-48.2528 118.5336,-34.2153 141.1161,-23.7926"/>
<polygon fill="#191970" stroke="#191970" points="142.6486,-26.9401 150.2614,-19.5716 139.7151,-20.5844 142.6486,-26.9401"/>
</g>
</g>
</svg>
