<?xml version="1.0" encoding="UTF-8" standalone="no"?>
<!DOCTYPE svg PUBLIC "-//W3C//DTD SVG 1.1//EN"
 "http://www.w3.org/Graphics/SVG/1.1/DTD/svg11.dtd">
<!-- Generated by graphviz version 2.40.1 (20161225.0304)
 -->
<!-- Title: read_logerr Pages: 1 -->
<svg width="211pt" height="66pt"
 viewBox="0.00 0.00 211.00 66.00" xmlns="http://www.w3.org/2000/svg" xmlns:xlink="http://www.w3.org/1999/xlink">
<g id="graph0" class="graph" transform="scale(1 1) rotate(0) translate(4 62)">
<title>read_logerr</title>
<polygon fill="#ffffff" stroke="transparent" points="-4,4 -4,-62 207,-62 207,4 -4,4"/>
<!-- Node1 -->
<g id="node1" class="node">
<title>Node1</title>
<g id="a_node1"><a xlink:title=" ">
<polygon fill="#bfbfbf" stroke="#000000" points="0,-19.5 0,-38.5 65,-38.5 65,-19.5 0,-19.5"/>
<text text-anchor="middle" x="32.5" y="-26.5" font-family="Helvetica,sans-Serif" font-size="10.00" fill="#000000">read_logerr</text>
</a>
</g>
</g>
<!-- Node2 -->
<g id="node2" class="node">
<title>Node2</title>
<g id="a_node2"><a xlink:href="../../d0/d3e/pps-files_8cpp.html#a49b2919c3b9a1fcebb7da7db39ee127b" target="_top" xlink:title=" ">
<polygon fill="#ffffff" stroke="#000000" points="101,-38.5 101,-57.5 203,-57.5 203,-38.5 101,-38.5"/>
<text text-anchor="middle" x="152" y="-45.5" font-family="Helvetica,sans-Serif" font-size="10.00" fill="#000000">errorReadingMsgTo</text>
</a>
</g>
</g>
<!-- Node1&#45;&gt;Node2 -->
<g id="edge1" class="edge">
<title>Node1&#45;&gt;Node2</title>
<path fill="none" stroke="#191970" d="M65.1539,-34.1918C73.1874,-35.4691 82.0499,-36.8782 90.9509,-38.2934"/>
<polygon fill="#191970" stroke="#191970" points="90.5491,-41.7734 100.9746,-39.8872 91.6483,-34.8603 90.5491,-41.7734"/>
</g>
<!-- Node3 -->
<g id="node3" class="node">
<title>Node3</title>
<g id="a_node3"><a xlink:href="../../d0/d3e/pps-files_8cpp.html#a6d6a61f9f40278df5e7ba5fa5b3a9d31" target="_top" xlink:title=" ">
<polygon fill="#ffffff" stroke="#ff0000" points="119.5,-.5 119.5,-19.5 184.5,-19.5 184.5,-.5 119.5,-.5"/>
<text text-anchor="middle" x="152" y="-7.5" font-family="Helvetica,sans-Serif" font-size="10.00" fill="#000000">writeToLog</text>
</a>
</g>
</g>
<!-- Node1&#45;&gt;Node3 -->
<g id="edge2" class="edge">
<title>Node1&#45;&gt;Node3</title>
<path fill="none" stroke="#191970" d="M65.1539,-23.8082C78.7222,-21.6509 94.6557,-19.1175 109.1449,-16.8138"/>
<polygon fill="#191970" stroke="#191970" points="110.0592,-20.2125 119.3856,-15.1856 108.96,-13.2993 110.0592,-20.2125"/>
</g>
</g>
</svg>
