<?xml version="1.0" encoding="UTF-8" standalone="no"?>
<!DOCTYPE svg PUBLIC "-//W3C//DTD SVG 1.1//EN"
 "http://www.w3.org/Graphics/SVG/1.1/DTD/svg11.dtd">
<!-- Generated by graphviz version 2.40.1 (20161225.0304)
 -->
<!-- Title: getString Pages: 1 -->
<svg width="195pt" height="66pt"
 viewBox="0.00 0.00 195.00 66.00" xmlns="http://www.w3.org/2000/svg" xmlns:xlink="http://www.w3.org/1999/xlink">
<g id="graph0" class="graph" transform="scale(1 1) rotate(0) translate(4 62)">
<title>getString</title>
<polygon fill="#ffffff" stroke="transparent" points="-4,4 -4,-62 191,-62 191,4 -4,4"/>
<!-- Node1 -->
<g id="node1" class="node">
<title>Node1</title>
<g id="a_node1"><a xlink:title=" ">
<polygon fill="#bfbfbf" stroke="#000000" points="131,-19.5 131,-38.5 187,-38.5 187,-19.5 131,-19.5"/>
<text text-anchor="middle" x="159" y="-26.5" font-family="Helvetica,sans-Serif" font-size="10.00" fill="#000000">getString</text>
</a>
</g>
</g>
<!-- Node2 -->
<g id="node2" class="node">
<title>Node2</title>
<g id="a_node2"><a xlink:href="../../d0/d3e/pps-files_8cpp.html#aa44705d947a7c0438a46369f83997a91" target="_top" xlink:title=" ">
<polygon fill="#ffffff" stroke="#ff0000" points="15.5,-38.5 15.5,-57.5 79.5,-57.5 79.5,-38.5 15.5,-38.5"/>
<text text-anchor="middle" x="47.5" y="-45.5" font-family="Helvetica,sans-Serif" font-size="10.00" fill="#000000">getConfigs</text>
</a>
</g>
</g>
<!-- Node1&#45;&gt;Node2 -->
<g id="edge1" class="edge">
<title>Node1&#45;&gt;Node2</title>
<path fill="none" stroke="#191970" d="M120.9315,-35.487C107.474,-37.7802 92.4831,-40.3347 79.5728,-42.5347"/>
<polygon fill="#191970" stroke="#191970" points="121.5939,-38.9247 130.8638,-33.7945 120.418,-32.0241 121.5939,-38.9247"/>
</g>
<!-- Node7 -->
<g id="node3" class="node">
<title>Node7</title>
<g id="a_node3"><a xlink:href="../../d0/d3e/pps-files_8cpp.html#ad437ed85144a7450770629ce0b2dcbff" target="_top" xlink:title=" ">
<polygon fill="#ffffff" stroke="#ff0000" points="0,-.5 0,-19.5 95,-19.5 95,-.5 0,-.5"/>
<text text-anchor="middle" x="47.5" y="-7.5" font-family="Helvetica,sans-Serif" font-size="10.00" fill="#000000">getSharedConfigs</text>
</a>
</g>
</g>
<!-- Node1&#45;&gt;Node7 -->
<g id="edge2" class="edge">
<title>Node1&#45;&gt;Node7</title>
<path fill="none" stroke="#191970" d="M120.781,-22.4873C112.5307,-21.0815 103.7101,-19.5784 95.1499,-18.1197"/>
<polygon fill="#191970" stroke="#191970" points="120.418,-25.9759 130.8638,-24.2055 121.5939,-19.0753 120.418,-25.9759"/>
</g>
</g>
</svg>
