<?xml version="1.0" encoding="UTF-8" standalone="no"?>
<!DOCTYPE svg PUBLIC "-//W3C//DTD SVG 1.1//EN"
 "http://www.w3.org/Graphics/SVG/1.1/DTD/svg11.dtd">
<!-- Generated by graphviz version 2.40.1 (20161225.0304)
 -->
<!-- Title: printAcceptedArgs Pages: 1 -->
<svg width="383pt" height="47pt"
 viewBox="0.00 0.00 383.00 47.00" xmlns="http://www.w3.org/2000/svg" xmlns:xlink="http://www.w3.org/1999/xlink">
<g id="graph0" class="graph" transform="scale(1 1) rotate(0) translate(4 43)">
<title>printAcceptedArgs</title>
<polygon fill="#ffffff" stroke="transparent" points="-4,4 -4,-43 379,-43 379,4 -4,4"/>
<!-- Node1 -->
<g id="node1" class="node">
<title>Node1</title>
<g id="a_node1"><a xlink:title=" ">
<polygon fill="#bfbfbf" stroke="#000000" points="278,-19.5 278,-38.5 375,-38.5 375,-19.5 278,-19.5"/>
<text text-anchor="middle" x="326.5" y="-26.5" font-family="Helvetica,sans-Serif" font-size="10.00" fill="#000000">printAcceptedArgs</text>
</a>
</g>
</g>
<!-- Node2 -->
<g id="node2" class="node">
<title>Node2</title>
<g id="a_node2"><a xlink:href="../../d0/d3e/pps-files_8cpp.html#aa3e1b9d34eeedb9b1d03863dee0b8e58" target="_top" xlink:title=" ">
<polygon fill="#ffffff" stroke="#ff0000" points="0,-19.5 0,-38.5 85,-38.5 85,-19.5 0,-19.5"/>
<text text-anchor="middle" x="42.5" y="-26.5" font-family="Helvetica,sans-Serif" font-size="10.00" fill="#000000">accessDaemon</text>
</a>
</g>
</g>
<!-- Node1&#45;&gt;Node2 -->
<g id="edge1" class="edge">
<title>Node1&#45;&gt;Node2</title>
<path fill="none" stroke="#191970" d="M267.4845,-29C213.0682,-29 133.6037,-29 85.1257,-29"/>
<polygon fill="#191970" stroke="#191970" points="267.6787,-32.5001 277.6787,-29 267.6786,-25.5001 267.6787,-32.5001"/>
</g>
<!-- Node4 -->
<g id="node3" class="node">
<title>Node4</title>
<g id="a_node3"><a xlink:href="../../d0/d3e/pps-files_8cpp.html#ac20a2f5a5d6284628d71e7e0cdc08248" target="_top" xlink:title=" ">
<polygon fill="#ffffff" stroke="#000000" points="121,-.5 121,-19.5 242,-19.5 242,-.5 121,-.5"/>
<text text-anchor="middle" x="181.5" y="-7.5" font-family="Helvetica,sans-Serif" font-size="10.00" fill="#000000">parseSaveDataRequest</text>
</a>
</g>
</g>
<!-- Node1&#45;&gt;Node4 -->
<g id="edge2" class="edge">
<title>Node1&#45;&gt;Node4</title>
<path fill="none" stroke="#191970" d="M267.7057,-21.2959C259.2886,-20.193 250.6158,-19.0566 242.1636,-17.949"/>
<polygon fill="#191970" stroke="#191970" points="267.4437,-24.7914 277.8137,-22.6204 268.3532,-17.8508 267.4437,-24.7914"/>
</g>
<!-- Node4&#45;&gt;Node2 -->
<g id="edge3" class="edge">
<title>Node4&#45;&gt;Node2</title>
<path fill="none" stroke="#191970" d="M110.7603,-19.6695C102.0737,-20.8568 93.4129,-22.0407 85.321,-23.1468"/>
<polygon fill="#191970" stroke="#191970" points="111.5031,-23.1006 120.9369,-18.2784 110.555,-16.165 111.5031,-23.1006"/>
</g>
</g>
</svg>
