<?xml version="1.0" encoding="UTF-8" standalone="no"?>
<!DOCTYPE svg PUBLIC "-//W3C//DTD SVG 1.1//EN"
 "http://www.w3.org/Graphics/SVG/1.1/DTD/svg11.dtd">
<!-- Generated by graphviz version 2.40.1 (20161225.0304)
 -->
<!-- Title: readConfigFile Pages: 1 -->
<svg width="219pt" height="66pt"
 viewBox="0.00 0.00 219.00 66.00" xmlns="http://www.w3.org/2000/svg" xmlns:xlink="http://www.w3.org/1999/xlink">
<g id="graph0" class="graph" transform="scale(1 1) rotate(0) translate(4 62)">
<title>readConfigFile</title>
<polygon fill="#ffffff" stroke="transparent" points="-4,4 -4,-62 215,-62 215,4 -4,4"/>
<!-- Node1 -->
<g id="node1" class="node">
<title>Node1</title>
<g id="a_node1"><a xlink:title=" ">
<polygon fill="#bfbfbf" stroke="#000000" points="131,-19.5 131,-38.5 211,-38.5 211,-19.5 131,-19.5"/>
<text text-anchor="middle" x="171" y="-26.5" font-family="Helvetica,sans-Serif" font-size="10.00" fill="#000000">readConfigFile</text>
</a>
</g>
</g>
<!-- Node2 -->
<g id="node2" class="node">
<title>Node2</title>
<g id="a_node2"><a xlink:href="../../d0/d3e/pps-files_8cpp.html#aa44705d947a7c0438a46369f83997a91" target="_top" xlink:title=" ">
<polygon fill="#ffffff" stroke="#ff0000" points="15.5,-38.5 15.5,-57.5 79.5,-57.5 79.5,-38.5 15.5,-38.5"/>
<text text-anchor="middle" x="47.5" y="-45.5" font-family="Helvetica,sans-Serif" font-size="10.00" fill="#000000">getConfigs</text>
</a>
</g>
</g>
<!-- Node1&#45;&gt;Node2 -->
<g id="edge1" class="edge">
<title>Node1&#45;&gt;Node2</title>
<path fill="none" stroke="#191970" d="M120.9321,-36.7027C106.9795,-38.8493 92.201,-41.1229 79.5881,-43.0634"/>
<polygon fill="#191970" stroke="#191970" points="121.5516,-40.1487 130.9031,-35.1688 120.4871,-33.2301 121.5516,-40.1487"/>
</g>
<!-- Node7 -->
<g id="node3" class="node">
<title>Node7</title>
<g id="a_node3"><a xlink:href="../../d0/d3e/pps-files_8cpp.html#ad437ed85144a7450770629ce0b2dcbff" target="_top" xlink:title=" ">
<polygon fill="#ffffff" stroke="#ff0000" points="0,-.5 0,-19.5 95,-19.5 95,-.5 0,-.5"/>
<text text-anchor="middle" x="47.5" y="-7.5" font-family="Helvetica,sans-Serif" font-size="10.00" fill="#000000">getSharedConfigs</text>
</a>
</g>
</g>
<!-- Node1&#45;&gt;Node7 -->
<g id="edge2" class="edge">
<title>Node1&#45;&gt;Node7</title>
<path fill="none" stroke="#191970" d="M120.7702,-21.2723C112.3046,-19.9699 103.5394,-18.6215 95.142,-17.3295"/>
<polygon fill="#191970" stroke="#191970" points="120.4871,-24.7699 130.9031,-22.8312 121.5516,-17.8513 120.4871,-24.7699"/>
</g>
</g>
</svg>
