<?xml version="1.0" encoding="UTF-8" standalone="no"?>
<!DOCTYPE svg PUBLIC "-//W3C//DTD SVG 1.1//EN"
 "http://www.w3.org/Graphics/SVG/1.1/DTD/svg11.dtd">
<!-- Generated by graphviz version 2.43.0 (0)
 -->
<!-- Title: writeDistribution Pages: 1 -->
<svg width="321pt" height="47pt"
 viewBox="0.00 0.00 321.00 47.00" xmlns="http://www.w3.org/2000/svg" xmlns:xlink="http://www.w3.org/1999/xlink">
<g id="graph0" class="graph" transform="scale(1 1) rotate(0) translate(4 43)">
<title>writeDistribution</title>
<polygon fill="white" stroke="transparent" points="-4,4 -4,-43 317,-43 317,4 -4,4"/>
<!-- Node1 -->
<g id="node1" class="node">
<title>Node1</title>
<g id="a_node1"><a xlink:title=" ">
<polygon fill="#bfbfbf" stroke="black" points="0,-0.5 0,-19.5 98,-19.5 98,-0.5 0,-0.5"/>
<text text-anchor="middle" x="49" y="-7.5" font-family="Helvetica,sans-Serif" font-size="10.00">writeDistribution</text>
</a>
</g>
</g>
<!-- Node2 -->
<g id="node2" class="node">
<title>Node2</title>
<g id="a_node2"><a xlink:href="../../d0/d3e/pps-files_8cpp.html#a44d1b7b3f8e3181274fae172922847b6" target="_top" xlink:title=" ">
<polygon fill="white" stroke="red" points="134,-19.5 134,-38.5 208,-38.5 208,-19.5 134,-19.5"/>
<text text-anchor="middle" x="171" y="-26.5" font-family="Helvetica,sans-Serif" font-size="10.00">open_logerr</text>
</a>
</g>
</g>
<!-- Node1&#45;&gt;Node2 -->
<g id="edge1" class="edge">
<title>Node1&#45;&gt;Node2</title>
<path fill="none" stroke="midnightblue" d="M98.12,-17.62C106.55,-18.95 115.32,-20.34 123.7,-21.67"/>
<polygon fill="midnightblue" stroke="midnightblue" points="123.27,-25.15 133.7,-23.25 124.37,-18.23 123.27,-25.15"/>
</g>
<!-- Node4 -->
<g id="node3" class="node">
<title>Node4</title>
<g id="a_node3"><a xlink:href="../../d0/d3e/pps-files_8cpp.html#a6d6a61f9f40278df5e7ba5fa5b3a9d31" target="_top" xlink:title=" ">
<polygon fill="white" stroke="red" points="244,-0.5 244,-19.5 313,-19.5 313,-0.5 244,-0.5"/>
<text text-anchor="middle" x="278.5" y="-7.5" font-family="Helvetica,sans-Serif" font-size="10.00">writeToLog</text>
</a>
</g>
</g>
<!-- Node1&#45;&gt;Node4 -->
<g id="edge3" class="edge">
<title>Node1&#45;&gt;Node4</title>
<path fill="none" stroke="midnightblue" d="M98.25,-10C138.19,-10 194.47,-10 233.26,-10"/>
<polygon fill="midnightblue" stroke="midnightblue" points="233.71,-13.5 243.71,-10 233.71,-6.5 233.71,-13.5"/>
</g>
<!-- Node2&#45;&gt;Node4 -->
<g id="edge2" class="edge">
<title>Node2&#45;&gt;Node4</title>
<path fill="none" stroke="midnightblue" d="M208.01,-22.51C216.34,-21.02 225.28,-19.4 233.89,-17.85"/>
<polygon fill="midnightblue" stroke="midnightblue" points="234.56,-21.29 243.78,-16.07 233.32,-14.4 234.56,-21.29"/>
</g>
</g>
</svg>
