<?xml version="1.0" encoding="UTF-8" standalone="no"?>
<!DOCTYPE svg PUBLIC "-//W3C//DTD SVG 1.1//EN"
 "http://www.w3.org/Graphics/SVG/1.1/DTD/svg11.dtd">
<!-- Generated by graphviz version 2.40.1 (20161225.0304)
 -->
<!-- Title: getNISTTime Pages: 1 -->
<svg width="232pt" height="142pt"
 viewBox="0.00 0.00 232.00 142.00" xmlns="http://www.w3.org/2000/svg" xmlns:xlink="http://www.w3.org/1999/xlink">
<g id="graph0" class="graph" transform="scale(1 1) rotate(0) translate(4 138)">
<title>getNISTTime</title>
<polygon fill="#ffffff" stroke="transparent" points="-4,4 -4,-138 228,-138 228,4 -4,4"/>
<!-- Node1 -->
<g id="node1" class="node">
<title>Node1</title>
<g id="a_node1"><a xlink:title=" ">
<polygon fill="#bfbfbf" stroke="#000000" points="0,-57.5 0,-76.5 75,-76.5 75,-57.5 0,-57.5"/>
<text text-anchor="middle" x="37.5" y="-64.5" font-family="Helvetica,sans-Serif" font-size="10.00" fill="#000000">getNISTTime</text>
</a>
</g>
</g>
<!-- Node2 -->
<g id="node2" class="node">
<title>Node2</title>
<g id="a_node2"><a xlink:href="../../dc/d4f/pps-sntp_8cpp.html#a8043d13f1150e0583d390c8eb5e07848" target="_top" xlink:title=" ">
<polygon fill="#ffffff" stroke="#000000" points="135,-114.5 135,-133.5 200,-133.5 200,-114.5 135,-114.5"/>
<text text-anchor="middle" x="167.5" y="-121.5" font-family="Helvetica,sans-Serif" font-size="10.00" fill="#000000">copyToLog</text>
</a>
</g>
</g>
<!-- Node1&#45;&gt;Node2 -->
<g id="edge1" class="edge">
<title>Node1&#45;&gt;Node2</title>
<path fill="none" stroke="#191970" d="M54.0811,-76.5012C68.7535,-84.6822 90.8956,-96.4814 111,-105 116.0621,-107.1449 121.4564,-109.2178 126.827,-111.1562"/>
<polygon fill="#191970" stroke="#191970" points="125.7968,-114.5036 136.3916,-114.4867 128.0987,-107.8929 125.7968,-114.5036"/>
</g>
<!-- Node3 -->
<g id="node3" class="node">
<title>Node3</title>
<g id="a_node3"><a xlink:href="../../d5/d60/pps-client_8cpp.html#aaf2d0a99430a6d5253b8c395c30ca7e3" target="_top" xlink:title=" ">
<polygon fill="#ffffff" stroke="#000000" points="131,-76.5 131,-95.5 204,-95.5 204,-76.5 131,-76.5"/>
<text text-anchor="middle" x="167.5" y="-83.5" font-family="Helvetica,sans-Serif" font-size="10.00" fill="#000000">gettimeofday</text>
</a>
</g>
</g>
<!-- Node1&#45;&gt;Node3 -->
<g id="edge2" class="edge">
<title>Node1&#45;&gt;Node3</title>
<path fill="none" stroke="#191970" d="M75.1014,-72.4956C89.3585,-74.5793 105.7682,-76.9777 120.7659,-79.1696"/>
<polygon fill="#191970" stroke="#191970" points="120.4785,-82.6647 130.8795,-80.6478 121.4909,-75.7383 120.4785,-82.6647"/>
</g>
<!-- Node4 -->
<g id="node4" class="node">
<title>Node4</title>
<g id="a_node4"><a xlink:href="../../d0/d3e/pps-files_8cpp.html#a19da05b45d1e94170f5fe86decb70bfb" target="_top" xlink:title=" ">
<polygon fill="#ffffff" stroke="#ff0000" points="129,-38.5 129,-57.5 206,-57.5 206,-38.5 129,-38.5"/>
<text text-anchor="middle" x="167.5" y="-45.5" font-family="Helvetica,sans-Serif" font-size="10.00" fill="#000000">sysCommand</text>
</a>
</g>
</g>
<!-- Node1&#45;&gt;Node4 -->
<g id="edge3" class="edge">
<title>Node1&#45;&gt;Node4</title>
<path fill="none" stroke="#191970" d="M75.1014,-61.5044C88.618,-59.5289 104.0694,-57.2706 118.4181,-55.1735"/>
<polygon fill="#191970" stroke="#191970" points="119.2391,-58.5908 128.6278,-53.6813 118.2267,-51.6644 119.2391,-58.5908"/>
</g>
<!-- Node8 -->
<g id="node5" class="node">
<title>Node8</title>
<g id="a_node5"><a xlink:href="../../d0/d3e/pps-files_8cpp.html#a5e4671d51ee126315cb694ef235d359a" target="_top" xlink:title=" ">
<polygon fill="#ffffff" stroke="#ff0000" points="111,-.5 111,-19.5 224,-19.5 224,-.5 111,-.5"/>
<text text-anchor="middle" x="167.5" y="-7.5" font-family="Helvetica,sans-Serif" font-size="10.00" fill="#000000">writeFileMsgToLogbuf</text>
</a>
</g>
</g>
<!-- Node1&#45;&gt;Node8 -->
<g id="edge4" class="edge">
<title>Node1&#45;&gt;Node8</title>
<path fill="none" stroke="#191970" d="M54.0811,-57.4988C68.7535,-49.3178 90.8956,-37.5186 111,-29 116.0621,-26.8551 121.4564,-24.7822 126.827,-22.8438"/>
<polygon fill="#191970" stroke="#191970" points="128.0987,-26.1071 136.3916,-19.5133 125.7968,-19.4964 128.0987,-26.1071"/>
</g>
</g>
</svg>
