<?xml version="1.0" encoding="UTF-8" standalone="no"?>
<!DOCTYPE svg PUBLIC "-//W3C//DTD SVG 1.1//EN"
 "http://www.w3.org/Graphics/SVG/1.1/DTD/svg11.dtd">
<!-- Generated by graphviz version 2.43.0 (0)
 -->
<!-- Title: gettimeofday Pages: 1 -->
<svg width="258pt" height="180pt"
 viewBox="0.00 0.00 258.00 180.00" xmlns="http://www.w3.org/2000/svg" xmlns:xlink="http://www.w3.org/1999/xlink">
<g id="graph0" class="graph" transform="scale(1 1) rotate(0) translate(4 176)">
<title>gettimeofday</title>
<polygon fill="white" stroke="transparent" points="-4,4 -4,-176 254,-176 254,4 -4,4"/>
<!-- Node1 -->
<g id="node1" class="node">
<title>Node1</title>
<g id="a_node1"><a xlink:title=" ">
<polygon fill="#bfbfbf" stroke="black" points="167,-76.5 167,-95.5 250,-95.5 250,-76.5 167,-76.5"/>
<text text-anchor="middle" x="208.5" y="-83.5" font-family="Helvetica,sans-Serif" font-size="10.00">gettimeofday</text>
</a>
</g>
</g>
<!-- Node2 -->
<g id="node2" class="node">
<title>Node2</title>
<g id="a_node2"><a xlink:href="../../dc/d4f/pps-sntp_8cpp.html#aa8aaca53b26e1cb32310370e1b18ec81" target="_top" xlink:title=" ">
<polygon fill="white" stroke="red" points="25.5,-152.5 25.5,-171.5 105.5,-171.5 105.5,-152.5 25.5,-152.5"/>
<text text-anchor="middle" x="65.5" y="-159.5" font-family="Helvetica,sans-Serif" font-size="10.00">getNISTTime</text>
</a>
</g>
</g>
<!-- Node1&#45;&gt;Node2 -->
<g id="edge1" class="edge">
<title>Node1&#45;&gt;Node2</title>
<path fill="none" stroke="midnightblue" d="M189.08,-102.68C174.31,-115.3 152.55,-132.23 131,-143 123.06,-146.97 114.15,-150.25 105.55,-152.91"/>
<polygon fill="midnightblue" stroke="midnightblue" points="191.69,-105.05 196.92,-95.83 187.08,-99.78 191.69,-105.05"/>
</g>
<!-- Node4 -->
<g id="node3" class="node">
<title>Node4</title>
<g id="a_node3"><a xlink:href="../../d0/d3e/pps-files_8cpp.html#a88ffb32d9158209276d4cc73132ee76e" target="_top" xlink:title=" ">
<polygon fill="white" stroke="red" points="6,-114.5 6,-133.5 125,-133.5 125,-114.5 6,-114.5"/>
<text text-anchor="middle" x="65.5" y="-121.5" font-family="Helvetica,sans-Serif" font-size="10.00">recordFrequencyVars</text>
</a>
</g>
</g>
<!-- Node1&#45;&gt;Node4 -->
<g id="edge2" class="edge">
<title>Node1&#45;&gt;Node4</title>
<path fill="none" stroke="midnightblue" d="M162.06,-98.25C142.63,-103.48 120.27,-109.51 102.07,-114.41"/>
<polygon fill="midnightblue" stroke="midnightblue" points="163.18,-101.57 171.92,-95.59 161.35,-94.81 163.18,-101.57"/>
</g>
<!-- Node10 -->
<g id="node4" class="node">
<title>Node10</title>
<g id="a_node4"><a xlink:href="../../d5/d60/pps-client_8cpp.html#a41cf700bfcf61b67c3ac81dffa87ba61" target="_top" xlink:title=" ">
<polygon fill="white" stroke="red" points="25.5,-76.5 25.5,-95.5 105.5,-95.5 105.5,-76.5 25.5,-76.5"/>
<text text-anchor="middle" x="65.5" y="-83.5" font-family="Helvetica,sans-Serif" font-size="10.00">savePPStime</text>
</a>
</g>
</g>
<!-- Node1&#45;&gt;Node10 -->
<g id="edge3" class="edge">
<title>Node1&#45;&gt;Node10</title>
<path fill="none" stroke="midnightblue" d="M156.54,-86C139.8,-86 121.47,-86 105.74,-86"/>
<polygon fill="midnightblue" stroke="midnightblue" points="156.72,-89.5 166.72,-86 156.72,-82.5 156.72,-89.5"/>
</g>
<!-- Node11 -->
<g id="node5" class="node">
<title>Node11</title>
<g id="a_node5"><a xlink:href="../../d0/d3e/pps-files_8cpp.html#accdd08110477677873a18eea4520eb79" target="_top" xlink:title=" ">
<polygon fill="white" stroke="red" points="0,-38.5 0,-57.5 131,-57.5 131,-38.5 0,-38.5"/>
<text text-anchor="middle" x="65.5" y="-45.5" font-family="Helvetica,sans-Serif" font-size="10.00">showStatusEachSecond</text>
</a>
</g>
</g>
<!-- Node1&#45;&gt;Node11 -->
<g id="edge4" class="edge">
<title>Node1&#45;&gt;Node11</title>
<path fill="none" stroke="midnightblue" d="M162.06,-73.75C142.63,-68.52 120.27,-62.49 102.07,-57.59"/>
<polygon fill="midnightblue" stroke="midnightblue" points="161.35,-77.19 171.92,-76.41 163.18,-70.43 161.35,-77.19"/>
</g>
<!-- Node8 -->
<g id="node6" class="node">
<title>Node8</title>
<g id="a_node6"><a xlink:href="../../d5/d60/pps-client_8cpp.html#a22519b13ce414a4bf003faf65bd68144" target="_top" xlink:title=" ">
<polygon fill="white" stroke="red" points="30,-0.5 30,-19.5 101,-19.5 101,-0.5 30,-0.5"/>
<text text-anchor="middle" x="65.5" y="-7.5" font-family="Helvetica,sans-Serif" font-size="10.00">waitForPPS</text>
</a>
</g>
</g>
<!-- Node1&#45;&gt;Node8 -->
<g id="edge5" class="edge">
<title>Node1&#45;&gt;Node8</title>
<path fill="none" stroke="midnightblue" d="M189.08,-69.32C174.31,-56.7 152.55,-39.77 131,-29 121.71,-24.36 111.08,-20.64 101.17,-17.78"/>
<polygon fill="midnightblue" stroke="midnightblue" points="187.08,-72.22 196.92,-76.17 191.69,-66.95 187.08,-72.22"/>
</g>
</g>
</svg>
