<?xml version="1.0" encoding="UTF-8" standalone="no"?>
<!DOCTYPE svg PUBLIC "-//W3C//DTD SVG 1.1//EN"
 "http://www.w3.org/Graphics/SVG/1.1/DTD/svg11.dtd">
<!-- Generated by graphviz version 2.43.0 (0)
 -->
<!-- Title: makeTimeCorrection Pages: 1 -->
<svg width="300pt" height="408pt"
 viewBox="0.00 0.00 300.00 408.00" xmlns="http://www.w3.org/2000/svg" xmlns:xlink="http://www.w3.org/1999/xlink">
<g id="graph0" class="graph" transform="scale(1 1) rotate(0) translate(4 404)">
<title>makeTimeCorrection</title>
<polygon fill="white" stroke="transparent" points="-4,4 -4,-404 296,-404 296,4 -4,4"/>
<!-- Node1 -->
<g id="node1" class="node">
<title>Node1</title>
<g id="a_node1"><a xlink:title=" ">
<polygon fill="#bfbfbf" stroke="black" points="0,-190.5 0,-209.5 119,-209.5 119,-190.5 0,-190.5"/>
<text text-anchor="middle" x="59.5" y="-197.5" font-family="Helvetica,sans-Serif" font-size="10.00">makeTimeCorrection</text>
</a>
</g>
</g>
<!-- Node2 -->
<g id="node2" class="node">
<title>Node2</title>
<g id="a_node2"><a xlink:href="../../d5/d60/pps-client_8cpp.html#a4efd2ecedb34b38cd1000d86ba5f6ef9" target="_top" xlink:title=" ">
<polygon fill="white" stroke="black" points="193.5,-380.5 193.5,-399.5 253.5,-399.5 253.5,-380.5 193.5,-380.5"/>
<text text-anchor="middle" x="223.5" y="-387.5" font-family="Helvetica,sans-Serif" font-size="10.00">adjtimex</text>
</a>
</g>
</g>
<!-- Node1&#45;&gt;Node2 -->
<g id="edge1" class="edge">
<title>Node1&#45;&gt;Node2</title>
<path fill="none" stroke="midnightblue" d="M63.03,-209.87C71.08,-239.21 98.91,-326.55 155,-371 163.16,-377.47 173.4,-381.73 183.41,-384.55"/>
<polygon fill="midnightblue" stroke="midnightblue" points="182.73,-387.98 193.27,-386.9 184.36,-381.17 182.73,-387.98"/>
</g>
<!-- Node3 -->
<g id="node3" class="node">
<title>Node3</title>
<g id="a_node3"><a xlink:href="../../d5/d60/pps-client_8cpp.html#a45f6556dce353a14a22a6fa6b976ebcd" target="_top" xlink:title=" ">
<polygon fill="white" stroke="red" points="181,-342.5 181,-361.5 266,-361.5 266,-342.5 181,-342.5"/>
<text text-anchor="middle" x="223.5" y="-349.5" font-family="Helvetica,sans-Serif" font-size="10.00">doTimeFixups</text>
</a>
</g>
</g>
<!-- Node1&#45;&gt;Node3 -->
<g id="edge2" class="edge">
<title>Node1&#45;&gt;Node3</title>
<path fill="none" stroke="midnightblue" d="M64.61,-209.75C75.49,-234.39 107.53,-299.56 155,-333 159.91,-336.46 165.43,-339.29 171.15,-341.61"/>
<polygon fill="midnightblue" stroke="midnightblue" points="170.29,-345.01 180.89,-345.04 172.62,-338.41 170.29,-345.01"/>
</g>
<!-- Node14 -->
<g id="node4" class="node">
<title>Node14</title>
<g id="a_node4"><a xlink:href="../../d5/d60/pps-client_8cpp.html#ad4d47fa254fa62368be4b75c2d5a5889" target="_top" xlink:title=" ">
<polygon fill="white" stroke="black" points="176,-304.5 176,-323.5 271,-323.5 271,-304.5 176,-304.5"/>
<text text-anchor="middle" x="223.5" y="-311.5" font-family="Helvetica,sans-Serif" font-size="10.00">getAcquireState</text>
</a>
</g>
</g>
<!-- Node1&#45;&gt;Node14 -->
<g id="edge3" class="edge">
<title>Node1&#45;&gt;Node14</title>
<path fill="none" stroke="midnightblue" d="M67.38,-209.7C81.53,-228.93 115.89,-272.02 155,-295 158.66,-297.15 162.58,-299.07 166.61,-300.78"/>
<polygon fill="midnightblue" stroke="midnightblue" points="165.58,-304.13 176.17,-304.39 168.06,-297.58 165.58,-304.13"/>
</g>
<!-- Node15 -->
<g id="node5" class="node">
<title>Node15</title>
<g id="a_node5"><a xlink:href="../../d5/d60/pps-client_8cpp.html#a8696238d80e8a7a4ae44de6de50ab1ce" target="_top" xlink:title=" ">
<polygon fill="white" stroke="red" points="188.5,-266.5 188.5,-285.5 258.5,-285.5 258.5,-266.5 188.5,-266.5"/>
<text text-anchor="middle" x="223.5" y="-273.5" font-family="Helvetica,sans-Serif" font-size="10.00">getIntegral</text>
</a>
</g>
</g>
<!-- Node1&#45;&gt;Node15 -->
<g id="edge4" class="edge">
<title>Node1&#45;&gt;Node15</title>
<path fill="none" stroke="midnightblue" d="M73.65,-209.51C91.37,-221.93 124.23,-243.68 155,-257 162.38,-260.2 170.45,-263.01 178.36,-265.42"/>
<polygon fill="midnightblue" stroke="midnightblue" points="177.66,-268.86 188.24,-268.27 179.59,-262.13 177.66,-268.86"/>
</g>
<!-- Node17 -->
<g id="node6" class="node">
<title>Node17</title>
<g id="a_node6"><a xlink:href="../../d5/d60/pps-client_8cpp.html#af3e070dc58f7e490d45a2f22b8a39120" target="_top" xlink:title=" ">
<polygon fill="white" stroke="black" points="169.5,-228.5 169.5,-247.5 277.5,-247.5 277.5,-228.5 169.5,-228.5"/>
<text text-anchor="middle" x="223.5" y="-235.5" font-family="Helvetica,sans-Serif" font-size="10.00">getMovingAverage</text>
</a>
</g>
</g>
<!-- Node1&#45;&gt;Node17 -->
<g id="edge5" class="edge">
<title>Node1&#45;&gt;Node17</title>
<path fill="none" stroke="midnightblue" d="M101.38,-209.59C122.85,-214.63 149.36,-220.84 172.1,-226.18"/>
<polygon fill="midnightblue" stroke="midnightblue" points="171.38,-229.6 181.91,-228.48 172.98,-222.79 171.38,-229.6"/>
</g>
<!-- Node18 -->
<g id="node7" class="node">
<title>Node18</title>
<g id="a_node7"><a xlink:href="../../d5/d60/pps-client_8cpp.html#a2a7a8a06f0119359f624d891dbcfa08f" target="_top" xlink:title=" ">
<polygon fill="white" stroke="black" points="177,-190.5 177,-209.5 270,-209.5 270,-190.5 177,-190.5"/>
<text text-anchor="middle" x="223.5" y="-197.5" font-family="Helvetica,sans-Serif" font-size="10.00">integralIsReady</text>
</a>
</g>
</g>
<!-- Node1&#45;&gt;Node18 -->
<g id="edge6" class="edge">
<title>Node1&#45;&gt;Node18</title>
<path fill="none" stroke="midnightblue" d="M119.44,-200C134.81,-200 151.32,-200 166.52,-200"/>
<polygon fill="midnightblue" stroke="midnightblue" points="166.81,-203.5 176.81,-200 166.81,-196.5 166.81,-203.5"/>
</g>
<!-- Node19 -->
<g id="node8" class="node">
<title>Node19</title>
<g id="a_node8"><a xlink:href="../../d5/d60/pps-client_8cpp.html#aec269fd5b44aeaa993781dddc42a2b59" target="_top" xlink:title=" ">
<polygon fill="white" stroke="black" points="163,-152.5 163,-171.5 284,-171.5 284,-152.5 163,-152.5"/>
<text text-anchor="middle" x="223.5" y="-159.5" font-family="Helvetica,sans-Serif" font-size="10.00">makeAverageIntegral</text>
</a>
</g>
</g>
<!-- Node1&#45;&gt;Node19 -->
<g id="edge7" class="edge">
<title>Node1&#45;&gt;Node19</title>
<path fill="none" stroke="midnightblue" d="M101.38,-190.41C122.85,-185.37 149.36,-179.16 172.1,-173.82"/>
<polygon fill="midnightblue" stroke="midnightblue" points="172.98,-177.21 181.91,-171.52 171.38,-170.4 172.98,-177.21"/>
</g>
<!-- Node20 -->
<g id="node9" class="node">
<title>Node20</title>
<g id="a_node9"><a xlink:href="../../d0/d3e/pps-files_8cpp.html#a844fdb2cde0cee3651ece4170fbeb59a" target="_top" xlink:title=" ">
<polygon fill="white" stroke="black" points="182.5,-114.5 182.5,-133.5 264.5,-133.5 264.5,-114.5 182.5,-114.5"/>
<text text-anchor="middle" x="223.5" y="-121.5" font-family="Helvetica,sans-Serif" font-size="10.00">recordOffsets</text>
</a>
</g>
</g>
<!-- Node1&#45;&gt;Node20 -->
<g id="edge8" class="edge">
<title>Node1&#45;&gt;Node20</title>
<path fill="none" stroke="midnightblue" d="M73.65,-190.49C91.37,-178.07 124.23,-156.32 155,-143 160.51,-140.61 166.4,-138.44 172.33,-136.49"/>
<polygon fill="midnightblue" stroke="midnightblue" points="173.75,-139.72 182.26,-133.41 171.68,-133.03 173.75,-139.72"/>
</g>
<!-- Node21 -->
<g id="node10" class="node">
<title>Node21</title>
<g id="a_node10"><a xlink:href="../../d5/d60/pps-client_8cpp.html#ad71923ccec11a6d6e132c43e60fe8765" target="_top" xlink:title=" ">
<polygon fill="white" stroke="red" points="182.5,-76.5 182.5,-95.5 264.5,-95.5 264.5,-76.5 182.5,-76.5"/>
<text text-anchor="middle" x="223.5" y="-83.5" font-family="Helvetica,sans-Serif" font-size="10.00">removeNoise</text>
</a>
</g>
</g>
<!-- Node1&#45;&gt;Node21 -->
<g id="edge9" class="edge">
<title>Node1&#45;&gt;Node21</title>
<path fill="none" stroke="midnightblue" d="M67.38,-190.3C81.53,-171.07 115.89,-127.98 155,-105 160.44,-101.8 166.45,-99.12 172.57,-96.88"/>
<polygon fill="midnightblue" stroke="midnightblue" points="173.81,-100.15 182.21,-93.7 171.62,-93.51 173.81,-100.15"/>
</g>
<!-- Node31 -->
<g id="node11" class="node">
<title>Node31</title>
<g id="a_node11"><a xlink:href="../../d5/d60/pps-client_8cpp.html#a41cf700bfcf61b67c3ac81dffa87ba61" target="_top" xlink:title=" ">
<polygon fill="white" stroke="red" points="183.5,-38.5 183.5,-57.5 263.5,-57.5 263.5,-38.5 183.5,-38.5"/>
<text text-anchor="middle" x="223.5" y="-45.5" font-family="Helvetica,sans-Serif" font-size="10.00">savePPStime</text>
</a>
</g>
</g>
<!-- Node1&#45;&gt;Node31 -->
<g id="edge10" class="edge">
<title>Node1&#45;&gt;Node31</title>
<path fill="none" stroke="midnightblue" d="M64.61,-190.25C75.49,-165.61 107.53,-100.44 155,-67 160.62,-63.04 167.04,-59.91 173.64,-57.42"/>
<polygon fill="midnightblue" stroke="midnightblue" points="174.95,-60.68 183.35,-54.23 172.76,-54.03 174.95,-60.68"/>
</g>
<!-- Node34 -->
<g id="node12" class="node">
<title>Node34</title>
<g id="a_node12"><a xlink:href="../../d5/d60/pps-client_8cpp.html#a0e606d0a13050543f326fe38cbdf2807" target="_top" xlink:title=" ">
<polygon fill="white" stroke="black" points="155,-0.5 155,-19.5 292,-19.5 292,-0.5 155,-0.5"/>
<text text-anchor="middle" x="223.5" y="-7.5" font-family="Helvetica,sans-Serif" font-size="10.00">signedFractionalSeconds</text>
</a>
</g>
</g>
<!-- Node1&#45;&gt;Node34 -->
<g id="edge11" class="edge">
<title>Node1&#45;&gt;Node34</title>
<path fill="none" stroke="midnightblue" d="M63.03,-190.13C71.08,-160.79 98.91,-73.45 155,-29 157.28,-27.19 159.72,-25.56 162.28,-24.08"/>
<polygon fill="midnightblue" stroke="midnightblue" points="163.91,-27.18 171.33,-19.62 160.81,-20.9 163.91,-27.18"/>
</g>
</g>
</svg>
