<?xml version="1.0" encoding="UTF-8" standalone="no"?>
<!DOCTYPE svg PUBLIC "-//W3C//DTD SVG 1.1//EN"
 "http://www.w3.org/Graphics/SVG/1.1/DTD/svg11.dtd">
<!-- Generated by graphviz version 2.43.0 (0)
 -->
<!-- Title: main Pages: 1 -->
<svg width="532pt" height="332pt"
 viewBox="0.00 0.00 532.00 332.00" xmlns="http://www.w3.org/2000/svg" xmlns:xlink="http://www.w3.org/1999/xlink">
<g id="graph0" class="graph" transform="scale(1 1) rotate(0) translate(4 328)">
<title>main</title>
<polygon fill="white" stroke="transparent" points="-4,4 -4,-328 528,-328 528,4 -4,4"/>
<!-- Node1 -->
<g id="node1" class="node">
<title>Node1</title>
<g id="a_node1"><a xlink:title=" ">
<polygon fill="#bfbfbf" stroke="black" points="0,-152.5 0,-171.5 41,-171.5 41,-152.5 0,-152.5"/>
<text text-anchor="middle" x="20.5" y="-159.5" font-family="Helvetica,sans-Serif" font-size="10.00">main</text>
</a>
</g>
</g>
<!-- Node2 -->
<g id="node2" class="node">
<title>Node2</title>
<g id="a_node2"><a xlink:href="../../d0/d3e/pps-files_8cpp.html#aa3e1b9d34eeedb9b1d03863dee0b8e58" target="_top" xlink:title=" ">
<polygon fill="white" stroke="red" points="77,-304.5 77,-323.5 168,-323.5 168,-304.5 77,-304.5"/>
<text text-anchor="middle" x="122.5" y="-311.5" font-family="Helvetica,sans-Serif" font-size="10.00">accessDaemon</text>
</a>
</g>
</g>
<!-- Node1&#45;&gt;Node2 -->
<g id="edge1" class="edge">
<title>Node1&#45;&gt;Node2</title>
<path fill="none" stroke="midnightblue" d="M23.38,-171.53C28.33,-194.52 43.75,-253.78 77,-290 80.16,-293.44 83.92,-296.49 87.91,-299.15"/>
<polygon fill="midnightblue" stroke="midnightblue" points="86.44,-302.35 96.83,-304.4 89.98,-296.31 86.44,-302.35"/>
</g>
<!-- Node16 -->
<g id="node3" class="node">
<title>Node16</title>
<g id="a_node3"><a xlink:href="../../d0/d3e/pps-files_8cpp.html#a6f609d689ebe787455ce220808ca3ba0" target="_top" xlink:title=" ">
<polygon fill="white" stroke="black" points="428,-209.5 428,-228.5 524,-228.5 524,-209.5 428,-209.5"/>
<text text-anchor="middle" x="476" y="-216.5" font-family="Helvetica,sans-Serif" font-size="10.00">bufferStatusMsg</text>
</a>
</g>
</g>
<!-- Node1&#45;&gt;Node16 -->
<g id="edge2" class="edge">
<title>Node1&#45;&gt;Node16</title>
<path fill="none" stroke="midnightblue" d="M25.44,-171.75C32.8,-188.6 50.34,-222.89 77,-239 194.92,-310.25 370.21,-258.55 442.26,-232.07"/>
<polygon fill="midnightblue" stroke="midnightblue" points="443.6,-235.31 451.73,-228.52 441.14,-228.75 443.6,-235.31"/>
</g>
<!-- Node23 -->
<g id="node4" class="node">
<title>Node23</title>
<g id="a_node4"><a xlink:href="../../d0/d3e/pps-files_8cpp.html#a9942302e3e5272291f62fda42bdf6319" target="_top" xlink:title=" ">
<polygon fill="white" stroke="red" points="206,-228.5 206,-247.5 285,-247.5 285,-228.5 206,-228.5"/>
<text text-anchor="middle" x="245.5" y="-235.5" font-family="Helvetica,sans-Serif" font-size="10.00">createPIDfile</text>
</a>
</g>
</g>
<!-- Node1&#45;&gt;Node23 -->
<g id="edge3" class="edge">
<title>Node1&#45;&gt;Node23</title>
<path fill="none" stroke="midnightblue" d="M28.56,-171.53C38.09,-183.61 56.29,-204.06 77,-214 114.08,-231.8 160.71,-237.31 195.34,-238.65"/>
<polygon fill="midnightblue" stroke="midnightblue" points="195.59,-242.16 205.68,-238.94 195.78,-235.16 195.59,-242.16"/>
</g>
<!-- Node15 -->
<g id="node5" class="node">
<title>Node15</title>
<g id="a_node5"><a xlink:href="../../d0/d3e/pps-files_8cpp.html#a6d6a61f9f40278df5e7ba5fa5b3a9d31" target="_top" xlink:title=" ">
<polygon fill="white" stroke="red" points="323,-152.5 323,-171.5 392,-171.5 392,-152.5 323,-152.5"/>
<text text-anchor="middle" x="357.5" y="-159.5" font-family="Helvetica,sans-Serif" font-size="10.00">writeToLog</text>
</a>
</g>
</g>
<!-- Node1&#45;&gt;Node15 -->
<g id="edge17" class="edge">
<title>Node1&#45;&gt;Node15</title>
<path fill="none" stroke="midnightblue" d="M41.08,-168C51.62,-170.96 64.9,-174.26 77,-176 169.4,-189.33 194.47,-193.42 287,-181 297.41,-179.6 308.48,-177.08 318.64,-174.31"/>
<polygon fill="midnightblue" stroke="midnightblue" points="319.8,-177.62 328.45,-171.5 317.87,-170.89 319.8,-177.62"/>
</g>
<!-- Node24 -->
<g id="node6" class="node">
<title>Node24</title>
<g id="a_node6"><a xlink:href="../../d0/d3e/pps-files_8cpp.html#aee5d43bdb96bc26a9e211a6b70e4e15b" target="_top" xlink:title=" ">
<polygon fill="white" stroke="black" points="209.5,-152.5 209.5,-171.5 281.5,-171.5 281.5,-152.5 209.5,-152.5"/>
<text text-anchor="middle" x="245.5" y="-159.5" font-family="Helvetica,sans-Serif" font-size="10.00">find_source</text>
</a>
</g>
</g>
<!-- Node1&#45;&gt;Node24 -->
<g id="edge6" class="edge">
<title>Node1&#45;&gt;Node24</title>
<path fill="none" stroke="midnightblue" d="M41.29,-162C76.44,-162 150.63,-162 198.97,-162"/>
<polygon fill="midnightblue" stroke="midnightblue" points="199.17,-165.5 209.17,-162 199.17,-158.5 199.17,-165.5"/>
</g>
<!-- Node25 -->
<g id="node7" class="node">
<title>Node25</title>
<g id="a_node7"><a xlink:href="../../d0/d3e/pps-files_8cpp.html#a4ce5021ab20b957eb5bd60c89d389685" target="_top" xlink:title=" ">
<polygon fill="white" stroke="black" points="80.5,-114.5 80.5,-133.5 164.5,-133.5 164.5,-114.5 80.5,-114.5"/>
<text text-anchor="middle" x="122.5" y="-121.5" font-family="Helvetica,sans-Serif" font-size="10.00">getRootHome</text>
</a>
</g>
</g>
<!-- Node1&#45;&gt;Node25 -->
<g id="edge8" class="edge">
<title>Node1&#45;&gt;Node25</title>
<path fill="none" stroke="midnightblue" d="M41.26,-154.49C54.24,-149.56 71.57,-142.97 86.81,-137.18"/>
<polygon fill="midnightblue" stroke="midnightblue" points="88.35,-140.34 96.45,-133.52 85.86,-133.8 88.35,-140.34"/>
</g>
<!-- Node19 -->
<g id="node8" class="node">
<title>Node19</title>
<g id="a_node8"><a xlink:href="../../d0/d3e/pps-files_8cpp.html#a19da05b45d1e94170f5fe86decb70bfb" target="_top" xlink:title=" ">
<polygon fill="white" stroke="black" points="204,-76.5 204,-95.5 287,-95.5 287,-76.5 204,-76.5"/>
<text text-anchor="middle" x="245.5" y="-83.5" font-family="Helvetica,sans-Serif" font-size="10.00">sysCommand</text>
</a>
</g>
</g>
<!-- Node1&#45;&gt;Node19 -->
<g id="edge13" class="edge">
<title>Node1&#45;&gt;Node19</title>
<path fill="none" stroke="midnightblue" d="M27.67,-152.36C36.72,-139.15 54.93,-115.82 77,-105 113.2,-87.25 158.94,-83.1 193.47,-83.06"/>
<polygon fill="midnightblue" stroke="midnightblue" points="193.77,-86.56 203.8,-83.16 193.84,-79.56 193.77,-86.56"/>
</g>
<!-- Node26 -->
<g id="node9" class="node">
<title>Node26</title>
<g id="a_node9"><a xlink:href="../../d5/d60/pps-client_8cpp.html#a3713ce0f6ba3ed9b5ea67c2ef6012b83" target="_top" xlink:title=" ">
<polygon fill="white" stroke="red" points="93,-38.5 93,-57.5 152,-57.5 152,-38.5 93,-38.5"/>
<text text-anchor="middle" x="122.5" y="-45.5" font-family="Helvetica,sans-Serif" font-size="10.00">initialize</text>
</a>
</g>
</g>
<!-- Node1&#45;&gt;Node26 -->
<g id="edge12" class="edge">
<title>Node1&#45;&gt;Node26</title>
<path fill="none" stroke="midnightblue" d="M25.37,-152.47C32.96,-134.72 51.37,-96.19 77,-72 80.64,-68.57 84.86,-65.47 89.23,-62.74"/>
<polygon fill="midnightblue" stroke="midnightblue" points="91.28,-65.6 98.26,-57.63 87.83,-59.51 91.28,-65.6"/>
</g>
<!-- Node38 -->
<g id="node10" class="node">
<title>Node38</title>
<g id="a_node10"><a xlink:href="../../d5/d60/pps-client_8cpp.html#a22519b13ce414a4bf003faf65bd68144" target="_top" xlink:title=" ">
<polygon fill="white" stroke="red" points="87,-0.5 87,-19.5 158,-19.5 158,-0.5 87,-0.5"/>
<text text-anchor="middle" x="122.5" y="-7.5" font-family="Helvetica,sans-Serif" font-size="10.00">waitForPPS</text>
</a>
</g>
</g>
<!-- Node1&#45;&gt;Node38 -->
<g id="edge14" class="edge">
<title>Node1&#45;&gt;Node38</title>
<path fill="none" stroke="midnightblue" d="M22.99,-152.25C27.16,-128.18 41.06,-65.24 77,-29 78.42,-27.57 79.96,-26.24 81.6,-25"/>
<polygon fill="midnightblue" stroke="midnightblue" points="83.68,-27.83 90.34,-19.59 80,-21.88 83.68,-27.83"/>
</g>
<!-- Node23&#45;&gt;Node15 -->
<g id="edge4" class="edge">
<title>Node23&#45;&gt;Node15</title>
<path fill="none" stroke="midnightblue" d="M263.7,-228.36C270.99,-224.12 279.52,-218.99 287,-214 304.07,-202.61 322.64,-188.62 336.29,-178.02"/>
<polygon fill="midnightblue" stroke="midnightblue" points="338.77,-180.53 344.48,-171.61 334.45,-175.02 338.77,-180.53"/>
</g>
<!-- Node15&#45;&gt;Node16 -->
<g id="edge5" class="edge">
<title>Node15&#45;&gt;Node16</title>
<path fill="none" stroke="midnightblue" d="M378,-171.54C396.65,-180.66 425,-194.53 446.24,-204.93"/>
<polygon fill="midnightblue" stroke="midnightblue" points="444.92,-208.18 455.44,-209.43 447.99,-201.89 444.92,-208.18"/>
</g>
<!-- Node24&#45;&gt;Node15 -->
<g id="edge7" class="edge">
<title>Node24&#45;&gt;Node15</title>
<path fill="none" stroke="midnightblue" d="M281.61,-162C291.51,-162 302.41,-162 312.75,-162"/>
<polygon fill="midnightblue" stroke="midnightblue" points="312.85,-165.5 322.85,-162 312.85,-158.5 312.85,-165.5"/>
</g>
<!-- Node25&#45;&gt;Node15 -->
<g id="edge11" class="edge">
<title>Node25&#45;&gt;Node15</title>
<path fill="none" stroke="midnightblue" d="M164.75,-127.06C197.97,-129.93 245.76,-135.01 287,-143 296.38,-144.82 306.35,-147.24 315.72,-149.75"/>
<polygon fill="midnightblue" stroke="midnightblue" points="315.03,-153.19 325.6,-152.48 316.89,-146.44 315.03,-153.19"/>
</g>
<!-- Node25&#45;&gt;Node19 -->
<g id="edge9" class="edge">
<title>Node25&#45;&gt;Node19</title>
<path fill="none" stroke="midnightblue" d="M154.03,-114.41C169.22,-109.64 187.79,-103.81 204.13,-98.68"/>
<polygon fill="midnightblue" stroke="midnightblue" points="205.48,-101.92 213.98,-95.59 203.39,-95.24 205.48,-101.92"/>
</g>
<!-- Node19&#45;&gt;Node15 -->
<g id="edge10" class="edge">
<title>Node19&#45;&gt;Node15</title>
<path fill="none" stroke="midnightblue" d="M263.7,-95.64C270.99,-99.88 279.52,-105.01 287,-110 304.07,-121.39 322.64,-135.38 336.29,-145.98"/>
<polygon fill="midnightblue" stroke="midnightblue" points="334.45,-148.98 344.48,-152.39 338.77,-143.47 334.45,-148.98"/>
</g>
<!-- Node38&#45;&gt;Node15 -->
<g id="edge16" class="edge">
<title>Node38&#45;&gt;Node15</title>
<path fill="none" stroke="midnightblue" d="M158.27,-15.82C193.46,-23.08 248.1,-38.2 287,-67 314.65,-87.47 335.99,-122.1 347.36,-143.41"/>
<polygon fill="midnightblue" stroke="midnightblue" points="344.31,-145.14 352,-152.43 350.53,-141.93 344.31,-145.14"/>
</g>
<!-- Node38&#45;&gt;Node19 -->
<g id="edge15" class="edge">
<title>Node38&#45;&gt;Node19</title>
<path fill="none" stroke="midnightblue" d="M148.95,-19.64C155.32,-22.38 162.03,-25.57 168,-29 188.64,-40.87 210.23,-57.39 225.19,-69.59"/>
<polygon fill="midnightblue" stroke="midnightblue" points="223.24,-72.52 233.17,-76.2 227.71,-67.13 223.24,-72.52"/>
</g>
</g>
</svg>
