<?xml version="1.0" encoding="UTF-8" standalone="no"?>
<!DOCTYPE svg PUBLIC "-//W3C//DTD SVG 1.1//EN"
 "http://www.w3.org/Graphics/SVG/1.1/DTD/svg11.dtd">
<!-- Generated by graphviz version 2.43.0 (0)
 -->
<!-- Title: doTimeFixups Pages: 1 -->
<svg width="275pt" height="230pt"
 viewBox="0.00 0.00 275.00 230.00" xmlns="http://www.w3.org/2000/svg" xmlns:xlink="http://www.w3.org/1999/xlink">
<g id="graph0" class="graph" transform="scale(1 1) rotate(0) translate(4 226)">
<title>doTimeFixups</title>
<polygon fill="white" stroke="transparent" points="-4,4 -4,-226 271,-226 271,4 -4,4"/>
<!-- Node1 -->
<g id="node1" class="node">
<title>Node1</title>
<g id="a_node1"><a xlink:title=" ">
<polygon fill="#bfbfbf" stroke="black" points="0,-95.5 0,-114.5 85,-114.5 85,-95.5 0,-95.5"/>
<text text-anchor="middle" x="42.5" y="-102.5" font-family="Helvetica,sans-Serif" font-size="10.00">doTimeFixups</text>
</a>
</g>
</g>
<!-- Node2 -->
<g id="node2" class="node">
<title>Node2</title>
<g id="a_node2"><a xlink:href="../../d5/d60/pps-client_8cpp.html#a0d5d29d75e6c2ed7c5f9f6ca495cce72" target="_top" xlink:title=" ">
<polygon fill="white" stroke="red" points="127,-202.5 127,-221.5 261,-221.5 261,-202.5 127,-202.5"/>
<text text-anchor="middle" x="194" y="-209.5" font-family="Helvetica,sans-Serif" font-size="10.00">correctFractionalSecond</text>
</a>
</g>
</g>
<!-- Node1&#45;&gt;Node2 -->
<g id="edge1" class="edge">
<title>Node1&#45;&gt;Node2</title>
<path fill="none" stroke="midnightblue" d="M49.2,-114.61C60.5,-132.82 87.57,-172.35 121,-193 124.43,-195.12 128.09,-197 131.88,-198.68"/>
<polygon fill="midnightblue" stroke="midnightblue" points="130.9,-202.05 141.48,-202.43 133.44,-195.53 130.9,-202.05"/>
</g>
<!-- Node8 -->
<g id="node3" class="node">
<title>Node8</title>
<g id="a_node3"><a xlink:href="../../d5/d60/pps-client_8cpp.html#a3f6b018eacd7b65348729b5fe8e36d62" target="_top" xlink:title=" ">
<polygon fill="white" stroke="red" points="121,-153 121,-183 267,-183 267,-153 121,-153"/>
<text text-anchor="start" x="129" y="-171" font-family="Helvetica,sans-Serif" font-size="10.00">detectExteralSystemClock</text>
<text text-anchor="middle" x="194" y="-160" font-family="Helvetica,sans-Serif" font-size="10.00">Change</text>
</a>
</g>
</g>
<!-- Node1&#45;&gt;Node8 -->
<g id="edge2" class="edge">
<title>Node1&#45;&gt;Node8</title>
<path fill="none" stroke="midnightblue" d="M61.38,-114.54C76.9,-122.64 100.12,-134.29 121,-143 126.32,-145.22 131.91,-147.41 137.54,-149.51"/>
<polygon fill="midnightblue" stroke="midnightblue" points="136.38,-152.81 146.98,-152.96 138.79,-146.24 136.38,-152.81"/>
</g>
<!-- Node9 -->
<g id="node4" class="node">
<title>Node9</title>
<g id="a_node4"><a xlink:href="../../d5/d60/pps-client_8cpp.html#ad144809048457027dfbddc492b3d70c1" target="_top" xlink:title=" ">
<polygon fill="white" stroke="black" points="141,-114.5 141,-133.5 247,-133.5 247,-114.5 141,-114.5"/>
<text text-anchor="middle" x="194" y="-121.5" font-family="Helvetica,sans-Serif" font-size="10.00">getNearestSecond</text>
</a>
</g>
</g>
<!-- Node1&#45;&gt;Node9 -->
<g id="edge3" class="edge">
<title>Node1&#45;&gt;Node9</title>
<path fill="none" stroke="midnightblue" d="M85.14,-110.29C99.32,-112.09 115.48,-114.15 130.91,-116.11"/>
<polygon fill="midnightblue" stroke="midnightblue" points="130.55,-119.59 140.91,-117.38 131.43,-112.65 130.55,-119.59"/>
</g>
<!-- Node10 -->
<g id="node5" class="node">
<title>Node10</title>
<g id="a_node5"><a xlink:href="../../d5/d60/pps-client_8cpp.html#a2237f5f4d517383c7b5d34dd7864272b" target="_top" xlink:title=" ">
<polygon fill="white" stroke="red" points="138.5,-76.5 138.5,-95.5 249.5,-95.5 249.5,-76.5 138.5,-76.5"/>
<text text-anchor="middle" x="194" y="-83.5" font-family="Helvetica,sans-Serif" font-size="10.00">setClockToGPStime</text>
</a>
</g>
</g>
<!-- Node1&#45;&gt;Node10 -->
<g id="edge4" class="edge">
<title>Node1&#45;&gt;Node10</title>
<path fill="none" stroke="midnightblue" d="M85.14,-99.71C98.55,-98 113.74,-96.07 128.4,-94.21"/>
<polygon fill="midnightblue" stroke="midnightblue" points="128.95,-97.67 138.43,-92.93 128.07,-90.72 128.95,-97.67"/>
</g>
<!-- Node11 -->
<g id="node6" class="node">
<title>Node11</title>
<g id="a_node6"><a xlink:href="../../d5/d60/pps-client_8cpp.html#a576eb54270dcbc8c14f4f253c1ab7432" target="_top" xlink:title=" ">
<polygon fill="white" stroke="red" points="137.5,-38.5 137.5,-57.5 250.5,-57.5 250.5,-38.5 137.5,-38.5"/>
<text text-anchor="middle" x="194" y="-45.5" font-family="Helvetica,sans-Serif" font-size="10.00">setClocktoNISTtime</text>
</a>
</g>
</g>
<!-- Node1&#45;&gt;Node11 -->
<g id="edge5" class="edge">
<title>Node1&#45;&gt;Node11</title>
<path fill="none" stroke="midnightblue" d="M60.61,-95.39C76.03,-87.02 99.52,-75.01 121,-67 127.43,-64.6 134.29,-62.38 141.12,-60.37"/>
<polygon fill="midnightblue" stroke="midnightblue" points="142.38,-63.65 151.06,-57.57 140.49,-56.91 142.38,-63.65"/>
</g>
<!-- Node12 -->
<g id="node7" class="node">
<title>Node12</title>
<g id="a_node7"><a xlink:href="../../d0/d3e/pps-files_8cpp.html#a19da05b45d1e94170f5fe86decb70bfb" target="_top" xlink:title=" ">
<polygon fill="white" stroke="red" points="152.5,-0.5 152.5,-19.5 235.5,-19.5 235.5,-0.5 152.5,-0.5"/>
<text text-anchor="middle" x="194" y="-7.5" font-family="Helvetica,sans-Serif" font-size="10.00">sysCommand</text>
</a>
</g>
</g>
<!-- Node1&#45;&gt;Node12 -->
<g id="edge6" class="edge">
<title>Node1&#45;&gt;Node12</title>
<path fill="none" stroke="midnightblue" d="M50.48,-95.47C62.84,-79.29 90.2,-46.51 121,-29 127.64,-25.22 135.06,-22.18 142.53,-19.73"/>
<polygon fill="midnightblue" stroke="midnightblue" points="143.73,-23.03 152.33,-16.84 141.75,-16.31 143.73,-23.03"/>
</g>
</g>
</svg>
