<?xml version="1.0" encoding="UTF-8" standalone="no"?>
<!DOCTYPE svg PUBLIC "-//W3C//DTD SVG 1.1//EN"
 "http://www.w3.org/Graphics/SVG/1.1/DTD/svg11.dtd">
<!-- Generated by graphviz version 2.43.0 (0)
 -->
<!-- Title: removeNoise Pages: 1 -->
<svg width="243pt" height="294pt"
 viewBox="0.00 0.00 243.00 294.00" xmlns="http://www.w3.org/2000/svg" xmlns:xlink="http://www.w3.org/1999/xlink">
<g id="graph0" class="graph" transform="scale(1 1) rotate(0) translate(4 290)">
<title>removeNoise</title>
<polygon fill="white" stroke="transparent" points="-4,4 -4,-290 239,-290 239,4 -4,4"/>
<!-- Node1 -->
<g id="node1" class="node">
<title>Node1</title>
<g id="a_node1"><a xlink:title=" ">
<polygon fill="#bfbfbf" stroke="black" points="0,-133.5 0,-152.5 82,-152.5 82,-133.5 0,-133.5"/>
<text text-anchor="middle" x="41" y="-140.5" font-family="Helvetica,sans-Serif" font-size="10.00">removeNoise</text>
</a>
</g>
</g>
<!-- Node2 -->
<g id="node2" class="node">
<title>Node2</title>
<g id="a_node2"><a xlink:href="../../d0/d3e/pps-files_8cpp.html#ae85b016d394a44411ff7eed01275a7f9" target="_top" xlink:title=" ">
<polygon fill="white" stroke="black" points="128.5,-266.5 128.5,-285.5 224.5,-285.5 224.5,-266.5 128.5,-266.5"/>
<text text-anchor="middle" x="176.5" y="-273.5" font-family="Helvetica,sans-Serif" font-size="10.00">buildErrorDistrib</text>
</a>
</g>
</g>
<!-- Node1&#45;&gt;Node2 -->
<g id="edge1" class="edge">
<title>Node1&#45;&gt;Node2</title>
<path fill="none" stroke="midnightblue" d="M45.75,-152.51C54.81,-174.27 79.97,-228.03 118,-257 120.47,-258.88 123.14,-260.58 125.92,-262.12"/>
<polygon fill="midnightblue" stroke="midnightblue" points="124.58,-265.36 135.12,-266.49 127.59,-259.04 124.58,-265.36"/>
</g>
<!-- Node3 -->
<g id="node3" class="node">
<title>Node3</title>
<g id="a_node3"><a xlink:href="../../d0/d3e/pps-files_8cpp.html#abec458c05c4b47e56643bfa1bd52fbb5" target="_top" xlink:title=" ">
<polygon fill="white" stroke="black" points="128.5,-228.5 128.5,-247.5 224.5,-247.5 224.5,-228.5 128.5,-228.5"/>
<text text-anchor="middle" x="176.5" y="-235.5" font-family="Helvetica,sans-Serif" font-size="10.00">buildJitterDistrib</text>
</a>
</g>
</g>
<!-- Node1&#45;&gt;Node3 -->
<g id="edge2" class="edge">
<title>Node1&#45;&gt;Node3</title>
<path fill="none" stroke="midnightblue" d="M49.11,-152.6C61.43,-168.58 88.29,-200.69 118,-219 121.38,-221.08 125.01,-222.96 128.75,-224.66"/>
<polygon fill="midnightblue" stroke="midnightblue" points="127.58,-227.96 138.17,-228.49 130.22,-221.48 127.58,-227.96"/>
</g>
<!-- Node4 -->
<g id="node4" class="node">
<title>Node4</title>
<g id="a_node4"><a xlink:href="../../d5/d60/pps-client_8cpp.html#ad889ebd8ff46d7aece2aa6c4c7252ed2" target="_top" xlink:title=" ">
<polygon fill="white" stroke="black" points="118,-190.5 118,-209.5 235,-209.5 235,-190.5 118,-190.5"/>
<text text-anchor="middle" x="176.5" y="-197.5" font-family="Helvetica,sans-Serif" font-size="10.00">buildRawErrorDistrib</text>
</a>
</g>
</g>
<!-- Node1&#45;&gt;Node4 -->
<g id="edge3" class="edge">
<title>Node1&#45;&gt;Node4</title>
<path fill="none" stroke="midnightblue" d="M59.48,-152.65C74.67,-160.81 97.41,-172.5 118,-181 123.16,-183.13 128.66,-185.2 134.13,-187.13"/>
<polygon fill="midnightblue" stroke="midnightblue" points="133.27,-190.53 143.87,-190.46 135.53,-183.91 133.27,-190.53"/>
</g>
<!-- Node5 -->
<g id="node5" class="node">
<title>Node5</title>
<g id="a_node5"><a xlink:href="../../d5/d60/pps-client_8cpp.html#a5443ab59528135706e70991cf1f880d2" target="_top" xlink:title=" ">
<polygon fill="white" stroke="black" points="141.5,-152.5 141.5,-171.5 211.5,-171.5 211.5,-152.5 141.5,-152.5"/>
<text text-anchor="middle" x="176.5" y="-159.5" font-family="Helvetica,sans-Serif" font-size="10.00">clampJitter</text>
</a>
</g>
</g>
<!-- Node1&#45;&gt;Node5 -->
<g id="edge4" class="edge">
<title>Node1&#45;&gt;Node5</title>
<path fill="none" stroke="midnightblue" d="M82.05,-148.7C97.55,-150.91 115.35,-153.44 131.23,-155.7"/>
<polygon fill="midnightblue" stroke="midnightblue" points="130.95,-159.19 141.34,-157.14 131.93,-152.26 130.95,-159.19"/>
</g>
<!-- Node6 -->
<g id="node6" class="node">
<title>Node6</title>
<g id="a_node6"><a xlink:href="../../d5/d60/pps-client_8cpp.html#a0b30b41495a6426b5bb557ced936901b" target="_top" xlink:title=" ">
<polygon fill="white" stroke="black" points="125.5,-114.5 125.5,-133.5 227.5,-133.5 227.5,-114.5 125.5,-114.5"/>
<text text-anchor="middle" x="176.5" y="-121.5" font-family="Helvetica,sans-Serif" font-size="10.00">detectDelaySpike</text>
</a>
</g>
</g>
<!-- Node1&#45;&gt;Node6 -->
<g id="edge5" class="edge">
<title>Node1&#45;&gt;Node6</title>
<path fill="none" stroke="midnightblue" d="M82.05,-137.3C92.4,-135.83 103.78,-134.21 114.92,-132.62"/>
<polygon fill="midnightblue" stroke="midnightblue" points="115.65,-136.05 125.05,-131.18 114.66,-129.12 115.65,-136.05"/>
</g>
<!-- Node7 -->
<g id="node7" class="node">
<title>Node7</title>
<g id="a_node7"><a xlink:href="../../d5/d60/pps-client_8cpp.html#abfb78affbbc9d2a44febd476606ceba9" target="_top" xlink:title=" ">
<polygon fill="white" stroke="black" points="124.5,-76.5 124.5,-95.5 228.5,-95.5 228.5,-76.5 124.5,-76.5"/>
<text text-anchor="middle" x="176.5" y="-83.5" font-family="Helvetica,sans-Serif" font-size="10.00">getAvgNoiseLevel</text>
</a>
</g>
</g>
<!-- Node1&#45;&gt;Node7 -->
<g id="edge6" class="edge">
<title>Node1&#45;&gt;Node7</title>
<path fill="none" stroke="midnightblue" d="M59.48,-133.35C74.67,-125.19 97.41,-113.5 118,-105 123.16,-102.87 128.66,-100.8 134.13,-98.87"/>
<polygon fill="midnightblue" stroke="midnightblue" points="135.53,-102.09 143.87,-95.54 133.27,-95.47 135.53,-102.09"/>
</g>
<!-- Node8 -->
<g id="node8" class="node">
<title>Node8</title>
<g id="a_node8"><a xlink:href="../../d5/d60/pps-client_8cpp.html#a9173ef2f7e0585cc0edbc7e5a733bc3b" target="_top" xlink:title=" ">
<polygon fill="white" stroke="red" points="136.5,-38.5 136.5,-57.5 216.5,-57.5 216.5,-38.5 136.5,-38.5"/>
<text text-anchor="middle" x="176.5" y="-45.5" font-family="Helvetica,sans-Serif" font-size="10.00">getTimeSlew</text>
</a>
</g>
</g>
<!-- Node1&#45;&gt;Node8 -->
<g id="edge7" class="edge">
<title>Node1&#45;&gt;Node8</title>
<path fill="none" stroke="midnightblue" d="M49.11,-133.4C61.43,-117.42 88.29,-85.31 118,-67 121.38,-64.92 125.01,-63.04 128.75,-61.34"/>
<polygon fill="midnightblue" stroke="midnightblue" points="130.22,-64.52 138.17,-57.51 127.58,-58.04 130.22,-64.52"/>
</g>
<!-- Node10 -->
<g id="node9" class="node">
<title>Node10</title>
<g id="a_node9"><a xlink:href="../../d5/d60/pps-client_8cpp.html#ab553045428f9337e754db13f1d0ea647" target="_top" xlink:title=" ">
<polygon fill="white" stroke="black" points="136.5,-0.5 136.5,-19.5 216.5,-19.5 216.5,-0.5 136.5,-0.5"/>
<text text-anchor="middle" x="176.5" y="-7.5" font-family="Helvetica,sans-Serif" font-size="10.00">setHardLimit</text>
</a>
</g>
</g>
<!-- Node1&#45;&gt;Node10 -->
<g id="edge8" class="edge">
<title>Node1&#45;&gt;Node10</title>
<path fill="none" stroke="midnightblue" d="M45.75,-133.49C54.81,-111.73 79.97,-57.97 118,-29 120.8,-26.86 123.86,-24.96 127.05,-23.27"/>
<polygon fill="midnightblue" stroke="midnightblue" points="128.68,-26.37 136.32,-19.03 125.77,-20.01 128.68,-26.37"/>
</g>
</g>
</svg>
