<?xml version="1.0" encoding="UTF-8" standalone="no"?>
<!DOCTYPE svg PUBLIC "-//W3C//DTD SVG 1.1//EN"
 "http://www.w3.org/Graphics/SVG/1.1/DTD/svg11.dtd">
<!-- Generated by graphviz version 2.40.1 (20161225.0304)
 -->
<!-- Title: setClockFractionalSecond Pages: 1 -->
<svg width="240pt" height="66pt"
 viewBox="0.00 0.00 240.00 66.00" xmlns="http://www.w3.org/2000/svg" xmlns:xlink="http://www.w3.org/1999/xlink">
<g id="graph0" class="graph" transform="scale(1 1) rotate(0) translate(4 62)">
<title>setClockFractionalSecond</title>
<polygon fill="#ffffff" stroke="transparent" points="-4,4 -4,-62 236,-62 236,4 -4,4"/>
<!-- Node1 -->
<g id="node1" class="node">
<title>Node1</title>
<g id="a_node1"><a xlink:title=" ">
<polygon fill="#bfbfbf" stroke="#000000" points="0,-19.5 0,-38.5 131,-38.5 131,-19.5 0,-19.5"/>
<text text-anchor="middle" x="65.5" y="-26.5" font-family="Helvetica,sans-Serif" font-size="10.00" fill="#000000">setClockFractionalSecond</text>
</a>
</g>
</g>
<!-- Node2 -->
<g id="node2" class="node">
<title>Node2</title>
<g id="a_node2"><a xlink:href="../../d5/d60/pps-client_8cpp.html#a4efd2ecedb34b38cd1000d86ba5f6ef9" target="_top" xlink:title=" ">
<polygon fill="#ffffff" stroke="#000000" points="173,-38.5 173,-57.5 226,-57.5 226,-38.5 173,-38.5"/>
<text text-anchor="middle" x="199.5" y="-45.5" font-family="Helvetica,sans-Serif" font-size="10.00" fill="#000000">adjtimex</text>
</a>
</g>
</g>
<!-- Node1&#45;&gt;Node2 -->
<g id="edge1" class="edge">
<title>Node1&#45;&gt;Node2</title>
<path fill="none" stroke="#191970" d="M131.3223,-38.333C142.1129,-39.863 152.9443,-41.3988 162.6963,-42.7816"/>
<polygon fill="#191970" stroke="#191970" points="162.4094,-46.2758 172.8018,-44.2144 163.3922,-39.3451 162.4094,-46.2758"/>
</g>
<!-- Node3 -->
<g id="node3" class="node">
<title>Node3</title>
<g id="a_node3"><a xlink:href="../../d0/d3e/pps-files_8cpp.html#a6d6a61f9f40278df5e7ba5fa5b3a9d31" target="_top" xlink:title=" ">
<polygon fill="#ffffff" stroke="#ff0000" points="167,-.5 167,-19.5 232,-19.5 232,-.5 167,-.5"/>
<text text-anchor="middle" x="199.5" y="-7.5" font-family="Helvetica,sans-Serif" font-size="10.00" fill="#000000">writeToLog</text>
</a>
</g>
</g>
<!-- Node1&#45;&gt;Node3 -->
<g id="edge2" class="edge">
<title>Node1&#45;&gt;Node3</title>
<path fill="none" stroke="#191970" d="M131.3223,-19.667C139.9784,-18.4396 148.6607,-17.2086 156.791,-16.0558"/>
<polygon fill="#191970" stroke="#191970" points="157.3411,-19.5128 166.7507,-14.6436 156.3584,-12.5822 157.3411,-19.5128"/>
</g>
</g>
</svg>
