<?xml version="1.0" encoding="UTF-8" standalone="no"?>
<!DOCTYPE svg PUBLIC "-//W3C//DTD SVG 1.1//EN"
 "http://www.w3.org/Graphics/SVG/1.1/DTD/svg11.dtd">
<!-- Generated by graphviz version 2.40.1 (20161225.0304)
 -->
<!-- Title: makeTimeCorrection Pages: 1 -->
<svg width="277pt" height="408pt"
 viewBox="0.00 0.00 277.00 408.00" xmlns="http://www.w3.org/2000/svg" xmlns:xlink="http://www.w3.org/1999/xlink">
<g id="graph0" class="graph" transform="scale(1 1) rotate(0) translate(4 404)">
<title>makeTimeCorrection</title>
<polygon fill="#ffffff" stroke="transparent" points="-4,4 -4,-404 273,-404 273,4 -4,4"/>
<!-- Node1 -->
<g id="node1" class="node">
<title>Node1</title>
<g id="a_node1"><a xlink:title=" ">
<polygon fill="#bfbfbf" stroke="#000000" points="0,-190.5 0,-209.5 107,-209.5 107,-190.5 0,-190.5"/>
<text text-anchor="middle" x="53.5" y="-197.5" font-family="Helvetica,sans-Serif" font-size="10.00" fill="#000000">makeTimeCorrection</text>
</a>
</g>
</g>
<!-- Node2 -->
<g id="node2" class="node">
<title>Node2</title>
<g id="a_node2"><a xlink:href="../../d5/d60/pps-client_8cpp.html#a4efd2ecedb34b38cd1000d86ba5f6ef9" target="_top" xlink:title=" ">
<polygon fill="#ffffff" stroke="#000000" points="179.5,-380.5 179.5,-399.5 232.5,-399.5 232.5,-380.5 179.5,-380.5"/>
<text text-anchor="middle" x="206" y="-387.5" font-family="Helvetica,sans-Serif" font-size="10.00" fill="#000000">adjtimex</text>
</a>
</g>
</g>
<!-- Node1&#45;&gt;Node2 -->
<g id="edge1" class="edge">
<title>Node1&#45;&gt;Node2</title>
<path fill="none" stroke="#191970" d="M55.7727,-209.818C63.0413,-238.997 88.5058,-325.9542 143,-371 150.501,-377.2004 159.9859,-381.3782 169.3039,-384.1929"/>
<polygon fill="#191970" stroke="#191970" points="168.6915,-387.649 179.2475,-386.7433 170.4307,-380.8685 168.6915,-387.649"/>
</g>
<!-- Node3 -->
<g id="node3" class="node">
<title>Node3</title>
<g id="a_node3"><a xlink:href="../../d5/d60/pps-client_8cpp.html#a45f6556dce353a14a22a6fa6b976ebcd" target="_top" xlink:title=" ">
<polygon fill="#ffffff" stroke="#ff0000" points="167,-342.5 167,-361.5 245,-361.5 245,-342.5 167,-342.5"/>
<text text-anchor="middle" x="206" y="-349.5" font-family="Helvetica,sans-Serif" font-size="10.00" fill="#000000">doTimeFixups</text>
</a>
</g>
</g>
<!-- Node1&#45;&gt;Node3 -->
<g id="edge2" class="edge">
<title>Node1&#45;&gt;Node3</title>
<path fill="none" stroke="#191970" d="M57.2748,-209.6991C67.3159,-234.2165 97.0902,-299.1247 143,-333 147.2573,-336.1413 152.0361,-338.7679 157.0083,-340.9631"/>
<polygon fill="#191970" stroke="#191970" points="156.1319,-344.375 166.7225,-344.675 158.6305,-337.8361 156.1319,-344.375"/>
</g>
<!-- Node14 -->
<g id="node4" class="node">
<title>Node14</title>
<g id="a_node4"><a xlink:href="../../d5/d60/pps-client_8cpp.html#ad4d47fa254fa62368be4b75c2d5a5889" target="_top" xlink:title=" ">
<polygon fill="#ffffff" stroke="#000000" points="163,-304.5 163,-323.5 249,-323.5 249,-304.5 163,-304.5"/>
<text text-anchor="middle" x="206" y="-311.5" font-family="Helvetica,sans-Serif" font-size="10.00" fill="#000000">getAcquireState</text>
</a>
</g>
</g>
<!-- Node1&#45;&gt;Node14 -->
<g id="edge3" class="edge">
<title>Node1&#45;&gt;Node14</title>
<path fill="none" stroke="#191970" d="M59.9227,-209.6512C73.1635,-228.8003 105.4242,-271.7519 143,-295 146.4003,-297.1037 150.0483,-298.9874 153.813,-300.6718"/>
<polygon fill="#191970" stroke="#191970" points="152.7504,-304.0158 163.336,-304.4603 155.338,-297.5116 152.7504,-304.0158"/>
</g>
<!-- Node15 -->
<g id="node5" class="node">
<title>Node15</title>
<g id="a_node5"><a xlink:href="../../d5/d60/pps-client_8cpp.html#a8696238d80e8a7a4ae44de6de50ab1ce" target="_top" xlink:title=" ">
<polygon fill="#ffffff" stroke="#ff0000" points="175,-266.5 175,-285.5 237,-285.5 237,-266.5 175,-266.5"/>
<text text-anchor="middle" x="206" y="-273.5" font-family="Helvetica,sans-Serif" font-size="10.00" fill="#000000">getIntegral</text>
</a>
</g>
</g>
<!-- Node1&#45;&gt;Node15 -->
<g id="edge4" class="edge">
<title>Node1&#45;&gt;Node15</title>
<path fill="none" stroke="#191970" d="M66.1974,-209.6852C82.988,-222.1071 113.8641,-243.6376 143,-257 150.0036,-260.212 157.6897,-263.0503 165.2126,-265.489"/>
<polygon fill="#191970" stroke="#191970" points="164.3507,-268.8853 174.9371,-268.4623 166.3975,-262.1912 164.3507,-268.8853"/>
</g>
<!-- Node18 -->
<g id="node6" class="node">
<title>Node18</title>
<g id="a_node6"><a xlink:href="../../d5/d60/pps-client_8cpp.html#af3e070dc58f7e490d45a2f22b8a39120" target="_top" xlink:title=" ">
<polygon fill="#ffffff" stroke="#000000" points="157,-228.5 157,-247.5 255,-247.5 255,-228.5 157,-228.5"/>
<text text-anchor="middle" x="206" y="-235.5" font-family="Helvetica,sans-Serif" font-size="10.00" fill="#000000">getMovingAverage</text>
</a>
</g>
</g>
<!-- Node1&#45;&gt;Node18 -->
<g id="edge5" class="edge">
<title>Node1&#45;&gt;Node18</title>
<path fill="none" stroke="#191970" d="M91.9822,-209.589C112.0156,-214.5809 136.7023,-220.7324 157.976,-226.0334"/>
<polygon fill="#191970" stroke="#191970" points="157.245,-229.4582 167.7945,-228.4799 158.9375,-222.6659 157.245,-229.4582"/>
</g>
<!-- Node19 -->
<g id="node7" class="node">
<title>Node19</title>
<g id="a_node7"><a xlink:href="../../d5/d60/pps-client_8cpp.html#a2a7a8a06f0119359f624d891dbcfa08f" target="_top" xlink:title=" ">
<polygon fill="#ffffff" stroke="#000000" points="163.5,-190.5 163.5,-209.5 248.5,-209.5 248.5,-190.5 163.5,-190.5"/>
<text text-anchor="middle" x="206" y="-197.5" font-family="Helvetica,sans-Serif" font-size="10.00" fill="#000000">integralIsReady</text>
</a>
</g>
</g>
<!-- Node1&#45;&gt;Node19 -->
<g id="edge6" class="edge">
<title>Node1&#45;&gt;Node19</title>
<path fill="none" stroke="#191970" d="M107.2658,-200C122.1761,-200 138.3462,-200 153.2008,-200"/>
<polygon fill="#191970" stroke="#191970" points="153.243,-203.5001 163.2429,-200 153.2429,-196.5001 153.243,-203.5001"/>
</g>
<!-- Node20 -->
<g id="node8" class="node">
<title>Node20</title>
<g id="a_node8"><a xlink:href="../../d5/d60/pps-client_8cpp.html#aec269fd5b44aeaa993781dddc42a2b59" target="_top" xlink:title=" ">
<polygon fill="#ffffff" stroke="#000000" points="151.5,-152.5 151.5,-171.5 260.5,-171.5 260.5,-152.5 151.5,-152.5"/>
<text text-anchor="middle" x="206" y="-159.5" font-family="Helvetica,sans-Serif" font-size="10.00" fill="#000000">makeAverageIntegral</text>
</a>
</g>
</g>
<!-- Node1&#45;&gt;Node20 -->
<g id="edge7" class="edge">
<title>Node1&#45;&gt;Node20</title>
<path fill="none" stroke="#191970" d="M91.9822,-190.411C112.0156,-185.4191 136.7023,-179.2676 157.976,-173.9666"/>
<polygon fill="#191970" stroke="#191970" points="158.9375,-177.3341 167.7945,-171.5201 157.245,-170.5418 158.9375,-177.3341"/>
</g>
<!-- Node21 -->
<g id="node9" class="node">
<title>Node21</title>
<g id="a_node9"><a xlink:href="../../d0/d3e/pps-files_8cpp.html#a844fdb2cde0cee3651ece4170fbeb59a" target="_top" xlink:title=" ">
<polygon fill="#ffffff" stroke="#000000" points="168,-114.5 168,-133.5 244,-133.5 244,-114.5 168,-114.5"/>
<text text-anchor="middle" x="206" y="-121.5" font-family="Helvetica,sans-Serif" font-size="10.00" fill="#000000">recordOffsets</text>
</a>
</g>
</g>
<!-- Node1&#45;&gt;Node21 -->
<g id="edge8" class="edge">
<title>Node1&#45;&gt;Node21</title>
<path fill="none" stroke="#191970" d="M66.1974,-190.3148C82.988,-177.8929 113.8641,-156.3624 143,-143 147.9324,-140.7379 153.2034,-138.6611 158.5175,-136.7787"/>
<polygon fill="#191970" stroke="#191970" points="159.6817,-140.0801 168.0656,-133.6024 157.472,-133.438 159.6817,-140.0801"/>
</g>
<!-- Node22 -->
<g id="node10" class="node">
<title>Node22</title>
<g id="a_node10"><a xlink:href="../../d5/d60/pps-client_8cpp.html#ad71923ccec11a6d6e132c43e60fe8765" target="_top" xlink:title=" ">
<polygon fill="#ffffff" stroke="#ff0000" points="169,-76.5 169,-95.5 243,-95.5 243,-76.5 169,-76.5"/>
<text text-anchor="middle" x="206" y="-83.5" font-family="Helvetica,sans-Serif" font-size="10.00" fill="#000000">removeNoise</text>
</a>
</g>
</g>
<!-- Node1&#45;&gt;Node22 -->
<g id="edge9" class="edge">
<title>Node1&#45;&gt;Node22</title>
<path fill="none" stroke="#191970" d="M59.9227,-190.3488C73.1635,-171.1997 105.4242,-128.2481 143,-105 148.0412,-101.881 153.6271,-99.2458 159.3299,-97.0264"/>
<polygon fill="#191970" stroke="#191970" points="160.6694,-100.2662 168.9619,-93.6719 158.3671,-93.6556 160.6694,-100.2662"/>
</g>
<!-- Node32 -->
<g id="node11" class="node">
<title>Node32</title>
<g id="a_node11"><a xlink:href="../../d5/d60/pps-client_8cpp.html#a41cf700bfcf61b67c3ac81dffa87ba61" target="_top" xlink:title=" ">
<polygon fill="#ffffff" stroke="#ff0000" points="167.5,-38.5 167.5,-57.5 244.5,-57.5 244.5,-38.5 167.5,-38.5"/>
<text text-anchor="middle" x="206" y="-45.5" font-family="Helvetica,sans-Serif" font-size="10.00" fill="#000000">savePPStime</text>
</a>
</g>
</g>
<!-- Node1&#45;&gt;Node32 -->
<g id="edge10" class="edge">
<title>Node1&#45;&gt;Node32</title>
<path fill="none" stroke="#191970" d="M57.2748,-190.3009C67.3159,-165.7835 97.0902,-100.8753 143,-67 147.4814,-63.6934 152.5405,-60.9571 157.795,-58.6938"/>
<polygon fill="#191970" stroke="#191970" points="159.2401,-61.8902 167.3812,-55.1099 156.7887,-55.3335 159.2401,-61.8902"/>
</g>
<!-- Node35 -->
<g id="node12" class="node">
<title>Node35</title>
<g id="a_node12"><a xlink:href="../../d5/d60/pps-client_8cpp.html#a0e606d0a13050543f326fe38cbdf2807" target="_top" xlink:title=" ">
<polygon fill="#ffffff" stroke="#000000" points="143,-.5 143,-19.5 269,-19.5 269,-.5 143,-.5"/>
<text text-anchor="middle" x="206" y="-7.5" font-family="Helvetica,sans-Serif" font-size="10.00" fill="#000000">signedFractionalSeconds</text>
</a>
</g>
</g>
<!-- Node1&#45;&gt;Node35 -->
<g id="edge11" class="edge">
<title>Node1&#45;&gt;Node35</title>
<path fill="none" stroke="#191970" d="M55.7727,-190.182C63.0413,-161.003 88.5058,-74.0458 143,-29 145.0417,-27.3123 147.2304,-25.7744 149.5227,-24.3731"/>
<polygon fill="#191970" stroke="#191970" points="151.4888,-27.2981 158.7862,-19.617 148.2916,-21.0709 151.4888,-27.2981"/>
</g>
</g>
</svg>
