<?xml version="1.0" encoding="UTF-8" standalone="no"?>
<!DOCTYPE svg PUBLIC "-//W3C//DTD SVG 1.1//EN"
 "http://www.w3.org/Graphics/SVG/1.1/DTD/svg11.dtd">
<!-- Generated by graphviz version 2.40.1 (20161225.0304)
 -->
<!-- Title: waitForPPS Pages: 1 -->
<svg width="345pt" height="788pt"
 viewBox="0.00 0.00 345.00 788.00" xmlns="http://www.w3.org/2000/svg" xmlns:xlink="http://www.w3.org/1999/xlink">
<g id="graph0" class="graph" transform="scale(1 1) rotate(0) translate(4 784)">
<title>waitForPPS</title>
<polygon fill="#ffffff" stroke="transparent" points="-4,4 -4,-784 341,-784 341,4 -4,4"/>
<!-- Node1 -->
<g id="node1" class="node">
<title>Node1</title>
<g id="a_node1"><a xlink:title=" ">
<polygon fill="#bfbfbf" stroke="#000000" points="0,-380.5 0,-399.5 69,-399.5 69,-380.5 0,-380.5"/>
<text text-anchor="middle" x="34.5" y="-387.5" font-family="Helvetica,sans-Serif" font-size="10.00" fill="#000000">waitForPPS</text>
</a>
</g>
</g>
<!-- Node2 -->
<g id="node2" class="node">
<title>Node2</title>
<g id="a_node2"><a xlink:href="../../dc/d4f/pps-sntp_8cpp.html#a715708bbeb9de8b18c103d6e5baad152" target="_top" xlink:title=" ">
<polygon fill="#ffffff" stroke="#000000" points="105,-760.5 105,-779.5 236,-779.5 236,-760.5 105,-760.5"/>
<text text-anchor="middle" x="170.5" y="-767.5" font-family="Helvetica,sans-Serif" font-size="10.00" fill="#000000">allocInitializeNISTThreads</text>
</a>
</g>
</g>
<!-- Node1&#45;&gt;Node2 -->
<g id="edge1" class="edge">
<title>Node1&#45;&gt;Node2</title>
<path fill="none" stroke="#191970" d="M35.0615,-399.7383C38.2562,-451.8248 55.7699,-697.1561 105,-751 106.2084,-752.3217 107.5027,-753.5535 108.8685,-754.7015"/>
<polygon fill="#191970" stroke="#191970" points="107.1168,-757.7409 117.3722,-760.4013 111.0142,-751.9262 107.1168,-757.7409"/>
</g>
<!-- Node3 -->
<g id="node3" class="node">
<title>Node3</title>
<g id="a_node3"><a xlink:href="../../df/d28/pps-serial_8cpp.html#ab10bb47e214849a31ac6c87556bed416" target="_top" xlink:title=" ">
<polygon fill="#ffffff" stroke="#000000" points="106.5,-722.5 106.5,-741.5 234.5,-741.5 234.5,-722.5 106.5,-722.5"/>
<text text-anchor="middle" x="170.5" y="-729.5" font-family="Helvetica,sans-Serif" font-size="10.00" fill="#000000">allocInitializeSerialThread</text>
</a>
</g>
</g>
<!-- Node1&#45;&gt;Node3 -->
<g id="edge2" class="edge">
<title>Node1&#45;&gt;Node3</title>
<path fill="none" stroke="#191970" d="M35.2965,-399.6636C39.4892,-448.2524 60.5144,-665.4088 105,-713 106.2507,-714.338 107.5894,-715.5837 109.0009,-716.7433"/>
<polygon fill="#191970" stroke="#191970" points="107.4916,-719.9386 117.7753,-722.4876 111.3258,-714.082 107.4916,-719.9386"/>
</g>
<!-- Node4 -->
<g id="node4" class="node">
<title>Node4</title>
<g id="a_node4"><a xlink:href="../../d0/d3e/pps-files_8cpp.html#a99055dd0dc705a74bb0b3ab03fea92e3" target="_top" xlink:title=" ">
<polygon fill="#ffffff" stroke="#ff0000" points="121.5,-684.5 121.5,-703.5 219.5,-703.5 219.5,-684.5 121.5,-684.5"/>
<text text-anchor="middle" x="170.5" y="-691.5" font-family="Helvetica,sans-Serif" font-size="10.00" fill="#000000">bufferStateParams</text>
</a>
</g>
</g>
<!-- Node1&#45;&gt;Node4 -->
<g id="edge3" class="edge">
<title>Node1&#45;&gt;Node4</title>
<path fill="none" stroke="#191970" d="M35.6032,-399.7065C40.918,-444.8308 65.2686,-633.6538 105,-675 107.2971,-677.3905 109.8753,-679.4853 112.6456,-681.3206"/>
<polygon fill="#191970" stroke="#191970" points="110.9836,-684.4008 121.4439,-686.0839 114.3163,-678.245 110.9836,-684.4008"/>
</g>
<!-- Node10 -->
<g id="node5" class="node">
<title>Node10</title>
<g id="a_node5"><a xlink:href="../../d5/d60/pps-client_8cpp.html#a5408f66dcd74d49bb4c84d775c7de62e" target="_top" xlink:title=" ">
<polygon fill="#ffffff" stroke="#000000" points="121,-646.5 121,-665.5 220,-665.5 220,-646.5 121,-646.5"/>
<text text-anchor="middle" x="170.5" y="-653.5" font-family="Helvetica,sans-Serif" font-size="10.00" fill="#000000">checkPPSInterrupt</text>
</a>
</g>
</g>
<!-- Node1&#45;&gt;Node10 -->
<g id="edge4" class="edge">
<title>Node1&#45;&gt;Node10</title>
<path fill="none" stroke="#191970" d="M36.0075,-399.776C42.5824,-441.2139 69.9949,-601.8442 105,-637 107.1147,-639.1238 109.4516,-641.0134 111.946,-642.6943"/>
<polygon fill="#191970" stroke="#191970" points="110.4915,-645.8887 120.9402,-647.6424 113.8657,-639.7556 110.4915,-645.8887"/>
</g>
<!-- Node11 -->
<g id="node6" class="node">
<title>Node11</title>
<g id="a_node6"><a xlink:href="../../dc/d4f/pps-sntp_8cpp.html#a82679dd7549c68b79ac871bf9b90e81b" target="_top" xlink:title=" ">
<polygon fill="#ffffff" stroke="#000000" points="124.5,-608.5 124.5,-627.5 216.5,-627.5 216.5,-608.5 124.5,-608.5"/>
<text text-anchor="middle" x="170.5" y="-615.5" font-family="Helvetica,sans-Serif" font-size="10.00" fill="#000000">freeNISTThreads</text>
</a>
</g>
</g>
<!-- Node1&#45;&gt;Node11 -->
<g id="edge5" class="edge">
<title>Node1&#45;&gt;Node11</title>
<path fill="none" stroke="#191970" d="M36.4858,-399.5081C44.3787,-436.4531 74.5811,-569.862 105,-599 108.0782,-601.9485 111.5859,-604.4435 115.3415,-606.5542"/>
<polygon fill="#191970" stroke="#191970" points="113.9269,-609.7565 124.4688,-610.8144 116.8876,-603.4134 113.9269,-609.7565"/>
</g>
<!-- Node12 -->
<g id="node7" class="node">
<title>Node12</title>
<g id="a_node7"><a xlink:href="../../df/d28/pps-serial_8cpp.html#a5f4271a6bb9ed778df76908d570a0660" target="_top" xlink:title=" ">
<polygon fill="#ffffff" stroke="#000000" points="126.5,-570.5 126.5,-589.5 214.5,-589.5 214.5,-570.5 126.5,-570.5"/>
<text text-anchor="middle" x="170.5" y="-577.5" font-family="Helvetica,sans-Serif" font-size="10.00" fill="#000000">freeSerialThread</text>
</a>
</g>
</g>
<!-- Node1&#45;&gt;Node12 -->
<g id="edge6" class="edge">
<title>Node1&#45;&gt;Node12</title>
<path fill="none" stroke="#191970" d="M35.5934,-399.8004C39.373,-428.93 54.5573,-515.7635 105,-561 108.6113,-564.2386 112.7443,-566.9273 117.1395,-569.159"/>
<polygon fill="#191970" stroke="#191970" points="115.8748,-572.4246 126.4463,-573.1281 118.6209,-565.9857 115.8748,-572.4246"/>
</g>
<!-- Node13 -->
<g id="node8" class="node">
<title>Node13</title>
<g id="a_node8"><a xlink:href="../../d0/d3e/pps-files_8cpp.html#aa44705d947a7c0438a46369f83997a91" target="_top" xlink:title=" ">
<polygon fill="#ffffff" stroke="#ff0000" points="138.5,-532.5 138.5,-551.5 202.5,-551.5 202.5,-532.5 138.5,-532.5"/>
<text text-anchor="middle" x="170.5" y="-539.5" font-family="Helvetica,sans-Serif" font-size="10.00" fill="#000000">getConfigs</text>
</a>
</g>
</g>
<!-- Node1&#45;&gt;Node13 -->
<g id="edge7" class="edge">
<title>Node1&#45;&gt;Node13</title>
<path fill="none" stroke="#191970" d="M36.8307,-399.7073C43.2322,-424.2442 63.4386,-489.1943 105,-523 111.8001,-528.5311 120.1448,-532.4521 128.5721,-535.2317"/>
<polygon fill="#191970" stroke="#191970" points="127.8414,-538.6619 138.4155,-537.9985 129.7356,-531.9231 127.8414,-538.6619"/>
</g>
<!-- Node27 -->
<g id="node9" class="node">
<title>Node27</title>
<g id="a_node9"><a xlink:href="../../d5/d60/pps-client_8cpp.html#ad144809048457027dfbddc492b3d70c1" target="_top" xlink:title=" ">
<polygon fill="#ffffff" stroke="#000000" points="121.5,-494.5 121.5,-513.5 219.5,-513.5 219.5,-494.5 121.5,-494.5"/>
<text text-anchor="middle" x="170.5" y="-501.5" font-family="Helvetica,sans-Serif" font-size="10.00" fill="#000000">getNearestSecond</text>
</a>
</g>
</g>
<!-- Node1&#45;&gt;Node27 -->
<g id="edge8" class="edge">
<title>Node1&#45;&gt;Node27</title>
<path fill="none" stroke="#191970" d="M38.9991,-399.718C48.4218,-418.9871 72.1124,-462.1438 105,-485 107.8576,-486.986 110.9224,-488.7664 114.1091,-490.3622"/>
<polygon fill="#191970" stroke="#191970" points="112.7767,-493.5994 123.3421,-494.3885 115.5748,-487.183 112.7767,-493.5994"/>
</g>
<!-- Node28 -->
<g id="node10" class="node">
<title>Node28</title>
<g id="a_node10"><a xlink:href="../../d5/d60/pps-client_8cpp.html#aaf2d0a99430a6d5253b8c395c30ca7e3" target="_top" xlink:title=" ">
<polygon fill="#ffffff" stroke="#000000" points="134,-456.5 134,-475.5 207,-475.5 207,-456.5 134,-456.5"/>
<text text-anchor="middle" x="170.5" y="-463.5" font-family="Helvetica,sans-Serif" font-size="10.00" fill="#000000">gettimeofday</text>
</a>
</g>
</g>
<!-- Node1&#45;&gt;Node28 -->
<g id="edge9" class="edge">
<title>Node1&#45;&gt;Node28</title>
<path fill="none" stroke="#191970" d="M44.0933,-399.8971C56.8777,-412.5482 80.7221,-434.3261 105,-447 110.9943,-450.1292 117.5738,-452.8078 124.1791,-455.0812"/>
<polygon fill="#191970" stroke="#191970" points="123.2201,-458.4487 133.81,-458.1272 125.331,-451.7745 123.2201,-458.4487"/>
</g>
<!-- Node29 -->
<g id="node11" class="node">
<title>Node29</title>
<g id="a_node11"><a xlink:href="../../d0/d3e/pps-files_8cpp.html#af2476e49a353b0df5be1459f9a0c2260" target="_top" xlink:title=" ">
<polygon fill="#ffffff" stroke="#000000" points="135.5,-418.5 135.5,-437.5 205.5,-437.5 205.5,-418.5 135.5,-418.5"/>
<text text-anchor="middle" x="170.5" y="-425.5" font-family="Helvetica,sans-Serif" font-size="10.00" fill="#000000">HUPhandler</text>
</a>
</g>
</g>
<!-- Node1&#45;&gt;Node29 -->
<g id="edge10" class="edge">
<title>Node1&#45;&gt;Node29</title>
<path fill="none" stroke="#191970" d="M68.8185,-399.589C86.2943,-404.4719 107.7407,-410.4643 126.4251,-415.685"/>
<polygon fill="#191970" stroke="#191970" points="125.6194,-419.0938 136.1924,-418.4141 127.5032,-412.3521 125.6194,-419.0938"/>
</g>
<!-- Node30 -->
<g id="node12" class="node">
<title>Node30</title>
<g id="a_node12"><a xlink:href="../../d0/d3e/pps-files_8cpp.html#a64d14b3a59bfb90ce83b3a8071d0c3e7" target="_top" xlink:title=" ">
<polygon fill="#ffffff" stroke="#ff0000" points="132,-380.5 132,-399.5 209,-399.5 209,-380.5 132,-380.5"/>
<text text-anchor="middle" x="170.5" y="-387.5" font-family="Helvetica,sans-Serif" font-size="10.00" fill="#000000">loadLastState</text>
</a>
</g>
</g>
<!-- Node1&#45;&gt;Node30 -->
<g id="edge11" class="edge">
<title>Node1&#45;&gt;Node30</title>
<path fill="none" stroke="#191970" d="M69.1704,-390C84.942,-390 103.8916,-390 121.1149,-390"/>
<polygon fill="#191970" stroke="#191970" points="121.572,-393.5001 131.572,-390 121.5719,-386.5001 121.572,-393.5001"/>
</g>
<!-- Node34 -->
<g id="node13" class="node">
<title>Node34</title>
<g id="a_node13"><a xlink:href="../../dc/d4f/pps-sntp_8cpp.html#aa93e3d20b711f1db7e1e918246688460" target="_top" xlink:title=" ">
<polygon fill="#ffffff" stroke="#000000" points="114.5,-342.5 114.5,-361.5 226.5,-361.5 226.5,-342.5 114.5,-342.5"/>
<text text-anchor="middle" x="170.5" y="-349.5" font-family="Helvetica,sans-Serif" font-size="10.00" fill="#000000">makeNISTTimeQuery</text>
</a>
</g>
</g>
<!-- Node1&#45;&gt;Node34 -->
<g id="edge12" class="edge">
<title>Node1&#45;&gt;Node34</title>
<path fill="none" stroke="#191970" d="M68.8185,-380.411C86.2943,-375.5281 107.7407,-369.5357 126.4251,-364.315"/>
<polygon fill="#191970" stroke="#191970" points="127.5032,-367.6479 136.1924,-361.5859 125.6194,-360.9062 127.5032,-367.6479"/>
</g>
<!-- Node35 -->
<g id="node14" class="node">
<title>Node35</title>
<g id="a_node14"><a xlink:href="../../df/d28/pps-serial_8cpp.html#a90b59dcade2c7323b79780215baae4fd" target="_top" xlink:title=" ">
<polygon fill="#ffffff" stroke="#000000" points="114,-304.5 114,-323.5 227,-323.5 227,-304.5 114,-304.5"/>
<text text-anchor="middle" x="170.5" y="-311.5" font-family="Helvetica,sans-Serif" font-size="10.00" fill="#000000">makeSerialTimeQuery</text>
</a>
</g>
</g>
<!-- Node1&#45;&gt;Node35 -->
<g id="edge13" class="edge">
<title>Node1&#45;&gt;Node35</title>
<path fill="none" stroke="#191970" d="M44.0933,-380.1029C56.8777,-367.4518 80.7221,-345.6739 105,-333 109.3001,-330.7552 113.9015,-328.7423 118.5974,-326.9445"/>
<polygon fill="#191970" stroke="#191970" points="120.0187,-330.1554 128.3033,-323.5511 117.7085,-323.5476 120.0187,-330.1554"/>
</g>
<!-- Node36 -->
<g id="node15" class="node">
<title>Node36</title>
<g id="a_node15"><a xlink:href="../../d5/d60/pps-client_8cpp.html#a0010a2340006cbbcd5a4588b587a59c7" target="_top" xlink:title=" ">
<polygon fill="#ffffff" stroke="#ff0000" points="121.5,-266.5 121.5,-285.5 219.5,-285.5 219.5,-266.5 121.5,-266.5"/>
<text text-anchor="middle" x="170.5" y="-273.5" font-family="Helvetica,sans-Serif" font-size="10.00" fill="#000000">readPPS_SetTime</text>
</a>
</g>
</g>
<!-- Node1&#45;&gt;Node36 -->
<g id="edge14" class="edge">
<title>Node1&#45;&gt;Node36</title>
<path fill="none" stroke="#191970" d="M38.9991,-380.282C48.4218,-361.0129 72.1124,-317.8562 105,-295 107.8576,-293.014 110.9224,-291.2336 114.1091,-289.6378"/>
<polygon fill="#191970" stroke="#191970" points="115.5748,-292.817 123.3421,-285.6115 112.7767,-286.4006 115.5748,-292.817"/>
</g>
<!-- Node6 -->
<g id="node16" class="node">
<title>Node6</title>
<g id="a_node16"><a xlink:href="../../d0/d3e/pps-files_8cpp.html#a6d6a61f9f40278df5e7ba5fa5b3a9d31" target="_top" xlink:title=" ">
<polygon fill="#ffffff" stroke="#ff0000" points="272,-133.5 272,-152.5 337,-152.5 337,-133.5 272,-133.5"/>
<text text-anchor="middle" x="304.5" y="-140.5" font-family="Helvetica,sans-Serif" font-size="10.00" fill="#000000">writeToLog</text>
</a>
</g>
</g>
<!-- Node1&#45;&gt;Node6 -->
<g id="edge28" class="edge">
<title>Node1&#45;&gt;Node6</title>
<path fill="none" stroke="#191970" d="M36.8307,-380.2927C43.2322,-355.7558 63.4386,-290.8057 105,-257 152.0293,-218.7468 184.6307,-251.191 236,-219 259.7488,-204.1176 280.2441,-178.7104 292.475,-161.4053"/>
<polygon fill="#191970" stroke="#191970" points="295.6407,-162.9756 298.3879,-152.7431 289.8593,-159.0291 295.6407,-162.9756"/>
</g>
<!-- Node70 -->
<g id="node17" class="node">
<title>Node70</title>
<g id="a_node17"><a xlink:href="../../df/d28/pps-serial_8cpp.html#a017c6d120d7bd920065a7fece4d53978" target="_top" xlink:title=" ">
<polygon fill="#ffffff" stroke="#000000" points="130.5,-190.5 130.5,-209.5 210.5,-209.5 210.5,-190.5 130.5,-190.5"/>
<text text-anchor="middle" x="170.5" y="-197.5" font-family="Helvetica,sans-Serif" font-size="10.00" fill="#000000">saveGPSTime</text>
</a>
</g>
</g>
<!-- Node1&#45;&gt;Node70 -->
<g id="edge16" class="edge">
<title>Node1&#45;&gt;Node70</title>
<path fill="none" stroke="#191970" d="M35.8952,-380.2356C40.4351,-351.9861 57.3491,-269.308 105,-224 109.6654,-219.564 115.2173,-215.9355 121.0865,-212.9703"/>
<polygon fill="#191970" stroke="#191970" points="122.7435,-216.0652 130.4889,-208.836 119.9259,-209.6572 122.7435,-216.0652"/>
</g>
<!-- Node71 -->
<g id="node18" class="node">
<title>Node71</title>
<g id="a_node18"><a xlink:href="../../d0/d3e/pps-files_8cpp.html#a5ec7f61f0d9d13be935f67a3e9c71f56" target="_top" xlink:title=" ">
<polygon fill="#ffffff" stroke="#ff0000" points="130.5,-152.5 130.5,-171.5 210.5,-171.5 210.5,-152.5 130.5,-152.5"/>
<text text-anchor="middle" x="170.5" y="-159.5" font-family="Helvetica,sans-Serif" font-size="10.00" fill="#000000">saveLastState</text>
</a>
</g>
</g>
<!-- Node1&#45;&gt;Node71 -->
<g id="edge18" class="edge">
<title>Node1&#45;&gt;Node71</title>
<path fill="none" stroke="#191970" d="M36.4858,-380.4919C44.3787,-343.5469 74.5811,-210.138 105,-181 109.4369,-176.75 114.7662,-173.4422 120.4439,-170.8694"/>
<polygon fill="#191970" stroke="#191970" points="122.0989,-173.9868 130.2319,-167.1967 119.6397,-167.4329 122.0989,-173.9868"/>
</g>
<!-- Node72 -->
<g id="node19" class="node">
<title>Node72</title>
<g id="a_node19"><a xlink:href="../../d5/d60/pps-client_8cpp.html#a505a6be9b7669b349cea03a9fe663d74" target="_top" xlink:title=" ">
<polygon fill="#ffffff" stroke="#000000" points="131.5,-114.5 131.5,-133.5 209.5,-133.5 209.5,-114.5 131.5,-114.5"/>
<text text-anchor="middle" x="170.5" y="-121.5" font-family="Helvetica,sans-Serif" font-size="10.00" fill="#000000">setSyncDelay</text>
</a>
</g>
</g>
<!-- Node1&#45;&gt;Node72 -->
<g id="edge20" class="edge">
<title>Node1&#45;&gt;Node72</title>
<path fill="none" stroke="#191970" d="M36.0075,-380.224C42.5824,-338.7861 69.9949,-178.1558 105,-143 109.6602,-138.3198 115.3993,-134.7771 121.526,-132.0984"/>
<polygon fill="#191970" stroke="#191970" points="123.1453,-135.2357 131.3732,-128.5608 120.7787,-128.6479 123.1453,-135.2357"/>
</g>
<!-- Node40 -->
<g id="node20" class="node">
<title>Node40</title>
<g id="a_node20"><a xlink:href="../../d0/d3e/pps-files_8cpp.html#a19da05b45d1e94170f5fe86decb70bfb" target="_top" xlink:title=" ">
<polygon fill="#ffffff" stroke="#000000" points="132,-76.5 132,-95.5 209,-95.5 209,-76.5 132,-76.5"/>
<text text-anchor="middle" x="170.5" y="-83.5" font-family="Helvetica,sans-Serif" font-size="10.00" fill="#000000">sysCommand</text>
</a>
</g>
</g>
<!-- Node1&#45;&gt;Node40 -->
<g id="edge22" class="edge">
<title>Node1&#45;&gt;Node40</title>
<path fill="none" stroke="#191970" d="M35.6032,-380.2935C40.918,-335.1692 65.2686,-146.3462 105,-105 109.7955,-100.0096 115.8159,-96.3076 122.2519,-93.5658"/>
<polygon fill="#191970" stroke="#191970" points="123.6002,-96.8022 131.8844,-90.1974 121.2896,-90.1945 123.6002,-96.8022"/>
</g>
<!-- Node73 -->
<g id="node21" class="node">
<title>Node73</title>
<g id="a_node21"><a xlink:href="../../d0/d3e/pps-files_8cpp.html#a6092b615f5e717c843a1948b2a34cf6a" target="_top" xlink:title=" ">
<polygon fill="#ffffff" stroke="#000000" points="132,-38.5 132,-57.5 209,-57.5 209,-38.5 132,-38.5"/>
<text text-anchor="middle" x="170.5" y="-45.5" font-family="Helvetica,sans-Serif" font-size="10.00" fill="#000000">TERMhandler</text>
</a>
</g>
</g>
<!-- Node1&#45;&gt;Node73 -->
<g id="edge24" class="edge">
<title>Node1&#45;&gt;Node73</title>
<path fill="none" stroke="#191970" d="M35.2965,-380.3364C39.4892,-331.7476 60.5144,-114.5912 105,-67 109.7261,-61.9439 115.7089,-58.2062 122.1281,-55.4484"/>
<polygon fill="#191970" stroke="#191970" points="123.4741,-58.6853 131.7495,-52.0696 121.1547,-52.0807 123.4741,-58.6853"/>
</g>
<!-- Node74 -->
<g id="node22" class="node">
<title>Node74</title>
<g id="a_node22"><a xlink:href="../../d0/d3e/pps-files_8cpp.html#afdccb305ab5e5c4f3402fe7969c6737b" target="_top" xlink:title=" ">
<polygon fill="#ffffff" stroke="#ff0000" points="122,-.5 122,-19.5 219,-19.5 219,-.5 122,-.5"/>
<text text-anchor="middle" x="170.5" y="-7.5" font-family="Helvetica,sans-Serif" font-size="10.00" fill="#000000">writeStatusStrings</text>
</a>
</g>
</g>
<!-- Node1&#45;&gt;Node74 -->
<g id="edge26" class="edge">
<title>Node1&#45;&gt;Node74</title>
<path fill="none" stroke="#191970" d="M35.0615,-380.2617C38.2562,-328.1752 55.7699,-82.8439 105,-29 107.3894,-26.3867 110.1144,-24.1247 113.064,-22.1675"/>
<polygon fill="#191970" stroke="#191970" points="114.7341,-25.2434 121.8792,-17.4205 111.4151,-19.0802 114.7341,-25.2434"/>
</g>
<!-- Node36&#45;&gt;Node6 -->
<g id="edge15" class="edge">
<title>Node36&#45;&gt;Node6</title>
<path fill="none" stroke="#191970" d="M209.4463,-266.4692C218.7866,-262.956 228.281,-258.2481 236,-252 266.1144,-227.6241 286.854,-186.2815 297.1069,-162.1267"/>
<polygon fill="#191970" stroke="#191970" points="300.4386,-163.2248 300.966,-152.6431 293.9549,-160.5863 300.4386,-163.2248"/>
</g>
<!-- Node70&#45;&gt;Node6 -->
<g id="edge17" class="edge">
<title>Node70&#45;&gt;Node6</title>
<path fill="none" stroke="#191970" d="M208.7523,-190.466C217.8209,-187.7796 227.3643,-184.5943 236,-181 251.4581,-174.5662 267.8912,-165.5317 280.7861,-157.8861"/>
<polygon fill="#191970" stroke="#191970" points="282.7425,-160.7933 289.4858,-152.6215 279.1183,-154.8045 282.7425,-160.7933"/>
</g>
<!-- Node71&#45;&gt;Node6 -->
<g id="edge19" class="edge">
<title>Node71&#45;&gt;Node6</title>
<path fill="none" stroke="#191970" d="M210.7044,-156.2994C226.767,-154.0218 245.2897,-151.3955 261.61,-149.0814"/>
<polygon fill="#191970" stroke="#191970" points="262.5592,-152.4819 271.9688,-147.6126 261.5765,-145.5512 262.5592,-152.4819"/>
</g>
<!-- Node72&#45;&gt;Node6 -->
<g id="edge21" class="edge">
<title>Node72&#45;&gt;Node6</title>
<path fill="none" stroke="#191970" d="M209.6186,-129.5467C225.9955,-131.8688 245.0775,-134.5744 261.8167,-136.9479"/>
<polygon fill="#191970" stroke="#191970" points="261.4989,-140.4378 271.8913,-138.3764 262.4817,-133.5071 261.4989,-140.4378"/>
</g>
<!-- Node40&#45;&gt;Node6 -->
<g id="edge23" class="edge">
<title>Node40&#45;&gt;Node6</title>
<path fill="none" stroke="#191970" d="M208.7523,-95.534C217.8209,-98.2204 227.3643,-101.4057 236,-105 251.4581,-111.4338 267.8912,-120.4683 280.7861,-128.1139"/>
<polygon fill="#191970" stroke="#191970" points="279.1183,-131.1955 289.4858,-133.3785 282.7425,-125.2067 279.1183,-131.1955"/>
</g>
<!-- Node73&#45;&gt;Node6 -->
<g id="edge25" class="edge">
<title>Node73&#45;&gt;Node6</title>
<path fill="none" stroke="#191970" d="M209.0845,-55.3578C218.3318,-58.1352 227.8732,-61.9073 236,-67 259.7488,-81.8824 280.2441,-107.2896 292.475,-124.5947"/>
<polygon fill="#191970" stroke="#191970" points="289.8593,-126.9709 298.3879,-133.2569 295.6407,-123.0244 289.8593,-126.9709"/>
</g>
<!-- Node74&#45;&gt;Node6 -->
<g id="edge27" class="edge">
<title>Node74&#45;&gt;Node6</title>
<path fill="none" stroke="#191970" d="M219.0227,-19.5357C225.09,-21.9999 230.9335,-25.1 236,-29 268.1795,-53.7706 288.4746,-98.3121 298.0265,-123.7675"/>
<polygon fill="#191970" stroke="#191970" points="294.8056,-125.1554 301.4657,-133.3951 301.3976,-122.8005 294.8056,-125.1554"/>
</g>
</g>
</svg>
