<?xml version="1.0" encoding="UTF-8" standalone="no"?>
<!DOCTYPE svg PUBLIC "-//W3C//DTD SVG 1.1//EN"
 "http://www.w3.org/Graphics/SVG/1.1/DTD/svg11.dtd">
<!-- Generated by graphviz version 2.40.1 (20161225.0304)
 -->
<!-- Title: initialize Pages: 1 -->
<svg width="216pt" height="142pt"
 viewBox="0.00 0.00 216.00 142.00" xmlns="http://www.w3.org/2000/svg" xmlns:xlink="http://www.w3.org/1999/xlink">
<g id="graph0" class="graph" transform="scale(1 1) rotate(0) translate(4 138)">
<title>initialize</title>
<polygon fill="#ffffff" stroke="transparent" points="-4,4 -4,-138 212,-138 212,4 -4,4"/>
<!-- Node1 -->
<g id="node1" class="node">
<title>Node1</title>
<g id="a_node1"><a xlink:title=" ">
<polygon fill="#bfbfbf" stroke="#000000" points="0,-57.5 0,-76.5 52,-76.5 52,-57.5 0,-57.5"/>
<text text-anchor="middle" x="26" y="-64.5" font-family="Helvetica,sans-Serif" font-size="10.00" fill="#000000">initialize</text>
</a>
</g>
</g>
<!-- Node2 -->
<g id="node2" class="node">
<title>Node2</title>
<g id="a_node2"><a xlink:href="../../d5/d60/pps-client_8cpp.html#a4efd2ecedb34b38cd1000d86ba5f6ef9" target="_top" xlink:title=" ">
<polygon fill="#ffffff" stroke="#000000" points="121.5,-114.5 121.5,-133.5 174.5,-133.5 174.5,-114.5 121.5,-114.5"/>
<text text-anchor="middle" x="148" y="-121.5" font-family="Helvetica,sans-Serif" font-size="10.00" fill="#000000">adjtimex</text>
</a>
</g>
</g>
<!-- Node1&#45;&gt;Node2 -->
<g id="edge1" class="edge">
<title>Node1&#45;&gt;Node2</title>
<path fill="none" stroke="#191970" d="M39.7404,-76.7731C51.9591,-85.1284 70.5434,-97.0307 88,-105 95.4781,-108.4139 103.7428,-111.4622 111.686,-114.065"/>
<polygon fill="#191970" stroke="#191970" points="110.9037,-117.487 121.492,-117.1175 112.9842,-110.8033 110.9037,-117.487"/>
</g>
<!-- Node3 -->
<g id="node3" class="node">
<title>Node3</title>
<g id="a_node3"><a xlink:href="../../d0/d3e/pps-files_8cpp.html#ad4dd294e11fee1536b4589d5a899ca6e" target="_top" xlink:title=" ">
<polygon fill="#ffffff" stroke="#ff0000" points="88,-76.5 88,-95.5 208,-95.5 208,-76.5 88,-76.5"/>
<text text-anchor="middle" x="148" y="-83.5" font-family="Helvetica,sans-Serif" font-size="10.00" fill="#000000">assignProcessorAffinity</text>
</a>
</g>
</g>
<!-- Node1&#45;&gt;Node3 -->
<g id="edge2" class="edge">
<title>Node1&#45;&gt;Node3</title>
<path fill="none" stroke="#191970" d="M52.1721,-71.076C59.8846,-72.2771 68.7143,-73.6522 77.8233,-75.0708"/>
<polygon fill="#191970" stroke="#191970" points="77.3581,-78.5405 87.7777,-76.6211 78.4354,-71.6239 77.3581,-78.5405"/>
</g>
<!-- Node8 -->
<g id="node4" class="node">
<title>Node8</title>
<g id="a_node4"><a xlink:href="../../d0/d3e/pps-files_8cpp.html#aa44705d947a7c0438a46369f83997a91" target="_top" xlink:title=" ">
<polygon fill="#ffffff" stroke="#ff0000" points="116,-38.5 116,-57.5 180,-57.5 180,-38.5 116,-38.5"/>
<text text-anchor="middle" x="148" y="-45.5" font-family="Helvetica,sans-Serif" font-size="10.00" fill="#000000">getConfigs</text>
</a>
</g>
</g>
<!-- Node1&#45;&gt;Node8 -->
<g id="edge3" class="edge">
<title>Node1&#45;&gt;Node8</title>
<path fill="none" stroke="#191970" d="M52.1721,-62.924C67.7405,-60.4994 87.8607,-57.366 105.6427,-54.5966"/>
<polygon fill="#191970" stroke="#191970" points="106.4478,-58.0135 115.7901,-53.0163 105.3706,-51.0969 106.4478,-58.0135"/>
</g>
<!-- Node22 -->
<g id="node5" class="node">
<title>Node22</title>
<g id="a_node5"><a xlink:href="../../d0/d3e/pps-files_8cpp.html#a383f3dca6d9e0e5135fdf2a7158d8e8b" target="_top" xlink:title=" ">
<polygon fill="#ffffff" stroke="#ff0000" points="114,-.5 114,-19.5 182,-19.5 182,-.5 114,-.5"/>
<text text-anchor="middle" x="148" y="-7.5" font-family="Helvetica,sans-Serif" font-size="10.00" fill="#000000">getRPiCPU</text>
</a>
</g>
</g>
<!-- Node1&#45;&gt;Node22 -->
<g id="edge4" class="edge">
<title>Node1&#45;&gt;Node22</title>
<path fill="none" stroke="#191970" d="M39.7404,-57.2269C51.9591,-48.8716 70.5434,-36.9693 88,-29 93.0941,-26.6744 98.5532,-24.5185 104.0271,-22.5575"/>
<polygon fill="#191970" stroke="#191970" points="105.4698,-25.7644 113.8204,-19.2437 103.2261,-19.1337 105.4698,-25.7644"/>
</g>
</g>
</svg>
