<?xml version="1.0" encoding="UTF-8" standalone="no"?>
<!DOCTYPE svg PUBLIC "-//W3C//DTD SVG 1.1//EN"
 "http://www.w3.org/Graphics/SVG/1.1/DTD/svg11.dtd">
<!-- Generated by graphviz version 2.43.0 (0)
 -->
<!-- Title: getNearestSecond Pages: 1 -->
<svg width="250pt" height="104pt"
 viewBox="0.00 0.00 250.00 104.00" xmlns="http://www.w3.org/2000/svg" xmlns:xlink="http://www.w3.org/1999/xlink">
<g id="graph0" class="graph" transform="scale(1 1) rotate(0) translate(4 100)">
<title>getNearestSecond</title>
<polygon fill="white" stroke="transparent" points="-4,4 -4,-100 246,-100 246,4 -4,4"/>
<!-- Node1 -->
<g id="node1" class="node">
<title>Node1</title>
<g id="a_node1"><a xlink:title=" ">
<polygon fill="#bfbfbf" stroke="black" points="136,-38.5 136,-57.5 242,-57.5 242,-38.5 136,-38.5"/>
<text text-anchor="middle" x="189" y="-45.5" font-family="Helvetica,sans-Serif" font-size="10.00">getNearestSecond</text>
</a>
</g>
</g>
<!-- Node2 -->
<g id="node2" class="node">
<title>Node2</title>
<g id="a_node2"><a xlink:href="../../d5/d60/pps-client_8cpp.html#a591a0ae1642849d67e2e71ee667051b7" target="_top" xlink:title=" ">
<polygon fill="white" stroke="red" points="0,-76.5 0,-95.5 100,-95.5 100,-76.5 0,-76.5"/>
<text text-anchor="middle" x="50" y="-83.5" font-family="Helvetica,sans-Serif" font-size="10.00">detectMissedPPS</text>
</a>
</g>
</g>
<!-- Node1&#45;&gt;Node2 -->
<g id="edge1" class="edge">
<title>Node1&#45;&gt;Node2</title>
<path fill="none" stroke="midnightblue" d="M143.59,-60.32C124.77,-65.54 103.16,-71.53 85.56,-76.41"/>
<polygon fill="midnightblue" stroke="midnightblue" points="144.73,-63.63 153.43,-57.59 142.86,-56.89 144.73,-63.63"/>
</g>
<!-- Node6 -->
<g id="node3" class="node">
<title>Node6</title>
<g id="a_node3"><a xlink:href="../../d5/d60/pps-client_8cpp.html#a45f6556dce353a14a22a6fa6b976ebcd" target="_top" xlink:title=" ">
<polygon fill="white" stroke="red" points="7.5,-38.5 7.5,-57.5 92.5,-57.5 92.5,-38.5 7.5,-38.5"/>
<text text-anchor="middle" x="50" y="-45.5" font-family="Helvetica,sans-Serif" font-size="10.00">doTimeFixups</text>
</a>
</g>
</g>
<!-- Node1&#45;&gt;Node6 -->
<g id="edge2" class="edge">
<title>Node1&#45;&gt;Node6</title>
<path fill="none" stroke="midnightblue" d="M125.69,-48C114.56,-48 103.21,-48 92.83,-48"/>
<polygon fill="midnightblue" stroke="midnightblue" points="125.82,-51.5 135.82,-48 125.82,-44.5 125.82,-51.5"/>
</g>
<!-- Node4 -->
<g id="node4" class="node">
<title>Node4</title>
<g id="a_node4"><a xlink:href="../../d5/d60/pps-client_8cpp.html#a22519b13ce414a4bf003faf65bd68144" target="_top" xlink:title=" ">
<polygon fill="white" stroke="red" points="14.5,-0.5 14.5,-19.5 85.5,-19.5 85.5,-0.5 14.5,-0.5"/>
<text text-anchor="middle" x="50" y="-7.5" font-family="Helvetica,sans-Serif" font-size="10.00">waitForPPS</text>
</a>
</g>
</g>
<!-- Node1&#45;&gt;Node4 -->
<g id="edge3" class="edge">
<title>Node1&#45;&gt;Node4</title>
<path fill="none" stroke="midnightblue" d="M143.59,-35.68C124.77,-30.46 103.16,-24.47 85.56,-19.59"/>
<polygon fill="midnightblue" stroke="midnightblue" points="142.86,-39.11 153.43,-38.41 144.73,-32.37 142.86,-39.11"/>
</g>
</g>
</svg>
