<?xml version="1.0" encoding="UTF-8" standalone="no"?>
<!DOCTYPE svg PUBLIC "-//W3C//DTD SVG 1.1//EN"
 "http://www.w3.org/Graphics/SVG/1.1/DTD/svg11.dtd">
<!-- Generated by graphviz version 2.40.1 (20161225.0304)
 -->
<!-- Title: gettimeofday Pages: 1 -->
<svg width="241pt" height="180pt"
 viewBox="0.00 0.00 241.00 180.00" xmlns="http://www.w3.org/2000/svg" xmlns:xlink="http://www.w3.org/1999/xlink">
<g id="graph0" class="graph" transform="scale(1 1) rotate(0) translate(4 176)">
<title>gettimeofday</title>
<polygon fill="#ffffff" stroke="transparent" points="-4,4 -4,-176 237,-176 237,4 -4,4"/>
<!-- Node1 -->
<g id="node1" class="node">
<title>Node1</title>
<g id="a_node1"><a xlink:title=" ">
<polygon fill="#bfbfbf" stroke="#000000" points="160,-76.5 160,-95.5 233,-95.5 233,-76.5 160,-76.5"/>
<text text-anchor="middle" x="196.5" y="-83.5" font-family="Helvetica,sans-Serif" font-size="10.00" fill="#000000">gettimeofday</text>
</a>
</g>
</g>
<!-- Node2 -->
<g id="node2" class="node">
<title>Node2</title>
<g id="a_node2"><a xlink:href="../../dc/d4f/pps-sntp_8cpp.html#aa8aaca53b26e1cb32310370e1b18ec81" target="_top" xlink:title=" ">
<polygon fill="#ffffff" stroke="#ff0000" points="24.5,-152.5 24.5,-171.5 99.5,-171.5 99.5,-152.5 24.5,-152.5"/>
<text text-anchor="middle" x="62" y="-159.5" font-family="Helvetica,sans-Serif" font-size="10.00" fill="#000000">getNISTTime</text>
</a>
</g>
</g>
<!-- Node1&#45;&gt;Node2 -->
<g id="edge1" class="edge">
<title>Node1&#45;&gt;Node2</title>
<path fill="none" stroke="#191970" d="M179.163,-102.67C165.2281,-115.2787 144.6373,-132.2082 124,-143 116.418,-146.9648 107.8735,-150.2501 99.6061,-152.9098"/>
<polygon fill="#191970" stroke="#191970" points="181.5937,-105.1893 186.5486,-95.8245 176.8352,-100.0554 181.5937,-105.1893"/>
</g>
<!-- Node4 -->
<g id="node3" class="node">
<title>Node4</title>
<g id="a_node3"><a xlink:href="../../d0/d3e/pps-files_8cpp.html#a88ffb32d9158209276d4cc73132ee76e" target="_top" xlink:title=" ">
<polygon fill="#ffffff" stroke="#ff0000" points="7,-114.5 7,-133.5 117,-133.5 117,-114.5 7,-114.5"/>
<text text-anchor="middle" x="62" y="-121.5" font-family="Helvetica,sans-Serif" font-size="10.00" fill="#000000">recordFrequencyVars</text>
</a>
</g>
</g>
<!-- Node1&#45;&gt;Node4 -->
<g id="edge2" class="edge">
<title>Node1&#45;&gt;Node4</title>
<path fill="none" stroke="#191970" d="M152.8996,-98.3183C134.4202,-103.5393 113.2105,-109.5316 95.9292,-114.4141"/>
<polygon fill="#191970" stroke="#191970" points="153.8883,-101.6761 162.56,-95.589 151.985,-94.9398 153.8883,-101.6761"/>
</g>
<!-- Node10 -->
<g id="node4" class="node">
<title>Node10</title>
<g id="a_node4"><a xlink:href="../../d5/d60/pps-client_8cpp.html#a41cf700bfcf61b67c3ac81dffa87ba61" target="_top" xlink:title=" ">
<polygon fill="#ffffff" stroke="#ff0000" points="23.5,-76.5 23.5,-95.5 100.5,-95.5 100.5,-76.5 23.5,-76.5"/>
<text text-anchor="middle" x="62" y="-83.5" font-family="Helvetica,sans-Serif" font-size="10.00" fill="#000000">savePPStime</text>
</a>
</g>
</g>
<!-- Node1&#45;&gt;Node10 -->
<g id="edge3" class="edge">
<title>Node1&#45;&gt;Node10</title>
<path fill="none" stroke="#191970" d="M149.523,-86C133.5288,-86 115.847,-86 100.5873,-86"/>
<polygon fill="#191970" stroke="#191970" points="149.7473,-89.5001 159.7473,-86 149.7472,-82.5001 149.7473,-89.5001"/>
</g>
<!-- Node11 -->
<g id="node5" class="node">
<title>Node11</title>
<g id="a_node5"><a xlink:href="../../d0/d3e/pps-files_8cpp.html#accdd08110477677873a18eea4520eb79" target="_top" xlink:title=" ">
<polygon fill="#ffffff" stroke="#ff0000" points="0,-38.5 0,-57.5 124,-57.5 124,-38.5 0,-38.5"/>
<text text-anchor="middle" x="62" y="-45.5" font-family="Helvetica,sans-Serif" font-size="10.00" fill="#000000">showStatusEachSecond</text>
</a>
</g>
</g>
<!-- Node1&#45;&gt;Node11 -->
<g id="edge4" class="edge">
<title>Node1&#45;&gt;Node11</title>
<path fill="none" stroke="#191970" d="M152.8996,-73.6817C134.4202,-68.4607 113.2105,-62.4684 95.9292,-57.5859"/>
<polygon fill="#191970" stroke="#191970" points="151.985,-77.0602 162.56,-76.411 153.8883,-70.3239 151.985,-77.0602"/>
</g>
<!-- Node8 -->
<g id="node6" class="node">
<title>Node8</title>
<g id="a_node6"><a xlink:href="../../d5/d60/pps-client_8cpp.html#a22519b13ce414a4bf003faf65bd68144" target="_top" xlink:title=" ">
<polygon fill="#ffffff" stroke="#ff0000" points="27.5,-.5 27.5,-19.5 96.5,-19.5 96.5,-.5 27.5,-.5"/>
<text text-anchor="middle" x="62" y="-7.5" font-family="Helvetica,sans-Serif" font-size="10.00" fill="#000000">waitForPPS</text>
</a>
</g>
</g>
<!-- Node1&#45;&gt;Node8 -->
<g id="edge5" class="edge">
<title>Node1&#45;&gt;Node8</title>
<path fill="none" stroke="#191970" d="M179.163,-69.33C165.2281,-56.7213 144.6373,-39.7918 124,-29 115.5201,-24.5657 105.8363,-20.9814 96.6828,-18.1715"/>
<polygon fill="#191970" stroke="#191970" points="176.8352,-71.9446 186.5486,-76.1755 181.5937,-66.8107 176.8352,-71.9446"/>
</g>
</g>
</svg>
