<?xml version="1.0" encoding="UTF-8" standalone="no"?>
<!DOCTYPE svg PUBLIC "-//W3C//DTD SVG 1.1//EN"
 "http://www.w3.org/Graphics/SVG/1.1/DTD/svg11.dtd">
<!-- Generated by graphviz version 2.40.1 (20161225.0304)
 -->
<!-- Title: readPPS_SetTime Pages: 1 -->
<svg width="475pt" height="209pt"
 viewBox="0.00 0.00 475.00 209.49" xmlns="http://www.w3.org/2000/svg" xmlns:xlink="http://www.w3.org/1999/xlink">
<g id="graph0" class="graph" transform="scale(1 1) rotate(0) translate(4 205.4903)">
<title>readPPS_SetTime</title>
<polygon fill="#ffffff" stroke="transparent" points="-4,4 -4,-205.4903 471,-205.4903 471,4 -4,4"/>
<!-- Node1 -->
<g id="node1" class="node">
<title>Node1</title>
<g id="a_node1"><a xlink:title=" ">
<polygon fill="#bfbfbf" stroke="#000000" points="0,-95.5 0,-114.5 98,-114.5 98,-95.5 0,-95.5"/>
<text text-anchor="middle" x="49" y="-102.5" font-family="Helvetica,sans-Serif" font-size="10.00" fill="#000000">readPPS_SetTime</text>
</a>
</g>
</g>
<!-- Node2 -->
<g id="node2" class="node">
<title>Node2</title>
<g id="a_node2"><a xlink:href="../../d0/d3e/pps-files_8cpp.html#a6f609d689ebe787455ce220808ca3ba0" target="_top" xlink:title=" ">
<polygon fill="#ffffff" stroke="#000000" points="378,-171.5 378,-190.5 467,-190.5 467,-171.5 378,-171.5"/>
<text text-anchor="middle" x="422.5" y="-178.5" font-family="Helvetica,sans-Serif" font-size="10.00" fill="#000000">bufferStatusMsg</text>
</a>
</g>
</g>
<!-- Node1&#45;&gt;Node2 -->
<g id="edge1" class="edge">
<title>Node1&#45;&gt;Node2</title>
<path fill="none" stroke="#191970" d="M55.8253,-114.602C68.7475,-131.8447 98.6784,-167.5118 134,-181 210.9643,-210.3902 308.1278,-202.013 367.7608,-192.2677"/>
<polygon fill="#191970" stroke="#191970" points="368.4526,-195.7003 377.7223,-190.5696 367.2763,-188.7998 368.4526,-195.7003"/>
</g>
<!-- Node3 -->
<g id="node3" class="node">
<title>Node3</title>
<g id="a_node3"><a xlink:href="../../d5/d60/pps-client_8cpp.html#a591a0ae1642849d67e2e71ee667051b7" target="_top" xlink:title=" ">
<polygon fill="#ffffff" stroke="#ff0000" points="140,-152.5 140,-171.5 235,-171.5 235,-152.5 140,-152.5"/>
<text text-anchor="middle" x="187.5" y="-159.5" font-family="Helvetica,sans-Serif" font-size="10.00" fill="#000000">detectMissedPPS</text>
</a>
</g>
</g>
<!-- Node1&#45;&gt;Node3 -->
<g id="edge2" class="edge">
<title>Node1&#45;&gt;Node3</title>
<path fill="none" stroke="#191970" d="M72.1818,-114.5405C94.752,-123.8294 129.2712,-138.0358 154.6627,-148.4857"/>
<polygon fill="#191970" stroke="#191970" points="153.663,-151.8591 164.2426,-152.4284 156.3272,-145.3859 153.663,-151.8591"/>
</g>
<!-- Node5 -->
<g id="node4" class="node">
<title>Node5</title>
<g id="a_node4"><a xlink:href="../../d0/d3e/pps-files_8cpp.html#a6d6a61f9f40278df5e7ba5fa5b3a9d31" target="_top" xlink:title=" ">
<polygon fill="#ffffff" stroke="#ff0000" points="277,-152.5 277,-171.5 342,-171.5 342,-152.5 277,-152.5"/>
<text text-anchor="middle" x="309.5" y="-159.5" font-family="Helvetica,sans-Serif" font-size="10.00" fill="#000000">writeToLog</text>
</a>
</g>
</g>
<!-- Node1&#45;&gt;Node5 -->
<g id="edge8" class="edge">
<title>Node1&#45;&gt;Node5</title>
<path fill="none" stroke="#191970" d="M98.1468,-113.6743C137.0685,-120.7969 192.7297,-131.5459 241,-143 249.4581,-145.007 258.4476,-147.348 267.0357,-149.6872"/>
<polygon fill="#191970" stroke="#191970" points="266.3058,-153.1167 276.8772,-152.4123 268.1739,-146.3706 266.3058,-153.1167"/>
</g>
<!-- Node7 -->
<g id="node5" class="node">
<title>Node7</title>
<g id="a_node5"><a xlink:href="../../d5/d60/pps-client_8cpp.html#a3713ce0f6ba3ed9b5ea67c2ef6012b83" target="_top" xlink:title=" ">
<polygon fill="#ffffff" stroke="#ff0000" points="161.5,-76.5 161.5,-95.5 213.5,-95.5 213.5,-76.5 161.5,-76.5"/>
<text text-anchor="middle" x="187.5" y="-83.5" font-family="Helvetica,sans-Serif" font-size="10.00" fill="#000000">initialize</text>
</a>
</g>
</g>
<!-- Node1&#45;&gt;Node7 -->
<g id="edge5" class="edge">
<title>Node1&#45;&gt;Node7</title>
<path fill="none" stroke="#191970" d="M98.2199,-98.2478C115.6958,-95.8504 135.0338,-93.1975 151.2311,-90.9755"/>
<polygon fill="#191970" stroke="#191970" points="151.9389,-94.4113 161.3704,-89.5846 150.9875,-87.4762 151.9389,-94.4113"/>
</g>
<!-- Node26 -->
<g id="node6" class="node">
<title>Node26</title>
<g id="a_node6"><a xlink:href="../../d5/d60/pps-client_8cpp.html#a8ca1e9c585b03dd3bd4f56e6e18f248c" target="_top" xlink:title=" ">
<polygon fill="#ffffff" stroke="#ff0000" points="134,-38.5 134,-57.5 241,-57.5 241,-38.5 134,-38.5"/>
<text text-anchor="middle" x="187.5" y="-45.5" font-family="Helvetica,sans-Serif" font-size="10.00" fill="#000000">makeTimeCorrection</text>
</a>
</g>
</g>
<!-- Node1&#45;&gt;Node26 -->
<g id="edge6" class="edge">
<title>Node1&#45;&gt;Node26</title>
<path fill="none" stroke="#191970" d="M69.0732,-95.4856C86.1768,-87.5095 111.4904,-76.0122 134,-67 139.0899,-64.9621 144.4938,-62.9128 149.8349,-60.9533"/>
<polygon fill="#191970" stroke="#191970" points="151.077,-64.2261 159.2996,-57.5448 148.7052,-57.6401 151.077,-64.2261"/>
</g>
<!-- Node54 -->
<g id="node7" class="node">
<title>Node54</title>
<g id="a_node7"><a xlink:href="../../d0/d3e/pps-files_8cpp.html#a07ec803a42c0d7933b1709071f0a3182" target="_top" xlink:title=" ">
<polygon fill="#ffffff" stroke="#000000" points="135.5,-.5 135.5,-19.5 239.5,-19.5 239.5,-.5 135.5,-.5"/>
<text text-anchor="middle" x="187.5" y="-7.5" font-family="Helvetica,sans-Serif" font-size="10.00" fill="#000000">readPPSTimestamp</text>
</a>
</g>
</g>
<!-- Node1&#45;&gt;Node54 -->
<g id="edge7" class="edge">
<title>Node1&#45;&gt;Node54</title>
<path fill="none" stroke="#191970" d="M57.4872,-95.2739C71.8111,-79.3928 102.3328,-47.7848 134,-29 137.4306,-26.965 141.1136,-25.0985 144.8833,-23.3982"/>
<polygon fill="#191970" stroke="#191970" points="146.4195,-26.551 154.3385,-19.5126 143.7587,-20.0764 146.4195,-26.551"/>
</g>
<!-- Node3&#45;&gt;Node5 -->
<g id="edge3" class="edge">
<title>Node3&#45;&gt;Node5</title>
<path fill="none" stroke="#191970" d="M235.0177,-162C245.5553,-162 256.658,-162 266.9809,-162"/>
<polygon fill="#191970" stroke="#191970" points="266.9941,-165.5001 276.994,-162 266.994,-158.5001 266.9941,-165.5001"/>
</g>
<!-- Node5&#45;&gt;Node2 -->
<g id="edge4" class="edge">
<title>Node5&#45;&gt;Node2</title>
<path fill="none" stroke="#191970" d="M342.1843,-167.4956C350.1487,-168.8347 358.8859,-170.3038 367.5735,-171.7646"/>
<polygon fill="#191970" stroke="#191970" points="367.258,-175.2606 377.6999,-173.4672 368.4187,-168.3575 367.258,-175.2606"/>
</g>
</g>
</svg>
