<?xml version="1.0" encoding="UTF-8" standalone="no"?>
<!DOCTYPE svg PUBLIC "-//W3C//DTD SVG 1.1//EN"
 "http://www.w3.org/Graphics/SVG/1.1/DTD/svg11.dtd">
<!-- Generated by graphviz version 2.43.0 (0)
 -->
<!-- Title: initialize Pages: 1 -->
<svg width="234pt" height="142pt"
 viewBox="0.00 0.00 234.00 142.00" xmlns="http://www.w3.org/2000/svg" xmlns:xlink="http://www.w3.org/1999/xlink">
<g id="graph0" class="graph" transform="scale(1 1) rotate(0) translate(4 138)">
<title>initialize</title>
<polygon fill="white" stroke="transparent" points="-4,4 -4,-138 230,-138 230,4 -4,4"/>
<!-- Node1 -->
<g id="node1" class="node">
<title>Node1</title>
<g id="a_node1"><a xlink:title=" ">
<polygon fill="#bfbfbf" stroke="black" points="0,-57.5 0,-76.5 59,-76.5 59,-57.5 0,-57.5"/>
<text text-anchor="middle" x="29.5" y="-64.5" font-family="Helvetica,sans-Serif" font-size="10.00">initialize</text>
</a>
</g>
</g>
<!-- Node2 -->
<g id="node2" class="node">
<title>Node2</title>
<g id="a_node2"><a xlink:href="../../d5/d60/pps-client_8cpp.html#a4efd2ecedb34b38cd1000d86ba5f6ef9" target="_top" xlink:title=" ">
<polygon fill="white" stroke="black" points="130.5,-114.5 130.5,-133.5 190.5,-133.5 190.5,-114.5 130.5,-114.5"/>
<text text-anchor="middle" x="160.5" y="-121.5" font-family="Helvetica,sans-Serif" font-size="10.00">adjtimex</text>
</a>
</g>
</g>
<!-- Node1&#45;&gt;Node2 -->
<g id="edge1" class="edge">
<title>Node1&#45;&gt;Node2</title>
<path fill="none" stroke="midnightblue" d="M44.81,-76.83C57.54,-85.21 76.88,-97.14 95,-105 103.08,-108.51 112,-111.6 120.57,-114.21"/>
<polygon fill="midnightblue" stroke="midnightblue" points="119.81,-117.64 130.39,-117.06 121.76,-110.91 119.81,-117.64"/>
</g>
<!-- Node3 -->
<g id="node3" class="node">
<title>Node3</title>
<g id="a_node3"><a xlink:href="../../d0/d3e/pps-files_8cpp.html#ad4dd294e11fee1536b4589d5a899ca6e" target="_top" xlink:title=" ">
<polygon fill="white" stroke="red" points="95,-76.5 95,-95.5 226,-95.5 226,-76.5 95,-76.5"/>
<text text-anchor="middle" x="160.5" y="-83.5" font-family="Helvetica,sans-Serif" font-size="10.00">assignProcessorAffinity</text>
</a>
</g>
</g>
<!-- Node1&#45;&gt;Node3 -->
<g id="edge2" class="edge">
<title>Node1&#45;&gt;Node3</title>
<path fill="none" stroke="midnightblue" d="M59.13,-71.22C66.92,-72.36 75.74,-73.66 84.84,-75"/>
<polygon fill="midnightblue" stroke="midnightblue" points="84.38,-78.47 94.78,-76.47 85.4,-71.55 84.38,-78.47"/>
</g>
<!-- Node8 -->
<g id="node4" class="node">
<title>Node8</title>
<g id="a_node4"><a xlink:href="../../d0/d3e/pps-files_8cpp.html#aa44705d947a7c0438a46369f83997a91" target="_top" xlink:title=" ">
<polygon fill="white" stroke="red" points="126.5,-38.5 126.5,-57.5 194.5,-57.5 194.5,-38.5 126.5,-38.5"/>
<text text-anchor="middle" x="160.5" y="-45.5" font-family="Helvetica,sans-Serif" font-size="10.00">getConfigs</text>
</a>
</g>
</g>
<!-- Node1&#45;&gt;Node8 -->
<g id="edge3" class="edge">
<title>Node1&#45;&gt;Node8</title>
<path fill="none" stroke="midnightblue" d="M59.13,-62.78C75.91,-60.31 97.45,-57.14 116.27,-54.37"/>
<polygon fill="midnightblue" stroke="midnightblue" points="117.01,-57.8 126.39,-52.88 115.99,-50.87 117.01,-57.8"/>
</g>
<!-- Node22 -->
<g id="node5" class="node">
<title>Node22</title>
<g id="a_node5"><a xlink:href="../../d0/d3e/pps-files_8cpp.html#a383f3dca6d9e0e5135fdf2a7158d8e8b" target="_top" xlink:title=" ">
<polygon fill="white" stroke="red" points="126.5,-0.5 126.5,-19.5 194.5,-19.5 194.5,-0.5 126.5,-0.5"/>
<text text-anchor="middle" x="160.5" y="-7.5" font-family="Helvetica,sans-Serif" font-size="10.00">getRPiCPU</text>
</a>
</g>
</g>
<!-- Node1&#45;&gt;Node22 -->
<g id="edge4" class="edge">
<title>Node1&#45;&gt;Node22</title>
<path fill="none" stroke="midnightblue" d="M44.81,-57.17C57.54,-48.79 76.88,-36.86 95,-29 101.85,-26.03 109.3,-23.36 116.62,-21.02"/>
<polygon fill="midnightblue" stroke="midnightblue" points="117.91,-24.29 126.46,-18.04 115.88,-17.59 117.91,-24.29"/>
</g>
</g>
</svg>
