<?xml version="1.0" encoding="UTF-8" standalone="no"?>
<!DOCTYPE svg PUBLIC "-//W3C//DTD SVG 1.1//EN"
 "http://www.w3.org/Graphics/SVG/1.1/DTD/svg11.dtd">
<!-- Generated by graphviz version 2.43.0 (0)
 -->
<!-- Title: adjtimex Pages: 1 -->
<svg width="246pt" height="218pt"
 viewBox="0.00 0.00 246.00 218.00" xmlns="http://www.w3.org/2000/svg" xmlns:xlink="http://www.w3.org/1999/xlink">
<g id="graph0" class="graph" transform="scale(1 1) rotate(0) translate(4 214)">
<title>adjtimex</title>
<polygon fill="white" stroke="transparent" points="-4,4 -4,-214 242,-214 242,4 -4,4"/>
<!-- Node1 -->
<g id="node1" class="node">
<title>Node1</title>
<g id="a_node1"><a xlink:title=" ">
<polygon fill="#bfbfbf" stroke="black" points="178,-95.5 178,-114.5 238,-114.5 238,-95.5 178,-95.5"/>
<text text-anchor="middle" x="208" y="-102.5" font-family="Helvetica,sans-Serif" font-size="10.00">adjtimex</text>
</a>
</g>
</g>
<!-- Node2 -->
<g id="node2" class="node">
<title>Node2</title>
<g id="a_node2"><a xlink:href="../../d5/d60/pps-client_8cpp.html#a3713ce0f6ba3ed9b5ea67c2ef6012b83" target="_top" xlink:title=" ">
<polygon fill="white" stroke="red" points="41.5,-190.5 41.5,-209.5 100.5,-209.5 100.5,-190.5 41.5,-190.5"/>
<text text-anchor="middle" x="71" y="-197.5" font-family="Helvetica,sans-Serif" font-size="10.00">initialize</text>
</a>
</g>
</g>
<!-- Node1&#45;&gt;Node2 -->
<g id="edge1" class="edge">
<title>Node1&#45;&gt;Node2</title>
<path fill="none" stroke="midnightblue" d="M196.04,-123.23C184.66,-140.62 165.27,-166.27 142,-181 129.66,-188.81 114.13,-193.44 100.83,-196.18"/>
<polygon fill="midnightblue" stroke="midnightblue" points="199.15,-124.87 201.52,-114.54 193.22,-121.14 199.15,-124.87"/>
</g>
<!-- Node6 -->
<g id="node3" class="node">
<title>Node6</title>
<g id="a_node3"><a xlink:href="../../d0/d3e/pps-files_8cpp.html#a64d14b3a59bfb90ce83b3a8071d0c3e7" target="_top" xlink:title=" ">
<polygon fill="white" stroke="red" points="29.5,-152.5 29.5,-171.5 112.5,-171.5 112.5,-152.5 29.5,-152.5"/>
<text text-anchor="middle" x="71" y="-159.5" font-family="Helvetica,sans-Serif" font-size="10.00">loadLastState</text>
</a>
</g>
</g>
<!-- Node1&#45;&gt;Node6 -->
<g id="edge2" class="edge">
<title>Node1&#45;&gt;Node6</title>
<path fill="none" stroke="midnightblue" d="M184.52,-120.13C172.34,-127.81 156.79,-136.8 142,-143 132.71,-146.9 122.39,-150.21 112.59,-152.93"/>
<polygon fill="midnightblue" stroke="midnightblue" points="186.61,-122.95 193.11,-114.58 182.81,-117.07 186.61,-122.95"/>
</g>
<!-- Node7 -->
<g id="node4" class="node">
<title>Node7</title>
<g id="a_node4"><a xlink:href="../../d5/d60/pps-client_8cpp.html#a8ca1e9c585b03dd3bd4f56e6e18f248c" target="_top" xlink:title=" ">
<polygon fill="white" stroke="red" points="11.5,-114.5 11.5,-133.5 130.5,-133.5 130.5,-114.5 11.5,-114.5"/>
<text text-anchor="middle" x="71" y="-121.5" font-family="Helvetica,sans-Serif" font-size="10.00">makeTimeCorrection</text>
</a>
</g>
</g>
<!-- Node1&#45;&gt;Node7 -->
<g id="edge3" class="edge">
<title>Node1&#45;&gt;Node7</title>
<path fill="none" stroke="midnightblue" d="M167.53,-110.56C155.98,-112.18 143.11,-113.99 130.64,-115.75"/>
<polygon fill="midnightblue" stroke="midnightblue" points="168.29,-113.98 177.71,-109.12 167.32,-107.05 168.29,-113.98"/>
</g>
<!-- Node8 -->
<g id="node5" class="node">
<title>Node8</title>
<g id="a_node5"><a xlink:href="../../d5/d60/pps-client_8cpp.html#a1b63d979f88bd573c07f93f9275a9d6d" target="_top" xlink:title=" ">
<polygon fill="white" stroke="red" points="0,-76.5 0,-95.5 142,-95.5 142,-76.5 0,-76.5"/>
<text text-anchor="middle" x="71" y="-83.5" font-family="Helvetica,sans-Serif" font-size="10.00">setClockFractionalSecond</text>
</a>
</g>
</g>
<!-- Node1&#45;&gt;Node8 -->
<g id="edge4" class="edge">
<title>Node1&#45;&gt;Node8</title>
<path fill="none" stroke="midnightblue" d="M167.77,-99.48C158.95,-98.24 149.35,-96.89 139.74,-95.53"/>
<polygon fill="midnightblue" stroke="midnightblue" points="167.32,-102.95 177.71,-100.88 168.29,-96.02 167.32,-102.95"/>
</g>
<!-- Node11 -->
<g id="node6" class="node">
<title>Node11</title>
<g id="a_node6"><a xlink:href="../../d5/d60/pps-client_8cpp.html#a2237f5f4d517383c7b5d34dd7864272b" target="_top" xlink:title=" ">
<polygon fill="white" stroke="red" points="15.5,-38.5 15.5,-57.5 126.5,-57.5 126.5,-38.5 15.5,-38.5"/>
<text text-anchor="middle" x="71" y="-45.5" font-family="Helvetica,sans-Serif" font-size="10.00">setClockToGPStime</text>
</a>
</g>
</g>
<!-- Node1&#45;&gt;Node11 -->
<g id="edge5" class="edge">
<title>Node1&#45;&gt;Node11</title>
<path fill="none" stroke="midnightblue" d="M184.52,-89.87C172.34,-82.19 156.79,-73.2 142,-67 133.29,-63.35 123.68,-60.21 114.43,-57.59"/>
<polygon fill="midnightblue" stroke="midnightblue" points="182.81,-92.93 193.11,-95.42 186.61,-87.05 182.81,-92.93"/>
</g>
<!-- Node12 -->
<g id="node7" class="node">
<title>Node12</title>
<g id="a_node7"><a xlink:href="../../d5/d60/pps-client_8cpp.html#a576eb54270dcbc8c14f4f253c1ab7432" target="_top" xlink:title=" ">
<polygon fill="white" stroke="red" points="14.5,-0.5 14.5,-19.5 127.5,-19.5 127.5,-0.5 14.5,-0.5"/>
<text text-anchor="middle" x="71" y="-7.5" font-family="Helvetica,sans-Serif" font-size="10.00">setClocktoNISTtime</text>
</a>
</g>
</g>
<!-- Node1&#45;&gt;Node12 -->
<g id="edge6" class="edge">
<title>Node1&#45;&gt;Node12</title>
<path fill="none" stroke="midnightblue" d="M196.04,-86.77C184.66,-69.38 165.27,-43.73 142,-29 135.83,-25.09 128.86,-21.98 121.77,-19.51"/>
<polygon fill="midnightblue" stroke="midnightblue" points="193.22,-88.86 201.52,-95.46 199.15,-85.13 193.22,-88.86"/>
</g>
</g>
</svg>
