<?xml version="1.0" encoding="UTF-8" standalone="no"?>
<!DOCTYPE svg PUBLIC "-//W3C//DTD SVG 1.1//EN"
 "http://www.w3.org/Graphics/SVG/1.1/DTD/svg11.dtd">
<!-- Generated by graphviz version 2.40.1 (20161225.0304)
 -->
<!-- Title: savePPStime Pages: 1 -->
<svg width="207pt" height="66pt"
 viewBox="0.00 0.00 207.00 66.00" xmlns="http://www.w3.org/2000/svg" xmlns:xlink="http://www.w3.org/1999/xlink">
<g id="graph0" class="graph" transform="scale(1 1) rotate(0) translate(4 62)">
<title>savePPStime</title>
<polygon fill="#ffffff" stroke="transparent" points="-4,4 -4,-62 203,-62 203,4 -4,4"/>
<!-- Node1 -->
<g id="node1" class="node">
<title>Node1</title>
<g id="a_node1"><a xlink:title=" ">
<polygon fill="#bfbfbf" stroke="#000000" points="0,-19.5 0,-38.5 77,-38.5 77,-19.5 0,-19.5"/>
<text text-anchor="middle" x="38.5" y="-26.5" font-family="Helvetica,sans-Serif" font-size="10.00" fill="#000000">savePPStime</text>
</a>
</g>
</g>
<!-- Node2 -->
<g id="node2" class="node">
<title>Node2</title>
<g id="a_node2"><a xlink:href="../../d5/d60/pps-client_8cpp.html#aaf2d0a99430a6d5253b8c395c30ca7e3" target="_top" xlink:title=" ">
<polygon fill="#ffffff" stroke="#000000" points="119.5,-38.5 119.5,-57.5 192.5,-57.5 192.5,-38.5 119.5,-38.5"/>
<text text-anchor="middle" x="156" y="-45.5" font-family="Helvetica,sans-Serif" font-size="10.00" fill="#000000">gettimeofday</text>
</a>
</g>
</g>
<!-- Node1&#45;&gt;Node2 -->
<g id="edge1" class="edge">
<title>Node1&#45;&gt;Node2</title>
<path fill="none" stroke="#191970" d="M77.2995,-35.274C87.5322,-36.9286 98.6811,-38.7314 109.2837,-40.4459"/>
<polygon fill="#191970" stroke="#191970" points="108.8034,-43.9136 119.2339,-42.0549 109.9209,-37.0034 108.8034,-43.9136"/>
</g>
<!-- Node3 -->
<g id="node3" class="node">
<title>Node3</title>
<g id="a_node3"><a xlink:href="../../d0/d3e/pps-files_8cpp.html#aad53ec22f551c789425b2870f59fbae9" target="_top" xlink:title=" ">
<polygon fill="#ffffff" stroke="#ff0000" points="113,-.5 113,-19.5 199,-19.5 199,-.5 113,-.5"/>
<text text-anchor="middle" x="156" y="-7.5" font-family="Helvetica,sans-Serif" font-size="10.00" fill="#000000">writeTimestamp</text>
</a>
</g>
</g>
<!-- Node1&#45;&gt;Node3 -->
<g id="edge2" class="edge">
<title>Node1&#45;&gt;Node3</title>
<path fill="none" stroke="#191970" d="M77.2995,-22.726C85.4673,-21.4053 94.2188,-19.9902 102.8103,-18.6009"/>
<polygon fill="#191970" stroke="#191970" points="103.4648,-22.0406 112.7779,-16.9891 102.3474,-15.1304 103.4648,-22.0406"/>
</g>
</g>
</svg>
