<?xml version="1.0" encoding="UTF-8" standalone="no"?>
<!DOCTYPE svg PUBLIC "-//W3C//DTD SVG 1.1//EN"
 "http://www.w3.org/Graphics/SVG/1.1/DTD/svg11.dtd">
<!-- Generated by graphviz version 2.40.1 (20161225.0304)
 -->
<!-- Title: adjtimex Pages: 1 -->
<svg width="228pt" height="218pt"
 viewBox="0.00 0.00 228.00 218.00" xmlns="http://www.w3.org/2000/svg" xmlns:xlink="http://www.w3.org/1999/xlink">
<g id="graph0" class="graph" transform="scale(1 1) rotate(0) translate(4 214)">
<title>adjtimex</title>
<polygon fill="#ffffff" stroke="transparent" points="-4,4 -4,-214 224,-214 224,4 -4,4"/>
<!-- Node1 -->
<g id="node1" class="node">
<title>Node1</title>
<g id="a_node1"><a xlink:title=" ">
<polygon fill="#bfbfbf" stroke="#000000" points="167,-95.5 167,-114.5 220,-114.5 220,-95.5 167,-95.5"/>
<text text-anchor="middle" x="193.5" y="-102.5" font-family="Helvetica,sans-Serif" font-size="10.00" fill="#000000">adjtimex</text>
</a>
</g>
</g>
<!-- Node2 -->
<g id="node2" class="node">
<title>Node2</title>
<g id="a_node2"><a xlink:href="../../d5/d60/pps-client_8cpp.html#a3713ce0f6ba3ed9b5ea67c2ef6012b83" target="_top" xlink:title=" ">
<polygon fill="#ffffff" stroke="#ff0000" points="39.5,-190.5 39.5,-209.5 91.5,-209.5 91.5,-190.5 39.5,-190.5"/>
<text text-anchor="middle" x="65.5" y="-197.5" font-family="Helvetica,sans-Serif" font-size="10.00" fill="#000000">initialize</text>
</a>
</g>
</g>
<!-- Node1&#45;&gt;Node2 -->
<g id="edge1" class="edge">
<title>Node1&#45;&gt;Node2</title>
<path fill="none" stroke="#191970" d="M182.8997,-123.43C172.0141,-140.7533 153.5097,-166.1735 131,-181 119.2332,-188.7504 104.2526,-193.4009 91.5887,-196.1587"/>
<polygon fill="#191970" stroke="#191970" points="185.9639,-125.1265 188.1405,-114.7576 179.9729,-121.506 185.9639,-125.1265"/>
</g>
<!-- Node6 -->
<g id="node3" class="node">
<title>Node6</title>
<g id="a_node3"><a xlink:href="../../d0/d3e/pps-files_8cpp.html#a64d14b3a59bfb90ce83b3a8071d0c3e7" target="_top" xlink:title=" ">
<polygon fill="#ffffff" stroke="#ff0000" points="27,-152.5 27,-171.5 104,-171.5 104,-152.5 27,-152.5"/>
<text text-anchor="middle" x="65.5" y="-159.5" font-family="Helvetica,sans-Serif" font-size="10.00" fill="#000000">loadLastState</text>
</a>
</g>
</g>
<!-- Node1&#45;&gt;Node6 -->
<g id="edge2" class="edge">
<title>Node1&#45;&gt;Node6</title>
<path fill="none" stroke="#191970" d="M171.5721,-120.2997C159.9232,-127.9116 145.1256,-136.7882 131,-143 122.5459,-146.7178 113.1629,-149.9339 104.2018,-152.6089"/>
<polygon fill="#191970" stroke="#191970" points="173.807,-123.0153 180.1664,-114.5413 169.9105,-117.2 173.807,-123.0153"/>
</g>
<!-- Node7 -->
<g id="node4" class="node">
<title>Node7</title>
<g id="a_node4"><a xlink:href="../../d5/d60/pps-client_8cpp.html#a8ca1e9c585b03dd3bd4f56e6e18f248c" target="_top" xlink:title=" ">
<polygon fill="#ffffff" stroke="#ff0000" points="12,-114.5 12,-133.5 119,-133.5 119,-114.5 12,-114.5"/>
<text text-anchor="middle" x="65.5" y="-121.5" font-family="Helvetica,sans-Serif" font-size="10.00" fill="#000000">makeTimeCorrection</text>
</a>
</g>
</g>
<!-- Node1&#45;&gt;Node7 -->
<g id="edge3" class="edge">
<title>Node1&#45;&gt;Node7</title>
<path fill="none" stroke="#191970" d="M157.0685,-110.4078C145.2797,-112.1577 131.9481,-114.1366 119.1794,-116.032"/>
<polygon fill="#191970" stroke="#191970" points="157.6006,-113.8673 166.9783,-108.9368 156.5728,-106.9431 157.6006,-113.8673"/>
</g>
<!-- Node8 -->
<g id="node5" class="node">
<title>Node8</title>
<g id="a_node5"><a xlink:href="../../d5/d60/pps-client_8cpp.html#a1b63d979f88bd573c07f93f9275a9d6d" target="_top" xlink:title=" ">
<polygon fill="#ffffff" stroke="#ff0000" points="0,-76.5 0,-95.5 131,-95.5 131,-76.5 0,-76.5"/>
<text text-anchor="middle" x="65.5" y="-83.5" font-family="Helvetica,sans-Serif" font-size="10.00" fill="#000000">setClockFractionalSecond</text>
</a>
</g>
</g>
<!-- Node1&#45;&gt;Node8 -->
<g id="edge4" class="edge">
<title>Node1&#45;&gt;Node8</title>
<path fill="none" stroke="#191970" d="M157.0081,-99.5832C148.4614,-98.3146 139.1065,-96.926 129.7446,-95.5363"/>
<polygon fill="#191970" stroke="#191970" points="156.5728,-103.0569 166.9783,-101.0632 157.6006,-96.1327 156.5728,-103.0569"/>
</g>
<!-- Node11 -->
<g id="node6" class="node">
<title>Node11</title>
<g id="a_node6"><a xlink:href="../../d5/d60/pps-client_8cpp.html#a2237f5f4d517383c7b5d34dd7864272b" target="_top" xlink:title=" ">
<polygon fill="#ffffff" stroke="#ff0000" points="12,-38.5 12,-57.5 119,-57.5 119,-38.5 12,-38.5"/>
<text text-anchor="middle" x="65.5" y="-45.5" font-family="Helvetica,sans-Serif" font-size="10.00" fill="#000000">setClockToGPStime</text>
</a>
</g>
</g>
<!-- Node1&#45;&gt;Node11 -->
<g id="edge5" class="edge">
<title>Node1&#45;&gt;Node11</title>
<path fill="none" stroke="#191970" d="M171.5721,-89.7003C159.9232,-82.0884 145.1256,-73.2118 131,-67 122.7627,-63.3776 113.6435,-60.2314 104.8919,-57.598"/>
<polygon fill="#191970" stroke="#191970" points="169.9105,-92.8 180.1664,-95.4587 173.807,-86.9847 169.9105,-92.8"/>
</g>
<!-- Node12 -->
<g id="node7" class="node">
<title>Node12</title>
<g id="a_node7"><a xlink:href="../../d5/d60/pps-client_8cpp.html#a576eb54270dcbc8c14f4f253c1ab7432" target="_top" xlink:title=" ">
<polygon fill="#ffffff" stroke="#ff0000" points="12.5,-.5 12.5,-19.5 118.5,-19.5 118.5,-.5 12.5,-.5"/>
<text text-anchor="middle" x="65.5" y="-7.5" font-family="Helvetica,sans-Serif" font-size="10.00" fill="#000000">setClocktoNISTtime</text>
</a>
</g>
</g>
<!-- Node1&#45;&gt;Node12 -->
<g id="edge6" class="edge">
<title>Node1&#45;&gt;Node12</title>
<path fill="none" stroke="#191970" d="M182.8997,-86.57C172.0141,-69.2467 153.5097,-43.8265 131,-29 125.166,-25.1573 118.5421,-22.0767 111.8022,-19.611"/>
<polygon fill="#191970" stroke="#191970" points="179.9729,-88.494 188.1405,-95.2424 185.9639,-84.8735 179.9729,-88.494"/>
</g>
</g>
</svg>
