<?xml version="1.0" encoding="UTF-8" standalone="no"?>
<!DOCTYPE svg PUBLIC "-//W3C//DTD SVG 1.1//EN"
 "http://www.w3.org/Graphics/SVG/1.1/DTD/svg11.dtd">
<!-- Generated by graphviz version 2.40.1 (20161225.0304)
 -->
<!-- Title: main Pages: 1 -->
<svg width="506pt" height="332pt"
 viewBox="0.00 0.00 506.00 332.00" xmlns="http://www.w3.org/2000/svg" xmlns:xlink="http://www.w3.org/1999/xlink">
<g id="graph0" class="graph" transform="scale(1 1) rotate(0) translate(4 328)">
<title>main</title>
<polygon fill="#ffffff" stroke="transparent" points="-4,4 -4,-328 502,-328 502,4 -4,4"/>
<!-- Node1 -->
<g id="node1" class="node">
<title>Node1</title>
<g id="a_node1"><a xlink:title=" ">
<polygon fill="#bfbfbf" stroke="#000000" points="0,-152.5 0,-171.5 38,-171.5 38,-152.5 0,-152.5"/>
<text text-anchor="middle" x="19" y="-159.5" font-family="Helvetica,sans-Serif" font-size="10.00" fill="#000000">main</text>
</a>
</g>
</g>
<!-- Node2 -->
<g id="node2" class="node">
<title>Node2</title>
<g id="a_node2"><a xlink:href="../../d0/d3e/pps-files_8cpp.html#aa3e1b9d34eeedb9b1d03863dee0b8e58" target="_top" xlink:title=" ">
<polygon fill="#ffffff" stroke="#ff0000" points="74,-304.5 74,-323.5 159,-323.5 159,-304.5 74,-304.5"/>
<text text-anchor="middle" x="116.5" y="-311.5" font-family="Helvetica,sans-Serif" font-size="10.00" fill="#000000">accessDaemon</text>
</a>
</g>
</g>
<!-- Node1&#45;&gt;Node2 -->
<g id="edge1" class="edge">
<title>Node1&#45;&gt;Node2</title>
<path fill="none" stroke="#191970" d="M20.9539,-171.829C25.9909,-194.963 41.3718,-253.6346 74,-290 77.0753,-293.4275 80.7601,-296.4814 84.6571,-299.1657"/>
<polygon fill="#191970" stroke="#191970" points="83.0078,-302.2589 93.3728,-304.4536 86.6388,-296.2742 83.0078,-302.2589"/>
</g>
<!-- Node16 -->
<g id="node3" class="node">
<title>Node16</title>
<g id="a_node3"><a xlink:href="../../d0/d3e/pps-files_8cpp.html#a6f609d689ebe787455ce220808ca3ba0" target="_top" xlink:title=" ">
<polygon fill="#ffffff" stroke="#000000" points="409,-209.5 409,-228.5 498,-228.5 498,-209.5 409,-209.5"/>
<text text-anchor="middle" x="453.5" y="-216.5" font-family="Helvetica,sans-Serif" font-size="10.00" fill="#000000">bufferStatusMsg</text>
</a>
</g>
</g>
<!-- Node1&#45;&gt;Node16 -->
<g id="edge2" class="edge">
<title>Node1&#45;&gt;Node16</title>
<path fill="none" stroke="#191970" d="M22.8877,-171.7319C30.1588,-188.5479 47.5156,-222.7946 74,-239 185.3019,-307.1039 351.1305,-258.0434 420.8071,-232.2028"/>
<polygon fill="#191970" stroke="#191970" points="422.2626,-235.3941 430.3717,-228.5755 419.7804,-228.849 422.2626,-235.3941"/>
</g>
<!-- Node24 -->
<g id="node4" class="node">
<title>Node24</title>
<g id="a_node4"><a xlink:href="../../d0/d3e/pps-files_8cpp.html#a9942302e3e5272291f62fda42bdf6319" target="_top" xlink:title=" ">
<polygon fill="#ffffff" stroke="#ff0000" points="196.5,-228.5 196.5,-247.5 270.5,-247.5 270.5,-228.5 196.5,-228.5"/>
<text text-anchor="middle" x="233.5" y="-235.5" font-family="Helvetica,sans-Serif" font-size="10.00" fill="#000000">createPIDfile</text>
</a>
</g>
</g>
<!-- Node1&#45;&gt;Node24 -->
<g id="edge3" class="edge">
<title>Node1&#45;&gt;Node24</title>
<path fill="none" stroke="#191970" d="M25.9871,-171.5053C35.4233,-183.5618 53.445,-203.9855 74,-214 108.9819,-231.0433 152.9829,-236.6555 185.9042,-238.2247"/>
<polygon fill="#191970" stroke="#191970" points="186.0565,-241.7325 196.1781,-238.6014 186.3131,-234.7372 186.0565,-241.7325"/>
</g>
<!-- Node15 -->
<g id="node5" class="node">
<title>Node15</title>
<g id="a_node5"><a xlink:href="../../d0/d3e/pps-files_8cpp.html#a6d6a61f9f40278df5e7ba5fa5b3a9d31" target="_top" xlink:title=" ">
<polygon fill="#ffffff" stroke="#ff0000" points="308,-152.5 308,-171.5 373,-171.5 373,-152.5 308,-152.5"/>
<text text-anchor="middle" x="340.5" y="-159.5" font-family="Helvetica,sans-Serif" font-size="10.00" fill="#000000">writeToLog</text>
</a>
</g>
</g>
<!-- Node1&#45;&gt;Node15 -->
<g id="edge17" class="edge">
<title>Node1&#45;&gt;Node15</title>
<path fill="none" stroke="#191970" d="M38.1463,-167.9173C48.629,-170.8913 61.9109,-174.2313 74,-176 161.1008,-188.7434 184.7763,-192.8726 272,-181 282.272,-179.6018 293.1781,-177.0755 303.1963,-174.312"/>
<polygon fill="#191970" stroke="#191970" points="304.2365,-177.6546 312.8621,-171.5024 302.2826,-170.9328 304.2365,-177.6546"/>
</g>
<!-- Node25 -->
<g id="node6" class="node">
<title>Node25</title>
<g id="a_node6"><a xlink:href="../../d0/d3e/pps-files_8cpp.html#aee5d43bdb96bc26a9e211a6b70e4e15b" target="_top" xlink:title=" ">
<polygon fill="#ffffff" stroke="#000000" points="200,-152.5 200,-171.5 267,-171.5 267,-152.5 200,-152.5"/>
<text text-anchor="middle" x="233.5" y="-159.5" font-family="Helvetica,sans-Serif" font-size="10.00" fill="#000000">find_source</text>
</a>
</g>
</g>
<!-- Node1&#45;&gt;Node25 -->
<g id="edge6" class="edge">
<title>Node1&#45;&gt;Node25</title>
<path fill="none" stroke="#191970" d="M38.0354,-162C71.8749,-162 143.3072,-162 189.8062,-162"/>
<polygon fill="#191970" stroke="#191970" points="189.9015,-165.5001 199.9015,-162 189.9015,-158.5001 189.9015,-165.5001"/>
</g>
<!-- Node26 -->
<g id="node7" class="node">
<title>Node26</title>
<g id="a_node7"><a xlink:href="../../d0/d3e/pps-files_8cpp.html#a4ce5021ab20b957eb5bd60c89d389685" target="_top" xlink:title=" ">
<polygon fill="#ffffff" stroke="#000000" points="78,-114.5 78,-133.5 155,-133.5 155,-114.5 78,-114.5"/>
<text text-anchor="middle" x="116.5" y="-121.5" font-family="Helvetica,sans-Serif" font-size="10.00" fill="#000000">getRootHome</text>
</a>
</g>
</g>
<!-- Node1&#45;&gt;Node26 -->
<g id="edge8" class="edge">
<title>Node1&#45;&gt;Node26</title>
<path fill="none" stroke="#191970" d="M38.2629,-154.4924C50.9188,-149.5599 67.8218,-142.972 82.6778,-137.182"/>
<polygon fill="#191970" stroke="#191970" points="84.0331,-140.4103 92.0794,-133.5178 81.4911,-133.8881 84.0331,-140.4103"/>
</g>
<!-- Node19 -->
<g id="node8" class="node">
<title>Node19</title>
<g id="a_node8"><a xlink:href="../../d0/d3e/pps-files_8cpp.html#a19da05b45d1e94170f5fe86decb70bfb" target="_top" xlink:title=" ">
<polygon fill="#ffffff" stroke="#000000" points="195,-76.5 195,-95.5 272,-95.5 272,-76.5 195,-76.5"/>
<text text-anchor="middle" x="233.5" y="-83.5" font-family="Helvetica,sans-Serif" font-size="10.00" fill="#000000">sysCommand</text>
</a>
</g>
</g>
<!-- Node1&#45;&gt;Node19 -->
<g id="edge13" class="edge">
<title>Node1&#45;&gt;Node19</title>
<path fill="none" stroke="#191970" d="M25.1005,-152.3818C34.0502,-139.1913 52.0766,-115.8867 74,-105 108.2572,-87.9886 151.5904,-83.7516 184.4411,-83.4838"/>
<polygon fill="#191970" stroke="#191970" points="184.6997,-86.9848 194.7138,-83.5252 184.728,-79.9849 184.6997,-86.9848"/>
</g>
<!-- Node27 -->
<g id="node9" class="node">
<title>Node27</title>
<g id="a_node9"><a xlink:href="../../d5/d60/pps-client_8cpp.html#a3713ce0f6ba3ed9b5ea67c2ef6012b83" target="_top" xlink:title=" ">
<polygon fill="#ffffff" stroke="#ff0000" points="90.5,-38.5 90.5,-57.5 142.5,-57.5 142.5,-38.5 90.5,-38.5"/>
<text text-anchor="middle" x="116.5" y="-45.5" font-family="Helvetica,sans-Serif" font-size="10.00" fill="#000000">initialize</text>
</a>
</g>
</g>
<!-- Node1&#45;&gt;Node27 -->
<g id="edge12" class="edge">
<title>Node1&#45;&gt;Node27</title>
<path fill="none" stroke="#191970" d="M22.9718,-152.2399C30.6104,-134.4395 48.846,-96.3011 74,-72 77.5461,-68.5742 81.6758,-65.4658 85.9407,-62.7075"/>
<polygon fill="#191970" stroke="#191970" points="87.8845,-65.6251 94.741,-57.548 84.3441,-59.5864 87.8845,-65.6251"/>
</g>
<!-- Node39 -->
<g id="node10" class="node">
<title>Node39</title>
<g id="a_node10"><a xlink:href="../../d5/d60/pps-client_8cpp.html#a22519b13ce414a4bf003faf65bd68144" target="_top" xlink:title=" ">
<polygon fill="#ffffff" stroke="#ff0000" points="82,-.5 82,-19.5 151,-19.5 151,-.5 82,-.5"/>
<text text-anchor="middle" x="116.5" y="-7.5" font-family="Helvetica,sans-Serif" font-size="10.00" fill="#000000">waitForPPS</text>
</a>
</g>
</g>
<!-- Node1&#45;&gt;Node39 -->
<g id="edge14" class="edge">
<title>Node1&#45;&gt;Node39</title>
<path fill="none" stroke="#191970" d="M20.4881,-152.2907C24.6404,-128.3045 38.47,-65.5495 74,-29 75.3943,-27.5657 76.9163,-26.2311 78.5282,-24.9904"/>
<polygon fill="#191970" stroke="#191970" points="80.5733,-27.8385 87.1624,-19.5418 76.8376,-21.9186 80.5733,-27.8385"/>
</g>
<!-- Node24&#45;&gt;Node15 -->
<g id="edge4" class="edge">
<title>Node24&#45;&gt;Node15</title>
<path fill="none" stroke="#191970" d="M249.8225,-228.2825C256.7543,-224.0387 264.8658,-218.9162 272,-214 288.7415,-202.4634 307.0541,-188.487 320.5296,-177.9306"/>
<polygon fill="#191970" stroke="#191970" points="322.9378,-180.4888 328.6212,-171.5474 318.6023,-174.993 322.9378,-180.4888"/>
</g>
<!-- Node15&#45;&gt;Node16 -->
<g id="edge5" class="edge">
<title>Node15&#45;&gt;Node16</title>
<path fill="none" stroke="#191970" d="M359.4137,-171.5405C377.421,-180.6239 404.7506,-194.4096 425.3228,-204.7867"/>
<polygon fill="#191970" stroke="#191970" points="424.0199,-208.0495 434.5246,-209.4284 427.1725,-201.7996 424.0199,-208.0495"/>
</g>
<!-- Node25&#45;&gt;Node15 -->
<g id="edge7" class="edge">
<title>Node25&#45;&gt;Node15</title>
<path fill="none" stroke="#191970" d="M267.0619,-162C276.7052,-162 287.3571,-162 297.4869,-162"/>
<polygon fill="#191970" stroke="#191970" points="297.7901,-165.5001 307.79,-162 297.79,-158.5001 297.7901,-165.5001"/>
</g>
<!-- Node26&#45;&gt;Node15 -->
<g id="edge11" class="edge">
<title>Node26&#45;&gt;Node15</title>
<path fill="none" stroke="#191970" d="M155.0955,-127.1044C186.7156,-130.033 232.5193,-135.158 272,-143 281.1562,-144.8187 290.8819,-147.2214 300.0412,-149.7042"/>
<polygon fill="#191970" stroke="#191970" points="299.1308,-153.0839 309.7039,-152.406 301.0157,-146.3424 299.1308,-153.0839"/>
</g>
<!-- Node26&#45;&gt;Node19 -->
<g id="edge9" class="edge">
<title>Node26&#45;&gt;Node19</title>
<path fill="none" stroke="#191970" d="M146.024,-114.411C160.7119,-109.6406 178.6601,-103.8112 194.4678,-98.6771"/>
<polygon fill="#191970" stroke="#191970" points="195.5556,-102.0039 203.9854,-95.5859 193.3933,-95.3462 195.5556,-102.0039"/>
</g>
<!-- Node19&#45;&gt;Node15 -->
<g id="edge10" class="edge">
<title>Node19&#45;&gt;Node15</title>
<path fill="none" stroke="#191970" d="M249.8225,-95.7175C256.7543,-99.9613 264.8658,-105.0838 272,-110 288.7415,-121.5366 307.0541,-135.513 320.5296,-146.0694"/>
<polygon fill="#191970" stroke="#191970" points="318.6023,-149.007 328.6212,-152.4526 322.9378,-143.5112 318.6023,-149.007"/>
</g>
<!-- Node39&#45;&gt;Node15 -->
<g id="edge16" class="edge">
<title>Node39&#45;&gt;Node15</title>
<path fill="none" stroke="#191970" d="M151.1831,-16.5246C184.7289,-24.1768 235.6842,-39.4661 272,-67 299.276,-87.6801 320.2998,-122.2414 331.4996,-143.4858"/>
<polygon fill="#191970" stroke="#191970" points="328.4151,-145.1417 336.0674,-152.4692 334.6548,-141.969 328.4151,-145.1417"/>
</g>
<!-- Node39&#45;&gt;Node19 -->
<g id="edge15" class="edge">
<title>Node39&#45;&gt;Node19</title>
<path fill="none" stroke="#191970" d="M140.3743,-19.5041C146.5843,-22.2894 153.1656,-25.5284 159,-29 179.1227,-40.9734 200.1424,-57.4776 214.704,-69.6462"/>
<polygon fill="#191970" stroke="#191970" points="212.5869,-72.44 222.4757,-76.2429 217.1167,-67.1033 212.5869,-72.44"/>
</g>
</g>
</svg>
