<?xml version="1.0" encoding="UTF-8" standalone="no"?>
<!DOCTYPE svg PUBLIC "-//W3C//DTD SVG 1.1//EN"
 "http://www.w3.org/Graphics/SVG/1.1/DTD/svg11.dtd">
<!-- Generated by graphviz version 2.43.0 (0)
 -->
<!-- Title: waitForPPS Pages: 1 -->
<svg width="363pt" height="750pt"
 viewBox="0.00 0.00 363.00 750.00" xmlns="http://www.w3.org/2000/svg" xmlns:xlink="http://www.w3.org/1999/xlink">
<g id="graph0" class="graph" transform="scale(1 1) rotate(0) translate(4 746)">
<title>waitForPPS</title>
<polygon fill="white" stroke="transparent" points="-4,4 -4,-746 359,-746 359,4 -4,4"/>
<!-- Node1 -->
<g id="node1" class="node">
<title>Node1</title>
<g id="a_node1"><a xlink:title=" ">
<polygon fill="#bfbfbf" stroke="black" points="0,-361.5 0,-380.5 71,-380.5 71,-361.5 0,-361.5"/>
<text text-anchor="middle" x="35.5" y="-368.5" font-family="Helvetica,sans-Serif" font-size="10.00">waitForPPS</text>
</a>
</g>
</g>
<!-- Node2 -->
<g id="node2" class="node">
<title>Node2</title>
<g id="a_node2"><a xlink:href="../../dc/d4f/pps-sntp_8cpp.html#a715708bbeb9de8b18c103d6e5baad152" target="_top" xlink:title=" ">
<polygon fill="white" stroke="black" points="107,-722.5 107,-741.5 250,-741.5 250,-722.5 107,-722.5"/>
<text text-anchor="middle" x="178.5" y="-729.5" font-family="Helvetica,sans-Serif" font-size="10.00">allocInitializeNISTThreads</text>
</a>
</g>
</g>
<!-- Node1&#45;&gt;Node2 -->
<g id="edge1" class="edge">
<title>Node1&#45;&gt;Node2</title>
<path fill="none" stroke="midnightblue" d="M37.15,-380.57C40.71,-430.72 59.62,-662.69 107,-713 108.25,-714.33 109.59,-715.57 111,-716.73"/>
<polygon fill="midnightblue" stroke="midnightblue" points="109.45,-719.9 119.72,-722.49 113.3,-714.06 109.45,-719.9"/>
</g>
<!-- Node3 -->
<g id="node3" class="node">
<title>Node3</title>
<g id="a_node3"><a xlink:href="../../df/d28/pps-serial_8cpp.html#ab10bb47e214849a31ac6c87556bed416" target="_top" xlink:title=" ">
<polygon fill="white" stroke="black" points="107,-684.5 107,-703.5 250,-703.5 250,-684.5 107,-684.5"/>
<text text-anchor="middle" x="178.5" y="-691.5" font-family="Helvetica,sans-Serif" font-size="10.00">allocInitializeSerialThread</text>
</a>
</g>
</g>
<!-- Node1&#45;&gt;Node3 -->
<g id="edge2" class="edge">
<title>Node1&#45;&gt;Node3</title>
<path fill="none" stroke="midnightblue" d="M37.43,-380.73C42.09,-427.75 64.48,-630.95 107,-675 108.27,-676.32 109.62,-677.55 111.04,-678.69"/>
<polygon fill="midnightblue" stroke="midnightblue" points="109.53,-681.88 119.82,-684.4 113.34,-676.01 109.53,-681.88"/>
</g>
<!-- Node4 -->
<g id="node4" class="node">
<title>Node4</title>
<g id="a_node4"><a xlink:href="../../d0/d3e/pps-files_8cpp.html#a99055dd0dc705a74bb0b3ab03fea92e3" target="_top" xlink:title=" ">
<polygon fill="white" stroke="red" points="125,-646.5 125,-665.5 232,-665.5 232,-646.5 125,-646.5"/>
<text text-anchor="middle" x="178.5" y="-653.5" font-family="Helvetica,sans-Serif" font-size="10.00">bufferStateParams</text>
</a>
</g>
</g>
<!-- Node1&#45;&gt;Node4 -->
<g id="edge3" class="edge">
<title>Node1&#45;&gt;Node4</title>
<path fill="none" stroke="midnightblue" d="M37.76,-380.65C43.58,-423.87 69.24,-599.09 107,-637 109.66,-639.67 112.66,-641.98 115.87,-643.97"/>
<polygon fill="midnightblue" stroke="midnightblue" points="114.32,-647.11 124.82,-648.54 117.5,-640.87 114.32,-647.11"/>
</g>
<!-- Node10 -->
<g id="node5" class="node">
<title>Node10</title>
<g id="a_node5"><a xlink:href="../../d5/d60/pps-client_8cpp.html#a5408f66dcd74d49bb4c84d775c7de62e" target="_top" xlink:title=" ">
<polygon fill="white" stroke="black" points="126,-608.5 126,-627.5 231,-627.5 231,-608.5 126,-608.5"/>
<text text-anchor="middle" x="178.5" y="-615.5" font-family="Helvetica,sans-Serif" font-size="10.00">checkPPSInterrupt</text>
</a>
</g>
</g>
<!-- Node1&#45;&gt;Node10 -->
<g id="edge4" class="edge">
<title>Node1&#45;&gt;Node10</title>
<path fill="none" stroke="midnightblue" d="M36.4,-380.92C36.62,-416.16 42.27,-536.6 107,-599 109.89,-601.79 113.15,-604.18 116.64,-606.23"/>
<polygon fill="midnightblue" stroke="midnightblue" points="115.19,-609.41 125.72,-610.64 118.25,-603.12 115.19,-609.41"/>
</g>
<!-- Node11 -->
<g id="node6" class="node">
<title>Node11</title>
<g id="a_node6"><a xlink:href="../../dc/d4f/pps-sntp_8cpp.html#a82679dd7549c68b79ac871bf9b90e81b" target="_top" xlink:title=" ">
<polygon fill="white" stroke="black" points="129.5,-570.5 129.5,-589.5 227.5,-589.5 227.5,-570.5 129.5,-570.5"/>
<text text-anchor="middle" x="178.5" y="-577.5" font-family="Helvetica,sans-Serif" font-size="10.00">freeNISTThreads</text>
</a>
</g>
</g>
<!-- Node1&#45;&gt;Node11 -->
<g id="edge5" class="edge">
<title>Node1&#45;&gt;Node11</title>
<path fill="none" stroke="midnightblue" d="M37.08,-380.57C39.48,-411.58 51.37,-510.27 107,-561 110.82,-564.49 115.22,-567.35 119.91,-569.69"/>
<polygon fill="midnightblue" stroke="midnightblue" points="118.64,-572.95 129.22,-573.58 121.35,-566.49 118.64,-572.95"/>
</g>
<!-- Node12 -->
<g id="node7" class="node">
<title>Node12</title>
<g id="a_node7"><a xlink:href="../../df/d28/pps-serial_8cpp.html#a5f4271a6bb9ed778df76908d570a0660" target="_top" xlink:title=" ">
<polygon fill="white" stroke="black" points="129.5,-532.5 129.5,-551.5 227.5,-551.5 227.5,-532.5 129.5,-532.5"/>
<text text-anchor="middle" x="178.5" y="-539.5" font-family="Helvetica,sans-Serif" font-size="10.00">freeSerialThread</text>
</a>
</g>
</g>
<!-- Node1&#45;&gt;Node12 -->
<g id="edge6" class="edge">
<title>Node1&#45;&gt;Node12</title>
<path fill="none" stroke="midnightblue" d="M38.05,-380.53C42.93,-407.31 60.5,-483.84 107,-523 110.8,-526.2 115.09,-528.87 119.63,-531.08"/>
<polygon fill="midnightblue" stroke="midnightblue" points="118.64,-534.46 129.22,-535.04 121.31,-527.99 118.64,-534.46"/>
</g>
<!-- Node13 -->
<g id="node8" class="node">
<title>Node13</title>
<g id="a_node8"><a xlink:href="../../d0/d3e/pps-files_8cpp.html#aa44705d947a7c0438a46369f83997a91" target="_top" xlink:title=" ">
<polygon fill="white" stroke="red" points="144.5,-494.5 144.5,-513.5 212.5,-513.5 212.5,-494.5 144.5,-494.5"/>
<text text-anchor="middle" x="178.5" y="-501.5" font-family="Helvetica,sans-Serif" font-size="10.00">getConfigs</text>
</a>
</g>
</g>
<!-- Node1&#45;&gt;Node13 -->
<g id="edge7" class="edge">
<title>Node1&#45;&gt;Node13</title>
<path fill="none" stroke="midnightblue" d="M39.67,-380.66C47.42,-402.72 69.49,-457.06 107,-485 115,-490.96 124.74,-495.05 134.4,-497.85"/>
<polygon fill="midnightblue" stroke="midnightblue" points="133.8,-501.31 144.35,-500.34 135.5,-494.52 133.8,-501.31"/>
</g>
<!-- Node27 -->
<g id="node9" class="node">
<title>Node27</title>
<g id="a_node9"><a xlink:href="../../d5/d60/pps-client_8cpp.html#ad144809048457027dfbddc492b3d70c1" target="_top" xlink:title=" ">
<polygon fill="white" stroke="black" points="125.5,-456.5 125.5,-475.5 231.5,-475.5 231.5,-456.5 125.5,-456.5"/>
<text text-anchor="middle" x="178.5" y="-463.5" font-family="Helvetica,sans-Serif" font-size="10.00">getNearestSecond</text>
</a>
</g>
</g>
<!-- Node1&#45;&gt;Node27 -->
<g id="edge8" class="edge">
<title>Node1&#45;&gt;Node27</title>
<path fill="none" stroke="midnightblue" d="M42.65,-380.54C53.59,-396.72 78.03,-429.51 107,-447 110.6,-449.17 114.45,-451.1 118.43,-452.82"/>
<polygon fill="midnightblue" stroke="midnightblue" points="117.29,-456.13 127.88,-456.43 119.79,-449.59 117.29,-456.13"/>
</g>
<!-- Node28 -->
<g id="node10" class="node">
<title>Node28</title>
<g id="a_node10"><a xlink:href="../../d0/d3e/pps-files_8cpp.html#af2476e49a353b0df5be1459f9a0c2260" target="_top" xlink:title=" ">
<polygon fill="white" stroke="black" points="141.5,-418.5 141.5,-437.5 215.5,-437.5 215.5,-418.5 141.5,-418.5"/>
<text text-anchor="middle" x="178.5" y="-425.5" font-family="Helvetica,sans-Serif" font-size="10.00">HUPhandler</text>
</a>
</g>
</g>
<!-- Node1&#45;&gt;Node28 -->
<g id="edge9" class="edge">
<title>Node1&#45;&gt;Node28</title>
<path fill="none" stroke="midnightblue" d="M51.68,-380.52C65.63,-388.94 87.11,-401.08 107,-409 114.87,-412.13 123.44,-414.93 131.8,-417.34"/>
<polygon fill="midnightblue" stroke="midnightblue" points="130.9,-420.72 141.47,-420 132.76,-413.98 130.9,-420.72"/>
</g>
<!-- Node29 -->
<g id="node11" class="node">
<title>Node29</title>
<g id="a_node11"><a xlink:href="../../d0/d3e/pps-files_8cpp.html#a64d14b3a59bfb90ce83b3a8071d0c3e7" target="_top" xlink:title=" ">
<polygon fill="white" stroke="red" points="137,-380.5 137,-399.5 220,-399.5 220,-380.5 137,-380.5"/>
<text text-anchor="middle" x="178.5" y="-387.5" font-family="Helvetica,sans-Serif" font-size="10.00">loadLastState</text>
</a>
</g>
</g>
<!-- Node1&#45;&gt;Node29 -->
<g id="edge10" class="edge">
<title>Node1&#45;&gt;Node29</title>
<path fill="none" stroke="midnightblue" d="M71.35,-375.7C88.07,-377.95 108.43,-380.69 126.82,-383.17"/>
<polygon fill="midnightblue" stroke="midnightblue" points="126.42,-386.65 136.8,-384.52 127.36,-379.71 126.42,-386.65"/>
</g>
<!-- Node33 -->
<g id="node12" class="node">
<title>Node33</title>
<g id="a_node12"><a xlink:href="../../dc/d4f/pps-sntp_8cpp.html#aa93e3d20b711f1db7e1e918246688460" target="_top" xlink:title=" ">
<polygon fill="white" stroke="black" points="118.5,-342.5 118.5,-361.5 238.5,-361.5 238.5,-342.5 118.5,-342.5"/>
<text text-anchor="middle" x="178.5" y="-349.5" font-family="Helvetica,sans-Serif" font-size="10.00">makeNISTTimeQuery</text>
</a>
</g>
</g>
<!-- Node1&#45;&gt;Node33 -->
<g id="edge11" class="edge">
<title>Node1&#45;&gt;Node33</title>
<path fill="none" stroke="midnightblue" d="M71.35,-366.3C82.55,-364.79 95.38,-363.07 108.15,-361.35"/>
<polygon fill="midnightblue" stroke="midnightblue" points="108.91,-364.77 118.35,-359.97 107.97,-357.84 108.91,-364.77"/>
</g>
<!-- Node34 -->
<g id="node13" class="node">
<title>Node34</title>
<g id="a_node13"><a xlink:href="../../df/d28/pps-serial_8cpp.html#a90b59dcade2c7323b79780215baae4fd" target="_top" xlink:title=" ">
<polygon fill="white" stroke="black" points="116,-304.5 116,-323.5 241,-323.5 241,-304.5 116,-304.5"/>
<text text-anchor="middle" x="178.5" y="-311.5" font-family="Helvetica,sans-Serif" font-size="10.00">makeSerialTimeQuery</text>
</a>
</g>
</g>
<!-- Node1&#45;&gt;Node34 -->
<g id="edge12" class="edge">
<title>Node1&#45;&gt;Node34</title>
<path fill="none" stroke="midnightblue" d="M51.68,-361.48C65.63,-353.06 87.11,-340.92 107,-333 112.95,-330.63 119.3,-328.46 125.66,-326.49"/>
<polygon fill="midnightblue" stroke="midnightblue" points="126.99,-329.75 135.6,-323.58 125.02,-323.03 126.99,-329.75"/>
</g>
<!-- Node35 -->
<g id="node14" class="node">
<title>Node35</title>
<g id="a_node14"><a xlink:href="../../d5/d60/pps-client_8cpp.html#a0010a2340006cbbcd5a4588b587a59c7" target="_top" xlink:title=" ">
<polygon fill="white" stroke="red" points="127.5,-266.5 127.5,-285.5 229.5,-285.5 229.5,-266.5 127.5,-266.5"/>
<text text-anchor="middle" x="178.5" y="-273.5" font-family="Helvetica,sans-Serif" font-size="10.00">readPPS_SetTime</text>
</a>
</g>
</g>
<!-- Node1&#45;&gt;Node35 -->
<g id="edge13" class="edge">
<title>Node1&#45;&gt;Node35</title>
<path fill="none" stroke="midnightblue" d="M42.65,-361.46C53.59,-345.28 78.03,-312.49 107,-295 110.6,-292.83 114.45,-290.9 118.43,-289.18"/>
<polygon fill="midnightblue" stroke="midnightblue" points="119.79,-292.41 127.88,-285.57 117.29,-285.87 119.79,-292.41"/>
</g>
<!-- Node6 -->
<g id="node15" class="node">
<title>Node6</title>
<g id="a_node15"><a xlink:href="../../d0/d3e/pps-files_8cpp.html#a6d6a61f9f40278df5e7ba5fa5b3a9d31" target="_top" xlink:title=" ">
<polygon fill="white" stroke="red" points="286,-133.5 286,-152.5 355,-152.5 355,-133.5 286,-133.5"/>
<text text-anchor="middle" x="320.5" y="-140.5" font-family="Helvetica,sans-Serif" font-size="10.00">writeToLog</text>
</a>
</g>
</g>
<!-- Node1&#45;&gt;Node6 -->
<g id="edge27" class="edge">
<title>Node1&#45;&gt;Node6</title>
<path fill="none" stroke="midnightblue" d="M39.66,-361.33C47.4,-339.25 69.44,-284.87 107,-257 159.81,-217.82 193.76,-253.09 250,-219 274.25,-204.3 295.14,-178.64 307.51,-161.24"/>
<polygon fill="midnightblue" stroke="midnightblue" points="310.7,-162.78 313.48,-152.55 304.93,-158.81 310.7,-162.78"/>
</g>
<!-- Node69 -->
<g id="node16" class="node">
<title>Node69</title>
<g id="a_node16"><a xlink:href="../../df/d28/pps-serial_8cpp.html#a017c6d120d7bd920065a7fece4d53978" target="_top" xlink:title=" ">
<polygon fill="white" stroke="black" points="136.5,-190.5 136.5,-209.5 220.5,-209.5 220.5,-190.5 136.5,-190.5"/>
<text text-anchor="middle" x="178.5" y="-197.5" font-family="Helvetica,sans-Serif" font-size="10.00">saveGPSTime</text>
</a>
</g>
</g>
<!-- Node1&#45;&gt;Node69 -->
<g id="edge15" class="edge">
<title>Node1&#45;&gt;Node69</title>
<path fill="none" stroke="midnightblue" d="M38.44,-361.18C44.13,-335 63.18,-262.89 107,-224 112.65,-218.98 119.4,-215.01 126.44,-211.86"/>
<polygon fill="midnightblue" stroke="midnightblue" points="128.12,-214.96 136.16,-208.05 125.57,-208.44 128.12,-214.96"/>
</g>
<!-- Node70 -->
<g id="node17" class="node">
<title>Node70</title>
<g id="a_node17"><a xlink:href="../../d0/d3e/pps-files_8cpp.html#a5ec7f61f0d9d13be935f67a3e9c71f56" target="_top" xlink:title=" ">
<polygon fill="white" stroke="red" points="135.5,-152.5 135.5,-171.5 221.5,-171.5 221.5,-152.5 135.5,-152.5"/>
<text text-anchor="middle" x="178.5" y="-159.5" font-family="Helvetica,sans-Serif" font-size="10.00">saveLastState</text>
</a>
</g>
</g>
<!-- Node1&#45;&gt;Node70 -->
<g id="edge17" class="edge">
<title>Node1&#45;&gt;Node70</title>
<path fill="none" stroke="midnightblue" d="M37.08,-361.43C39.48,-330.42 51.37,-231.73 107,-181 112.41,-176.07 118.97,-172.39 125.88,-169.66"/>
<polygon fill="midnightblue" stroke="midnightblue" points="127.05,-172.96 135.45,-166.49 124.85,-166.31 127.05,-172.96"/>
</g>
<!-- Node71 -->
<g id="node18" class="node">
<title>Node71</title>
<g id="a_node18"><a xlink:href="../../d5/d60/pps-client_8cpp.html#a505a6be9b7669b349cea03a9fe663d74" target="_top" xlink:title=" ">
<polygon fill="white" stroke="black" points="137,-114.5 137,-133.5 220,-133.5 220,-114.5 137,-114.5"/>
<text text-anchor="middle" x="178.5" y="-121.5" font-family="Helvetica,sans-Serif" font-size="10.00">setSyncDelay</text>
</a>
</g>
</g>
<!-- Node1&#45;&gt;Node71 -->
<g id="edge19" class="edge">
<title>Node1&#45;&gt;Node71</title>
<path fill="none" stroke="midnightblue" d="M36.4,-361.08C36.62,-325.84 42.27,-205.4 107,-143 112.52,-137.68 119.37,-133.81 126.61,-131.01"/>
<polygon fill="midnightblue" stroke="midnightblue" points="128.18,-134.18 136.64,-127.81 126.05,-127.51 128.18,-134.18"/>
</g>
<!-- Node39 -->
<g id="node19" class="node">
<title>Node39</title>
<g id="a_node19"><a xlink:href="../../d0/d3e/pps-files_8cpp.html#a19da05b45d1e94170f5fe86decb70bfb" target="_top" xlink:title=" ">
<polygon fill="white" stroke="black" points="137,-76.5 137,-95.5 220,-95.5 220,-76.5 137,-76.5"/>
<text text-anchor="middle" x="178.5" y="-83.5" font-family="Helvetica,sans-Serif" font-size="10.00">sysCommand</text>
</a>
</g>
</g>
<!-- Node1&#45;&gt;Node39 -->
<g id="edge21" class="edge">
<title>Node1&#45;&gt;Node39</title>
<path fill="none" stroke="midnightblue" d="M37.76,-361.35C43.58,-318.13 69.24,-142.91 107,-105 112.6,-99.38 119.67,-95.37 127.16,-92.52"/>
<polygon fill="midnightblue" stroke="midnightblue" points="128.31,-95.83 136.8,-89.5 126.21,-89.15 128.31,-95.83"/>
</g>
<!-- Node72 -->
<g id="node20" class="node">
<title>Node72</title>
<g id="a_node20"><a xlink:href="../../d0/d3e/pps-files_8cpp.html#a6092b615f5e717c843a1948b2a34cf6a" target="_top" xlink:title=" ">
<polygon fill="white" stroke="black" points="138,-38.5 138,-57.5 219,-57.5 219,-38.5 138,-38.5"/>
<text text-anchor="middle" x="178.5" y="-45.5" font-family="Helvetica,sans-Serif" font-size="10.00">TERMhandler</text>
</a>
</g>
</g>
<!-- Node1&#45;&gt;Node72 -->
<g id="edge23" class="edge">
<title>Node1&#45;&gt;Node72</title>
<path fill="none" stroke="midnightblue" d="M37.43,-361.27C42.09,-314.25 64.48,-111.05 107,-67 112.76,-61.03 120.18,-56.88 128.03,-53.99"/>
<polygon fill="midnightblue" stroke="midnightblue" points="129.18,-57.3 137.74,-51.07 127.16,-50.6 129.18,-57.3"/>
</g>
<!-- Node73 -->
<g id="node21" class="node">
<title>Node73</title>
<g id="a_node21"><a xlink:href="../../d0/d3e/pps-files_8cpp.html#afdccb305ab5e5c4f3402fe7969c6737b" target="_top" xlink:title=" ">
<polygon fill="white" stroke="red" points="125.5,-0.5 125.5,-19.5 231.5,-19.5 231.5,-0.5 125.5,-0.5"/>
<text text-anchor="middle" x="178.5" y="-7.5" font-family="Helvetica,sans-Serif" font-size="10.00">writeStatusStrings</text>
</a>
</g>
</g>
<!-- Node1&#45;&gt;Node73 -->
<g id="edge25" class="edge">
<title>Node1&#45;&gt;Node73</title>
<path fill="none" stroke="midnightblue" d="M37.15,-361.43C40.71,-311.28 59.62,-79.31 107,-29 109.76,-26.07 112.91,-23.58 116.33,-21.46"/>
<polygon fill="midnightblue" stroke="midnightblue" points="117.94,-24.56 125.26,-16.91 114.76,-18.33 117.94,-24.56"/>
</g>
<!-- Node35&#45;&gt;Node6 -->
<g id="edge14" class="edge">
<title>Node35&#45;&gt;Node6</title>
<path fill="none" stroke="midnightblue" d="M222.48,-266.49C232.18,-263.01 241.97,-258.31 250,-252 280.6,-227.97 301.63,-186.51 312.01,-162.24"/>
<polygon fill="midnightblue" stroke="midnightblue" points="315.37,-163.28 315.92,-152.7 308.89,-160.63 315.37,-163.28"/>
</g>
<!-- Node69&#45;&gt;Node6 -->
<g id="edge16" class="edge">
<title>Node69&#45;&gt;Node6</title>
<path fill="none" stroke="midnightblue" d="M220.67,-190.66C230.44,-187.97 240.71,-184.73 250,-181 265.81,-174.65 282.6,-165.54 295.72,-157.84"/>
<polygon fill="midnightblue" stroke="midnightblue" points="297.78,-160.68 304.55,-152.53 294.18,-154.68 297.78,-160.68"/>
</g>
<!-- Node70&#45;&gt;Node6 -->
<g id="edge18" class="edge">
<title>Node70&#45;&gt;Node6</title>
<path fill="none" stroke="midnightblue" d="M221.5,-156.3C238.58,-153.98 258.32,-151.3 275.58,-148.96"/>
<polygon fill="midnightblue" stroke="midnightblue" points="276.53,-152.36 285.97,-147.55 275.59,-145.43 276.53,-152.36"/>
</g>
<!-- Node71&#45;&gt;Node6 -->
<g id="edge20" class="edge">
<title>Node71&#45;&gt;Node6</title>
<path fill="none" stroke="midnightblue" d="M220.37,-129.55C237.78,-131.91 258.11,-134.67 275.81,-137.07"/>
<polygon fill="midnightblue" stroke="midnightblue" points="275.51,-140.56 285.89,-138.44 276.45,-133.63 275.51,-140.56"/>
</g>
<!-- Node39&#45;&gt;Node6 -->
<g id="edge22" class="edge">
<title>Node39&#45;&gt;Node6</title>
<path fill="none" stroke="midnightblue" d="M220.3,-95.24C230.18,-97.95 240.59,-101.22 250,-105 265.81,-111.35 282.6,-120.46 295.72,-128.16"/>
<polygon fill="midnightblue" stroke="midnightblue" points="294.18,-131.32 304.55,-133.47 297.78,-125.32 294.18,-131.32"/>
</g>
<!-- Node72&#45;&gt;Node6 -->
<g id="edge24" class="edge">
<title>Node72&#45;&gt;Node6</title>
<path fill="none" stroke="midnightblue" d="M219.16,-54.51C229.68,-57.33 240.69,-61.33 250,-67 274.23,-81.74 295.12,-107.4 307.5,-124.78"/>
<polygon fill="midnightblue" stroke="midnightblue" points="304.92,-127.2 313.47,-133.46 310.69,-123.24 304.92,-127.2"/>
</g>
<!-- Node73&#45;&gt;Node6 -->
<g id="edge26" class="edge">
<title>Node73&#45;&gt;Node6</title>
<path fill="none" stroke="midnightblue" d="M231.68,-19.15C238.22,-21.67 244.52,-24.89 250,-29 282.62,-53.45 303.22,-98.11 312.92,-123.67"/>
<polygon fill="midnightblue" stroke="midnightblue" points="309.73,-125.13 316.42,-133.34 316.31,-122.75 309.73,-125.13"/>
</g>
</g>
</svg>
