<?xml version="1.0" encoding="UTF-8" standalone="no"?>
<!DOCTYPE svg PUBLIC "-//W3C//DTD SVG 1.1//EN"
 "http://www.w3.org/Graphics/SVG/1.1/DTD/svg11.dtd">
<!-- Generated by graphviz version 2.43.0 (0)
 -->
<!-- Title: readPPS_SetTime Pages: 1 -->
<svg width="502pt" height="211pt"
 viewBox="0.00 0.00 502.00 210.56" xmlns="http://www.w3.org/2000/svg" xmlns:xlink="http://www.w3.org/1999/xlink">
<g id="graph0" class="graph" transform="scale(1 1) rotate(0) translate(4 206.56)">
<title>readPPS_SetTime</title>
<polygon fill="white" stroke="transparent" points="-4,4 -4,-206.56 498,-206.56 498,4 -4,4"/>
<!-- Node1 -->
<g id="node1" class="node">
<title>Node1</title>
<g id="a_node1"><a xlink:title=" ">
<polygon fill="#bfbfbf" stroke="black" points="0,-95.5 0,-114.5 102,-114.5 102,-95.5 0,-95.5"/>
<text text-anchor="middle" x="51" y="-102.5" font-family="Helvetica,sans-Serif" font-size="10.00">readPPS_SetTime</text>
</a>
</g>
</g>
<!-- Node2 -->
<g id="node2" class="node">
<title>Node2</title>
<g id="a_node2"><a xlink:href="../../d0/d3e/pps-files_8cpp.html#a6f609d689ebe787455ce220808ca3ba0" target="_top" xlink:title=" ">
<polygon fill="white" stroke="black" points="398,-171.5 398,-190.5 494,-190.5 494,-171.5 398,-171.5"/>
<text text-anchor="middle" x="446" y="-178.5" font-family="Helvetica,sans-Serif" font-size="10.00">bufferStatusMsg</text>
</a>
</g>
</g>
<!-- Node1&#45;&gt;Node2 -->
<g id="edge1" class="edge">
<title>Node1&#45;&gt;Node2</title>
<path fill="none" stroke="midnightblue" d="M58.93,-114.6C72.05,-131.85 102.41,-167.53 138,-181 221.58,-212.64 327.37,-202.83 390.42,-192.3"/>
<polygon fill="midnightblue" stroke="midnightblue" points="391.29,-195.7 400.54,-190.54 390.09,-188.81 391.29,-195.7"/>
</g>
<!-- Node3 -->
<g id="node3" class="node">
<title>Node3</title>
<g id="a_node3"><a xlink:href="../../d5/d60/pps-client_8cpp.html#a591a0ae1642849d67e2e71ee667051b7" target="_top" xlink:title=" ">
<polygon fill="white" stroke="red" points="147.5,-152.5 147.5,-171.5 247.5,-171.5 247.5,-152.5 147.5,-152.5"/>
<text text-anchor="middle" x="197.5" y="-159.5" font-family="Helvetica,sans-Serif" font-size="10.00">detectMissedPPS</text>
</a>
</g>
</g>
<!-- Node1&#45;&gt;Node3 -->
<g id="edge2" class="edge">
<title>Node1&#45;&gt;Node3</title>
<path fill="none" stroke="midnightblue" d="M76.19,-114.54C99.84,-123.87 136.07,-138.16 162.59,-148.62"/>
<polygon fill="midnightblue" stroke="midnightblue" points="161.65,-152.01 172.24,-152.43 164.22,-145.5 161.65,-152.01"/>
</g>
<!-- Node5 -->
<g id="node4" class="node">
<title>Node5</title>
<g id="a_node4"><a xlink:href="../../d0/d3e/pps-files_8cpp.html#a6d6a61f9f40278df5e7ba5fa5b3a9d31" target="_top" xlink:title=" ">
<polygon fill="white" stroke="red" points="293,-152.5 293,-171.5 362,-171.5 362,-152.5 293,-152.5"/>
<text text-anchor="middle" x="327.5" y="-159.5" font-family="Helvetica,sans-Serif" font-size="10.00">writeToLog</text>
</a>
</g>
</g>
<!-- Node1&#45;&gt;Node5 -->
<g id="edge8" class="edge">
<title>Node1&#45;&gt;Node5</title>
<path fill="none" stroke="midnightblue" d="M102.37,-113.13C144.01,-120.14 204.6,-131 257,-143 265.77,-145.01 275.1,-147.39 283.98,-149.77"/>
<polygon fill="midnightblue" stroke="midnightblue" points="283.19,-153.18 293.76,-152.45 285.04,-146.43 283.19,-153.18"/>
</g>
<!-- Node7 -->
<g id="node5" class="node">
<title>Node7</title>
<g id="a_node5"><a xlink:href="../../d5/d60/pps-client_8cpp.html#a3713ce0f6ba3ed9b5ea67c2ef6012b83" target="_top" xlink:title=" ">
<polygon fill="white" stroke="red" points="168,-76.5 168,-95.5 227,-95.5 227,-76.5 168,-76.5"/>
<text text-anchor="middle" x="197.5" y="-83.5" font-family="Helvetica,sans-Serif" font-size="10.00">initialize</text>
</a>
</g>
</g>
<!-- Node1&#45;&gt;Node7 -->
<g id="edge5" class="edge">
<title>Node1&#45;&gt;Node7</title>
<path fill="none" stroke="midnightblue" d="M102.13,-98.41C120.36,-96.01 140.66,-93.34 157.75,-91.09"/>
<polygon fill="midnightblue" stroke="midnightblue" points="158.48,-94.53 167.93,-89.76 157.56,-87.59 158.48,-94.53"/>
</g>
<!-- Node26 -->
<g id="node6" class="node">
<title>Node26</title>
<g id="a_node6"><a xlink:href="../../d5/d60/pps-client_8cpp.html#a8ca1e9c585b03dd3bd4f56e6e18f248c" target="_top" xlink:title=" ">
<polygon fill="white" stroke="red" points="138,-38.5 138,-57.5 257,-57.5 257,-38.5 138,-38.5"/>
<text text-anchor="middle" x="197.5" y="-45.5" font-family="Helvetica,sans-Serif" font-size="10.00">makeTimeCorrection</text>
</a>
</g>
</g>
<!-- Node1&#45;&gt;Node26 -->
<g id="edge6" class="edge">
<title>Node1&#45;&gt;Node26</title>
<path fill="none" stroke="midnightblue" d="M72.26,-95.35C89.53,-87.28 115.13,-75.74 138,-67 143.56,-64.88 149.47,-62.78 155.32,-60.79"/>
<polygon fill="midnightblue" stroke="midnightblue" points="156.63,-64.04 165.02,-57.57 154.43,-57.4 156.63,-64.04"/>
</g>
<!-- Node53 -->
<g id="node7" class="node">
<title>Node53</title>
<g id="a_node7"><a xlink:href="../../d0/d3e/pps-files_8cpp.html#a07ec803a42c0d7933b1709071f0a3182" target="_top" xlink:title=" ">
<polygon fill="white" stroke="black" points="141.5,-0.5 141.5,-19.5 253.5,-19.5 253.5,-0.5 141.5,-0.5"/>
<text text-anchor="middle" x="197.5" y="-7.5" font-family="Helvetica,sans-Serif" font-size="10.00">readPPSTimestamp</text>
</a>
</g>
</g>
<!-- Node1&#45;&gt;Node53 -->
<g id="edge7" class="edge">
<title>Node1&#45;&gt;Node53</title>
<path fill="none" stroke="midnightblue" d="M60.32,-95.44C74.67,-79.51 105.64,-47.48 138,-29 141.7,-26.89 145.67,-24.97 149.74,-23.24"/>
<polygon fill="midnightblue" stroke="midnightblue" points="151.25,-26.41 159.32,-19.54 148.73,-19.88 151.25,-26.41"/>
</g>
<!-- Node3&#45;&gt;Node5 -->
<g id="edge3" class="edge">
<title>Node3&#45;&gt;Node5</title>
<path fill="none" stroke="midnightblue" d="M247.62,-162C259.17,-162 271.41,-162 282.71,-162"/>
<polygon fill="midnightblue" stroke="midnightblue" points="282.78,-165.5 292.78,-162 282.78,-158.5 282.78,-165.5"/>
</g>
<!-- Node5&#45;&gt;Node2 -->
<g id="edge4" class="edge">
<title>Node5&#45;&gt;Node2</title>
<path fill="none" stroke="midnightblue" d="M362.2,-167.5C370.3,-168.82 379.18,-170.27 388.03,-171.71"/>
<polygon fill="midnightblue" stroke="midnightblue" points="387.52,-175.17 397.95,-173.33 388.64,-168.26 387.52,-175.17"/>
</g>
</g>
</svg>
