<?xml version="1.0" encoding="UTF-8" standalone="no"?>
<!DOCTYPE svg PUBLIC "-//W3C//DTD SVG 1.1//EN"
 "http://www.w3.org/Graphics/SVG/1.1/DTD/svg11.dtd">
<!-- Generated by graphviz version 2.40.1 (20161225.0304)
 -->
<!-- Title: doTimeFixups Pages: 1 -->
<svg width="256pt" height="230pt"
 viewBox="0.00 0.00 256.00 230.00" xmlns="http://www.w3.org/2000/svg" xmlns:xlink="http://www.w3.org/1999/xlink">
<g id="graph0" class="graph" transform="scale(1 1) rotate(0) translate(4 226)">
<title>doTimeFixups</title>
<polygon fill="#ffffff" stroke="transparent" points="-4,4 -4,-226 252,-226 252,4 -4,4"/>
<!-- Node1 -->
<g id="node1" class="node">
<title>Node1</title>
<g id="a_node1"><a xlink:title=" ">
<polygon fill="#bfbfbf" stroke="#000000" points="0,-95.5 0,-114.5 78,-114.5 78,-95.5 0,-95.5"/>
<text text-anchor="middle" x="39" y="-102.5" font-family="Helvetica,sans-Serif" font-size="10.00" fill="#000000">doTimeFixups</text>
</a>
</g>
</g>
<!-- Node2 -->
<g id="node2" class="node">
<title>Node2</title>
<g id="a_node2"><a xlink:href="../../d5/d60/pps-client_8cpp.html#a0d5d29d75e6c2ed7c5f9f6ca495cce72" target="_top" xlink:title=" ">
<polygon fill="#ffffff" stroke="#ff0000" points="120,-202.5 120,-221.5 242,-221.5 242,-202.5 120,-202.5"/>
<text text-anchor="middle" x="181" y="-209.5" font-family="Helvetica,sans-Serif" font-size="10.00" fill="#000000">correctFractionalSecond</text>
</a>
</g>
</g>
<!-- Node1&#45;&gt;Node2 -->
<g id="edge1" class="edge">
<title>Node1&#45;&gt;Node2</title>
<path fill="none" stroke="#191970" d="M44.4673,-114.563C55.3249,-132.6826 81.3966,-172.0721 114,-193 117.1892,-195.0471 120.6018,-196.8778 124.1353,-198.5143"/>
<polygon fill="#191970" stroke="#191970" points="123.1191,-201.8794 133.7007,-202.4081 125.7583,-195.396 123.1191,-201.8794"/>
</g>
<!-- Node8 -->
<g id="node3" class="node">
<title>Node8</title>
<g id="a_node3"><a xlink:href="../../d5/d60/pps-client_8cpp.html#a3f6b018eacd7b65348729b5fe8e36d62" target="_top" xlink:title=" ">
<polygon fill="#ffffff" stroke="#ff0000" points="114,-153 114,-183 248,-183 248,-153 114,-153"/>
<text text-anchor="start" x="122" y="-171" font-family="Helvetica,sans-Serif" font-size="10.00" fill="#000000">detectExteralSystemClock</text>
<text text-anchor="middle" x="181" y="-160" font-family="Helvetica,sans-Serif" font-size="10.00" fill="#000000">Change</text>
</a>
</g>
</g>
<!-- Node1&#45;&gt;Node8 -->
<g id="edge2" class="edge">
<title>Node1&#45;&gt;Node8</title>
<path fill="none" stroke="#191970" d="M56.6127,-114.6293C71.6438,-122.6755 93.9462,-134.2112 114,-143 118.7812,-145.0954 123.7993,-147.177 128.8474,-149.1926"/>
<polygon fill="#191970" stroke="#191970" points="127.9498,-152.5993 138.538,-152.974 130.4944,-146.0782 127.9498,-152.5993"/>
</g>
<!-- Node9 -->
<g id="node4" class="node">
<title>Node9</title>
<g id="a_node4"><a xlink:href="../../d5/d60/pps-client_8cpp.html#ad144809048457027dfbddc492b3d70c1" target="_top" xlink:title=" ">
<polygon fill="#ffffff" stroke="#000000" points="132,-114.5 132,-133.5 230,-133.5 230,-114.5 132,-114.5"/>
<text text-anchor="middle" x="181" y="-121.5" font-family="Helvetica,sans-Serif" font-size="10.00" fill="#000000">getNearestSecond</text>
</a>
</g>
</g>
<!-- Node1&#45;&gt;Node9 -->
<g id="edge3" class="edge">
<title>Node1&#45;&gt;Node9</title>
<path fill="none" stroke="#191970" d="M78.178,-110.2421C91.6514,-112.0449 107.0524,-114.1056 121.7608,-116.0736"/>
<polygon fill="#191970" stroke="#191970" points="121.4248,-119.5598 131.8007,-117.417 122.3532,-112.6216 121.4248,-119.5598"/>
</g>
<!-- Node10 -->
<g id="node5" class="node">
<title>Node10</title>
<g id="a_node5"><a xlink:href="../../d5/d60/pps-client_8cpp.html#a2237f5f4d517383c7b5d34dd7864272b" target="_top" xlink:title=" ">
<polygon fill="#ffffff" stroke="#ff0000" points="127.5,-76.5 127.5,-95.5 234.5,-95.5 234.5,-76.5 127.5,-76.5"/>
<text text-anchor="middle" x="181" y="-83.5" font-family="Helvetica,sans-Serif" font-size="10.00" fill="#000000">setClockToGPStime</text>
</a>
</g>
</g>
<!-- Node1&#45;&gt;Node10 -->
<g id="edge4" class="edge">
<title>Node1&#45;&gt;Node10</title>
<path fill="none" stroke="#191970" d="M78.178,-99.7579C90.2802,-98.1386 103.9376,-96.3112 117.2514,-94.5297"/>
<polygon fill="#191970" stroke="#191970" points="117.8866,-97.976 127.3341,-93.1807 116.9582,-91.0379 117.8866,-97.976"/>
</g>
<!-- Node11 -->
<g id="node6" class="node">
<title>Node11</title>
<g id="a_node6"><a xlink:href="../../d5/d60/pps-client_8cpp.html#a576eb54270dcbc8c14f4f253c1ab7432" target="_top" xlink:title=" ">
<polygon fill="#ffffff" stroke="#ff0000" points="128,-38.5 128,-57.5 234,-57.5 234,-38.5 128,-38.5"/>
<text text-anchor="middle" x="181" y="-45.5" font-family="Helvetica,sans-Serif" font-size="10.00" fill="#000000">setClocktoNISTtime</text>
</a>
</g>
</g>
<!-- Node1&#45;&gt;Node11 -->
<g id="edge5" class="edge">
<title>Node1&#45;&gt;Node11</title>
<path fill="none" stroke="#191970" d="M55.5519,-95.4444C70.4728,-87.1163 93.1997,-75.1311 114,-67 119.9119,-64.689 126.2168,-62.5267 132.505,-60.5495"/>
<polygon fill="#191970" stroke="#191970" points="133.7451,-63.8314 142.3135,-57.5998 131.7292,-57.128 133.7451,-63.8314"/>
</g>
<!-- Node12 -->
<g id="node7" class="node">
<title>Node12</title>
<g id="a_node7"><a xlink:href="../../d0/d3e/pps-files_8cpp.html#a19da05b45d1e94170f5fe86decb70bfb" target="_top" xlink:title=" ">
<polygon fill="#ffffff" stroke="#ff0000" points="142.5,-.5 142.5,-19.5 219.5,-19.5 219.5,-.5 142.5,-.5"/>
<text text-anchor="middle" x="181" y="-7.5" font-family="Helvetica,sans-Serif" font-size="10.00" fill="#000000">sysCommand</text>
</a>
</g>
</g>
<!-- Node1&#45;&gt;Node12 -->
<g id="edge6" class="edge">
<title>Node1&#45;&gt;Node12</title>
<path fill="none" stroke="#191970" d="M45.9061,-95.2592C57.8978,-79.0663 84.1642,-46.649 114,-29 119.8031,-25.5672 126.2573,-22.7284 132.8035,-20.3877"/>
<polygon fill="#191970" stroke="#191970" points="133.9466,-23.6967 142.3951,-17.3035 131.8037,-17.0327 133.9466,-23.6967"/>
</g>
</g>
</svg>
