<?xml version="1.0" encoding="UTF-8" standalone="no"?>
<!DOCTYPE svg PUBLIC "-//W3C//DTD SVG 1.1//EN"
 "http://www.w3.org/Graphics/SVG/1.1/DTD/svg11.dtd">
<!-- Generated by graphviz version 2.40.1 (20161225.0304)
 -->
<!-- Title: removeNoise Pages: 1 -->
<svg width="225pt" height="294pt"
 viewBox="0.00 0.00 225.00 294.00" xmlns="http://www.w3.org/2000/svg" xmlns:xlink="http://www.w3.org/1999/xlink">
<g id="graph0" class="graph" transform="scale(1 1) rotate(0) translate(4 290)">
<title>removeNoise</title>
<polygon fill="#ffffff" stroke="transparent" points="-4,4 -4,-290 221,-290 221,4 -4,4"/>
<!-- Node1 -->
<g id="node1" class="node">
<title>Node1</title>
<g id="a_node1"><a xlink:title=" ">
<polygon fill="#bfbfbf" stroke="#000000" points="0,-133.5 0,-152.5 74,-152.5 74,-133.5 0,-133.5"/>
<text text-anchor="middle" x="37" y="-140.5" font-family="Helvetica,sans-Serif" font-size="10.00" fill="#000000">removeNoise</text>
</a>
</g>
</g>
<!-- Node2 -->
<g id="node2" class="node">
<title>Node2</title>
<g id="a_node2"><a xlink:href="../../d0/d3e/pps-files_8cpp.html#ae85b016d394a44411ff7eed01275a7f9" target="_top" xlink:title=" ">
<polygon fill="#ffffff" stroke="#000000" points="120.5,-266.5 120.5,-285.5 206.5,-285.5 206.5,-266.5 120.5,-266.5"/>
<text text-anchor="middle" x="163.5" y="-273.5" font-family="Helvetica,sans-Serif" font-size="10.00" fill="#000000">buildErrorDistrib</text>
</a>
</g>
</g>
<!-- Node1&#45;&gt;Node2 -->
<g id="edge1" class="edge">
<title>Node1&#45;&gt;Node2</title>
<path fill="none" stroke="#191970" d="M40.6675,-152.7819C49.3417,-174.63 73.1939,-227.7659 110,-257 112.2793,-258.8104 114.7446,-260.4559 117.3228,-261.9505"/>
<polygon fill="#191970" stroke="#191970" points="115.9039,-265.1538 126.4166,-266.4711 119.0199,-258.8855 115.9039,-265.1538"/>
</g>
<!-- Node3 -->
<g id="node3" class="node">
<title>Node3</title>
<g id="a_node3"><a xlink:href="../../d0/d3e/pps-files_8cpp.html#abec458c05c4b47e56643bfa1bd52fbb5" target="_top" xlink:title=" ">
<polygon fill="#ffffff" stroke="#000000" points="120,-228.5 120,-247.5 207,-247.5 207,-228.5 120,-228.5"/>
<text text-anchor="middle" x="163.5" y="-235.5" font-family="Helvetica,sans-Serif" font-size="10.00" fill="#000000">buildJitterDistrib</text>
</a>
</g>
</g>
<!-- Node1&#45;&gt;Node3 -->
<g id="edge2" class="edge">
<title>Node1&#45;&gt;Node3</title>
<path fill="none" stroke="#191970" d="M43.7872,-152.5424C55.5555,-168.4429 81.2596,-200.4406 110,-219 113.0792,-220.9884 116.3927,-222.8001 119.8075,-224.4444"/>
<polygon fill="#191970" stroke="#191970" points="118.4239,-227.6592 128.9919,-228.4124 121.2002,-221.2333 118.4239,-227.6592"/>
</g>
<!-- Node4 -->
<g id="node4" class="node">
<title>Node4</title>
<g id="a_node4"><a xlink:href="../../d5/d60/pps-client_8cpp.html#ad889ebd8ff46d7aece2aa6c4c7252ed2" target="_top" xlink:title=" ">
<polygon fill="#ffffff" stroke="#000000" points="110,-190.5 110,-209.5 217,-209.5 217,-190.5 110,-190.5"/>
<text text-anchor="middle" x="163.5" y="-197.5" font-family="Helvetica,sans-Serif" font-size="10.00" fill="#000000">buildRawErrorDistrib</text>
</a>
</g>
</g>
<!-- Node1&#45;&gt;Node4 -->
<g id="edge3" class="edge">
<title>Node1&#45;&gt;Node4</title>
<path fill="none" stroke="#191970" d="M53.7846,-152.5878C68.3752,-160.7149 90.2185,-172.3883 110,-181 114.7361,-183.0618 119.7752,-185.0757 124.7946,-186.9749"/>
<polygon fill="#191970" stroke="#191970" points="123.7447,-190.3176 134.3384,-190.4682 126.1508,-183.7441 123.7447,-190.3176"/>
</g>
<!-- Node5 -->
<g id="node5" class="node">
<title>Node5</title>
<g id="a_node5"><a xlink:href="../../d5/d60/pps-client_8cpp.html#a5443ab59528135706e70991cf1f880d2" target="_top" xlink:title=" ">
<polygon fill="#ffffff" stroke="#000000" points="131,-152.5 131,-171.5 196,-171.5 196,-152.5 131,-152.5"/>
<text text-anchor="middle" x="163.5" y="-159.5" font-family="Helvetica,sans-Serif" font-size="10.00" fill="#000000">clampJitter</text>
</a>
</g>
</g>
<!-- Node1&#45;&gt;Node5 -->
<g id="edge4" class="edge">
<title>Node1&#45;&gt;Node5</title>
<path fill="none" stroke="#191970" d="M74.27,-148.5979C88.8368,-150.7858 105.6288,-153.3079 120.6887,-155.5698"/>
<polygon fill="#191970" stroke="#191970" points="120.3805,-159.0627 130.7895,-157.087 121.4203,-152.1404 120.3805,-159.0627"/>
</g>
<!-- Node6 -->
<g id="node6" class="node">
<title>Node6</title>
<g id="a_node6"><a xlink:href="../../d5/d60/pps-client_8cpp.html#a0b30b41495a6426b5bb557ced936901b" target="_top" xlink:title=" ">
<polygon fill="#ffffff" stroke="#000000" points="116.5,-114.5 116.5,-133.5 210.5,-133.5 210.5,-114.5 116.5,-114.5"/>
<text text-anchor="middle" x="163.5" y="-121.5" font-family="Helvetica,sans-Serif" font-size="10.00" fill="#000000">detectDelaySpike</text>
</a>
</g>
</g>
<!-- Node1&#45;&gt;Node6 -->
<g id="edge5" class="edge">
<title>Node1&#45;&gt;Node6</title>
<path fill="none" stroke="#191970" d="M74.27,-137.4021C84.2112,-135.909 95.1888,-134.2602 105.945,-132.6446"/>
<polygon fill="#191970" stroke="#191970" points="106.7795,-136.0586 116.1487,-131.1121 105.7397,-129.1363 106.7795,-136.0586"/>
</g>
<!-- Node7 -->
<g id="node7" class="node">
<title>Node7</title>
<g id="a_node7"><a xlink:href="../../d5/d60/pps-client_8cpp.html#abfb78affbbc9d2a44febd476606ceba9" target="_top" xlink:title=" ">
<polygon fill="#ffffff" stroke="#000000" points="115.5,-76.5 115.5,-95.5 211.5,-95.5 211.5,-76.5 115.5,-76.5"/>
<text text-anchor="middle" x="163.5" y="-83.5" font-family="Helvetica,sans-Serif" font-size="10.00" fill="#000000">getAvgNoiseLevel</text>
</a>
</g>
</g>
<!-- Node1&#45;&gt;Node7 -->
<g id="edge6" class="edge">
<title>Node1&#45;&gt;Node7</title>
<path fill="none" stroke="#191970" d="M53.7846,-133.4122C68.3752,-125.2851 90.2185,-113.6117 110,-105 114.7361,-102.9382 119.7752,-100.9243 124.7946,-99.0251"/>
<polygon fill="#191970" stroke="#191970" points="126.1508,-102.2559 134.3384,-95.5318 123.7447,-95.6824 126.1508,-102.2559"/>
</g>
<!-- Node8 -->
<g id="node8" class="node">
<title>Node8</title>
<g id="a_node8"><a xlink:href="../../d5/d60/pps-client_8cpp.html#a9173ef2f7e0585cc0edbc7e5a733bc3b" target="_top" xlink:title=" ">
<polygon fill="#ffffff" stroke="#ff0000" points="126.5,-38.5 126.5,-57.5 200.5,-57.5 200.5,-38.5 126.5,-38.5"/>
<text text-anchor="middle" x="163.5" y="-45.5" font-family="Helvetica,sans-Serif" font-size="10.00" fill="#000000">getTimeSlew</text>
</a>
</g>
</g>
<!-- Node1&#45;&gt;Node8 -->
<g id="edge7" class="edge">
<title>Node1&#45;&gt;Node8</title>
<path fill="none" stroke="#191970" d="M43.7872,-133.4576C55.5555,-117.5571 81.2596,-85.5594 110,-67 113.0792,-65.0116 116.3927,-63.1999 119.8075,-61.5556"/>
<polygon fill="#191970" stroke="#191970" points="121.2002,-64.7667 128.9919,-57.5876 118.4239,-58.3408 121.2002,-64.7667"/>
</g>
<!-- Node10 -->
<g id="node9" class="node">
<title>Node10</title>
<g id="a_node9"><a xlink:href="../../d5/d60/pps-client_8cpp.html#ab553045428f9337e754db13f1d0ea647" target="_top" xlink:title=" ">
<polygon fill="#ffffff" stroke="#000000" points="127.5,-.5 127.5,-19.5 199.5,-19.5 199.5,-.5 127.5,-.5"/>
<text text-anchor="middle" x="163.5" y="-7.5" font-family="Helvetica,sans-Serif" font-size="10.00" fill="#000000">setHardLimit</text>
</a>
</g>
</g>
<!-- Node1&#45;&gt;Node10 -->
<g id="edge8" class="edge">
<title>Node1&#45;&gt;Node10</title>
<path fill="none" stroke="#191970" d="M40.6675,-133.2181C49.3417,-111.37 73.1939,-58.2341 110,-29 112.547,-26.977 115.3263,-25.1598 118.2358,-23.529"/>
<polygon fill="#191970" stroke="#191970" points="119.7684,-26.6757 127.2524,-19.1764 116.7252,-20.3718 119.7684,-26.6757"/>
</g>
</g>
</svg>
